<?xml version='1.0' encoding='utf-8'?>
<svg xmlns:xlink="http://www.w3.org/1999/xlink" xmlns="http://www.w3.org/2000/svg" version="1.1" id="Capa_1" x="0px" y="0px" width="2834.646px" height="2834.646px" viewBox="0 0 2834.646 2834.646" enable-background="new 0 0 2834.646 2834.646"> <g> <g> <circle fill="#009FE3" cx="1413.45" cy="1408.636" r="1393.768"/> <path d="M1094.402,2774.128c-752.936-175.923-1222.37-931.604-1046.447-1684.54S979.559-132.783,1732.495,43.14 c752.94,175.924,1222.375,931.605,1046.451,1684.541C2603.024,2480.618,1847.343,2950.052,1094.402,2774.128z M1728.626,59.701 C984.823-114.087,238.305,349.654,64.516,1093.457c-173.79,743.807,289.953,1490.321,1033.756,1664.11 s1490.324-289.948,1664.114-1033.755C2936.174,980.009,2472.428,233.49,1728.626,59.701z"/> </g> <g> <path fill="#3AAA35" d="M1676.496,80.49c-36.728-8.581-11.51,5.057,0.48,31.098c11.991,26.041,78.924,15.858,137.688,29.589 c58.764,13.73,207.139,63.891,264.229,79.812c57.09,15.921-133.085-0.109-186.429-14.934 c-53.344-14.825-31.873,25.9-85.603,23.778c-53.73-2.122-168.352-42.021-205.651-48.154s-0.068-43.913,39.059-34.55 c39.127,9.363-24.917-37.029-36.909-63.063c-11.992-26.034-110.181-25.751-170.501-21.77 c-60.32,3.981-109.79-44.864-109.79-44.864c133.494-8.623,270.494,1.98,407.493,33.99 c54.289,12.685,107.089,28.383,158.265,46.876C1888.826,98.299,1713.224,89.071,1676.496,80.49z"/> <path d="M1745.464,228.312c-26.536-6.2-55.503-14.371-81.057-21.578c-26.762-7.549-51.169-14.433-64.578-16.666 c-15.218-2.464-20.209-9.647-21.824-14.979c-2.064-6.823,0.278-14.292,6.599-21.036c10.002-10.668,30.516-19.814,53.123-16.106 c-3.528-3.971-7.849-8.49-11.487-12.299c-11.844-12.396-25.269-26.444-30.601-38.021c-0.993-2.155-5.409-7.656-24.938-12.218 c-42.394-9.905-115.792-6.046-137.282-4.628c-11.789,0.78-23.992-0.28-36.276-3.15c-45.77-10.694-78.673-42.785-80.052-44.148 l-13.485-13.312l18.911-1.223c137.05-8.853,274.989,2.653,409.978,34.193c53.905,12.595,107.472,28.462,159.225,47.164 l53.963,19.499l-57.304-3.01c-7.195-0.376-176.785-9.368-213.817-18.021c-0.655-0.153-1.283-0.295-1.878-0.43 c3.88,5.294,8.448,11.948,12.016,19.693c2.195,4.768,8.529,8.316,19.36,10.851l0.004,0.001c11.839,2.766,27.722,3.97,44.536,5.246 c21.166,1.607,45.153,3.425,67.998,8.762c35.637,8.327,104.058,29.971,164.434,49.071c39.856,12.608,77.505,24.518,100.139,30.83 c7.574,2.111,19.015,5.304,16.516,15.048c-1.859,7.262-3.09,12.057-84.914,4.49c-36.638-3.388-86.156-9.428-115.235-16.222 c-2.661-0.622-5.116-1.246-7.35-1.867c-1.57-0.435-3.083-0.823-4.522-1.159c-19.375-4.527-23.746-0.09-30.981,7.259 c-7.96,8.08-18.859,19.14-48.163,17.981C1791.801,237.748,1771.826,234.471,1745.464,228.312z M1615.443,175.926 c14.03,3.278,32.359,8.452,53.581,14.438c25.383,7.159,54.149,15.274,80.309,21.386c25.303,5.912,44.228,9.046,57.858,9.583 c21.792,0.862,28.389-5.835,35.375-12.923c11.022-11.185,21.386-19.116,52.175-10.549c2.026,0.563,4.257,1.127,6.666,1.69 c31.942,7.463,92.034,14.421,135.116,17.673c-18.254-5.642-39.123-12.241-60.628-19.044 c-60.074-19.004-128.169-40.547-163.167-48.724c-21.567-5.039-44.862-6.806-65.412-8.367c-17.488-1.327-34.005-2.577-47.121-5.641 l-0.004-0.001c-10.386-2.431-24.897-7.173-30.942-20.303c-3.598-7.816-8.608-14.53-12.636-19.919 c-5.661-7.582-10.548-14.131-6.144-20.862c4.588-7.008,14.05-5.403,27.963-2.152c21.478,5.018,93.226,10.359,147.111,13.824 c-31.957-9.918-64.377-18.73-96.917-26.333c-126.215-29.49-255.029-41.252-383.238-35.015 c12.968,9.319,32.684,21.021,55.626,26.382c10.65,2.488,21.176,3.408,31.288,2.744c28.298-1.869,98.812-5.119,142.269,5.035 c20.01,4.675,31.952,11.764,36.513,21.66c4.148,9.002,17.068,22.524,27.453,33.393c17.193,17.99,26.663,27.904,21.344,37.219 c-4.698,8.228-16.218,5.536-21.138,4.386l-0.004-0.001c-16.606-3.88-32.245,1.753-40.04,8.562 c-3.787,3.307-4.442,5.725-4.404,6.147c0.213,0.331,2.73,2.13,8.295,3.077C1606.215,173.885,1610.535,174.779,1615.443,175.926z"/> </g> <g> <path fill="#3AAA35" d="M743.749,186.293c-85.651,46.964-166.303,102.83-240.483,166.681c0,0,22.379,22.494,75.174,17.565 c52.795-4.929,80.621,19.648,89.751,57.931s37.528,60.412,60.709,60.664c23.181,0.252,53.295,15.035,35.171,26.293 c-18.124,11.258-9.589,41.656-5.985,42.499c3.605,0.842-39.256,29.561-27.265,55.602c11.991,26.041-14.394,94.759,5.263,143.249 s21.441,85.057,0.869,95.743c-20.572,10.686-2.06,64.073,33.524,77.551c35.583,13.478,52.723,17.483,66.498,80.092 s59.473,99.108,52.791,61.396c-6.682-37.712-39.954-138.444-12.7-111.418c27.254,27.025,132.013,175.446,114.369,217.803 c-17.643,42.357-25.24,63.821,39.473,107.345c64.714,43.524,135.612,104.782,181.044,98.215 c45.431-6.567,69.992-23.272,58.764,13.73c-11.228,37.003,47.124,63.547,83.852,72.129c36.728,8.581,25.993,6.073,32.653,51.526 c6.66,45.453,17.767,40.302,46.206,52.111c28.44,11.809,51.117,58.423,64.824,77.118c13.707,18.696,33.226-20.641,51.418,12.014 s-5.904,91.579-38.559,109.771c-32.655,18.192-77.803,56.704-71.442,73.684s13.295,31.51,1.373,49.382 c-11.922,17.872-22.22,61.945-5.08,65.949s-3.936,61.052,19.885,102.769c23.821,41.716,35.789,145.217,83.042,164.004 s70.343,52.586,40.205,115.263c-30.138,62.677-88.009,67.23-78.307,103.066s12.128,113.867-28.032,119.977 c-40.16,6.11-54.119,10.595-62.7,47.322c-8.581,36.728-18.536,24.073-50.137,70.915s-29.21,89.997-10.749,116.909 c0,0,47.157,2.903,91.312,1.333c0,0,7.164-61.594,56.024-88.911c48.86-27.317,177.349-79.925,233.344-87.499 c55.995-7.574,58.215-61.281,94.782-63.066c36.568-1.785,86.842,15.126,101.304-35.72s26.385-68.718,79.931-76.864 c53.547-8.146,65.401-69.931,102.7-63.798c37.3,6.133,60.16-14.348,91.602-71.555c31.442-57.208,48.833-76.384,83.524-81.189 c34.691-4.805,101.716-48.535,59.291-110.091c-42.425-61.556-39.885-94.531-111.464-108.673 c-71.579-14.142-59.565-65.561-83.569-40.183c-24.005,25.377-51.922,34.348-49.954,3.821 c1.968-30.526,40.092-50.022,60.824-50.343s-9.826-68.459-21.961-71.781c-12.135-3.322-32.295-5.45-54.652-31.331 c-22.357-25.881-39.496-29.886-60.801-27.117s-6.11-40.16-53.112-82.128c-47.002-41.968-74.096-58.627-103.89-52.678 c-29.794,5.95-47.986-26.705-59.817-42.38s-36.407,12.151-40.412,29.29s-12.09,30.743-17.67-6.711 c-5.579-37.454-52.993-66.608-84.344-42.946s-66.545,74.828-82.86,45.194c-16.316-29.634-56.316-13.158-89.199-49.245 c-32.883-36.087-32.219-72.082-15.72-109.542c16.499-37.46,24.249-50.347-10.439-44.647c-34.687,5.7-51.897,13.048-69.688-21.324 s-12.322-35.677,12.415-53.136c24.737-17.46,32.906-41.373,19.611-72.883c-13.295-31.51-62.677-30.137-80.801-18.879 s12.883,44.325-12.014,51.419c-24.897,7.094-108.146-12.357-126.407-88.925c-18.26-76.567,8.376-168.466,66.98-165.102 c58.604,3.364,76.796,36.019,97.94,22.884s36.659-35.332,52.082-23.981c15.423,11.35,62.866-19.122,64.728,13.711 c1.862,32.833,42.114-6.823,63.647,44.687c21.533,51.51,52.86,105.309,67.23,88.009s17.643-42.357,15.858-78.924 c-1.785-36.567-27.734-58.124,24.508-71.739c52.242-13.615,89.062-38.581,103.112-76.613 c14.051-38.032,41.076-65.286,64.577-44.302s23.684-46.11,52.654-26.43s118.535-65.263,128.81-31.876 c10.274,33.387,17.129,26.154,77.168,12.322c60.04-13.832,70.657-37.173,30.909-43.878c-39.748-6.705-51.418-12.014-47.002-41.968 c4.417-29.954-10.595-54.119-28.146-45.309c-17.552,8.81-21.693-61.876,41.304-11.007c62.997,50.87,139.967,52.99,134.549,20.923 c-5.418-32.067-30.715-1.161-51.442-45.069c-20.727-43.908-63.061-139.011-93.587-140.979 c-30.526-1.968-38.604-11.602-60.961-37.483c-22.357-25.881-38.421-78.696-75.56-74.462c-37.14,4.233-54.027-22.952-75.492-30.549 s-53.387,18.512-46.133,53.775c7.254,35.263,21.121,64.325-0.755,69.542c-21.876,5.217-15.927,35.011-40.252,39.656 c-24.325,4.645-17.3-14.371-48.306-47.437c-31.007-33.066-37.78-37.231-74.508-45.812s0.252-23.181-61.693-45.401 s-127.482-40.115-106.498-63.616c20.984-23.501,42.609-5.538,60.732-16.796c18.124-11.258,78.327-41.089,110.296-15.544 c31.969,25.545,63.388,45.797,74.898,40.739c11.51-5.057-11.662-18.218-16.106-42.496s19.309-26.474,41.758-34.14 s31.762-36.476,68.078-15.08c36.316,21.396,65.446,51.442,93.524,52.838c28.078,1.396,61.213,14.302,29.13,30.046 s11.007,41.304,38.512,45.149c27.506,3.844,90.091,67.529,87.894,43.776c-2.197-23.753,6.453-16.567,33.959-12.723 c27.506,3.845,36.407-12.151,11.19-25.789c-25.217-13.639-92.065-92.234-119.682-95.602 c-27.617-3.368-70.546-18.563-107.594-47.877c-37.048-29.314-75.08-43.364-89.611-36.43s-42.738-15.15-70.991-21.751 c-28.253-6.601-39.812,16.52-46.927-0.636c-7.115-17.156-69.152-5.829-39.038,8.954c30.114,14.783,46.793,49.666,26.452,44.913 c-20.342-4.753-73.317,0.945-93.957-32.282c-20.641-33.227-22.746-90.526-52.128-97.391c-29.382-6.865-47.917,17.208-44.417,46.43 c3.501,29.222,11.167,51.67-24.417,38.192c-35.583-13.478-60.32,3.981-89.13-5.332c-28.81-9.314-84.353-27.456-58.206-44.586 c26.147-17.13,63.269-42.025,6.31-47.587c-56.959-5.562-128.309,34.575-153.114,8.122s-154.484-90.321-131.235-46.156 c23.249,44.165,74.256,68.993,29.771,71.51s-268.658-44.934-314.998-18.373"/> <path d="M1344.506,2809.377l-2.347-3.422c-18.188-26.508-24.925-73.664,10.714-126.483c14.273-21.157,24.428-30.75,31.836-37.743 c8.789-8.308,12.804-12.094,17.068-30.346c10.018-42.875,29.696-47.709,69.707-53.796c6.507-0.987,11.724-4.629,15.961-11.118 c14.624-22.44,12.382-71.463,5.136-98.228c-6.456-23.835,10.568-37.271,28.594-51.497c16.241-12.826,36.462-28.782,50.252-57.472 c12.805-26.626,15.929-48.76,9.283-65.791c-6.221-15.934-20.927-28.325-44.961-37.88c-35.12-13.971-51.642-66.006-66.218-111.916 c-6.947-21.877-13.513-42.54-21.063-55.774c-14.083-24.662-13.754-53.7-13.517-74.896c0.099-8.82,0.231-20.771-1.522-23.961 c-5.745-1.547-10.233-5.768-12.679-11.943c-7.123-18.021,3.068-51.637,13.217-66.859c8.279-12.401,5.379-21.598-0.909-38.12 l-1.35-3.565c-10.748-28.675,57.739-74.331,75.268-84.093c28.364-15.802,51.396-69.264,35.268-98.202 c-6.556-11.761-10.213-10.236-20-6.195c-7.807,3.229-20.889,8.666-30.845-4.93c-3.422-4.663-7.166-10.646-11.5-17.577 c-12.873-20.567-30.504-48.731-49.731-56.72c-4.75-1.971-9.001-3.451-12.814-4.781c-21.808-7.603-32.554-13.073-38.546-53.949 c-1.545-10.56-2.19-18.749-2.661-24.726c-0.537-6.807-0.961-12.185-2.226-13.338c-2.124-1.933-10.162-3.811-21.285-6.41 c-30.365-7.095-71.107-24.528-85.98-50.312c-6.071-10.518-7.438-21.472-4.075-32.565c2.258-7.438,2.432-10.847,2.329-12.231 c-3.672-0.491-13.581,1.735-21.672,3.55c-8.289,1.862-18.608,4.18-30.065,5.836c-39.199,5.676-90.893-31.347-145.617-70.532 c-13.669-9.786-27.805-19.911-41.388-29.046c-68.367-45.98-61.617-71.969-42.577-117.67 c14.095-33.846-72.911-165.193-108.104-203.874c1.975,14.652,8.517,40.396,12.849,57.445c4.076,16.043,7.924,31.201,9.807,41.828 c3.542,19.99-6.136,24.146-10.46,25.004c-19.689,3.932-48.93-37.247-59.011-83.087c-12.225-55.551-25.309-60.471-56.93-72.354 l-4.275-1.613c-27.606-10.454-46.156-41.873-47.51-64.985c-0.768-13.121,4.001-23.349,13.077-28.063 c15.098-7.844,13.246-40.415-4.828-85.001c-11.896-29.349-8.25-63.824-5.032-94.238c2.146-20.281,4.17-39.436-0.073-48.652 c-11.474-24.913,13.742-49.326,24.515-59.755c-1.048-2.594-1.874-5.738-2.48-9.423c-2.872-17.454,2.532-32.297,14.452-39.698 c0.364-0.226,0.66-0.434,0.898-0.613c-3.611-3.76-17.487-9.8-31.671-9.954c-25.696-0.286-58.575-23.924-68.893-67.197 c-9.127-38.279-36.259-55.581-80.69-51.439c-56.123,5.256-80.958-18.992-81.99-20.031l-6.447-6.478l6.928-5.963 c74.395-64.039,155.797-120.459,241.941-167.698l0.011,0.024c33.355-18.878,140.839-4.19,227.225,7.611 c41.391,5.658,77.133,10.543,91.363,9.736c4.144-0.234,6.792-0.656,8.437-1.035c-2.406-3.683-7.887-9.68-12.478-14.701 c-10.47-11.452-23.498-25.702-32.774-43.322c-7.619-14.474-1.972-21.47,2.073-24.349c23.353-16.657,125.042,41.701,142.889,60.727 c10.812,11.523,38.754,5.281,68.344-1.335c25.086-5.605,53.519-11.958,79.395-9.43c15.598,1.534,33.906,4.971,37.175,18.246 c3.719,15.107-14.911,28.705-39.652,44.918c-2.572,1.68-3.033,2.69-3.036,2.702c1.215,3.469,12.428,11.56,59.199,26.675 c11.518,3.719,22.361,2.517,34.966,1.126c15.646-1.721,33.374-3.685,54.561,4.348c12.385,4.68,15.511,3.253,15.54,3.239 c1.587-2.303-0.104-14.317-1.218-22.27c-0.459-3.271-0.94-6.688-1.361-10.198c-2.239-18.688,3.478-36.165,15.298-46.75 c10.391-9.307,24.418-12.493,39.496-8.971c22.998,5.374,31.457,31.548,40.409,59.262c4.81,14.892,9.786,30.293,17.008,41.924 c13.432,21.623,45.032,24.145,68.086,25.997c6.885,0.551,12.976,1.036,18.018,1.959c-3.146-7.067-13.149-20.41-29.571-28.468 c-12.076-5.93-13.608-12.914-12.768-17.732c2.041-11.675,18.896-14.773,26.048-15.562c14.694-1.624,32.223,1.06,37.361,13.45 c0.18,0.434,0.342,0.779,0.48,1.046c1.288-0.347,3.289-1.12,4.854-1.723c7.746-2.987,19.448-7.502,35.674-3.711 c12.263,2.865,24.333,8.367,34.984,13.223c11.87,5.404,25.353,11.539,30.409,9.135c18.839-8.983,59.355,6.423,98.552,37.439 c36.937,29.226,78.727,43.122,103.35,46.103c17.84,2.117,43.024,24.819,79.23,59.11c16.877,15.985,34.327,32.513,43.458,37.452 c21.458,11.601,20.135,23.944,18.569,28.712c-3.46,10.538-16.868,15.511-34.979,12.981c-5.441-0.764-10.164-1.65-14.224-2.411 c-3.594-0.678-7.891-1.486-10.293-1.608c-0.124,1.259-0.162,3.54,0.208,7.541c0.739,8.044-3.285,11.615-5.755,13.025 c-9.053,5.202-20.412-2.462-45.243-20.289c-16.038-11.512-35.986-25.852-46.543-27.313c-21.369-3.002-53.89-17.99-56.987-37.326 c-0.891-5.568-0.006-16.072,15.899-23.882c4.766-2.332,6.933-4.124,7.879-5.105c-3.429-3.027-16.028-7.941-33.682-8.812 c-21.242-1.066-42.097-15.938-64.145-31.694c-10.611-7.583-21.579-15.425-33.266-22.309c-20.258-11.918-28.329-5.771-40.543,3.579 c-5.757,4.42-12.291,9.426-20.474,12.221c-3.716,1.268-7.476,2.394-11.135,3.492c-21.86,6.546-27.086,9.713-25.007,21.072 c1.793,9.774,7.44,17.758,11.979,24.174c4.75,6.717,8.852,12.519,7,19.207c-0.717,2.595-2.659,6.163-7.811,8.43 c-5.51,2.414-20.11,8.874-83.634-41.884c-26.732-21.366-81.616,4.391-100.501,16.126c-9.692,6.021-19.817,5.612-28.746,5.248 c-11.438-0.464-20.47-0.826-30.126,9.987c-1.403,1.57-1.999,2.808-1.772,3.679c2.81,10.822,47.179,26.199,79.576,37.427 c8.323,2.883,16.808,5.825,25.223,8.844c35.386,12.69,42.134,23.993,46.391,35.413c1.83,4.922,2.591,6.959,14.365,9.71 c38.504,8.996,46.598,13.958,78.772,48.275c13.067,13.935,19.704,25.459,24.552,33.875c6.9,11.969,7.3,12.664,15.956,11.024 c8.016-1.53,10.952-6.762,15.444-15.878c4.444-9.02,9.974-20.243,24.435-23.696c3.143-0.75,3.867-1.949,4.144-2.405 c3.159-5.236-0.704-20.308-4.437-34.884c-1.792-7.002-3.711-14.486-5.312-22.267c-4.167-20.272,2.452-40.315,17.711-53.609 c12.037-10.491,27.205-14.311,39.587-9.892c8.255,2.918,15.375,7.959,22.906,13.287c13.399,9.484,27.242,19.294,48.798,16.825 c31.789-3.599,49.595,25.565,65.301,51.31c5.987,9.816,11.649,19.091,17.648,26.045c21.915,25.375,28.37,32.823,55.076,34.555 c30.656,1.905,63.077,65.463,96.11,136.002l4.619,9.833c9.149,19.386,17.891,20.917,27.076,22.559 c9.104,1.624,21.532,3.799,25.062,24.72c1.773,10.477-2.602,19.642-12.005,25.137c-24.974,14.615-85.699,2.815-136.271-38.027 c-22.966-18.542-33.906-18.147-36.742-14.989c-2.548,2.837-2.244,8.289-1.22,10.951c7.827-3.241,16.126-2.296,23.027,2.694 c12.556,9.078,18.8,30.092,15.525,52.284c-3.17,21.526-0.671,25.5,40.004,32.343c24.911,4.196,30.431,14.333,30.666,22.085 c0.627,21.078-37.994,33.149-61.077,38.467c-8.004,1.844-15.059,3.568-21.292,5.097c-39.797,9.732-54.656,13.359-65.915-23.204 c-0.404-1.335-0.794-1.494-0.98-1.572c-6.715-2.831-30.553,10.024-46.324,18.466c-29.405,15.733-59.818,31.947-78.157,19.518 c-1.418-0.975-4.088-2.541-5.858-2.119c-3.492,0.821-7.805,8.474-10.953,14.066c-5.055,8.971-10.285,18.252-19.902,19.847 c-5.609,0.941-11.281-1.101-16.818-6.057c-5.006-4.453-10.006-5.975-15.328-4.66c-12.568,3.127-26.545,21.011-35.616,45.563 c-14.518,39.286-51.17,66.839-108.944,81.896c-30.022,7.824-28.281,14.682-23.097,35.052c2.073,8.138,4.42,17.364,4.943,28.044 c2.072,42.489-3.088,67.051-17.812,84.773c-4.056,4.877-9.575,7.071-15.541,6.18c-24.586-3.979-54.487-68.611-66.078-96.345 c-9.828-23.51-22.418-23.88-35.774-24.276c-10.854-0.319-27.252-0.799-28.523-23.209c-0.124-2.208-0.592-5.093-2.12-6.29 c-3.761-2.973-15.48-0.777-24.046,0.807c-12.802,2.36-26.032,4.821-35.11-1.863c-4.899-3.614-10.187-0.547-24.643,11.119 c-5.323,4.295-11.352,9.167-17.911,13.238c-14.375,8.93-27.371,2.704-42.437-4.5c-14.44-6.909-32.412-15.508-60.477-17.115 c-14.445-0.829-27.152,5.177-37.769,17.859c-23.932,28.589-32.533,86.113-20.45,136.779c8.585,35.999,32.257,56.356,50.603,67.094 c26.813,15.693,54.759,18.594,65.196,15.625c4.084-1.165,5.459-1.556,2.143-16.035c-2.366-10.33-5.942-25.941,7.716-34.429 c12.529-7.78,38.125-12.084,60.805-4.93c15.578,4.957,26.757,14.545,32.316,27.724c14.302,33.889,6.506,62.636-22.538,83.14 l-3.672,2.575c-19.557,13.698-19.557,13.698-6.095,39.702c13.085,25.298,22.537,23.609,50.527,18.62 c3.235-0.579,6.639-1.186,10.226-1.772c14.489-2.388,25.324-2.411,31.141,5.106c7.145,9.242,1.508,21.941-8.72,44.986 l-2.827,6.371c-17.405,39.524-13.016,70.488,14.23,100.387c15.068,16.539,31.63,20.732,47.646,24.786 c16.199,4.105,32.955,8.348,42.719,26.087c2.299,4.174,4.092,4.461,4.689,4.532c8.006,1.214,25.64-15.786,38.517-28.196 c8.863-8.551,18.04-17.386,27.08-24.216c15.046-11.362,34.659-13.363,53.87-5.54c22.901,9.368,40.59,31.077,44.005,54.018 c0.337,2.245,0.668,4.224,0.994,5.967c3.716-15.795,20.044-36.661,35.566-39.946c7.795-1.645,15.051,1.099,19.901,7.532 c1.551,2.051,3.205,4.386,4.974,6.889c10.885,15.352,25.791,36.381,46.39,32.274c34.524-6.909,64.54,12.995,111.216,54.669 c27.963,24.967,35.324,50.182,40.194,66.862c1.485,5.106,3.528,12.094,5.043,13.237c0.012-0.014,0.357,0.041,1.114-0.059 c22.909-2.967,43.279,0.987,68.337,29.995c17.909,20.733,33.888,24.611,45.549,27.447c1.752,0.422,3.39,0.822,4.913,1.237 c15.942,4.365,37.504,53.919,35.014,73.629c-1.372,10.8-8.736,14.759-15.17,14.85c-17.094,0.27-50.831,16.991-52.469,42.397 c-0.389,6.118,0.745,9.478,1.968,10.011c3.389,1.628,16.873-2.829,33.321-20.229c4.686-4.943,10.434-9.945,17.655-9.571 c7.614,0.372,12.233,6.406,17.094,12.761c8.369,10.935,20.96,27.309,56.657,34.507c57.441,11.187,71.035,35.274,91.773,71.528 c6.817,11.92,14.55,25.436,25.04,40.653c20.239,29.375,16.458,53.769,9.72,69.063c-14.206,32.26-52.324,51.155-74.85,54.275 c-30.08,4.169-45.967,19.969-77.237,76.862c-29.481,53.652-55.367,83.268-100.428,75.853c-13.115-2.16-22.092,6.88-36.825,23.035 c-14.691,16.122-32.988,36.178-63.221,40.78c-48.774,7.417-58.852,20.95-73.028,70.784c-13.227,46.5-53.057,44.255-85.061,42.457 c-8.544-0.478-16.617-0.932-24.01-0.57c-12.292,0.599-19.721,8.926-30.817,22.469c-13.142,16.024-29.484,35.964-63.247,40.527 c-53.148,7.197-181.149,59.005-230.333,86.503c-44.543,24.899-51.66,81.892-51.725,82.465l-0.843,7.257l-7.3,0.256 c-44.056,1.569-91.661-1.307-92.141-1.334L1344.506,2809.377z M1537.602,1640.797c6.574,1.536,13.409,6.267,19.503,17.195 c21.063,37.818-6.153,101.449-41.852,121.344c-38.226,21.292-70.537,55.487-67.621,63.264l1.319,3.481 c6.242,16.391,12.694,33.343-0.834,53.609c-8.346,12.505-15.717,40.622-11.554,51.164c0.644,1.626,1.161,1.747,1.331,1.786 c14.475,3.382,14.286,20.616,14.06,40.561c-0.23,20.328-0.512,45.625,11.277,66.271c8.455,14.802,15.278,36.3,22.512,59.063 c13.429,42.315,28.661,90.271,56.292,101.256c28.264,11.234,46.599,27.219,54.517,47.498c8.434,21.611,5.14,48.301-9.791,79.351 c-15.504,32.229-38.362,50.272-55.051,63.446c-18.187,14.367-26.086,21.238-22.707,33.71 c7.999,29.568,11.018,83.838-7.313,111.961c-6.936,10.634-16.24,16.912-27.655,18.645c-40.012,6.087-48.484,9.975-55.698,40.849 c-5.188,22.206-11.097,28.586-21.953,38.842c-7.211,6.809-16.185,15.287-29.414,34.897 c-25.175,37.304-29.894,75.788-13.003,103.904c11.737,0.61,45.793,2.129,79.29,1.291c3.62-18.01,16.804-64.4,59.092-88.043 c51.449-28.76,180.502-80.945,236.354-88.508c27.131-3.664,39.964-19.317,52.37-34.455c11.153-13.606,22.685-27.669,43.141-28.68 c8.289-0.4,17.186,0.101,25.797,0.587c36.237,2.037,58.877,1.024,67.744-30.138c15.558-54.688,30.289-74.34,86.836-82.943 c24.272-3.693,38.984-19.827,53.212-35.427c14.392-15.791,29.276-32.116,52.148-28.358c31.797,5.238,51.905-11.111,82.762-67.256 c30.661-55.781,49.92-79.995,89.81-85.522c18.092-2.501,50.175-18.304,61.615-44.277c7.263-16.485,4.52-34.165-8.162-52.555 c-10.896-15.815-18.809-29.655-25.798-41.863c-20.369-35.605-30.656-53.555-80.307-63.297 c-42.025-8.216-57.535-28.666-66.859-40.847c-1.554-2.035-3.417-4.465-4.642-5.681c-0.792,0.54-2.166,1.643-4.249,3.843 c-15.214,16.094-37.098,30.808-52.466,24.131c-6.155-2.675-13.254-9.484-12.148-26.7c2.187-33.849,41.74-57.099,67.85-58.255 c2.277-10.657-15.583-50.686-23.417-55.373c-0.696-0.124-2.183-0.476-3.764-0.862c-13.114-3.183-32.934-7.998-54.399-32.854 c-20.355-23.547-34.424-26.698-53.273-24.242c-16.725,2.16-20.934-12.421-24.683-25.283 c-4.586-15.705-10.859-37.216-35.189-58.938c-48.488-43.297-71.971-55.614-96.558-50.682 c-31.422,6.261-51.565-22.137-63.597-39.113c-1.667-2.355-3.226-4.553-4.677-6.482c-0.986-1.292-1.531-1.402-2.805-1.133 c-7.635,1.615-20.064,16.632-22.541,27.234c-2.432,10.407-6.898,24.194-17.559,23.759c-10.082-0.394-13.979-12.221-16.805-31.148 c-2.56-17.219-16.077-33.609-33.623-40.783c-7.907-3.242-23.301-7.107-37.177,3.372c-8.23,6.208-17.025,14.686-25.533,22.885 c-19.615,18.907-36.555,35.238-52.855,32.768c-7.143-1.072-12.838-5.498-17.046-13.146c-5.915-10.746-15.526-13.631-32-17.8 c-16.723-4.236-37.528-9.506-56.038-29.817c-31.963-35.078-37.434-72.796-17.217-118.699l2.839-6.419 c4.755-10.717,10.098-22.743,10.44-27.383c-1.639-0.285-5.633-0.493-14.555,0.974c-3.512,0.578-6.836,1.17-10.004,1.735 c-28.891,5.155-49.772,8.881-68.615-27.545c-18.429-35.604-14.285-43.432,11.446-61.452l3.617-2.541 c22.66-15.991,27.958-35.895,16.679-62.626c-3.619-8.581-10.956-14.682-21.804-18.13c-16.444-5.283-37.417-2.589-46.676,3.166 c-2.838,1.763-2.496,5.774-0.111,16.186c2.415,10.559,6.919,30.211-14.058,36.187c-15.948,4.546-48.854,0.021-78.449-17.302 c-21.208-12.413-48.58-35.988-58.56-77.826c-13.443-56.377-3.594-118.735,23.957-151.642 c14.054-16.787,31.96-25.063,51.782-23.924c31.408,1.808,51.885,11.603,66.844,18.756c14.867,7.124,20.174,9.101,26.123,5.396 c5.666-3.52,11.021-7.842,16.203-12.025c13.677-11.033,29.167-23.545,45.406-11.581c3.126,2.261,14.002,0.295,21.938-1.168 c13.695-2.531,27.843-5.14,37.642,2.54c5.234,4.114,8.126,10.405,8.596,18.706c0.37,6.572,0.371,6.824,12.038,7.17 c13.809,0.412,36.912,1.086,50.967,34.717c25.234,60.373,47.062,85.825,52.962,86.091c11.607-14.344,15.632-35.513,13.786-73.309 c-0.436-8.975-2.468-16.959-4.432-24.684c-6.493-25.536-7.772-44.482,35.289-55.698c52.08-13.573,84.807-37.574,97.283-71.334 c11.3-30.589,29.042-51.589,47.458-56.172c10.884-2.71,21.506,0.224,30.759,8.475c1.968,1.76,2.963,1.954,2.953,1.961 c1.627-0.758,5.385-7.427,7.621-11.412c5.216-9.258,11.129-19.747,21.893-22.272c6.166-1.459,12.667,0.098,19.305,4.609 c9.797,6.613,39.17-8.983,60.568-20.447c26.104-13.976,46.824-25.022,60.822-19.198c3.649,1.501,8.478,4.85,10.763,12.296 c6.547,21.251,6.547,21.251,45.615,11.686c6.304-1.542,13.432-3.287,21.517-5.151c37.945-8.74,47.444-19.211,47.911-21.536 c-0.431-0.416-4.598-3.645-16.508-5.669c-37.269-6.273-59.818-12.143-53.995-51.593c2.572-17.466-2.553-31.596-8.673-36.023 c-2.344-1.682-4.51-1.83-7.247-0.444c-7.014,3.521-14.538,1.451-19.184-5.237c-6.274-9.026-6.462-25.414,3.301-34.496 c8.623-8.035,25.81-12.062,58.711,14.511c46.054,37.18,100.054,46.488,117.003,36.578c3.862-2.257,4.318-4.684,3.828-7.625 c-1.543-9.089-3.216-9.377-11.257-10.804c-10.598-1.909-26.584-4.698-39.494-32.044l-4.642-9.881 c-15.975-34.118-58.327-124.74-81.81-126.248c-33.803-2.163-43.992-13.959-66.292-39.768 c-7.478-8.655-13.767-18.968-19.853-28.944c-14.323-23.486-27.8-45.669-48.862-43.269c-28.001,3.192-46.046-9.586-60.543-19.843 c-6.543-4.629-12.718-9.005-18.752-11.136c-6.448-2.295-15.431,0.309-22.736,6.682c-10.578,9.212-15.146,23.179-12.226,37.362 c1.54,7.498,3.393,14.715,5.124,21.468c5.232,20.423,9.367,36.557,2.523,47.894c-3.105,5.15-8.074,8.569-14.757,10.163 c-6.376,1.521-9.014,6.315-13.123,14.668c-4.553,9.23-10.782,21.875-27.51,25.07c-20.569,3.901-26.729-6.817-33.888-19.247 c-4.677-8.124-10.494-18.229-22.217-30.728c-29.922-31.914-35.169-35.153-70.236-43.346 c-19.137-4.471-23.159-11.547-26.436-20.333c-2.365-6.356-5.314-14.268-36.194-25.346c-8.356-2.997-16.782-5.917-25.047-8.777 c-54.522-18.896-85.607-30.5-90.469-49.221c-1.202-4.617-1.211-11.715,5.547-19.286c15.004-16.804,30.806-16.165,43.5-15.651 c7.73,0.314,13.833,0.563,19.086-2.7c3.187-1.98,78.606-48.14,120.093-14.969c35.968,28.739,53.398,36.756,61.031,38.906 c-0.378-0.536-0.742-1.06-1.089-1.546c-5.219-7.372-12.361-17.467-14.824-30.941c-5.098-27.858,18.165-34.823,36.854-40.425 c3.465-1.033,7.005-2.094,10.517-3.295c5.551-1.893,10.444-5.644,15.629-9.622c13.089-10.032,29.405-22.483,59.515-4.737 c12.338,7.271,23.622,15.331,34.533,23.129c20.826,14.891,38.825,27.718,55.099,28.544c17.029,0.845,46.751,6.604,50.088,22.764 c1.828,8.891-4.106,16.77-17.639,23.407c-4.248,2.086-6.839,4.414-6.595,5.925c1.157,7.276,23.331,20.448,42.54,23.166 c14.762,2.153,34.731,16.438,54.107,30.346c7.662,5.496,17.361,12.456,23.785,16.132c-0.039-6.806,1.222-12.055,5.283-15.749 c6.098-5.551,14.129-4.041,25.239-1.953c3.84,0.722,8.3,1.56,13.437,2.278c11.272,1.576,16.03-1.009,16.608-1.731 c-0.34-0.152-2.545-3.78-10.632-8.151c-11.114-6.012-27.775-21.793-47.069-40.065c-23.573-22.329-56.228-52.985-69.595-54.577 c-26.778-3.285-72.134-18.231-111.843-49.648c-37.528-29.692-71.525-39.784-80.67-35.427c-12.246,5.837-27.327-1.046-44.791-9.007 c-10.412-4.748-21.183-9.657-31.801-12.138c-11.123-2.599-18.86,0.386-25.684,3.017c-7.1,2.737-20.312,7.859-27.168-8.68 c-0.172-0.339-1.945-1.951-7.007-2.805c-7.116-1.245-14.965-0.316-19.972,1.094c24.75,12.349,43.946,38.265,38.842,52.556 c-1.973,5.526-7.873,10.539-18.527,8.049c-4.25-0.993-10.65-1.503-18.067-2.098c-25.164-1.999-63.211-5.051-81.175-33.976 c-8.324-13.394-13.623-29.803-18.747-45.669c-7.433-23.01-14.456-44.743-28.094-47.929c-9.655-2.256-18.052-0.5-24.281,5.081 c-7.689,6.885-11.337,18.867-9.754,32.055c0.405,3.395,0.87,6.697,1.312,9.858c2.296,16.36,4.282,30.49-5.092,37.98 c-8.635,6.899-21.676,3.259-32.098-0.682c-17.331-6.561-31.587-5.005-46.673-3.345c-13.326,1.466-27.132,2.977-42.059-1.849 c-43.191-13.959-68.616-25.17-70.766-41.172c-0.663-4.918,0.623-12.139,10.511-18.617c7.798-5.107,31.447-20.603,32.407-26.92 c-0.195,0.048-1.982-1.427-8.657-2.986c-3.255-0.76-7.661-1.521-13.601-2.103c-23.171-2.263-49.026,3.516-74.031,9.101 c-35.956,8.037-67.008,14.98-84.462-3.629c-19.652-20.953-100.29-60.333-118.81-58.793c0.266,0.723,0.672,1.667,1.305,2.863 c8.254,15.68,20.463,29.035,30.275,39.766c12.762,13.962,21.195,23.181,17.126,33.172c-3.538,8.682-14.46,10.441-24.676,11.022 c-15.867,0.898-50.626-3.855-94.624-9.867c-75.056-10.254-188.473-25.753-216.625-9.616l-3.725-6.503l3.587,6.548 c-81.923,44.926-159.509,98.258-230.757,158.615c9.784,5.446,29.19,12.636,60.574,9.71c52.647-4.904,87.731,17.961,98.814,64.423 c8.019,33.623,33.056,53.92,52.531,54.138c17.683,0.183,44.407,8.389,48.578,23.277c0.94,3.367,1.946,11.929-9.014,18.741 c-3.287,2.042-5.397,5.25-6.453,9.805c-1.613,6.974-0.119,14.453,1.094,17.93l1.739,0.406l1.553,5.032 c1.504,5.443-1.714,8.558-7.048,13.721c-8.178,7.918-27.327,26.457-20.895,40.427c6.198,13.46,4.038,33.891,1.533,57.551 c-3.005,28.43-6.416,60.657,3.882,86.059c22.65,55.863,21.549,93.68-3.091,106.484c-4.062,2.112-4.108,9.078-3.936,11.975 c1.047,17.893,15.985,42.286,36.555,50.077l4.233,1.594c36.03,13.544,53.952,22.797,67.56,84.619 c8.288,37.69,27.499,62.1,36.589,68.42c-0.068-0.988-0.212-2.211-0.476-3.71c-1.774-10.017-5.551-24.877-9.546-40.611 c-15.387-60.558-18.039-77.824-7.386-83.91c5.446-3.124,11.709-1.242,18.588,5.58c22.551,22.363,136.904,177.48,116.233,227.115 c-16.696,40.087-23.609,56.679,36.368,97.014c13.792,9.277,28.031,19.474,41.803,29.335 c49.573,35.495,100.821,72.201,133.28,67.526c10.804-1.565,20.348-3.705,28.772-5.596c18.412-4.145,30.577-6.863,38.093,1.212 c6.674,7.188,4.378,18.693,1.254,28.998c-1.975,6.502-1.147,12.758,2.527,19.13c11.314,19.61,46.873,35.649,75.119,42.249 c30.571,7.143,34.556,9.05,36.596,34.975c0.477,6.06,1.07,13.596,2.537,23.597c4.762,32.487,9.99,34.31,27.318,40.354 c4.088,1.428,8.641,3.021,13.733,5.136c24.247,10.066,43.533,40.89,57.624,63.4c4.161,6.647,7.749,12.385,10.795,16.542 c1.678,2.272,2.026,2.827,10.652-0.731C1521.147,1642.129,1529.152,1638.823,1537.602,1640.797z"/> </g> <g> <path fill="#3AAA35" d="M2036.723,262.779c-33.249-11.563-27.437,40.068-9.153,39.176c18.284-0.892,45.377,15.767,75.652,40.915 c30.274,25.149,35.904,34.211,87.162,35.858c51.258,1.648,78.42,62.22,98.741,74.714s1.213,39.016,28.61,53.164 c27.397,14.148,12.671,13.289-3.004,25.12s11.579,38.856,26.178,75.835c14.599,36.979,33.203,56.819,53.865,56.802 c20.661-0.017,42.748,38.072,52.862,61.092s33.547,0.092,47.616-15.916s34.1-24.381,48.697,1.561 c14.596,25.942,20.896,21.083,40.896,12.845c20-8.238,59.12,30.157,59.12,30.157l-2.779-5.244 c-95.752-178.016-229.767-334.874-393.933-457.519C2247.251,291.341,2189.134,315.783,2036.723,262.779z"/> <path d="M2677.197,798.563l-39.188-38.39c-6.842-6.707-27.866-24.872-42.729-28.344c-3.024-0.707-5.513-0.713-7.202-0.02 l-3.656,1.525c-9.333,3.917-16.708,7.012-24.738,5.136c-9.647-2.254-16.231-10.905-23.149-23.198 c-2.676-4.753-7.027-10.694-12.599-11.996c-6.251-1.461-14.383,2.869-22.296,11.877c-19.596,22.297-33.896,30.938-46.373,28.023 c-4.642-1.085-11.088-4.446-15.413-14.295c-11.131-25.324-29.419-52.605-42.843-55.742c-0.776-0.181-1.523-0.271-2.231-0.27 c-24.29,0.047-45.612-21.224-61.78-62.183c-4.859-12.307-11.296-23.665-16.972-33.682c-11.627-20.498-22.599-39.857-6.426-52.064 c4.016-3.027,7.88-5.258,11.029-7.055c-1.656-0.98-3.86-2.202-6.798-3.72c-18.804-9.711-20.516-24.975-21.775-36.121 c-1.017-9.043-1.804-13.921-7.39-17.354c-7.524-4.628-14.934-13.68-23.52-24.163c-15.26-18.639-34.255-41.839-59.938-47.839 c-3.631-0.848-7.363-1.337-11.095-1.458c-16.463-0.529-28.153-1.781-37.897-4.058c-19.974-4.667-30.555-13.616-46.586-27.165 c-2.443-2.063-5.034-4.259-7.849-6.593c-26.282-21.832-47.081-34.649-61.814-38.091c-2.96-0.692-5.646-0.982-7.983-0.872 c-1.665,0.08-3.327-0.069-4.936-0.445c-14.354-3.354-21.381-23.536-17.848-38.658c1.522-6.514,4.87-11.684,9.678-14.961 c4.358-2.956,12.401-5.882,24.636-1.638c26.209,9.117,51.338,16.502,74.684,21.957c91.645,21.413,129.45,6.922,129.826,6.771 l4.423-1.776l3.893,2.828c162.682,121.538,299.728,280.708,396.329,460.305L2677.197,798.563z M2400.881,656.577 c27.349,6.39,50.232,55.652,54.542,65.46c0.679,1.545,2.065,4.192,3.715,4.578c1.359,0.317,9.163,0.713,29.725-22.685 c12.371-14.076,26.2-20.192,38.944-17.214c9.3,2.173,17.227,8.976,23.555,20.219c5.212,9.264,9.314,14.303,12.193,14.976 c2.66,0.622,7.794-1.53,14.29-4.255l3.761-1.569c9.521-3.924,22.806-0.522,35.397,6.689 c-93.509-163.814-221.281-309.129-371.331-421.99c-13.433,3.731-55.129,11.224-135.34-7.518 c-23.928-5.591-49.632-13.144-76.393-22.45c-0.914-0.32-1.793-0.577-2.625-0.771c-2.127-0.497-5.042-0.833-6.857,0.402 c-1.632,1.107-2.387,3.463-2.692,4.769c-1.948,8.337,2.366,17.575,5.156,18.227c4.15-0.169,8.415,0.265,12.919,1.317 c17.572,4.106,40.081,17.705,68.814,41.569c2.85,2.367,5.485,4.595,7.963,6.688c15.638,13.222,23.486,19.857,39.473,23.593 c8.499,1.986,19.479,3.136,34.571,3.622c4.85,0.157,9.699,0.791,14.422,1.894c31.311,7.316,53.226,34.08,69.229,53.626 c7.292,8.906,14.185,17.326,19.271,20.45c12.901,7.931,14.279,20.136,15.382,29.941c1.132,10.084,1.953,17.372,12.676,22.909 c13.355,6.898,19.734,11.497,19.895,18.984c0.153,7.412-6.096,10.98-12.138,14.429c-2.932,1.673-6.258,3.569-9.541,6.051 c-4.275,3.223,3.13,16.278,10.97,30.1c5.955,10.503,12.699,22.407,17.999,35.823c13,32.945,29.338,51.422,45.942,51.422 C2396.776,655.86,2398.835,656.099,2400.881,656.577z"/> </g> <g> <path fill="#3AAA35" d="M1683.452,1417.487c0,0-5.013,21.457-22.252,15.088c-17.239-6.369-24.859-10.49-25.101-26.152 s13.595-14.77,26.443-6.306C1675.389,1408.581,1683.452,1417.487,1683.452,1417.487z"/> <path d="M1661.716,1441.599c-1.116-0.261-2.263-0.606-3.465-1.048c-18.299-6.761-30.324-12.782-30.655-33.996 c-0.143-9.427,3.649-14.485,6.853-17.067c3.216-2.596,8.96-5.245,18.058-3.119c4.69,1.096,9.782,3.394,14.711,6.644 c13.598,8.959,22.179,18.371,22.538,18.766l2.989,3.304l-1.014,4.339C1689.131,1430.547,1678.988,1445.635,1661.716,1441.599z M1645.078,1402.759c0.031,0.012-0.516,0.894-0.484,3.533c0.159,9.793,2.53,12.019,19.55,18.307 c4.896,1.784,7.879-1.566,9.501-4.893c-3.313-3.119-8.799-7.893-15.784-12.489 C1652.053,1403.387,1645.637,1402.485,1645.078,1402.759z"/> </g> <g> <path fill="#3AAA35" d="M1634.909,1341.381c0,0,7.42,14.999,27.466,36.068c20.046,21.07,29.568,17.052,46.192,19.376 c16.623,2.323,7.973-20.766-10.766-40.75s-24.008-50.866-45.293-56.62s-42.043-37.133-87.252-40.674 c-45.21-3.541-104.291,25.571-70.574,24.866c33.717-0.705,34.214,27.227,52.19,23.761 C1564.847,1303.943,1619.139,1318.55,1634.909,1341.381z"/> <path d="M1686.248,1402.81c-10.343-2.417-19.325-8.246-30.034-19.498c-18.602-19.552-26.868-34.254-28.59-37.505 c-8.97-12.453-33.277-22.772-53.591-27.518c-12.89-3.012-21.653-3.281-25.548-2.528c-3.286,0.631-6.484,0.596-9.5-0.109l0,0 c-6.971-1.629-11.607-6.315-16.083-10.844c-4.968-5.016-9.66-9.753-18.095-11.724c-2.976-0.695-6.323-1.008-9.947-0.934 c-3.706,0.076-6.671-0.156-9.052-0.712c-7.569-1.769-10.207-7.395-9.462-12.189c2.501-16.126,57.139-31.486,89.575-28.947 c5.477,0.431,10.901,1.268,16.133,2.49c22.319,5.215,38.298,16.649,51.135,25.836c8.19,5.862,15.263,10.922,21.536,12.618 c16.363,4.424,24.726,19.55,32.812,34.18c4.813,8.71,9.795,17.72,16.464,24.834c13.347,14.231,26.641,35.262,20.187,47.698 c-1.4,2.705-5.839,8.822-16.806,7.288c-3.006-0.421-5.766-0.614-8.4-0.803C1694.898,1404.149,1690.672,1403.844,1686.248,1402.81z M1577.903,1301.728c23.031,5.381,51.94,17.355,64.003,34.82l0.622,1.062c0.065,0.122,7.278,14.292,26.01,33.981 c10.366,10.895,16.728,13.524,21.579,14.657c3.113,0.727,6.343,0.958,10.083,1.23c2.667,0.193,5.443,0.393,8.432,0.776 c-1.214-4.88-6.311-14.928-17.037-26.362c-8.125-8.661-13.872-19.065-18.943-28.241c-6.953-12.579-12.96-23.444-22.361-25.986 c-9.24-2.5-17.467-8.388-27.003-15.208c-12.215-8.747-26.069-18.657-45.105-23.105c-4.399-1.028-8.976-1.735-13.599-2.094 c-20.024-1.57-42.17,3.719-56.727,9.081c13.278,2.919,21.49,10.807,27.126,16.504c3.042,3.077,5.67,5.734,7.87,6.248l0,0 c0.437,0.102,1.162,0.208,2.412-0.029C1555.377,1297.109,1570.059,1299.896,1577.903,1301.728z"/> </g> <g> <path fill="#3AAA35" d="M1754.503,1447.353c0,0-23.013,1.646-25.426-11.403c-2.413-13.049,18.449-8.829,27.283-16.581 s48.574-24.217,64.402-1.792c15.828,22.425,17.204,39.913,31.733,37.846s-0.455-18.091,18.574-32.743 c19.029-14.652,31.504,5.429,50.624-9.611s51.716-20.964,49.88-6.43c-1.835,14.534-52.453,30.798-57.217,44.51 c-4.764,13.712-12.545,23.634-35.246,27.286c-22.701,3.652-47,17.481-64.758,13.332c-17.758-4.149-13.463-12.509-18.961-22.377 C1789.893,1459.524,1779.217,1448.446,1754.503,1447.353z"/> <path d="M1812.419,1500.049c-16.189-3.783-19.71-11.747-22.145-20.269c-0.649-2.296-1.217-4.28-2.317-6.251 c-6.297-11.3-16.954-16.826-33.405-17.663c-1.977,0.101-8.299,0.261-14.857-1.271c-14.378-3.359-18.062-12.156-18.979-17.099 c-2.948-15.963,12.471-19.396,19.876-21.047c3.895-0.864,8.311-1.845,10.158-3.473c8.756-7.693,35.003-18.962,56.118-14.029 c8.863,2.071,15.877,6.69,20.842,13.726c5.619,7.96,9.517,15.331,12.653,21.253c3.402,6.427,6.614,12.5,9.072,13.074 c0.469,0.11,1.091,0.11,1.858,0.004c0.106-0.819,0.185-1.922,0.248-2.812c0.472-6.802,1.263-18.181,14.344-28.249 c12.387-9.544,23.56-7.688,31.721-6.336c7.323,1.216,12.158,2.018,18.824-3.222c14.994-11.796,37.797-18.91,50.833-15.865 c8.806,2.058,13.805,8.803,12.742,17.185c-1.496,11.88-16.479,20.305-33.818,30.057c-8.297,4.671-22.189,12.477-23.813,16.217 c-4.742,13.654-13.445,28.271-41.916,32.851c-7.949,1.281-16.497,4.03-24.76,6.691 C1840.297,1498.483,1825.754,1503.165,1812.419,1500.049z M1769.396,1440.773c15.098,3.528,26.34,11.766,33.425,24.478 c2.053,3.695,3.028,7.116,3.817,9.872c1.502,5.289,1.865,6.546,9.652,8.366c8.742,2.042,21.108-1.938,34.194-6.154 c8.871-2.856,18.046-5.808,27.279-7.292c18.724-3.015,24.48-9.946,28.561-21.682c3.315-9.553,16.391-16.902,31.523-25.417 c7.354-4.136,20.294-11.415,24.255-15.921c-8.066-0.665-23.573,3.621-35.151,12.732c-12.568,9.881-23.873,8.007-32.132,6.636 c-7.241-1.201-12.027-1.996-18.557,3.028c-7.02,5.408-7.361,10.296-7.754,15.957c-0.374,5.362-1.149,16.523-14.813,18.469 c-2.866,0.405-5.599,0.312-8.13-0.279c-10.003-2.337-14.748-11.3-20.237-21.682c-3.058-5.78-6.525-12.334-11.51-19.396 c-2.531-3.585-6.074-5.867-10.821-6.976c-15.219-3.556-36.444,6.221-41.027,10.25c-5.128,4.499-11.794,5.986-17.677,7.293 c-2.078,0.461-4.992,1.11-6.61,1.756c1.058,1.932,4.369,2.871,5.873,3.223c5.022,1.173,10.31,0.84,10.363,0.835l0.958-0.011 C1760.042,1439.087,1764.924,1439.728,1769.396,1440.773z"/> </g> <g> <path fill="#3AAA35" d="M2201.853,865.221c0,0-23.331-7.012-20.219-20.33c3.112-13.318,33.15-1.618,43.44-15.6 c10.29-13.982,29.485-43.83,33.721-16.31c4.235,27.519,13.453,51.521,35.256,55.055c21.803,3.534,44.269,14.245,38.765,27.784 c-5.504,13.539,0.733,23.58-29.257,15.012c-29.99-8.568-49.573-11.583-58.597-23.055 C2235.937,876.306,2215.296,864.46,2201.853,865.221z"/> <path d="M2308.013,920.789c-2.046-0.478-4.296-1.068-6.791-1.779c-5.859-1.676-11.318-3.135-16.374-4.487 c-21.816-5.835-37.572-10.049-46.573-21.491c-6.2-7.883-19.604-16.251-29.89-18.654c-2.313-0.54-4.35-0.765-6.052-0.668 l-1.494,0.081l-1.435-0.429c-11.506-3.46-29.943-13.755-26.052-30.409c3-12.841,16.704-13.567,26.712-14.098 c7.21-0.383,15.379-0.816,18.166-4.603l2.819-3.891c10.504-14.589,21.363-29.675,33.679-26.797 c6.663,1.557,10.859,7.654,12.472,18.124c4.622,30.041,13.763,45.592,28.212,47.953c2.564,0.416,5.148,0.926,7.695,1.521 c8.766,2.048,29.915,8.256,36.828,21.627c2.697,5.21,2.954,10.826,0.752,16.234c-0.911,2.256-1.451,4.531-1.966,6.734 C2335.581,919.086,2329.547,925.82,2308.013,920.789z M2212.254,857.817c14.176,3.312,30.74,13.702,39.392,24.704 c5.497,6.985,18.958,10.587,37.594,15.572c5.145,1.377,10.691,2.86,16.656,4.561c2.198,0.629,4.182,1.152,5.986,1.573 c5.685,1.328,8.281,1.351,9.329,1.246c0.311-0.891,0.669-2.428,0.956-3.618c0.6-2.568,1.354-5.76,2.764-9.238 c0.317-0.774,0.291-1.245-0.101-2.015c-1.957-3.779-10.803-9.423-25.594-12.879c-2.167-0.506-4.359-0.942-6.553-1.297 c-22.586-3.559-36.419-24.035-42.292-62.15c-0.151-0.995-0.318-1.814-0.476-2.49c-4.621,4.007-11.713,13.85-15.062,18.513 l-2.929,4.032c-7.558,10.267-20.537,10.957-30.96,11.511c-3.747,0.195-10.016,0.529-11.466,1.589 c-0.33,2.507,7.481,7.108,13.607,9.251C2205.953,856.682,2209.019,857.061,2212.254,857.817z"/> </g> <g> <path fill="#3AAA35" d="M1558.895,130.508c0,0,11.206,8.811,24.417,5.705s23.597-10.823,14.573-22.295 s-45.991-30.253-55.935-17.751s1.694,26.145-31.428,17.626c-33.123-8.519-58.231-11.265-44.844,8.249 c13.387,19.514,28.241,2.697,32.134,16.091c3.893,13.394-0.671,16.229,21.478,18.283c22.149,2.054,51.177,8.056,31.055-6.009 C1530.222,136.342,1545.508,124.666,1558.895,130.508z"/> <path d="M1506.354,163.148l-0.004-0.001c-12.554-2.933-14.093-10.601-15.327-16.761c-0.317-1.583-0.679-3.425-1.29-5.576 c-0.751-0.018-1.729,0.01-2.519,0.03c-2.894,0.087-6.499,0.187-10.543-0.758c-7.157-1.672-13.045-5.999-18.008-13.226 c-5.754-8.388-6.725-15.489-2.884-21.107c5.761-8.431,19.2-9.103,47.928-2.391c2.895,0.676,5.882,1.417,8.934,2.203l3.013,0.738 c7.985,1.866,11.196,1.738,12.295,1.56c0.274-0.716,0.601-1.953,0.859-2.908c1.007-3.764,2.387-8.921,6.487-14.078 c3.827-4.807,11.729-9.757,27.667-6.033c15.182,3.547,34.235,14.455,41.603,23.822c6.267,7.963,5.77,14.814,4.248,19.157 c-2.736,7.825-11.104,13.745-23.557,16.673c-5.183,1.215-10.595,1.183-16.082-0.099c-6.942-1.622-12.171-4.831-14.406-6.376 c-2.283-0.777-4.363-0.542-5.34-0.177c0.531,0.977,1.975,2.935,5.788,5.595c4.204,2.939,12.942,9.049,9.764,17.393 c-3.444,9.045-14.431,7.745-34.369,5.389c-4.041-0.479-8.182-0.969-12.106-1.332 C1513.08,164.379,1509.329,163.844,1506.354,163.148z M1508.622,146.175c0.299,0.07,0.828,0.232,1.601,0.412l0,0 c2.159,0.504,5.29,0.938,9.852,1.36c4.061,0.377,8.351,0.885,12.534,1.377c1.385,0.166,2.912,0.348,4.487,0.524 c-6.913-8.446-5.067-15.707-3.634-18.92c4.149-9.307,16.976-13.418,28.833-8.213l1.856,1.107l0,0c0,0,3.733,2.804,8.892,4.009 c2.915,0.681,5.713,0.716,8.321,0.102c7.733-1.818,11.017-4.649,11.398-5.733c0.04-0.118-0.063-1.119-1.562-3.026 c-4.488-5.701-19.809-14.9-32.108-17.774c-7.185-1.679-10.051-0.489-10.487,0.061c-1.896,2.384-2.581,4.932-3.369,7.886 c-3.966,14.82-12.719,18.357-33.449,13.513l-3.383-0.833c-2.928-0.752-5.791-1.46-8.568-2.109 c-16.323-3.814-24.313-4.291-28.053-4.086c0.248,0.416,0.549,0.879,0.905,1.401c3.264,4.754,6.045,5.864,7.852,6.286 c1.892,0.442,3.978,0.384,6.189,0.32c2.52-0.072,5.125-0.146,7.85,0.491c3.954,0.924,9.137,3.653,11.397,11.426 c0.822,2.832,1.31,5.235,1.721,7.289c0.218,1.091,0.482,2.407,0.697,3.092C1508.444,146.137,1508.521,146.151,1508.622,146.175z"/> </g> <g> <path fill="#3AAA35" d="M1447.962,144.432c0,0-34.786-1.398-32.485-11.248c2.301-9.85-0.534-14.413,12.293-19.219 c12.827-4.806,30.17-15.579-0.29-18.795c-30.46-3.216-35.728,5.973-57.57-14.093s-50.649-23.676-41.825-1.327 c8.823,22.349,35.93,23.221,28.061,26.844c-7.869,3.623,17.179,9.963,7.539,14.49c-9.641,4.526-45.564,1.314-21.244,20.792 s45.314,6.436,60.43,18.552s17.647,4.622,31.318,2.885S1457.311,141.155,1447.962,144.432z"/> <path d="M1412.283,175.128c-4.492-1.05-9.176-3.615-14.733-8.064c-4.131-3.323-10.624-3.987-18.376-4.443 c-5.304-0.31-11.322-0.654-17.763-2.159c-8.903-2.08-16.851-5.988-24.289-11.948c-6.361-5.094-13.363-12.03-11.062-20.506 c2.459-9.066,13.115-11.071,23.014-12.54c-1.715-1.838-2.934-4.067-2.986-6.928c-7.832-3.766-20.078-10.883-25.915-25.665 c-4.334-10.978-1.545-17.566,1.558-21.157c2.677-3.101,9.138-7.847,22.323-4.766c10.367,2.422,21.889,8.935,31.61,17.862 c8.608,7.908,13.264,9.789,16.684,10.588c3.582,0.837,7.485,0.742,12.885,0.606c5.923-0.147,13.292-0.331,23.142,0.708 c3.679,0.386,6.91,0.902,9.607,1.533c9.498,2.219,14.527,6.609,14.942,13.047c0.518,7.984-6.941,14.927-22.167,20.635 c-5.229,1.959-5.229,1.959-5.852,6.577c-0.145,1.079-0.303,2.228-0.513,3.453c1.049,0.437,2.695,1.005,5.185,1.587 c6.631,1.549,14.471,2.14,17.473,2.322c7.402-1.567,13.53,3.848,13.146,11.114c-0.444,8.654-10.619,22.945-24.937,24.768 c-3.093,0.39-5.558,1.179-7.942,1.944C1423.127,175.035,1418.377,176.551,1412.283,175.128z M1394.51,147.301 c5.305,1.239,9.776,3.363,13.681,6.488c3.404,2.731,6.086,4.339,7.962,4.777c1.399,0.327,2.609,0.004,5.981-1.071 c2.825-0.905,6.341-2.028,10.978-2.62c1.942-0.246,3.809-1.319,5.404-2.673c-3.883-0.425-8.5-1.086-12.81-2.093 c-4.985-1.165-8.807-2.603-11.692-4.399c-5.572-3.472-8.121-8.878-6.816-14.461c0.437-1.872,0.65-3.528,0.85-5.008 c1.12-8.335,3.063-15.117,16.74-20.236c1.757-0.66,3.354-1.344,4.769-2.016c-0.926-0.127-1.917-0.247-2.969-0.361 c-8.747-0.922-15.22-0.759-20.932-0.618c-6.16,0.156-11.477,0.286-17.178-1.046c-7.897-1.845-15.168-6.218-24.321-14.624 c-7.52-6.908-16.482-12.076-23.974-13.827c-2.673-0.624-4.318-0.608-5.197-0.498c0.075,0.7,0.315,1.864,1.006,3.612 c4.163,10.541,13.839,14.955,20.238,17.879c4.378,1.995,9.823,4.478,9.833,10.804c0.001,0.397-0.027,0.919-0.13,1.526 c4.129,2.696,8.869,6.387,8.474,12.512c-0.147,2.345-1.273,6.691-7.112,9.433c-3.726,1.748-8.803,2.493-14.172,3.277 c-2.04,0.299-5.069,0.743-7.627,1.271c0.623,0.563,1.37,1.199,2.257,1.909c5.493,4.396,11.057,7.15,17.527,8.662 c5.014,1.171,10.025,1.46,14.872,1.739C1384.878,145.912,1389.767,146.193,1394.51,147.301z"/> </g> <g> <path fill="#3AAA35" d="M1394.073,211.431c0,0-2.268-3.651-16.72-8.588c-14.452-4.937-7.219-25.876,4.495-19.237 s38.82,17.531,51.893,11.673c13.073-5.858,39.198-20.821,31.916-3.015s0.996,52.512-22.432,39.235 C1419.797,218.222,1408.941,231.291,1394.073,211.431z"/> <path d="M1447.582,242.427c-2.656-0.621-5.453-1.773-8.552-3.529c-7.279-4.123-14.719-5.511-21.477-6.191 c-2.967-0.297-6.037-0.605-9.151-1.332c-8.301-1.939-14.764-6.434-20.916-14.558c-0.646-0.522-3.832-2.835-12.883-5.927 c-11.941-4.082-15.58-15.315-13.003-24.299c3.14-10.958,14.532-15.989,24.442-10.386c6.488,3.678,17.528,8.436,27.564,10.781 c10.581,2.472,15.173,1.196,16.655,0.531c1.843-0.827,3.947-1.837,6.184-2.909c13.49-6.472,22.865-10.588,29.981-8.925 c3.409,0.796,6.135,2.87,7.666,5.842c2.868,5.557,0.286,11.878-0.566,13.956c-1.864,4.566-2.533,11.313-3.175,17.841 c-1.091,11.092-2.123,21.57-9.513,26.862C1458.273,242.022,1453.89,243.901,1447.582,242.427z M1430.875,217.536 c5.681,1.327,11.089,3.474,16.542,6.564c1.766,1.001,2.958,1.467,3.713,1.682c1.175-2.749,1.865-9.751,2.299-14.127 c0.546-5.569,1.152-11.7,2.618-17.318c-4.165,1.73-9.183,4.135-12.247,5.607c-2.381,1.141-4.624,2.216-6.581,3.093 c-6.749,3.024-15.995,3.196-27.482,0.512c-12.296-2.873-24.702-8.411-31.761-12.363c-0.14,0.436-0.223,1.027-0.085,1.643 c0.092,0.392,0.302,1.316,2.214,1.967c11.333,3.872,18.662,8.074,21.193,12.149c4.456,5.894,8.015,7.177,10.975,7.869 c2.228,0.521,4.533,0.727,6.983,0.975C1422.65,216.131,1426.5,216.514,1430.875,217.536z"/> </g> <g> <path fill="#3AAA35" d="M1215.13,125.702c0,0,7.813,19.995-21.61,12.34c-29.423-7.655-50.545-14.102-71.776-16.746 s-37.637-5.895-34.326-16.727c3.311-10.832,24.747-19.088,46.128-7.07s40.842,18.894,61.105,12.32 c20.263-6.574,42.142-10.045,51.166,1.427s36.703-16.826,49.956,3.263s20.693,48.357-9.124,39.05s-35.903-3.297-43.122-2.457 C1236.309,151.941,1219.884,112.367,1215.13,125.702z"/> <path d="M1240.817,159.331c-6.037-1.41-10.208-7.208-17.057-17.332c-0.444-0.654-0.939-1.383-1.463-2.15 c-0.469,0.803-1.029,1.593-1.688,2.352c-7.872,9.089-22.432,5.688-27.219,4.569l-2.011-0.5 c-6.167-1.603-11.966-3.154-17.484-4.627c-10.306-2.758-19.6-5.245-28.394-7.299c-9.51-2.222-17.393-3.684-24.806-4.606 c-6.343-0.791-13.677-1.797-19.952-3.263c-7.278-1.7-16.157-4.56-20.221-11.62c-1.532-2.66-2.987-7.034-1.234-12.769 c4.398-14.387,24.101-22.324,43.921-17.693c4.973,1.162,9.851,3.078,14.507,5.692c11.53,6.48,20.757,10.402,29.042,12.337 c9.049,2.114,17.314,1.888,25.268-0.693c30.759-9.976,50.573-8.331,60.475,4.259c1.066-0.037,6.568-1.902,10.212-3.136 c7.813-2.652,16.668-5.657,25.478-3.598c6.045,1.412,10.987,4.968,14.684,10.573c3.423,5.187,19.963,31.813,9.616,46.661 c-3.58,5.137-11.189,10.515-28.37,5.191c-20.992-6.551-28.533-4.79-33.956-3.333c-1.993,0.536-3.796,0.989-5.65,1.204 l-1.477,0.171L1240.817,159.331z M1095.694,106.687c0.904,0.638,3.265,1.906,8.917,3.226c5.503,1.286,12.28,2.208,18.185,2.944 c8.021,1,16.466,2.564,26.574,4.925c8.956,2.093,18.423,4.624,28.918,7.43c5.483,1.464,11.245,3.007,17.371,4.6l1.6,0.395 c8.244,1.926,10.701,0.663,10.721,0.65c-0.37,0.216-0.497-1.285-0.812-2.164l-1.024-2.862l0.975-2.987 c2.547-7.14,8.493-9.213,13.256-8.1c6.186,1.445,10.667,7.673,17.465,17.721c1.982,2.923,5.044,7.447,7.022,9.695 c0.287-0.078,0.579-0.159,0.884-0.241c6.675-1.796,16.814-4.787,43.438,3.519c1.037,0.323,2.01,0.593,2.94,0.811 c4.981,1.164,6.562,0.365,6.577,0.356c1.24-2.111-0.905-13.592-10.024-27.414c-1.631-2.471-3.185-3.102-4.358-3.376 c-4.08-0.953-10.489,1.221-16.144,3.14c-7.072,2.399-13.745,4.664-20.203,3.155c-3.55-0.829-6.606-2.767-8.838-5.608 c-1.352-1.714-3.442-2.881-6.397-3.571c-5.337-1.247-15.821-1.398-35.462,4.975c-10.985,3.565-22.235,3.917-34.389,1.077 c-9.894-2.312-20.541-6.782-33.506-14.071c-3.252-1.83-6.634-3.162-10.042-3.958 C1106.331,97.916,1097.231,103.375,1095.694,106.687z"/> </g> <g> <path fill="#3AAA35" d="M1189.068,80.284c0,0,4.814,12.793,13.792,7.764c8.978-5.029,21.335-4.482,32.088-0.409 c10.753,4.073,23.645,15.686,28.498,1.595s10.751-25.977-7.476-24.774c-18.228,1.203-23.25-17.377-34.278-13.591 c-11.028,3.786-13.815,2.354-27.036,5.507C1181.433,59.53,1178.02,60.78,1189.068,80.284z"/> <path d="M1195.319,97.323c-0.004-0.001-0.004-0.001-0.004-0.001c-8.487-1.983-12.693-10.389-13.929-13.347 c-6.365-11.303-9.229-18.752-6.31-25.46c3.018-6.932,10.433-8.7,17.604-10.41c6.196-1.478,10.389-2.033,13.76-2.482 c4.11-0.545,7.076-0.939,12.487-2.8c3.171-1.088,6.388-1.262,9.566-0.519c4.941,1.154,8.631,4.195,12.199,7.136 c4.496,3.698,8.757,6.92,14.718,6.539c11.809-0.793,17.576,4.145,19.624,7.898c3.899,7.145,0.878,15.641-2.319,24.633l-1.23,3.495 c-3.34,9.696-11.013,14.159-20.527,11.936c-4.229-0.988-8.32-3.099-12.276-5.145c-2.279-1.176-4.557-2.378-6.747-3.205 c-8.968-3.392-18.871-3.51-24.92-0.122C1203.231,97.586,1199.188,98.227,1195.319,97.323z M1191.45,65.996 c0.62,1.706,1.993,4.755,5.018,10.097l0.556,1.196c0.431,1.077,1.298,2.457,1.968,3.167c10.778-5.762,25.4-5.911,38.97-0.77 c2.758,1.045,5.651,2.514,8.523,4c3.128,1.614,6.42,3.385,8.538,3.735c0.109-0.23,0.242-0.545,0.385-0.955l1.284-3.653 c1.083-3.047,2.609-7.334,3.06-9.868c-0.785-0.072-1.816-0.092-3.224,0.001c-3.223,0.215-6.38-0.032-9.388-0.735 c-7.755-1.812-13.025-6.156-17.259-9.644c-1.871-1.537-4.191-3.452-5.258-3.702c-7.182,2.454-11.438,3.02-15.944,3.617 c-3.296,0.437-6.702,0.89-12.054,2.168C1195.234,64.982,1193.058,65.501,1191.45,65.996z"/> </g> <g opacity="0.3"> <g> <defs> <circle id="SVGID_1_" cx="1405.951" cy="1406.884" r="1393.768"/> </defs> <clipPath id="SVGID_2_"> <use xlink:href="#SVGID_1_" overflow="visible"/> </clipPath> <rect x="-126.398" y="-125.465" clip-path="url(#SVGID_2_)" fill="#3B3A34" width="3064.699" height="3064.699"/> <path clip-path="url(#SVGID_2_)" fill="#3B3A34" d="M1729.758,2216.431C1002.377,2468.31,208.531,2082.84-43.349,1355.46 c-62.97-181.845-86.105-367.844-74.023-548.491s59.383-355.941,137.286-516.375s186.407-306.01,320.897-427.219v8.21H2214.38 v-0.995c33.199,30.302,65.025,62.301,95.327,95.923c121.209,134.49,218.052,294.966,281.021,476.811 C2842.607,1170.704,2457.138,1964.551,1729.758,2216.431z"/> <path clip-path="url(#SVGID_2_)" fill="#3C3B35" d="M1728.125,2211.715c-724.776,250.978-1515.78-133.112-1766.757-857.888 C-101.377,1172.633-124.43,987.3-112.391,807.3S-53.22,452.634,24.404,292.774S210.143-12.14,344.151-132.915v4.501h1841.795 v-19.639c8.439,7.336,16.795,14.779,25.065,22.327c33.081,30.194,64.792,62.077,94.986,95.58 c120.775,134.008,217.271,293.909,280.015,475.103C2836.99,1169.733,2452.9,1960.737,1728.125,2211.715z"/> <path clip-path="url(#SVGID_2_)" fill="#3D3C36" d="M1726.491,2206.999C1004.32,2457.074,216.159,2074.365-33.917,1352.194 c-62.519-180.543-85.489-365.21-73.493-544.563S-48.452,454.24,28.893,294.954S213.965-8.864,347.492-129.205v0.791h1835.176 v-15.875c8.409,7.31,16.734,14.726,24.975,22.247c32.962,30.085,64.559,61.854,94.644,95.236 c120.341,133.527,216.49,292.853,279.009,473.396C2831.372,1168.761,2448.663,1956.923,1726.491,2206.999z"/> <path clip-path="url(#SVGID_2_)" fill="#3E3D37" d="M1724.858,2202.283c-719.567,249.174-1504.886-132.155-1754.059-851.722 c-62.293-179.892-85.18-363.893-73.228-542.599s58.745-352.117,135.811-510.828S217.787-5.589,350.832-125.496 c8.315-7.494,16.731-14.894,25.246-22.198v19.279H2179.39v-12.111c8.378,7.283,16.674,14.673,24.885,22.167 c32.843,29.977,64.326,61.631,94.303,94.893c119.907,133.045,215.709,291.797,278.003,471.689 C2825.754,1167.79,2444.425,1953.109,1724.858,2202.283z"/> <path clip-path="url(#SVGID_2_)" fill="#3F3E37" d="M1723.225,2197.567c-716.962,248.272-1499.439-131.677-1747.71-848.639 c-124.136-358.481-91.217-733.341,62.357-1049.614c76.787-158.137,183.737-301.627,316.301-421.1 c8.285-7.467,16.671-14.84,25.155-22.117v15.489h1796.784v-8.346c8.348,7.257,16.614,14.619,24.795,22.087 c32.724,29.868,64.093,61.408,93.961,94.549c119.473,132.564,214.929,290.741,276.997,469.981 C2820.136,1166.818,2440.188,1949.295,1723.225,2197.567z"/> <path clip-path="url(#SVGID_2_)" fill="#403F38" d="M1721.592,2192.851c-714.357,247.37-1493.991-131.198-1741.361-845.556 c-123.685-357.179-90.885-730.677,62.13-1045.801c76.508-157.562,183.07-300.531,315.152-419.57 c8.255-7.44,16.61-14.786,25.063-22.037v11.699h1790.257v-4.582c8.318,7.231,16.553,14.566,24.705,22.006 c32.605,29.76,63.86,61.185,93.62,94.206c119.039,132.082,214.148,289.685,275.99,468.274 C2814.518,1165.847,2435.95,1945.481,1721.592,2192.851z"/> <path clip-path="url(#SVGID_2_)" fill="#414039" d="M1719.959,2188.135c-711.753,246.468-1488.544-130.72-1735.012-842.473 c-123.234-355.876-90.554-728.013,61.904-1041.988C123.08,146.686,229.253,4.238,360.853-114.367 c8.225-7.413,16.549-14.732,24.972-21.957v7.909h1783.73v-0.818c8.287,7.204,16.493,14.513,24.615,21.926 c32.486,29.651,63.628,60.962,93.279,93.862c118.605,131.601,213.367,288.629,274.984,466.567 C2808.9,1164.875,2431.712,1941.667,1719.959,2188.135z"/> <path clip-path="url(#SVGID_2_)" fill="#42403A" d="M1718.326,2183.419c-709.148,245.566-1483.097-130.242-1728.663-839.39 C-133.12,989.455-100.56,618.68,51.34,305.854c75.95-156.413,181.735-298.34,312.854-416.51 c8.195-7.386,16.489-14.679,24.881-21.876v4.119h1752.189v-18.273c16.835,13.936,33.354,28.294,49.538,43.065 c32.367,29.543,63.395,60.739,92.937,93.519c118.171,131.119,212.586,287.572,273.978,464.859 C2803.282,1163.904,2427.475,1937.853,1718.326,2183.419z"/> <path clip-path="url(#SVGID_2_)" fill="#43413B" d="M1716.693,2178.703c-706.544,244.664-1477.65-129.763-1722.314-836.307 C-127.953,989.124-95.512,619.711,55.83,308.034C131.5,152.195,236.897,10.79,367.534-106.947 c8.165-7.359,16.428-14.625,24.789-21.796v0.329h1745.754v-14.431c16.774,13.884,33.232,28.19,49.356,42.907 c32.248,29.434,63.162,60.516,92.596,93.175C2397.766,123.874,2491.834,279.753,2553,456.389 C2797.665,1162.932,2423.237,1934.039,1716.693,2178.703z"/> <path clip-path="url(#SVGID_2_)" fill="#44423C" d="M1715.06,2173.987C1011.121,2417.749,242.857,2044.702-0.905,1340.763 c-121.881-351.97-89.56-720.02,61.224-1030.549c75.392-155.264,180.4-296.148,310.555-413.451 c16.269-14.663,32.932-28.957,49.979-42.865v17.688h1714.038v-10.589c16.712,13.833,33.109,28.086,49.174,42.749 c32.13,29.326,62.929,60.293,92.255,92.832c117.303,130.156,211.025,285.46,271.965,461.445 C2792.047,1161.961,2419,1930.225,1715.06,2173.987z"/> <path clip-path="url(#SVGID_2_)" fill="#45433D" d="M1713.427,2169.271C1012.092,2412.131,246.671,2040.464,3.811,1339.13 c-121.43-350.667-89.228-717.356,60.998-1026.736c75.113-154.69,179.732-295.052,309.406-411.921 c16.209-14.609,32.81-28.85,49.794-42.707v13.82h1707.696v-6.747c16.65,13.782,32.987,27.982,48.992,42.59 c32.011,29.217,62.696,60.07,91.914,92.488c116.869,129.674,210.244,284.404,270.959,459.737 C2786.429,1160.99,2414.762,1926.411,1713.427,2169.271z"/> <path clip-path="url(#SVGID_2_)" fill="#46443E" d="M1711.794,2164.555c-698.73,241.958-1461.309-128.328-1703.267-827.059 C-112.452,988.131-80.37,622.804,69.298,314.573C144.132,160.458,248.363,20.617,377.555-95.818 c16.149-14.554,32.688-28.743,49.609-42.548v9.952h1701.354v-2.905c16.588,13.731,32.864,27.878,48.81,42.432 c31.892,29.109,62.464,59.847,91.572,92.145c116.435,129.193,209.463,283.348,269.953,458.03 C2780.811,1160.018,2410.524,1922.597,1711.794,2164.555z"/> <path clip-path="url(#SVGID_2_)" fill="#48453F" d="M1710.161,2159.839c-696.126,241.056-1455.862-127.85-1696.918-823.976 c-120.528-348.063-88.566-712.028,60.545-1019.11C148.342,163.212,252.184,23.892,380.896-92.108 c16.089-14.5,32.566-28.636,49.424-42.389v6.084h1669.991v-19.271c8.417,6.632,16.757,13.368,25.021,20.208 c16.526,13.68,32.742,27.774,48.628,42.274c31.773,29,62.23,59.624,91.231,91.801 c116.001,128.711,208.682,282.291,268.947,456.323C2775.193,1159.047,2406.287,1918.783,1710.161,2159.839z"/> <path clip-path="url(#SVGID_2_)" fill="#494640" d="M1708.528,2155.123C1015.007,2395.278,258.113,2027.751,17.959,1334.23 C-102.119,987.47-70.276,624.866,78.277,318.933c74.276-152.966,177.73-291.765,305.959-407.332 c16.029-14.446,32.445-28.529,49.239-42.231v2.215h1663.743v-15.353c8.385,6.607,16.695,13.318,24.927,20.132 c16.465,13.629,32.619,27.67,48.446,42.116c31.654,28.892,61.998,59.401,90.889,91.458 c115.567,128.23,207.902,281.235,267.94,454.615C2769.575,1158.075,2402.049,1914.969,1708.528,2155.123z"/> <path clip-path="url(#SVGID_2_)" fill="#4A4741" d="M1706.895,2150.407c-690.917,239.253-1444.968-126.893-1684.22-817.81 c-119.626-345.458-87.903-706.7,60.092-1011.484c73.997-152.392,177.062-290.669,304.81-405.802 c15.969-14.392,32.323-28.422,49.054-42.072c8.366-6.825,16.826-13.556,25.379-20.189v18.536h1632.116v-11.436 c8.354,6.582,16.632,13.268,24.833,20.057c16.403,13.577,32.497,27.566,48.264,41.958c31.535,28.783,61.765,59.177,90.548,91.114 c115.133,127.748,207.121,280.179,266.934,452.908C2763.957,1157.104,2397.811,1911.155,1706.895,2150.407z"/> <path clip-path="url(#SVGID_2_)" fill="#4B4842" d="M1705.262,2145.691C1016.95,2384.042,265.741,2019.276,27.391,1330.964 C-91.785,986.808-60.181,626.928,87.256,323.293C160.974,171.476,263.65,33.719,390.917-80.979 c15.908-14.337,32.201-28.314,48.869-41.914c8.334-6.8,16.762-13.505,25.283-20.113v14.592h1625.963v-7.518 c8.322,6.557,16.569,13.218,24.74,19.981c16.341,13.526,32.374,27.462,48.082,41.8c31.416,28.675,61.532,58.954,90.207,90.771 c114.699,127.266,206.34,279.123,265.928,451.201C2758.339,1156.132,2393.574,1907.341,1705.262,2145.691z"/> <path clip-path="url(#SVGID_2_)" fill="#4C4943" d="M1703.629,2140.975c-685.707,237.449-1434.073-125.937-1671.522-811.644 C-86.618,986.477-55.134,627.959,91.745,325.473C165.184,174.23,267.472,36.995,394.257-77.27 c15.848-14.283,32.079-28.207,48.684-41.755c8.303-6.774,16.699-13.454,25.187-20.037v10.648h1619.811v-3.6 c8.291,6.532,16.507,13.168,24.646,19.905c16.279,13.475,32.251,27.358,47.9,41.641c31.298,28.566,61.299,58.731,89.865,90.427 c114.265,126.785,205.559,278.067,264.921,449.493C2752.722,1155.161,2389.336,1903.526,1703.629,2140.975z"/> <path clip-path="url(#SVGID_2_)" fill="#4D4A44" d="M1701.996,2136.259c-683.103,236.547-1428.626-125.458-1665.173-808.561 C-81.451,986.147-50.086,628.99,96.234,327.653c73.16-150.669,175.06-287.382,301.363-401.213 c15.788-14.229,31.957-28.1,48.499-41.596c8.271-6.748,16.635-13.403,25.092-19.961v6.703h1588.661v-18.896 c67.241,50.408,129.877,107.459,186.792,170.61c113.831,126.303,204.779,277.01,263.915,447.786 C2747.104,1154.189,2385.099,1899.713,1701.996,2136.259z"/> <path clip-path="url(#SVGID_2_)" fill="#4E4B45" d="M1700.363,2131.543c-680.498,235.645-1423.179-124.98-1658.824-805.478 c-117.822-340.249-86.577-696.044,59.185-996.232C173.605,179.739,275.116,43.547,400.938-69.85 c15.728-14.175,31.835-27.993,48.314-41.438c8.24-6.722,16.572-13.351,24.996-19.885v2.759h1582.604v-14.905 c66.985,50.216,129.382,107.049,186.08,169.96c113.397,125.822,203.998,275.954,262.909,446.079 C2741.486,1153.218,2380.861,1895.898,1700.363,2131.543z"/> <path clip-path="url(#SVGID_2_)" fill="#4F4C46" d="M1698.729,2126.827c-677.894,234.743-1417.732-124.502-1652.475-802.395 c-117.372-338.947-86.246-693.38,58.959-992.419C177.816,182.493,278.938,46.822,404.278-66.14 c31.335-28.241,64.184-55.062,98.479-80.326v18.052h1551.097v-10.914c66.728,50.023,128.886,106.639,185.368,169.309 c112.963,125.34,203.217,274.898,261.903,444.371C2735.868,1152.246,2376.623,1892.084,1698.729,2126.827z"/> <path clip-path="url(#SVGID_2_)" fill="#504D47" d="M1697.096,2122.112C1021.807,2355.953,284.811,1998.088,50.97,1322.799 C-65.95,985.154-34.944,632.083,109.703,334.193C182.026,185.248,282.76,50.098,407.619-62.431 c31.215-28.132,63.937-54.851,98.1-80.017v14.034h1545.138v-6.923c66.472,49.831,128.391,106.229,184.656,168.659 c112.529,124.859,202.436,273.842,260.896,442.664C2730.25,1151.275,2372.386,1888.27,1697.096,2122.112z"/> <path clip-path="url(#SVGID_2_)" fill="#514E48" d="M1695.463,2117.396c-672.685,232.939-1406.838-123.545-1639.777-796.23 c-116.47-336.342-85.583-688.052,58.506-984.793c72.045-148.371,172.39-282.999,296.767-395.094 c31.094-28.024,63.69-54.639,97.722-79.708v10.015h1539.178v-2.932c66.215,49.639,127.896,105.82,183.943,168.008 c112.094,124.377,201.655,272.786,259.89,440.957C2724.632,1150.303,2368.148,1884.456,1695.463,2117.396z"/> <path clip-path="url(#SVGID_2_)" fill="#524F49" d="M1693.83,2112.679C1023.75,2344.717,292.44,1989.613,60.402,1319.533 c-116.019-335.04-85.252-685.388,58.279-980.98C190.447,190.757,290.404,56.649,414.299-55.011 c30.974-27.915,63.444-54.427,97.344-79.4v5.997h1508.275v-17.178c8.384,5.976,16.699,12.055,24.944,18.236 c65.959,49.447,127.401,105.41,183.231,167.358c111.661,123.895,200.875,271.729,258.884,439.249 C2719.014,1149.332,2363.91,1880.642,1693.83,2112.679z"/> <path clip-path="url(#SVGID_2_)" fill="#54504A" d="M1692.197,2107.964C1024.722,2339.099,296.254,1985.375,65.118,1317.9 c-115.568-333.738-84.921-682.724,58.053-977.167C194.658,193.511,294.226,59.925,417.64-51.302 c30.853-27.807,63.197-54.216,96.965-79.091v1.979h1502.412v-13.116c8.351,5.953,16.634,12.008,24.847,18.165 c65.703,49.255,126.906,105,182.519,166.707c111.227,123.414,200.094,270.673,257.878,437.542 C2713.396,1148.36,2359.673,1876.828,1692.197,2107.964z"/> <path clip-path="url(#SVGID_2_)" fill="#55514B" d="M1690.564,2103.248c-664.871,230.234-1390.497-122.11-1620.73-786.981 c-115.117-332.435-84.589-680.06,57.826-973.354C198.868,196.265,298.048,63.201,420.98-47.592 c30.733-27.698,62.951-54.004,96.587-78.783c8.409-6.195,16.907-12.294,25.492-18.295v16.256h1471.057v-9.054 c8.319,5.93,16.57,11.962,24.75,18.094c65.446,49.062,126.411,104.59,181.807,166.057 c110.792,122.932,199.313,269.617,256.871,435.835C2707.779,1147.389,2355.435,1873.014,1690.564,2103.248z"/> <path clip-path="url(#SVGID_2_)" fill="#56524C" d="M1688.931,2098.532C1026.665,2327.863,303.882,1976.9,74.55,1314.634 C-40.116,983.5-9.708,637.238,132.15,345.093C203.079,199.02,301.87,66.476,424.321-43.882 c30.613-27.59,62.704-53.793,96.209-78.474c8.376-6.17,16.841-12.246,25.392-18.224v12.166h1465.295v-4.992 c8.286,5.907,16.505,11.915,24.653,18.023c65.19,48.87,125.915,104.181,181.095,165.406 c110.359,122.451,198.532,268.561,255.865,434.128C2702.161,1146.417,2351.198,1869.2,1688.931,2098.532z"/> <path clip-path="url(#SVGID_2_)" fill="#57534D" d="M1687.298,2093.816c-659.662,228.43-1379.602-121.153-1608.032-780.815 C-34.949,983.17-4.66,638.269,136.639,347.273c70.65-145.498,169.053-277.521,291.022-387.445 c30.492-27.481,62.457-53.581,95.83-78.165c8.343-6.146,16.774-12.197,25.292-18.152v8.076h1434.571v-18.275 c16.772,11.359,33.284,23.128,49.517,35.298c64.933,48.678,125.42,103.771,180.382,164.756 c109.925,121.969,197.751,267.505,254.859,432.42C2696.543,1145.446,2346.96,1865.386,1687.298,2093.816z"/> <path clip-path="url(#SVGID_2_)" fill="#58544E" d="M1685.665,2089.1C1028.608,2316.627,311.51,1968.425,83.982,1311.368 C-29.782,982.839,0.387,639.3,141.129,349.452C211.5,204.529,309.514,73.028,431.001-36.463 c30.372-27.373,62.211-53.37,95.452-77.857c8.31-6.122,16.708-12.149,25.193-18.08v3.986h1428.907v-14.145 c16.706,11.315,33.152,23.037,49.321,35.158C2094.552-58.915,2154.8-4.04,2209.545,56.704 c109.49,121.488,196.971,266.448,253.853,430.713C2690.925,1144.474,2342.722,1861.572,1685.665,2089.1z"/> <path clip-path="url(#SVGID_2_)" fill="#59554F" d="M1684.032,2084.384C1029.579,2311.01,315.324,1964.187,88.698,1309.734 c-113.313-327.226-83.264-669.403,56.92-958.102C215.71,207.283,313.336,76.303,434.342-32.753 c30.252-27.264,61.964-53.158,95.073-77.548c16.555-12.195,33.458-24.014,50.703-35.441v17.328h1397.633v-10.015 c16.64,11.27,33.021,22.945,49.126,35.019c64.421,48.294,124.43,102.952,178.958,163.455 c109.057,121.006,196.19,265.392,252.846,429.005C2685.307,1143.503,2338.485,1857.758,1684.032,2084.384z"/> <path clip-path="url(#SVGID_2_)" fill="#5B5650" d="M1682.399,2079.668C1030.551,2305.392,319.138,1959.95,93.414,1308.101 c-112.862-325.924-82.932-666.739,56.694-954.289c69.813-143.775,167.05-274.233,287.575-382.856 c30.131-27.156,61.718-52.947,94.695-77.24c16.489-12.147,33.325-23.919,50.501-35.299v13.168h1392.071v-5.885 c16.574,11.225,32.889,22.854,48.93,34.879c64.164,48.101,123.934,102.542,178.246,162.804 c108.623,120.524,195.409,264.336,251.84,427.298C2679.689,1142.531,2334.247,1853.944,1682.399,2079.668z"/> <path clip-path="url(#SVGID_2_)" fill="#5C5751" d="M1680.766,2074.952c-649.244,224.822-1357.814-119.24-1582.636-768.484 c-112.411-324.622-82.601-664.075,56.467-950.476c69.534-143.2,166.383-273.138,286.426-381.326 c30.011-27.047,61.471-52.735,94.317-76.931c16.423-12.098,33.192-23.823,50.299-35.158v9.009h1386.509v-1.754 c16.507,11.18,32.758,22.763,48.735,34.74c63.908,47.909,123.439,102.132,177.533,162.154 c108.189,120.043,194.628,263.28,250.834,425.591C2674.072,1141.56,2330.01,1850.13,1680.766,2074.952z"/> <path clip-path="url(#SVGID_2_)" fill="#5D5952" d="M1679.133,2070.236c-646.639,223.92-1352.367-118.761-1576.287-765.401 c-111.96-323.32-82.27-661.411,56.241-946.663C228.342,215.546,324.802,86.13,444.363-21.624 c29.89-26.939,61.224-52.523,93.938-76.622c16.357-12.049,33.059-23.727,50.098-35.017v4.85h1356.095v-14.025 c8.346,5.366,16.631,10.833,24.852,16.401c16.441,11.135,32.627,22.671,48.539,34.601 c63.652,47.717,122.944,101.722,176.822,161.503c107.754,119.561,193.847,262.224,249.827,423.883 C2668.454,1140.588,2325.772,1846.316,1679.133,2070.236z"/> <path clip-path="url(#SVGID_2_)" fill="#5E5A54" d="M1677.5,2065.52c-644.035,223.018-1346.92-118.283-1569.938-762.318 c-111.509-322.017-81.938-658.747,56.014-942.85C232.552,218.301,328.624,89.406,447.703-17.914 c29.77-26.83,60.978-52.312,93.56-76.314c16.291-12.001,32.926-23.632,49.896-34.876v0.69h1350.633v-9.829 c8.313,5.344,16.564,10.79,24.752,16.335c16.375,11.09,32.495,22.58,48.344,34.461 c63.395,47.525,122.449,101.313,176.109,160.853c107.32,119.08,193.067,261.168,248.821,422.176 C2662.836,1139.617,2321.534,1842.502,1677.5,2065.52z"/> <path clip-path="url(#SVGID_2_)" fill="#5F5B55" d="M1675.867,2060.804c-641.43,222.116-1341.473-117.805-1563.589-759.235 C1.22,980.854,30.671,645.486,168.065,362.532c68.697-141.477,164.38-269.85,282.978-376.737 c29.65-26.722,60.731-52.1,93.182-76.005c16.225-11.952,32.792-23.536,49.694-34.735c8.451-5.6,16.985-11.103,25.602-16.508 v13.039H1939.09v-5.633c8.279,5.323,16.497,10.746,24.652,16.269c16.309,11.046,32.364,22.489,48.148,34.322 c63.139,47.333,121.954,100.903,175.397,160.202c106.886,118.598,192.286,260.111,247.815,420.469 C2657.218,1138.645,2317.297,1838.688,1675.867,2060.804z"/> <path clip-path="url(#SVGID_2_)" fill="#615C56" d="M1674.234,2056.088c-638.826,221.214-1336.026-117.326-1557.24-756.152 C6.387,980.523,35.718,646.517,172.555,364.712C240.973,223.81,336.268,95.957,454.384-10.495 c29.529-26.613,60.485-51.889,92.803-75.696c16.159-11.904,32.659-23.441,49.492-34.594c8.416-5.577,16.916-11.058,25.498-16.441 v8.812h1289.292v-17.039c33.464,20.401,65.982,42.418,97.423,65.988c62.882,47.14,121.458,100.493,174.685,159.552 c106.452,118.117,191.505,259.055,246.809,418.762C2651.6,1137.674,2313.059,1834.874,1674.234,2056.088z"/> <path clip-path="url(#SVGID_2_)" fill="#625D57" d="M1672.601,2051.372C1036.38,2271.685,342.022,1934.524,121.71,1298.303 c-110.156-318.11-80.944-650.755,55.334-931.411C245.184,226.564,340.09,99.233,457.725-6.785 c58.817-53.009,123.317-100.69,192.994-142.004v20.375h1258.15v-12.779c33.327,20.318,65.713,42.245,97.026,65.719 c62.626,46.948,120.963,100.084,173.973,158.901c106.018,117.635,190.724,257.999,245.802,417.054 C2645.982,1136.702,2308.822,1831.06,1672.601,2051.372z"/> <path clip-path="url(#SVGID_2_)" fill="#635E58" d="M1670.968,2046.656c-633.616,219.411-1325.131-116.37-1544.542-749.986 C16.72,979.862,45.813,648.579,181.534,369.072c67.86-139.754,162.378-266.563,279.531-372.148 c58.577-52.792,122.812-100.278,192.204-141.423v16.084h1252.999v-8.519c33.191,20.234,65.444,42.072,96.628,65.45 c62.37,46.756,120.468,99.674,173.26,158.251c105.584,117.153,189.944,256.943,244.796,415.347 C2640.364,1135.731,2304.584,1827.246,1670.968,2046.656z"/> <path clip-path="url(#SVGID_2_)" fill="#645F59" d="M1669.335,2041.94c-631.012,218.509-1319.684-115.891-1538.193-746.903 C21.887,979.531,50.86,649.61,186.023,371.252c67.581-139.179,161.71-265.467,278.382-370.618 c58.336-52.575,122.308-99.866,191.414-140.841v11.793h1247.849v-4.259c33.055,20.151,65.175,41.899,96.231,65.181 c62.113,46.564,119.973,99.264,172.548,157.6c105.15,116.672,189.163,255.887,243.79,413.64 C2634.746,1134.759,2300.346,1823.432,1669.335,2041.94z"/> <path clip-path="url(#SVGID_2_)" fill="#65605A" d="M1667.702,2037.224c-628.407,217.607-1314.237-115.413-1531.844-743.82 C27.054,979.2,55.907,650.641,190.512,373.432C257.815,234.827,351.555,109.06,467.746,4.344 c58.095-52.358,121.803-99.454,190.624-140.26v7.502h1217.837v-14.751c8.344,4.817,16.632,9.735,24.861,14.752 c32.918,20.068,64.906,41.726,95.834,64.912c61.857,46.372,119.478,98.854,171.836,156.95 c104.716,116.19,188.382,254.83,242.784,411.932C2629.128,1133.788,2296.109,1819.618,1667.702,2037.224z"/> <path clip-path="url(#SVGID_2_)" fill="#66615C" d="M1666.068,2032.508c-625.803,216.705-1308.79-114.935-1525.495-740.737 C32.221,978.87,60.955,651.672,195.002,375.612c67.024-138.03,160.375-263.276,276.084-367.558 C528.94-44.088,592.384-90.988,660.92-131.625v3.211h1212.79v-10.43c8.309,4.797,16.563,9.695,24.758,14.691 c32.782,19.985,64.637,41.553,95.437,64.643c61.6,46.18,118.983,98.445,171.124,156.299 c104.282,115.709,187.601,253.774,241.777,410.225C2623.51,1132.816,2291.871,1815.803,1666.068,2032.508z"/> <path clip-path="url(#SVGID_2_)" fill="#68635D" d="M1664.435,2027.792c-623.198,215.803-1303.343-114.456-1519.146-737.655 C37.388,978.539,66.002,652.703,199.491,377.792c66.745-137.456,159.708-262.18,274.935-366.029 c57.614-51.924,120.793-98.629,189.044-139.097c8.531-5.058,17.142-10.02,25.831-14.881v13.801h1156.922v-20.141 c16.768,9.155,33.322,18.711,49.644,28.662c32.645,19.902,64.368,41.38,95.04,64.374 c61.344,45.987,118.487,98.035,170.411,155.648c103.848,115.227,186.821,252.718,240.771,408.518 C2617.893,1131.845,2287.634,1811.989,1664.435,2027.792z"/> <path clip-path="url(#SVGID_2_)" fill="#69645E" d="M1662.802,2023.076c-620.594,214.901-1297.896-113.978-1512.797-734.572 c-107.45-310.297-78.956-634.771,53.975-908.533c66.466-136.881,159.04-261.085,273.786-364.499 c57.373-51.707,120.288-98.217,188.254-138.516c8.496-5.037,17.07-9.978,25.723-14.819v9.448h1152.087v-15.762 c16.698,9.116,33.182,18.633,49.437,28.542c32.509,19.819,64.099,41.207,94.642,64.105 c61.088,45.795,117.992,97.625,169.699,154.998c103.414,114.746,186.04,251.662,239.765,406.81 C2612.275,1130.873,2283.396,1808.175,1662.802,2023.076z"/> <path clip-path="url(#SVGID_2_)" fill="#6A655F" d="M1661.169,2018.36c-617.989,213.999-1292.449-113.5-1506.448-731.489 c-107-308.995-78.625-632.107,53.749-904.72c66.187-136.307,158.373-259.989,272.637-362.969 c57.132-51.49,119.783-97.805,187.464-137.935c16.92-10.032,34.155-19.678,51.696-28.922v19.26h1121.171v-11.382 c16.628,9.078,33.043,18.555,49.229,28.423c32.372,19.735,63.829,41.034,94.245,63.836 c60.831,45.603,117.497,97.215,168.987,154.347c102.98,114.264,185.259,250.606,238.759,405.103 C2606.657,1129.902,2279.158,1804.361,1661.169,2018.36z"/> <path clip-path="url(#SVGID_2_)" fill="#6B6660" d="M1659.536,2013.644c-615.385,213.097-1287.002-113.021-1500.099-728.406 C52.889,977.546,81.144,655.796,212.96,384.332c65.908-135.732,157.706-258.893,271.488-361.439 C541.339-28.381,603.726-74.5,671.121-114.461c16.849-9.99,34.011-19.595,51.478-28.8v14.847h1116.446v-7.002 c16.558,9.04,32.904,18.477,49.022,28.303c32.236,19.652,63.561,40.861,93.848,63.567 c60.575,45.411,117.002,96.806,168.275,153.697c102.546,113.782,184.478,249.549,237.752,403.396 C2601.039,1128.93,2274.921,1800.547,1659.536,2013.644z"/> <path clip-path="url(#SVGID_2_)" fill="#6C6762" d="M1657.903,2008.928c-612.78,212.195-1281.555-112.543-1493.75-725.323 c-106.098-306.39-77.962-626.779,53.296-897.094c65.629-135.158,157.038-257.797,270.339-359.91 c56.65-51.056,118.774-96.98,185.884-136.772c16.778-9.948,33.867-19.512,51.26-28.678v10.434h1111.72v-2.623 c16.488,9.002,32.765,18.399,48.814,28.183c32.099,19.569,63.292,40.689,93.451,63.298 c60.319,45.219,116.507,96.396,167.563,153.046c102.112,113.301,183.697,248.493,236.746,401.688 C2595.421,1127.959,2270.683,1796.733,1657.903,2008.928z"/> <path clip-path="url(#SVGID_2_)" fill="#6D6963" d="M1656.27,2004.213c-610.176,211.293-1276.107-112.064-1487.401-722.24 C63.223,976.885,91.239,657.858,221.938,388.691c65.35-134.583,156.371-256.702,269.19-358.38 c56.41-50.839,118.269-96.568,185.094-136.191c16.706-9.906,33.723-19.429,51.042-28.556v6.021h1082.213v-11.392 c8.312,4.284,16.574,8.667,24.782,13.149c16.418,8.963,32.625,18.32,48.607,28.063c31.963,19.486,63.022,40.516,93.054,63.029 c60.062,45.026,116.011,95.986,166.851,152.396c101.678,112.819,182.917,247.437,235.74,399.981 C2589.803,1126.987,2266.446,1792.919,1656.27,2004.213z"/> <path clip-path="url(#SVGID_2_)" fill="#6F6A64" d="M1654.637,1999.497c-607.571,210.391-1270.66-111.586-1481.052-719.157 C68.39,976.554,96.286,658.889,226.428,390.871c65.071-134.009,155.703-255.606,268.041-356.85 c56.169-50.622,117.764-96.156,184.304-135.609c16.635-9.863,33.579-19.347,50.824-28.434v1.608H1782.21v-19.455 c268.018,130.142,486.388,362.529,591.584,666.314C2584.186,1126.016,2262.208,1789.105,1654.637,1999.497z"/> <path clip-path="url(#SVGID_2_)" fill="#706B65" d="M1653.004,1994.781c-604.966,209.489-1265.213-111.108-1474.703-716.074 C73.556,976.223,101.333,659.92,230.917,393.051c64.792-133.434,155.036-254.51,266.892-355.32 c55.928-50.405,117.259-95.744,183.514-135.028c16.564-9.821,33.435-19.264,50.606-28.312c8.586-4.524,17.247-8.95,25.981-13.276 v10.471h1022.12v-14.966c266.869,129.584,484.303,360.975,589.048,663.458C2578.568,1125.044,2257.97,1785.291,1653.004,1994.781 z"/> <path clip-path="url(#SVGID_2_)" fill="#716C66" d="M1651.371,1990.065c-602.362,208.588-1259.766-110.63-1468.354-712.991 c-104.294-301.181-76.636-616.122,52.39-881.842C299.92,262.371,389.775,141.817,501.15,41.441 C556.837-8.747,617.904-53.891,683.873-93.006c32.985-19.557,67.195-37.608,102.57-54.028v18.619h991.407v-10.477 c265.72,129.026,482.218,359.421,586.511,660.602C2572.95,1124.073,2253.733,1781.477,1651.371,1990.065z"/> <path clip-path="url(#SVGID_2_)" fill="#726D68" d="M1649.738,1985.349c-599.757,207.686-1254.319-110.151-1462.005-709.908 C83.89,975.562,111.428,661.982,239.896,397.411C304.13,265.126,393.597,145.093,504.49,45.15 c55.447-49.971,116.25-94.919,181.933-133.865c32.842-19.473,66.904-37.445,102.127-53.794v14.095h987.12v-5.987 c264.571,128.468,480.133,357.867,583.976,657.745C2567.332,1123.101,2249.495,1777.663,1649.738,1985.349z"/> <path clip-path="url(#SVGID_2_)" fill="#736E69" d="M1648.105,1980.633c-597.153,206.784-1248.872-109.673-1455.656-706.825 c-103.392-298.576-75.974-610.794,51.937-874.216C308.341,267.88,397.419,148.368,507.83,48.86 C563.036-0.894,623.575-45.647,688.974-84.424c32.699-19.388,66.614-37.282,101.683-53.561v9.57h982.834v-1.498 c263.422,127.91,478.048,356.313,581.439,654.889C2561.714,1122.13,2245.258,1773.849,1648.105,1980.633z"/> <path clip-path="url(#SVGID_2_)" fill="#75706A" d="M1646.472,1975.917c-594.548,205.882-1243.425-109.194-1449.307-703.743 c-102.941-297.274-75.642-608.13,51.71-870.403C312.551,270.635,401.241,151.644,511.171,52.57 c54.965-49.537,115.24-94.095,180.353-132.702c32.557-19.304,66.323-37.12,101.24-53.327v5.045h928.817v-19.707 c16.756,7.17,33.338,14.739,49.73,22.699C2033.584,1.93,2247.273,229.336,2350.214,526.61 C2556.096,1121.158,2241.02,1770.035,1646.472,1975.917z"/> <path clip-path="url(#SVGID_2_)" fill="#76716B" d="M1644.839,1971.201c-591.944,204.98-1237.978-108.716-1442.958-700.66 c-102.49-295.972-75.311-605.466,51.483-866.59C316.762,273.389,405.063,154.92,514.511,56.279 c54.724-49.32,114.735-93.683,179.563-132.121c32.414-19.219,66.032-36.957,100.796-53.093v0.521h924.748v-15.118 c16.683,7.139,33.192,14.675,49.512,22.599c261.124,126.794,473.877,353.204,576.367,649.176 C2550.478,1120.187,2236.782,1766.221,1644.839,1971.201z"/> <path clip-path="url(#SVGID_2_)" fill="#77726D" d="M1643.206,1966.485c-589.339,204.078-1232.531-108.238-1436.609-697.577 c-102.039-294.669-74.98-602.802,51.257-862.777c63.118-129.988,151.031-247.936,259.997-346.142 c54.483-49.103,114.23-93.271,178.773-131.54c32.271-19.135,65.742-36.795,100.353-52.86 c17.306-8.033,34.896-15.666,52.765-22.886v18.883h867.914v-10.529c16.61,7.108,33.046,14.61,49.295,22.5 c259.975,126.237,471.792,351.65,573.832,646.32C2544.86,1119.215,2232.545,1762.407,1643.206,1966.485z"/> <path clip-path="url(#SVGID_2_)" fill="#78736E" d="M1641.573,1961.769c-586.734,203.176-1227.083-107.759-1430.26-694.494 c-101.588-293.367-74.648-600.138,51.03-858.964c62.839-129.413,150.363-246.84,258.848-344.612 C575.434,14.813,634.917-29.16,699.175-67.26c32.129-19.05,65.451-36.632,99.909-52.626 c17.229-7.997,34.742-15.597,52.531-22.785v14.257h864.079v-5.94c16.536,7.076,32.9,14.545,49.077,22.4 c258.826,125.679,469.707,350.096,571.295,643.463C2539.242,1118.244,2228.307,1758.593,1641.573,1961.769z"/> <path clip-path="url(#SVGID_2_)" fill="#7A756F" d="M1639.94,1957.053c-584.13,202.274-1221.636-107.281-1423.911-691.411 c-101.137-292.065-74.317-597.474,50.804-855.151c62.56-128.839,149.696-245.744,257.699-343.082 C578.534,18.74,637.753-25.038,701.725-62.969c31.986-18.965,65.161-36.469,99.466-52.393 c17.153-7.962,34.588-15.528,52.298-22.684v9.631h860.243v-1.351c16.463,7.045,32.754,14.481,48.859,22.301 c257.677,125.121,467.622,348.542,568.759,640.607C2533.625,1117.272,2224.069,1754.779,1639.94,1957.053z"/> <path clip-path="url(#SVGID_2_)" fill="#7B7670" d="M1638.307,1952.337c-581.525,201.372-1216.189-106.803-1417.562-688.328 c-100.686-290.763-73.986-594.81,50.577-851.338c62.281-128.264,149.028-244.648,256.55-341.552 c53.761-48.452,112.716-92.034,176.403-129.796c31.844-18.881,64.87-36.307,99.022-52.159 c17.076-7.926,34.433-15.459,52.065-22.583v5.005h806.741v-16.627c33.432,12.454,66.241,26.496,98.307,42.066 c256.528,124.563,465.537,346.988,566.223,637.751C2528.007,1116.301,2219.832,1750.965,1638.307,1952.337z"/> <path clip-path="url(#SVGID_2_)" fill="#7C7772" d="M1636.673,1947.621c-578.921,200.47-1210.742-106.324-1411.213-685.245 S331.785,51.634,910.706-148.837v20.423h749.659v-11.949c33.283,12.399,65.944,26.377,97.866,41.878 c255.379,124.005,463.452,345.434,563.687,634.894C2522.389,1115.329,2215.594,1747.151,1636.673,1947.621z"/> <path clip-path="url(#SVGID_2_)" fill="#7D7873" d="M1635.04,1942.905c-576.316,199.569-1205.295-105.846-1404.864-682.162 S336.023,55.448,912.339-144.121v15.707h746.286v-7.272c33.133,12.343,65.647,26.258,97.426,41.689 c254.23,123.447,461.367,343.88,561.151,632.038C2516.771,1114.358,2211.357,1743.337,1635.04,1942.905z"/> <path clip-path="url(#SVGID_2_)" fill="#7E7974" d="M1633.407,1938.189c-573.712,198.667-1199.848-105.368-1398.515-679.079 S340.26,59.262,913.972-139.405v10.991h742.913v-2.594c32.983,12.287,65.351,26.14,96.986,41.501 c253.081,122.889,459.282,342.326,558.615,629.182C2511.153,1113.386,2207.119,1739.523,1633.407,1938.189z"/> <path clip-path="url(#SVGID_2_)" fill="#807B76" d="M1631.774,1933.473c-571.107,197.765-1194.401-104.889-1392.166-675.996 S344.498,63.076,915.605-134.689v6.275h689.846v-15.087c16.708,5.329,33.278,11.056,49.695,17.171 c32.833,12.231,65.054,26.021,96.546,41.312c251.932,122.331,457.197,340.772,556.079,626.325 C2505.535,1112.415,2202.881,1735.708,1631.774,1933.473z"/> <path clip-path="url(#SVGID_2_)" fill="#817C77" d="M1630.141,1928.757c-568.503,196.863-1188.954-104.411-1385.817-672.913 S348.736,66.89,917.238-129.973v1.559h686.7v-10.331c16.632,5.305,33.126,11.005,49.468,17.093 c32.683,12.176,64.757,25.902,96.105,41.124c250.783,121.773,455.112,339.217,553.543,623.469 C2499.917,1111.443,2198.644,1731.894,1630.141,1928.757z"/> <path clip-path="url(#SVGID_2_)" fill="#827D78" d="M1628.508,1924.041c-565.898,195.961-1183.507-103.933-1379.468-669.831 S352.973,70.704,918.871-125.257c17.684-6.124,35.419-11.763,53.19-16.926v13.768h580.298v-20.231 c67.264,17.951,132.563,42.303,194.972,72.607c249.635,121.215,453.027,337.663,551.007,620.612 C2494.3,1110.472,2194.406,1728.08,1628.508,1924.041z"/> <path clip-path="url(#SVGID_2_)" fill="#837E79" d="M1626.875,1919.325c-563.294,195.059-1178.06-103.454-1373.119-666.748 S357.211,74.518,920.504-120.541c17.603-6.096,35.256-11.709,52.945-16.848v8.975h577.628v-15.408 c66.955,17.868,131.953,42.108,194.074,72.272c248.486,120.658,450.942,336.109,548.471,617.756 C2488.682,1109.5,2190.169,1724.266,1626.875,1919.325z"/> <path clip-path="url(#SVGID_2_)" fill="#85807B" d="M1625.242,1914.609c-560.689,194.157-1172.613-102.976-1366.77-663.665 S361.448,78.332,922.137-115.825c35.043-12.135,70.286-22.351,105.615-30.703v18.114h522.042v-10.584 c66.645,17.786,131.343,41.913,193.177,71.938c247.337,120.1,448.857,334.555,545.935,614.9 C2483.064,1108.529,2185.931,1720.452,1625.242,1914.609z"/> <path clip-path="url(#SVGID_2_)" fill="#86817C" d="M1623.609,1909.893c-558.084,193.255-1167.165-102.497-1360.421-660.582 S365.686,82.146,923.77-111.109c34.88-12.078,69.96-22.247,105.124-30.56v13.255h519.617v-5.76 c66.336,17.703,130.733,41.719,192.28,71.604c246.188,119.542,446.772,333.001,543.399,612.043 C2477.446,1107.557,2181.693,1716.638,1623.609,1909.893z"/> <path clip-path="url(#SVGID_2_)" fill="#87827D" d="M1621.976,1905.177c-555.48,192.353-1161.718-102.019-1354.072-657.499 S369.924,85.96,925.403-106.393c34.717-12.022,69.633-22.143,104.634-30.417v8.396h517.192v-0.937 c66.026,17.62,130.123,41.524,191.382,71.27c245.039,118.984,444.687,331.447,540.863,609.187 C2471.828,1106.586,2177.456,1712.824,1621.976,1905.177z"/> <path clip-path="url(#SVGID_2_)" fill="#89847F" d="M1620.343,1900.461c-552.875,191.451-1156.271-101.541-1347.723-654.416 S374.161,89.774,927.036-101.677c34.555-11.966,69.307-22.039,104.143-30.275v3.538h414.865v-17.675 c33.706,5.587,67.044,12.793,99.902,21.562c65.716,17.538,129.512,41.329,190.485,70.936 c243.89,118.426,442.601,329.893,538.327,606.331C2466.21,1105.614,2173.218,1709.01,1620.343,1900.461z"/> <path clip-path="url(#SVGID_2_)" fill="#8A8580" d="M1618.71,1895.745c-550.271,190.549-1150.824-101.062-1341.374-651.333 S378.399,93.588,928.67-96.961c68.784-23.819,138.353-40.104,207.809-49.291v17.838h308.754v-12.75 c33.547,5.561,66.728,12.732,99.431,21.46c65.407,17.455,128.902,41.135,189.588,70.602 c242.741,117.868,440.516,328.339,535.791,603.474C2460.592,1104.643,2168.98,1705.196,1618.71,1895.745z"/> <path clip-path="url(#SVGID_2_)" fill="#8B8681" d="M1617.077,1891.03c-547.666,189.647-1145.377-100.584-1335.024-648.25 S382.636,97.402,930.303-92.245c68.458-23.706,137.698-39.914,206.826-49.058v12.889h206.149v-19.565 c136.014,9.097,267.998,44.711,388.794,103.366c241.592,117.31,438.432,326.785,533.255,600.618 C2454.975,1103.671,2164.743,1701.382,1617.077,1891.03z"/> <path clip-path="url(#SVGID_2_)" fill="#8D8883" d="M1615.444,1886.314c-545.062,188.745-1139.93-100.106-1328.676-645.167 S386.874,101.216,931.936-87.529c68.133-23.593,137.044-39.724,205.842-48.825v7.94h205.169v-14.584 c135.367,9.054,266.724,44.499,386.945,102.875c240.443,116.752,436.346,325.231,530.719,597.761 C2449.357,1102.7,2160.505,1697.568,1615.444,1886.314z"/> <path clip-path="url(#SVGID_2_)" fill="#8E8984" d="M1613.811,1881.598c-542.457,187.844-1134.483-99.627-1322.326-642.084 S391.112,105.03,933.569-82.813c135.614-46.961,274.327-64.215,409.047-55.204s265.449,44.286,385.096,102.383 c239.294,116.194,434.261,323.676,528.183,594.905C2443.739,1101.728,2156.268,1693.754,1613.811,1881.598z"/> <path clip-path="url(#SVGID_2_)" fill="#8F8A86" d="M1612.178,1876.882C1072.325,2063.823,483.142,1777.733,296.2,1237.88 S395.349,108.844,935.202-78.097c134.963-46.735,273.009-63.906,407.083-54.939s264.175,44.073,383.247,101.892 c238.145,115.637,432.176,322.122,525.647,592.049C2438.121,1100.757,2152.03,1689.94,1612.178,1876.882z"/> <path clip-path="url(#SVGID_2_)" fill="#918C87" d="M1610.545,1872.166c-537.248,186.04-1123.589-98.671-1309.628-635.919 S399.587,112.658,936.835-73.381c134.312-46.51,271.692-63.598,405.119-54.674c133.427,8.924,262.9,43.861,381.398,101.4 c236.996,115.079,430.091,320.568,523.111,589.192C2432.503,1099.785,2147.792,1686.126,1610.545,1872.166z"/> <path clip-path="url(#SVGID_2_)" fill="#928D88" d="M1608.911,1867.45c-534.643,185.138-1118.141-98.192-1303.279-632.836 S403.824,116.472,938.468-68.665c133.661-46.284,270.375-63.29,403.155-54.409s261.626,43.648,379.549,100.909 c235.847,114.521,428.006,319.014,520.575,586.336C2426.885,1098.814,2143.555,1682.312,1608.911,1867.45z"/> <path clip-path="url(#SVGID_2_)" fill="#938E8A" d="M1607.278,1862.734c-532.039,184.236-1112.694-97.714-1296.93-629.753 S408.062,120.287,940.101-63.949c133.01-46.059,269.058-62.981,401.191-54.144s260.351,43.436,377.7,100.417 c234.698,113.963,425.921,317.46,518.039,583.479C2421.267,1097.842,2139.317,1678.498,1607.278,1862.734z"/> <path clip-path="url(#SVGID_2_)" fill="#95908B" d="M1605.645,1858.018c-529.434,183.334-1107.247-97.236-1290.581-626.67 S412.3,124.101,941.734-59.233c132.359-45.834,267.741-62.673,399.227-53.879s259.077,43.223,375.851,99.925 c233.549,113.405,423.836,315.906,515.503,580.623C2415.649,1096.871,2135.08,1674.684,1605.645,1858.018z"/> <path clip-path="url(#SVGID_2_)" fill="#96918D" d="M1604.012,1853.302c-526.83,182.432-1101.8-96.757-1284.232-623.587 s96.757-1101.8,623.587-1284.232c263.415-91.216,538.865-67.027,771.265,45.82s421.751,314.352,512.967,577.767 C2410.031,1095.899,2130.842,1670.87,1604.012,1853.302z"/> <path clip-path="url(#SVGID_2_)" fill="#97928E" d="M1602.379,1848.586c-524.225,181.53-1096.353-96.279-1277.883-620.504 S420.775,131.729,945-49.802c262.113-90.765,536.201-66.695,767.452,45.594s419.666,312.798,510.431,574.91 C2404.414,1094.928,2126.604,1667.056,1602.379,1848.586z"/> <path clip-path="url(#SVGID_2_)" fill="#99948F" d="M1600.746,1843.87c-521.621,180.628-1090.906-95.801-1271.534-617.421 S425.012,135.543,946.633-45.086c260.81-90.314,533.537-66.364,763.639,45.367s417.581,311.244,507.895,572.054 C2398.796,1093.956,2122.367,1663.242,1600.746,1843.87z"/> <path clip-path="url(#SVGID_2_)" fill="#9A9591" d="M1599.113,1839.154c-519.016,179.726-1085.459-95.322-1265.185-614.338 S429.25,139.357,948.266-40.37c259.508-89.863,530.873-66.033,759.826,45.141s415.496,309.69,505.359,569.198 C2393.178,1092.985,2118.129,1659.428,1599.113,1839.154z"/> <path clip-path="url(#SVGID_2_)" fill="#9C9692" d="M1597.48,1834.438c-516.412,178.825-1080.012-94.844-1258.836-611.255 S433.488,143.171,949.899-35.654c258.206-89.412,528.209-65.701,756.013,44.914s413.411,308.135,502.823,566.341 C2387.56,1092.013,2113.892,1655.614,1597.48,1834.438z"/> <path clip-path="url(#SVGID_2_)" fill="#9D9894" d="M1595.847,1829.722C1082.04,2007.645,521.282,1735.357,343.36,1221.55 S437.725,146.985,951.532-30.938c256.904-88.961,525.545-65.37,752.2,44.688s411.326,306.581,500.287,563.485 C2381.942,1091.042,2109.654,1651.799,1595.847,1829.722z"/> <path clip-path="url(#SVGID_2_)" fill="#9E9995" d="M1594.214,1825.006c-511.203,177.021-1069.118-93.887-1246.138-605.09 S441.963,150.799,953.165-26.222c255.601-88.51,522.881-65.039,748.387,44.461s409.241,305.027,497.751,560.629 C2376.324,1090.07,2105.417,1647.985,1594.214,1825.006z"/> <path clip-path="url(#SVGID_2_)" fill="#A09B97" d="M1592.581,1820.29c-508.598,176.119-1063.67-93.409-1239.789-602.007 S446.201,154.613,954.798-21.506c254.299-88.059,520.217-64.707,744.574,44.235s407.156,303.473,495.215,557.772 C2370.707,1089.099,2101.179,1644.171,1592.581,1820.29z"/> <path clip-path="url(#SVGID_2_)" fill="#A19C98" d="M1590.948,1815.574c-505.993,175.217-1058.223-92.931-1233.44-598.924 S450.438,158.427,956.431-16.79c252.997-87.608,517.553-64.376,740.761,44.008s405.07,301.919,492.679,554.916 C2365.089,1088.127,2096.941,1640.357,1590.948,1815.574z"/> <path clip-path="url(#SVGID_2_)" fill="#A29D9A" d="M1589.315,1810.858c-503.389,174.315-1052.776-92.452-1227.091-595.841 S454.676,162.241,958.065-12.074c251.694-87.157,514.888-64.044,736.948,43.782s402.985,300.365,490.143,552.059 C2359.471,1087.156,2092.704,1636.543,1589.315,1810.858z"/> <path clip-path="url(#SVGID_2_)" fill="#A49F9B" d="M1587.682,1806.142c-500.784,173.413-1047.329-91.974-1220.742-592.758 S458.913,166.055,959.698-7.358c250.392-86.707,512.224-63.713,733.135,43.555s400.9,298.811,487.607,549.203 C2353.853,1086.184,2088.466,1632.729,1587.682,1806.142z"/> <path clip-path="url(#SVGID_2_)" fill="#A5A09D" d="M1586.049,1801.426c-498.18,172.511-1041.882-91.495-1214.393-589.675 S463.151,169.869,961.331-2.642c249.09-86.256,509.56-63.382,729.322,43.329s398.815,297.257,485.071,546.347 C2348.235,1085.213,2084.229,1628.915,1586.049,1801.426z"/> <path clip-path="url(#SVGID_2_)" fill="#A6A29E" d="M1584.416,1796.71c-495.575,171.609-1036.435-91.017-1208.044-586.592 S467.389,173.683,962.964,2.074c247.788-85.805,506.896-63.05,725.509,43.102s396.73,295.703,482.535,543.49 C2342.617,1084.241,2079.991,1625.101,1584.416,1796.71z"/> <path clip-path="url(#SVGID_2_)" fill="#A8A3A0" d="M1582.783,1791.994c-492.971,170.707-1030.988-90.539-1201.695-583.509 S471.626,177.497,964.597,6.79c246.485-85.354,504.232-62.719,721.696,42.875s394.645,294.149,479.999,540.634 C2336.999,1083.27,2075.753,1621.287,1582.783,1791.994z"/> <path clip-path="url(#SVGID_2_)" fill="#A9A5A1" d="M1581.15,1787.278c-490.366,169.805-1025.541-90.06-1195.346-580.426 S475.864,181.311,966.23,11.506c245.183-84.903,501.568-62.388,717.883,42.649s392.56,292.594,477.463,537.778 C2331.381,1082.298,2071.516,1617.473,1581.15,1787.278z"/> <path clip-path="url(#SVGID_2_)" fill="#ABA6A3" d="M1579.516,1782.562c-487.761,168.903-1020.094-89.582-1188.997-577.344 S480.101,185.125,967.863,16.222c243.881-84.452,498.904-62.056,714.07,42.422s390.475,291.04,474.927,534.921 C2325.763,1081.327,2067.278,1613.659,1579.516,1782.562z"/> <circle clip-path="url(#SVGID_2_)" fill="#ACA7A4" cx="1273.69" cy="899.392" r="929.632"/> <circle clip-path="url(#SVGID_2_)" fill="#ADA9A5" cx="1273.69" cy="899.392" r="924.641"/> <circle clip-path="url(#SVGID_2_)" fill="#AFAAA7" cx="1273.69" cy="899.392" r="919.651"/> <circle clip-path="url(#SVGID_2_)" fill="#B0ACA8" cx="1273.69" cy="899.392" r="914.66"/> <circle clip-path="url(#SVGID_2_)" fill="#B1ADAA" cx="1273.69" cy="899.392" r="909.669"/> <circle clip-path="url(#SVGID_2_)" fill="#B3AEAB" cx="1273.69" cy="899.392" r="904.679"/> <circle clip-path="url(#SVGID_2_)" fill="#B4B0AD" cx="1273.69" cy="899.392" r="899.688"/> <circle clip-path="url(#SVGID_2_)" fill="#B5B1AE" cx="1273.69" cy="899.392" r="894.697"/> <circle clip-path="url(#SVGID_2_)" fill="#B7B3B0" cx="1273.69" cy="899.392" r="889.706"/> <circle clip-path="url(#SVGID_2_)" fill="#B8B4B1" cx="1273.69" cy="899.392" r="884.716"/> <circle clip-path="url(#SVGID_2_)" fill="#BAB6B3" cx="1273.69" cy="899.392" r="879.725"/> <circle clip-path="url(#SVGID_2_)" fill="#BBB7B4" cx="1273.69" cy="899.392" r="874.734"/> <circle clip-path="url(#SVGID_2_)" fill="#BCB8B6" cx="1273.69" cy="899.392" r="869.744"/> <circle clip-path="url(#SVGID_2_)" fill="#BEBAB7" cx="1273.69" cy="899.392" r="864.753"/> <circle clip-path="url(#SVGID_2_)" fill="#BFBBB9" cx="1273.69" cy="899.392" r="859.762"/> <circle clip-path="url(#SVGID_2_)" fill="#C0BDBA" cx="1273.69" cy="899.392" r="854.772"/> <circle clip-path="url(#SVGID_2_)" fill="#C2BEBC" cx="1273.69" cy="899.392" r="849.781"/> <circle clip-path="url(#SVGID_2_)" fill="#C3C0BD" cx="1273.69" cy="899.392" r="844.79"/> <circle clip-path="url(#SVGID_2_)" fill="#C5C1BF" cx="1273.69" cy="899.392" r="839.799"/> <circle clip-path="url(#SVGID_2_)" fill="#C6C3C1" cx="1273.69" cy="899.392" r="834.809"/> <circle clip-path="url(#SVGID_2_)" fill="#C7C4C2" cx="1273.69" cy="899.392" r="829.818"/> <circle clip-path="url(#SVGID_2_)" fill="#C9C6C4" cx="1273.69" cy="899.392" r="824.827"/> <circle clip-path="url(#SVGID_2_)" fill="#CAC7C5" cx="1273.69" cy="899.392" r="819.837"/> <circle clip-path="url(#SVGID_2_)" fill="#CCC8C7" cx="1273.69" cy="899.392" r="814.846"/> <circle clip-path="url(#SVGID_2_)" fill="#CDCAC8" cx="1273.69" cy="899.392" r="809.855"/> <circle clip-path="url(#SVGID_2_)" fill="#CECBCA" cx="1273.69" cy="899.392" r="804.865"/> <circle clip-path="url(#SVGID_2_)" fill="#D0CDCB" cx="1273.69" cy="899.392" r="799.874"/> <circle clip-path="url(#SVGID_2_)" fill="#D1CECD" cx="1273.69" cy="899.392" r="794.883"/> <circle clip-path="url(#SVGID_2_)" fill="#D3D0CE" cx="1273.69" cy="899.392" r="789.892"/> <circle clip-path="url(#SVGID_2_)" fill="#D4D1D0" cx="1273.69" cy="899.392" r="784.902"/> <circle clip-path="url(#SVGID_2_)" fill="#D6D3D1" cx="1273.69" cy="899.392" r="779.911"/> <circle clip-path="url(#SVGID_2_)" fill="#D7D4D3" cx="1273.69" cy="899.392" r="774.92"/> <circle clip-path="url(#SVGID_2_)" fill="#D8D6D5" cx="1273.69" cy="899.392" r="769.93"/> <circle clip-path="url(#SVGID_2_)" fill="#DAD7D6" cx="1273.69" cy="899.392" r="764.939"/> <circle clip-path="url(#SVGID_2_)" fill="#DBD9D8" cx="1273.69" cy="899.392" r="759.948"/> <circle clip-path="url(#SVGID_2_)" fill="#DDDAD9" cx="1273.69" cy="899.392" r="754.957"/> <circle clip-path="url(#SVGID_2_)" fill="#DEDCDB" cx="1273.69" cy="899.392" r="749.967"/> <circle clip-path="url(#SVGID_2_)" fill="#DFDDDC" cx="1273.69" cy="899.392" r="744.976"/> <circle clip-path="url(#SVGID_2_)" fill="#E1DFDE" cx="1273.69" cy="899.392" r="739.985"/> <circle clip-path="url(#SVGID_2_)" fill="#E2E0E0" cx="1273.69" cy="899.392" r="734.995"/> <circle clip-path="url(#SVGID_2_)" fill="#E4E2E1" cx="1273.69" cy="899.392" r="730.004"/> <circle clip-path="url(#SVGID_2_)" fill="#E5E3E3" cx="1273.69" cy="899.392" r="725.013"/> <circle clip-path="url(#SVGID_2_)" fill="#E7E5E4" cx="1273.69" cy="899.392" r="720.023"/> <circle clip-path="url(#SVGID_2_)" fill="#E8E6E6" cx="1273.69" cy="899.392" r="715.032"/> <circle clip-path="url(#SVGID_2_)" fill="#E9E8E7" cx="1273.69" cy="899.392" r="710.041"/> <circle clip-path="url(#SVGID_2_)" fill="#EBE9E9" cx="1273.69" cy="899.392" r="705.05"/> <circle clip-path="url(#SVGID_2_)" fill="#ECEBEB" cx="1273.69" cy="899.392" r="700.06"/> <circle clip-path="url(#SVGID_2_)" fill="#EEECEC" cx="1273.69" cy="899.392" r="695.069"/> <circle clip-path="url(#SVGID_2_)" fill="#EFEEEE" cx="1273.69" cy="899.392" r="690.078"/> <circle clip-path="url(#SVGID_2_)" fill="#F0EFEF" cx="1273.69" cy="899.392" r="685.088"/> <circle clip-path="url(#SVGID_2_)" fill="#F2F1F1" cx="1273.69" cy="899.392" r="680.097"/> <circle clip-path="url(#SVGID_2_)" fill="#F3F2F2" cx="1273.69" cy="899.392" r="675.106"/> <circle clip-path="url(#SVGID_2_)" fill="#F5F4F4" cx="1273.69" cy="899.392" r="670.115"/> <circle clip-path="url(#SVGID_2_)" fill="#F6F5F5" cx="1273.69" cy="899.392" r="665.125"/> <circle clip-path="url(#SVGID_2_)" fill="#F7F7F6" cx="1273.69" cy="899.392" r="660.134"/> <circle clip-path="url(#SVGID_2_)" fill="#F8F8F8" cx="1273.69" cy="899.392" r="655.143"/> <circle clip-path="url(#SVGID_2_)" fill="#FAF9F9" cx="1273.69" cy="899.392" r="650.153"/> <circle clip-path="url(#SVGID_2_)" fill="#FBFAFA" cx="1273.69" cy="899.392" r="645.162"/> <circle clip-path="url(#SVGID_2_)" fill="#FCFCFC" cx="1273.69" cy="899.392" r="640.171"/> <circle clip-path="url(#SVGID_2_)" fill="#FDFDFD" cx="1273.69" cy="899.392" r="635.181"/> <circle clip-path="url(#SVGID_2_)" fill="#FEFEFE" cx="1273.69" cy="899.392" r="630.19"/> <circle clip-path="url(#SVGID_2_)" fill="#FFFFFF" cx="1273.69" cy="899.392" r="625.199"/> <circle clip-path="url(#SVGID_2_)" fill="#FFFFFF" cx="1273.69" cy="899.392" r="620.208"/> <circle clip-path="url(#SVGID_2_)" fill="#FFFFFF" cx="1273.69" cy="899.392" r="310.104"/> </g> </g> </g> </svg>