<svg width="20" height="20" viewBox="0 0 20 20" fill="none" xmlns="http://www.w3.org/2000/svg">
<path d="M2.73203 14.9765C-3.10788 2.93521 11.7879 -0.024929 19.9658 0.000157664C18.8988 13.3862 16.4334 15.4622 15.671 16.6059C14.9085 17.7496 9.50203 20.5915 5.02896 17.1859C1.57926 21.3033 0.253129 19.9481 0.0212739 18.7558C-0.103794 18.3991 0.263263 17.1439 2.73203 14.9765Z" fill="#A6A6A6"/>
<path d="M10.6092 12.5584C10.8621 12.5584 11.0874 12.5162 11.2852 12.432C11.4862 12.3477 11.6548 12.2293 11.7909 12.077C11.9271 11.9246 12.0308 11.7398 12.1022 11.5226C12.1767 11.3054 12.214 11.0622 12.214 10.7932V6.58187H13.5221V10.7932C13.5221 11.2114 13.454 11.5988 13.3179 11.9554C13.185 12.3088 12.9921 12.6151 12.7392 12.8745C12.4896 13.1306 12.1848 13.3316 11.825 13.4775C11.4651 13.6201 11.0599 13.6915 10.6092 13.6915C10.1554 13.6915 9.7485 13.6201 9.38865 13.4775C9.02879 13.3316 8.72243 13.1306 8.46956 12.8745C8.21993 12.6151 8.02703 12.3088 7.89087 11.9554C7.75795 11.5988 7.69149 11.2114 7.69149 10.7932V6.58187H8.99962V10.7883C8.99962 11.0574 9.03528 11.3005 9.1066 11.5177C9.18116 11.7349 9.28653 11.9214 9.42269 12.077C9.56209 12.2293 9.73067 12.3477 9.92843 12.432C10.1294 12.5162 10.3564 12.5584 10.6092 12.5584Z" fill="white"/>
</svg>
