<svg width="20" height="20" viewBox="0 0 20 20" fill="none" xmlns="http://www.w3.org/2000/svg">
<path d="M2.73203 14.9765C-3.10788 2.93521 11.7879 -0.024929 19.9658 0.000157664C18.8988 13.3862 16.4334 15.4622 15.671 16.6059C14.9085 17.7496 9.50203 20.5915 5.02896 17.1859C1.57926 21.3033 0.253129 19.9481 0.0212739 18.7558C-0.103794 18.3991 0.263263 17.1439 2.73203 14.9765Z" fill="#E08438"/>
<path d="M14.023 10.0978C14.023 10.6132 13.9371 11.0866 13.7653 11.5177C13.5935 11.9489 13.3519 12.3201 13.0407 12.6313C12.7295 12.9426 12.355 13.1841 11.9174 13.3559C11.4797 13.5277 10.9934 13.6136 10.4585 13.6136H7.77902V6.58187H10.4585C10.9934 6.58187 11.4797 6.6694 11.9174 6.84447C12.355 7.01629 12.7295 7.25781 13.0407 7.56904C13.3519 7.87703 13.5935 8.24661 13.7653 8.67779C13.9371 9.10897 14.023 9.58229 14.023 10.0978ZM12.6808 10.0978C12.6808 9.71197 12.629 9.3667 12.5252 9.06196C12.4247 8.75397 12.2772 8.49462 12.0827 8.28389C11.8914 8.06992 11.658 7.9062 11.3824 7.79274C11.1101 7.67927 10.8021 7.62253 10.4585 7.62253H9.09201V12.573H10.4585C10.8021 12.573 11.1101 12.5162 11.3824 12.4028C11.658 12.2893 11.8914 12.1272 12.0827 11.9165C12.2772 11.7025 12.4247 11.4432 12.5252 11.1384C12.629 10.8304 12.6808 10.4835 12.6808 10.0978Z" fill="white"/>
</svg>
