<svg width="51" height="50" viewBox="0 0 51 50" fill="none" xmlns="http://www.w3.org/2000/svg">
<g filter="url(#filter0_d_1619_5942)">
<path d="M10.1952 31.5612C-2.00901 6.39352 29.1203 0.206471 46.2105 0.258905C43.9805 28.2373 38.8285 32.5765 37.2351 34.9669C35.6417 37.3573 24.3432 43.2972 14.9954 36.1792C7.78619 44.785 5.01483 41.9524 4.5303 39.4604C4.26893 38.7149 5.03601 36.0913 10.1952 31.5612Z" fill="#C1F2E0"/>
<path d="M26.0939 24.387C26.4509 24.387 26.7508 24.3442 26.9936 24.2585C27.2364 24.1728 27.4292 24.0585 27.572 23.9157C27.7196 23.7729 27.8243 23.6063 27.8862 23.4159C27.9528 23.2255 27.9861 23.0231 27.9861 22.8089C27.9861 22.5852 27.9504 22.3852 27.879 22.2091C27.8076 22.0282 27.6958 21.8759 27.5434 21.7521C27.3911 21.6235 27.1935 21.526 26.9507 21.4593C26.7127 21.3927 26.4247 21.3593 26.0867 21.3593H24.1516V24.387H26.0939ZM24.1516 17.0463V20.0312H25.6797C26.3366 20.0312 26.8317 19.9121 27.165 19.6741C27.503 19.4361 27.672 19.0576 27.672 18.5387C27.672 18.0008 27.5196 17.6176 27.2149 17.3891C26.9103 17.1606 26.4342 17.0463 25.7868 17.0463H24.1516ZM25.7868 15.5611C26.4628 15.5611 27.0412 15.6253 27.522 15.7539C28.0028 15.8824 28.3956 16.0657 28.7002 16.3037C29.0097 16.5417 29.2358 16.8297 29.3786 17.1677C29.5214 17.5057 29.5928 17.8866 29.5928 18.3102C29.5928 18.553 29.5571 18.7863 29.4857 19.01C29.4143 19.229 29.3024 19.4361 29.1501 19.6313C29.0025 19.8217 28.8121 19.9955 28.5788 20.1526C28.3503 20.3096 28.0766 20.4429 27.7576 20.5524C29.1763 20.8714 29.8856 21.6378 29.8856 22.8518C29.8856 23.2897 29.8023 23.6944 29.6357 24.0657C29.469 24.437 29.2263 24.7583 28.9073 25.0297C28.5884 25.2963 28.1956 25.5057 27.7291 25.6581C27.2626 25.8104 26.7294 25.8866 26.1296 25.8866H22.2307V15.5611H25.7868Z" fill="black"/>
</g>
<defs>
<filter id="filter0_d_1619_5942" x="0.48584" y="0.258575" width="49.7246" height="49.7246" filterUnits="userSpaceOnUse" color-interpolation-filters="sRGB">
<feFlood flood-opacity="0" result="BackgroundImageFix"/>
<feColorMatrix in="SourceAlpha" type="matrix" values="0 0 0 0 0 0 0 0 0 0 0 0 0 0 0 0 0 0 127 0" result="hardAlpha"/>
<feOffset dy="4"/>
<feGaussianBlur stdDeviation="2"/>
<feComposite in2="hardAlpha" operator="out"/>
<feColorMatrix type="matrix" values="0 0 0 0 0 0 0 0 0 0 0 0 0 0 0 0 0 0 0.25 0"/>
<feBlend mode="normal" in2="BackgroundImageFix" result="effect1_dropShadow_1619_5942"/>
<feBlend mode="normal" in="SourceGraphic" in2="effect1_dropShadow_1619_5942" result="shape"/>
</filter>
</defs>
</svg>
