<svg width="33" height="34" viewBox="0 0 33 34" fill="none" xmlns="http://www.w3.org/2000/svg">
<path d="M4.51557 24.8339C-5.13678 4.92885 19.4834 0.0355118 33 0.0769818C31.2364 22.2051 27.1616 25.637 25.9014 27.5275C24.6412 29.4181 15.7052 34.116 8.31198 28.4863C2.61024 35.2927 0.418378 33.0524 0.035162 31.0814C-0.171553 30.4918 0.435127 28.4168 4.51557 24.8339Z" fill="#C1F2E0"/>
<path d="M16.9646 18.8907C17.247 18.8907 17.4842 18.8568 17.6762 18.7891C17.8682 18.7213 18.0207 18.6309 18.1337 18.518C18.2504 18.405 18.3332 18.2733 18.3822 18.1226C18.4349 17.972 18.4612 17.812 18.4612 17.6426C18.4612 17.4656 18.433 17.3075 18.3765 17.1682C18.32 17.0251 18.2316 16.9046 18.1111 16.8068C17.9906 16.7051 17.8344 16.6279 17.6423 16.5752C17.4541 16.5225 17.2263 16.4961 16.959 16.4961H15.4285V18.8907H16.9646ZM15.4285 13.085V15.4457H16.6371C17.1566 15.4457 17.5482 15.3516 17.8118 15.1633C18.0791 14.975 18.2127 14.6757 18.2127 14.2653C18.2127 13.8399 18.0923 13.5368 17.8513 13.3561C17.6103 13.1753 17.2338 13.085 16.7218 13.085H15.4285ZM16.7218 11.9103C17.2564 11.9103 17.7139 11.9611 18.0941 12.0628C18.4744 12.1644 18.785 12.3094 19.026 12.4976C19.2707 12.6859 19.4496 12.9137 19.5625 13.181C19.6755 13.4483 19.732 13.7495 19.732 14.0846C19.732 14.2766 19.7037 14.4611 19.6472 14.6381C19.5908 14.8113 19.5023 14.975 19.3818 15.1294C19.2651 15.28 19.1145 15.4174 18.93 15.5417C18.7493 15.6659 18.5328 15.7714 18.2805 15.858C19.4025 16.1102 19.9635 16.7164 19.9635 17.6765C19.9635 18.0229 19.8976 18.3429 19.7658 18.6366C19.6341 18.9303 19.442 19.1844 19.1898 19.399C18.9375 19.6099 18.6269 19.7755 18.2579 19.896C17.8889 20.0165 17.4673 20.0767 16.9929 20.0767H13.9093V11.9103H16.7218Z" fill="black"/>
</svg>
