<svg width="20" height="21" viewBox="0 0 20 21" fill="none" xmlns="http://www.w3.org/2000/svg">
<path d="M2.76621 15.8871C-3.0737 3.84586 11.8221 0.885716 20 0.910802C18.933 14.2969 16.4676 16.3729 15.7052 17.5166C14.9427 18.6602 9.53621 21.5021 5.06314 18.0966C1.61344 22.214 0.287309 20.8587 0.0554536 19.6664C-0.069614 19.3097 0.297442 18.0545 2.76621 15.8871Z" fill="#A6A6A6"/>
<path d="M8.37554 8.12956C8.48577 8.0323 8.60572 7.9399 8.7354 7.85237C8.86832 7.76484 9.01096 7.68865 9.16333 7.62381C9.3157 7.55897 9.48104 7.50872 9.65935 7.47306C9.83766 7.43416 10.0306 7.41471 10.238 7.41471C10.5201 7.41471 10.7762 7.45361 11.0064 7.53142C11.2398 7.60922 11.4392 7.72107 11.6045 7.86696C11.7699 8.0096 11.8979 8.18305 11.9887 8.38729C12.0795 8.59153 12.1248 8.82009 12.1248 9.07296C12.1248 9.31935 12.0892 9.53332 12.0179 9.71487C11.9465 9.89317 11.8574 10.0488 11.7504 10.1817C11.6434 10.3146 11.5251 10.4297 11.3954 10.527C11.269 10.6242 11.149 10.7166 11.0356 10.8042C10.9221 10.8885 10.8232 10.9727 10.7389 11.057C10.6579 11.1381 10.6092 11.2305 10.593 11.3342L10.4812 12.0442H9.65935L9.57668 11.2515C9.55723 11.0992 9.5783 10.9663 9.6399 10.8528C9.70474 10.7361 9.78903 10.6307 9.89277 10.5367C9.99975 10.4394 10.1181 10.347 10.2478 10.2595C10.3774 10.1687 10.499 10.0715 10.6125 9.96774C10.726 9.86075 10.82 9.74242 10.8945 9.61275C10.9723 9.47983 11.0112 9.32259 11.0112 9.14104C11.0112 9.02433 10.9885 8.92059 10.9432 8.82982C10.901 8.7358 10.841 8.65637 10.7632 8.59153C10.6854 8.52345 10.5914 8.47158 10.4812 8.43592C10.3742 8.40026 10.2575 8.38243 10.1311 8.38243C9.94626 8.38243 9.78903 8.4035 9.65935 8.44565C9.53291 8.48455 9.42431 8.52994 9.33354 8.58181C9.246 8.63044 9.17144 8.67582 9.10984 8.71797C9.04824 8.75687 8.99313 8.77632 8.9445 8.77632C8.82779 8.77632 8.7435 8.72769 8.69163 8.63044L8.37554 8.12956ZM9.29463 13.8629C9.29463 13.7624 9.31246 13.6668 9.34812 13.576C9.38703 13.4852 9.4389 13.4074 9.50374 13.3426C9.56858 13.2778 9.64638 13.2259 9.73716 13.187C9.82793 13.1481 9.92519 13.1286 10.0289 13.1286C10.1327 13.1286 10.2283 13.1481 10.3158 13.187C10.4066 13.2259 10.4844 13.2778 10.5493 13.3426C10.6173 13.4074 10.6708 13.4852 10.7097 13.576C10.7486 13.6668 10.7681 13.7624 10.7681 13.8629C10.7681 13.9667 10.7486 14.0639 10.7097 14.1547C10.6708 14.2422 10.6173 14.3184 10.5493 14.3833C10.4844 14.4481 10.4066 14.4984 10.3158 14.534C10.2283 14.5729 10.1327 14.5924 10.0289 14.5924C9.92519 14.5924 9.82793 14.5729 9.73716 14.534C9.64638 14.4984 9.56858 14.4481 9.50374 14.3833C9.4389 14.3184 9.38703 14.2422 9.34812 14.1547C9.31246 14.0639 9.29463 13.9667 9.29463 13.8629Z" fill="white"/>
</svg>
