<svg width="51" height="51" viewBox="0 0 51 51" fill="none" xmlns="http://www.w3.org/2000/svg">
<g filter="url(#filter0_d_1619_5948)">
<path d="M10.1347 31.5886C-2.06956 6.42098 29.0597 0.233937 46.1499 0.286371C43.92 28.2648 38.7679 32.6039 37.1745 34.9944C35.5812 37.3848 24.2827 43.3247 14.9348 36.2067C7.72564 44.8125 4.95428 41.9799 4.46975 39.4878C4.20838 38.7423 4.97546 36.1188 10.1347 31.5886Z" fill="#FFCB9B"/>
<path d="M31.3389 20.7513C31.3389 21.5082 31.2127 22.2032 30.9604 22.8364C30.7081 23.4695 30.3535 24.0146 29.8964 24.4716C29.4394 24.9286 28.8896 25.2833 28.2469 25.5356C27.6043 25.7879 26.8902 25.914 26.1047 25.914H22.1702V15.5885H26.1047C26.8902 15.5885 27.6043 15.7171 28.2469 15.9741C28.8896 16.2264 29.4394 16.5811 29.8964 17.0381C30.3535 17.4903 30.7081 18.033 30.9604 18.6662C31.2127 19.2993 31.3389 19.9944 31.3389 20.7513ZM29.368 20.7513C29.368 20.1848 29.2919 19.6778 29.1395 19.2303C28.992 18.7781 28.7753 18.3972 28.4897 18.0878C28.2089 17.7736 27.8661 17.5332 27.4615 17.3666C27.0616 17.2 26.6093 17.1166 26.1047 17.1166H24.0982V24.3859H26.1047C26.6093 24.3859 27.0616 24.3026 27.4615 24.136C27.8661 23.9694 28.2089 23.7313 28.4897 23.4219C28.7753 23.1077 28.992 22.7269 29.1395 22.2794C29.2919 21.8271 29.368 21.3178 29.368 20.7513Z" fill="black"/>
</g>
<defs>
<filter id="filter0_d_1619_5948" x="0.425293" y="0.286041" width="49.7246" height="49.7246" filterUnits="userSpaceOnUse" color-interpolation-filters="sRGB">
<feFlood flood-opacity="0" result="BackgroundImageFix"/>
<feColorMatrix in="SourceAlpha" type="matrix" values="0 0 0 0 0 0 0 0 0 0 0 0 0 0 0 0 0 0 127 0" result="hardAlpha"/>
<feOffset dy="4"/>
<feGaussianBlur stdDeviation="2"/>
<feComposite in2="hardAlpha" operator="out"/>
<feColorMatrix type="matrix" values="0 0 0 0 0 0 0 0 0 0 0 0 0 0 0 0 0 0 0.25 0"/>
<feBlend mode="normal" in2="BackgroundImageFix" result="effect1_dropShadow_1619_5948"/>
<feBlend mode="normal" in="SourceGraphic" in2="effect1_dropShadow_1619_5948" result="shape"/>
</filter>
</defs>
</svg>
