<svg width="33" height="34" viewBox="0 0 33 34" fill="none" xmlns="http://www.w3.org/2000/svg">
<path d="M4.51557 24.8339C-5.13678 4.92882 19.4834 0.0354812 33 0.0769513C31.2364 22.2051 27.1616 25.6369 25.9014 27.5275C24.6412 29.4181 15.7052 34.1159 8.31198 28.4863C2.61024 35.2926 0.418378 33.0523 0.035162 31.0814C-0.171553 30.4918 0.435127 28.4168 4.51557 24.8339Z" fill="#C2FFAD"/>
<path d="M18.349 16.1899L17.3551 13.4734C17.3061 13.3529 17.2553 13.2098 17.2026 13.0442C17.1499 12.8785 17.0972 12.6996 17.0444 12.5076C16.9955 12.6996 16.9447 12.8804 16.892 13.0498C16.8392 13.2155 16.7884 13.3604 16.7395 13.4847L15.7511 16.1899H18.349ZM21.0317 19.2735H19.857C19.7252 19.2735 19.6179 19.2415 19.535 19.1775C19.4522 19.1097 19.3901 19.0269 19.3487 18.929L18.7387 17.2629H15.3558L14.7459 18.929C14.7157 19.0156 14.6574 19.0946 14.5708 19.1662C14.4842 19.2377 14.3769 19.2735 14.2489 19.2735H13.0629L16.2764 11.107H17.8238L21.0317 19.2735Z" fill="black"/>
</svg>
