<svg width="20" height="20" viewBox="0 0 20 20" fill="none" xmlns="http://www.w3.org/2000/svg">
<path d="M2.73203 14.9765C-3.10788 2.93521 11.7879 -0.024929 19.9658 0.000157664C18.8988 13.3862 16.4334 15.4622 15.671 16.6059C14.9085 17.7496 9.50203 20.5915 5.02896 17.1859C1.57926 21.3033 0.253129 19.9481 0.0212739 18.7558C-0.103794 18.3991 0.263263 17.1439 2.73203 14.9765Z" fill="#458D54"/>
<path d="M11.4943 10.9585L10.6384 8.61943C10.5963 8.51569 10.5525 8.3925 10.5071 8.24985C10.4617 8.1072 10.4163 7.95321 10.371 7.78787C10.3288 7.95321 10.285 8.10883 10.2397 8.25471C10.1943 8.39736 10.1505 8.52217 10.1084 8.62916L9.25735 10.9585H11.4943ZM13.8042 13.6136H12.7927C12.6792 13.6136 12.5868 13.5861 12.5155 13.531C12.4442 13.4726 12.3907 13.4013 12.355 13.317L11.8298 11.8824H8.91695L8.39175 13.317C8.36582 13.3916 8.31557 13.4597 8.241 13.5213C8.16644 13.5828 8.07404 13.6136 7.96381 13.6136H6.9426L9.7096 6.58187H11.042L13.8042 13.6136Z" fill="white"/>
</svg>
