<svg width="33" height="34" viewBox="0 0 33 34" fill="none" xmlns="http://www.w3.org/2000/svg">
<path d="M4.51557 24.8339C-5.13678 4.92885 19.4834 0.0355118 33 0.0769818C31.2364 22.2051 27.1616 25.637 25.9014 27.5275C24.6412 29.4181 15.7052 34.116 8.31198 28.4863C2.61024 35.2927 0.418378 33.0524 0.035162 31.0814C-0.171553 30.4918 0.435127 28.4168 4.51557 24.8339Z" fill="#F8ED8F"/>
<path d="M19.6423 18.3477C19.7252 18.3477 19.7986 18.3797 19.8626 18.4437L20.4612 19.0931C20.1299 19.5035 19.7214 19.8179 19.2357 20.0363C18.7538 20.2547 18.174 20.3639 17.4963 20.3639C16.8901 20.3639 16.3441 20.2603 15.8584 20.0532C15.3765 19.8462 14.9642 19.5581 14.6216 19.1892C14.279 18.8202 14.0154 18.3797 13.831 17.8676C13.6502 17.3556 13.5599 16.7965 13.5599 16.1903C13.5599 15.5766 13.6578 15.0156 13.8535 14.5073C14.0493 13.9952 14.3242 13.5547 14.6781 13.1857C15.0358 12.8168 15.4612 12.5306 15.9545 12.3273C16.4477 12.1202 16.9936 12.0167 17.5923 12.0167C18.1871 12.0167 18.7143 12.1146 19.1736 12.3104C19.6367 12.5062 20.0301 12.7622 20.3539 13.0784L19.8457 13.7844C19.8155 13.8296 19.776 13.8691 19.7271 13.903C19.6819 13.9369 19.6179 13.9538 19.535 13.9538C19.4786 13.9538 19.4202 13.9388 19.36 13.9086C19.2997 13.8748 19.2338 13.8352 19.1623 13.79C19.0908 13.7411 19.0079 13.6884 18.9138 13.6319C18.8197 13.5754 18.7105 13.5246 18.5862 13.4794C18.462 13.4305 18.317 13.3909 18.1514 13.3608C17.9895 13.3269 17.8012 13.31 17.5866 13.31C17.2214 13.31 16.8863 13.3759 16.5813 13.5077C16.2801 13.6357 16.0203 13.8239 15.802 14.0724C15.5836 14.3172 15.4142 14.6184 15.2937 14.976C15.1732 15.33 15.113 15.7347 15.113 16.1903C15.113 16.6496 15.177 17.0581 15.305 17.4158C15.4368 17.7735 15.6137 18.0747 15.8359 18.3194C16.058 18.5642 16.3197 18.7524 16.6209 18.8842C16.9221 19.0122 17.2459 19.0762 17.5923 19.0762C17.7993 19.0762 17.9857 19.0649 18.1514 19.0423C18.3208 19.0197 18.4752 18.984 18.6145 18.935C18.7575 18.8861 18.8912 18.8239 19.0155 18.7486C19.1435 18.6696 19.2696 18.5736 19.3938 18.4606C19.4315 18.4267 19.471 18.4004 19.5124 18.3815C19.5539 18.359 19.5972 18.3477 19.6423 18.3477Z" fill="black"/>
</svg>
