<svg width="51" height="51" viewBox="0 0 51 51" fill="none" xmlns="http://www.w3.org/2000/svg">
<g filter="url(#filter0_d_1619_5945)">
<path d="M10.665 31.5886C-1.53929 6.42098 29.59 0.233937 46.6802 0.286371C44.4503 28.2648 39.2982 32.6039 37.7048 34.9944C36.1114 37.3848 24.8129 43.3247 15.4651 36.2067C8.25591 44.8125 5.48456 41.9799 5.00002 39.4878C4.73866 38.7423 5.50573 36.1188 10.665 31.5886Z" fill="#F8ED8F"/>
<path d="M29.7912 23.479C29.8959 23.479 29.9888 23.5195 30.0697 23.6004L30.8266 24.4216C30.4077 24.9405 29.8912 25.338 29.2771 25.6141C28.6677 25.8902 27.9346 26.0283 27.0777 26.0283C26.3113 26.0283 25.621 25.8974 25.0069 25.6355C24.3976 25.3737 23.8763 25.0095 23.4431 24.543C23.0099 24.0765 22.6766 23.5195 22.4434 22.8721C22.2149 22.2247 22.1006 21.5177 22.1006 20.7513C22.1006 19.9753 22.2244 19.266 22.4719 18.6233C22.7195 17.9759 23.067 17.4189 23.5145 16.9524C23.9667 16.4859 24.5047 16.1241 25.1283 15.867C25.7519 15.6052 26.4422 15.4743 27.1991 15.4743C27.9513 15.4743 28.6177 15.598 29.1985 15.8456C29.7841 16.0931 30.2815 16.4169 30.6909 16.8167L30.0483 17.7093C30.0102 17.7664 29.9602 17.8164 29.8983 17.8593C29.8412 17.9021 29.7602 17.9235 29.6555 17.9235C29.5841 17.9235 29.5103 17.9045 29.4342 17.8664C29.358 17.8236 29.2747 17.7736 29.1842 17.7165C29.0938 17.6546 28.9891 17.5879 28.87 17.5165C28.751 17.4451 28.613 17.3808 28.4559 17.3237C28.2988 17.2618 28.1155 17.2119 27.906 17.1738C27.7013 17.1309 27.4633 17.1095 27.192 17.1095C26.7302 17.1095 26.3065 17.1928 25.9209 17.3594C25.5401 17.5213 25.2116 17.7593 24.9355 18.0735C24.6594 18.3829 24.4452 18.7638 24.2928 19.216C24.1405 19.6635 24.0643 20.1753 24.0643 20.7513C24.0643 21.3321 24.1452 21.8486 24.3071 22.3008C24.4737 22.7531 24.6975 23.1339 24.9783 23.4433C25.2592 23.7528 25.5901 23.9908 25.9709 24.1574C26.3517 24.3193 26.7611 24.4002 27.1991 24.4002C27.4609 24.4002 27.6966 24.3859 27.906 24.3574C28.1203 24.3288 28.3154 24.2836 28.4916 24.2217C28.6725 24.1598 28.8415 24.0812 28.9986 23.986C29.1604 23.8861 29.3199 23.7647 29.477 23.6219C29.5246 23.579 29.5746 23.5457 29.627 23.5219C29.6793 23.4933 29.7341 23.479 29.7912 23.479Z" fill="black"/>
</g>
<defs>
<filter id="filter0_d_1619_5945" x="0.955566" y="0.286041" width="49.7246" height="49.7246" filterUnits="userSpaceOnUse" color-interpolation-filters="sRGB">
<feFlood flood-opacity="0" result="BackgroundImageFix"/>
<feColorMatrix in="SourceAlpha" type="matrix" values="0 0 0 0 0 0 0 0 0 0 0 0 0 0 0 0 0 0 127 0" result="hardAlpha"/>
<feOffset dy="4"/>
<feGaussianBlur stdDeviation="2"/>
<feComposite in2="hardAlpha" operator="out"/>
<feColorMatrix type="matrix" values="0 0 0 0 0 0 0 0 0 0 0 0 0 0 0 0 0 0 0.25 0"/>
<feBlend mode="normal" in2="BackgroundImageFix" result="effect1_dropShadow_1619_5945"/>
<feBlend mode="normal" in="SourceGraphic" in2="effect1_dropShadow_1619_5945" result="shape"/>
</filter>
</defs>
</svg>
