<svg width="20" height="20" viewBox="0 0 20 20" fill="none" xmlns="http://www.w3.org/2000/svg">
<path d="M2.73203 14.9765C-3.10788 2.93521 11.7879 -0.024929 19.9658 0.000157664C18.8988 13.3862 16.4334 15.4622 15.671 16.6059C14.9085 17.7496 9.50203 20.5915 5.02896 17.1859C1.57926 21.3033 0.253129 19.9481 0.0212739 18.7558C-0.103794 18.3991 0.263263 17.1439 2.73203 14.9765Z" fill="#EDC342"/>
<path d="M12.6079 11.9554C12.6792 11.9554 12.7424 11.9829 12.7976 12.0381L13.313 12.5973C13.0277 12.9507 12.676 13.2214 12.2578 13.4094C11.8428 13.5974 11.3435 13.6915 10.76 13.6915C10.238 13.6915 9.76796 13.6023 9.34975 13.424C8.93478 13.2457 8.57978 12.9977 8.28477 12.68C7.98975 12.3623 7.76281 11.9829 7.60396 11.542C7.44835 11.1011 7.37054 10.6197 7.37054 10.0978C7.37054 9.56932 7.45483 9.08627 7.62341 8.64861C7.79199 8.2077 8.02865 7.8284 8.3334 7.51069C8.64138 7.19298 9.00772 6.94659 9.43242 6.77152C9.85711 6.59322 10.3272 6.50406 10.8427 6.50406C11.3549 6.50406 11.8088 6.58835 12.2043 6.75693C12.603 6.92552 12.9418 7.14597 13.2206 7.41829L12.783 8.02616C12.757 8.06506 12.723 8.0991 12.6808 8.12828C12.6419 8.15745 12.5868 8.17204 12.5155 8.17204C12.4669 8.17204 12.4166 8.15908 12.3648 8.13314C12.3129 8.10396 12.2561 8.06992 12.1946 8.03102C12.133 7.98887 12.0616 7.94349 11.9806 7.89486C11.8995 7.84623 11.8055 7.80246 11.6985 7.76356C11.5916 7.72141 11.4667 7.68737 11.3241 7.66144C11.1847 7.63226 11.0226 7.61767 10.8378 7.61767C10.5233 7.61767 10.2348 7.6744 9.9722 7.78787C9.71284 7.8981 9.48915 8.0602 9.30112 8.27416C9.11308 8.48489 8.9672 8.74425 8.86345 9.05223C8.75971 9.35697 8.70784 9.70548 8.70784 10.0978C8.70784 10.4933 8.76295 10.845 8.87318 11.153C8.98665 11.461 9.13902 11.7204 9.33029 11.9311C9.52157 12.1418 9.74688 12.3039 10.0062 12.4174C10.2656 12.5276 10.5444 12.5827 10.8427 12.5827C11.021 12.5827 11.1814 12.573 11.3241 12.5535C11.47 12.5341 11.6029 12.5033 11.7228 12.4611C11.846 12.419 11.9611 12.3655 12.0681 12.3007C12.1783 12.2326 12.2869 12.1499 12.3939 12.0527C12.4264 12.0235 12.4604 12.0008 12.4961 11.9846C12.5317 11.9651 12.569 11.9554 12.6079 11.9554Z" fill="white"/>
</svg>
