<svg width="33" height="34" viewBox="0 0 33 34" fill="none" xmlns="http://www.w3.org/2000/svg">
<path d="M8.94411 22.2158C2.65086 9.23979 18.703 6.04986 27.5157 6.07689C26.3659 20.5021 23.7091 22.7393 22.8875 23.9717C22.0658 25.2042 16.2397 28.2667 11.4193 24.5968C7.70186 29.0338 6.27278 27.5733 6.02293 26.2885C5.88815 25.9041 6.2837 24.5515 8.94411 22.2158Z" fill="#E08438"/>
<path d="M21.1115 17.1822C21.1115 17.7377 21.0189 18.2477 20.8337 18.7124C20.6486 19.177 20.3883 19.5771 20.0529 19.9124C19.7175 20.2478 19.314 20.5081 18.8424 20.6933C18.3707 20.8784 17.8467 20.971 17.2702 20.971L14.3828 20.971L14.3828 13.3934L17.2702 13.3934C17.8467 13.3934 18.3707 13.4877 18.8424 13.6763C19.314 13.8615 19.7175 14.1218 20.0529 14.4572C20.3883 14.7891 20.6486 15.1873 20.8337 15.652C21.0189 16.1166 21.1115 16.6267 21.1115 17.1822ZM19.6651 17.1822C19.6651 16.7664 19.6092 16.3944 19.4974 16.066C19.3891 15.7341 19.2302 15.4546 19.0205 15.2275C18.8144 14.9969 18.5629 14.8205 18.2659 14.6982C17.9725 14.576 17.6406 14.5148 17.2702 14.5148L15.7977 14.5148L15.7977 19.8496L17.2702 19.8496C17.6406 19.8496 17.9725 19.7884 18.2659 19.6661C18.5629 19.5439 18.8144 19.3692 19.0205 19.1421C19.2302 18.9115 19.3891 18.632 19.4974 18.3036C19.6092 17.9717 19.6651 17.5979 19.6651 17.1822Z" fill="white"/>
<path d="M4.51557 24.8339C-5.13678 4.92885 19.4834 0.0355118 33 0.0769818C31.2364 22.2051 27.1616 25.637 25.9014 27.5275C24.6412 29.4181 15.7052 34.116 8.31198 28.4863C2.61024 35.2927 0.418378 33.0524 0.035162 31.0814C-0.171553 30.4918 0.435127 28.4168 4.51557 24.8339Z" fill="#FFCB9B"/>
<path d="M21.2858 16.1903C21.2858 16.7889 21.186 17.3386 20.9865 17.8394C20.7869 18.3401 20.5064 18.7712 20.145 19.1327C19.7835 19.4941 19.3487 19.7746 18.8404 19.9742C18.3321 20.1737 17.7673 20.2735 17.1461 20.2735H14.0343V12.1071H17.1461C17.7673 12.1071 18.3321 12.2087 18.8404 12.412C19.3487 12.6116 19.7835 12.8921 20.145 13.2535C20.5064 13.6112 20.7869 14.0404 20.9865 14.5412C21.186 15.0419 21.2858 15.5916 21.2858 16.1903ZM19.7271 16.1903C19.7271 15.7422 19.6668 15.3413 19.5463 14.9873C19.4296 14.6297 19.2583 14.3284 19.0324 14.0837C18.8103 13.8352 18.5392 13.6451 18.2191 13.5133C17.9029 13.3815 17.5452 13.3156 17.1461 13.3156H15.5591V19.0649H17.1461C17.5452 19.0649 17.9029 18.999 18.2191 18.8672C18.5392 18.7355 18.8103 18.5472 19.0324 18.3025C19.2583 18.054 19.4296 17.7528 19.5463 17.3989C19.6668 17.0412 19.7271 16.6383 19.7271 16.1903Z" fill="black"/>
</svg>
