<svg width="20" height="20" viewBox="0 0 20 20" fill="none" xmlns="http://www.w3.org/2000/svg">
<path d="M2.73203 14.9765C-3.10788 2.93521 11.7879 -0.024929 19.9658 0.000157664C18.8988 13.3862 16.4334 15.4622 15.671 16.6059C14.9085 17.7496 9.50203 20.5915 5.02896 17.1859C1.57926 21.3033 0.253129 19.9481 0.0212739 18.7558C-0.103794 18.3991 0.263263 17.1439 2.73203 14.9765Z" fill="#65C97A"/>
<path d="M10.4099 12.5924C10.653 12.5924 10.8572 12.5633 11.0226 12.5049C11.1879 12.4465 11.3192 12.3687 11.4165 12.2715C11.517 12.1742 11.5883 12.0608 11.6305 11.9311C11.6758 11.8014 11.6985 11.6636 11.6985 11.5177C11.6985 11.3654 11.6742 11.2292 11.6256 11.1092C11.577 10.9861 11.5008 10.8823 11.397 10.798C11.2933 10.7105 11.1588 10.644 10.9934 10.5986C10.8313 10.5533 10.6352 10.5306 10.405 10.5306H9.08715V12.5924H10.4099ZM9.08715 7.59336V9.62606H10.1278C10.5752 9.62606 10.9124 9.54501 11.1393 9.38291C11.3695 9.22081 11.4846 8.96308 11.4846 8.60971C11.4846 8.24337 11.3808 7.98239 11.1733 7.82678C10.9659 7.67116 10.6417 7.59336 10.2008 7.59336H9.08715ZM10.2008 6.58187C10.6611 6.58187 11.055 6.62564 11.3824 6.71317C11.7099 6.8007 11.9773 6.92552 12.1848 7.08761C12.3956 7.24971 12.5495 7.44585 12.6468 7.67603C12.7441 7.9062 12.7927 8.16556 12.7927 8.45409C12.7927 8.61943 12.7684 8.77829 12.7197 8.93066C12.6711 9.07979 12.5949 9.22081 12.4912 9.35373C12.3907 9.48341 12.261 9.60174 12.1022 9.70872C11.9465 9.81571 11.7601 9.90648 11.5429 9.98105C12.509 10.1983 12.9921 10.7202 12.9921 11.5469C12.9921 11.8452 12.9353 12.1207 12.8219 12.3736C12.7084 12.6265 12.5431 12.8453 12.3259 13.0301C12.1086 13.2116 11.8412 13.3543 11.5235 13.458C11.2058 13.5618 10.8427 13.6136 10.4342 13.6136H7.77902V6.58187H10.2008Z" fill="white"/>
</svg>
