<svg width="30" height="51" viewBox="0 0 30 51" fill="none" xmlns="http://www.w3.org/2000/svg">
<path d="M7.837 41.7584V44.2939H10.9335V45.3334H7.837V48.6389H6.5445V40.7189H11.4835V41.7584H7.837ZM16.3107 45.6689L15.2217 42.7759C15.1337 42.5522 15.0439 42.2681 14.9522 41.9234C14.9119 42.0957 14.8679 42.2552 14.8202 42.4019C14.7725 42.5449 14.7285 42.6714 14.6882 42.7814L13.5992 45.6689H16.3107ZM18.7472 48.6389H17.7517C17.638 48.6389 17.5464 48.6114 17.4767 48.5564C17.407 48.4977 17.3539 48.4262 17.3172 48.3419L16.6572 46.5929H13.2472L12.5872 48.3419C12.5579 48.4152 12.5065 48.4831 12.4332 48.5454C12.3599 48.6077 12.2682 48.6389 12.1582 48.6389H11.1627L14.3032 40.7189H15.6067L18.7472 48.6389ZM20.2926 44.6789C20.2926 45.1372 20.3549 45.5479 20.4796 45.9109C20.6043 46.2739 20.7821 46.5819 21.0131 46.8349C21.2441 47.0842 21.5228 47.2767 21.8491 47.4124C22.1754 47.5444 22.5403 47.6104 22.9436 47.6104C23.3506 47.6104 23.7173 47.5444 24.0436 47.4124C24.3699 47.2767 24.6468 47.0842 24.8741 46.8349C25.1051 46.5819 25.2811 46.2739 25.4021 45.9109C25.5268 45.5479 25.5891 45.1372 25.5891 44.6789C25.5891 44.2242 25.5268 43.8154 25.4021 43.4524C25.2811 43.0894 25.1051 42.7814 24.8741 42.5284C24.6468 42.2754 24.3699 42.0811 24.0436 41.9454C23.7173 41.8097 23.3506 41.7419 22.9436 41.7419C22.5403 41.7419 22.1754 41.8097 21.8491 41.9454C21.5228 42.0811 21.2441 42.2754 21.0131 42.5284C20.7821 42.7814 20.6043 43.0894 20.4796 43.4524C20.3549 43.8154 20.2926 44.2242 20.2926 44.6789ZM27.2941 50.2229H26.2381C26.0804 50.2229 25.9411 50.2009 25.8201 50.1569C25.6991 50.1166 25.5873 50.0414 25.4846 49.9314L24.2196 48.5399C23.8236 48.6609 23.3983 48.7214 22.9436 48.7214C22.3533 48.7214 21.8143 48.6206 21.3266 48.4189C20.8426 48.2172 20.4264 47.9386 20.0781 47.5829C19.7298 47.2236 19.4603 46.7964 19.2696 46.3014C19.0789 45.8064 18.9836 45.2656 18.9836 44.6789C18.9836 44.0922 19.0789 43.5514 19.2696 43.0564C19.4603 42.5614 19.7298 42.1342 20.0781 41.7749C20.4264 41.4156 20.8426 41.1351 21.3266 40.9334C21.8143 40.7317 22.3533 40.6309 22.9436 40.6309C23.5376 40.6309 24.0766 40.7317 24.5606 40.9334C25.0483 41.1351 25.4644 41.4156 25.8091 41.7749C26.1574 42.1342 26.4269 42.5614 26.6176 43.0564C26.8083 43.5514 26.9036 44.0922 26.9036 44.6789C26.9036 45.0419 26.8669 45.3884 26.7936 45.7184C26.7203 46.0447 26.6139 46.3509 26.4746 46.6369C26.3353 46.9192 26.1648 47.1796 25.9631 47.4179C25.7614 47.6526 25.5323 47.8579 25.2756 48.0339L27.2941 50.2229Z" fill="#BEFA9E"/>
<g clip-path="url(#clip0_1679_3796)">
<path d="M17.211 17.3986C16.8514 17.3986 16.5595 17.1067 16.5595 16.7471V15.1946C16.5595 15.0154 16.6335 14.8437 16.7638 14.7209L19.2547 12.3691C19.7505 11.8586 20.0349 11.1592 20.0349 10.4191V10.3266C20.0349 9.55852 19.7316 8.84026 19.1818 8.30408C18.6319 7.7679 17.9032 7.48711 17.1364 7.50372C15.6207 7.54281 14.3875 8.84416 14.3875 10.4048C14.3875 10.7644 14.0956 11.0563 13.736 11.0563C13.3763 11.0563 13.0845 10.7644 13.0845 10.4048C13.0845 8.14381 14.8871 6.25807 17.1029 6.20107C18.2332 6.17012 19.2876 6.58773 20.0916 7.37082C20.8955 8.15424 21.3382 9.20411 21.3382 10.3266V10.4191C21.3382 11.5003 20.9232 12.5225 20.1694 13.2971L17.8628 15.4757V16.7474C17.8625 17.1067 17.571 17.3986 17.211 17.3986Z" fill="white"/>
<path d="M17.2112 20.7202C17.1363 20.7202 17.0614 20.7104 16.9894 20.6974C16.9148 20.6811 16.8431 20.6583 16.7747 20.6323C16.7063 20.6029 16.6412 20.5674 16.579 20.5248C16.5138 20.486 16.4584 20.4368 16.4031 20.3847C16.1917 20.173 16.0708 19.8798 16.0708 19.5801C16.0708 19.5052 16.0773 19.4303 16.0933 19.3553C16.1063 19.2837 16.1291 19.2123 16.1584 19.1439C16.1877 19.0719 16.2203 19.0071 16.2627 18.9452C16.305 18.8833 16.3506 18.8247 16.4027 18.7726C16.4581 18.7205 16.5135 18.6716 16.5786 18.6296C16.6405 18.5905 16.706 18.5547 16.7744 18.5253C16.8428 18.4993 16.9145 18.4765 16.9891 18.4602C17.3575 18.3856 17.7516 18.5091 18.0152 18.7729C18.0705 18.825 18.1162 18.8837 18.1585 18.9456C18.2008 19.0074 18.2331 19.0726 18.2624 19.1443C18.2917 19.2127 18.3145 19.2843 18.3276 19.3557C18.3438 19.4306 18.3504 19.5055 18.3504 19.5804C18.3504 19.8801 18.2298 20.173 18.0148 20.385C17.8038 20.5964 17.5109 20.7202 17.2112 20.7202Z" fill="white"/>
<path d="M28.8438 25.4983C28.7584 25.4983 28.6731 25.4817 28.5917 25.4475L23.9374 23.4917C21.9354 24.8058 19.6177 25.4983 17.2117 25.4983C10.4385 25.4983 4.92822 19.988 4.92822 13.2148C4.9279 6.44154 10.4382 0.930908 17.2114 0.930908C23.9846 0.930908 29.4953 6.44154 29.4953 13.2144C29.4953 15.6201 28.8024 17.9377 27.4887 19.9401L29.4445 24.5943C29.5467 24.8383 29.492 25.1201 29.3044 25.3071C29.1796 25.4322 29.0132 25.4983 28.8438 25.4983ZM17.2114 2.23389C11.1568 2.23389 6.23088 7.15981 6.23088 13.2144C6.23088 19.2691 11.1568 24.1953 17.2114 24.1953C19.4708 24.1953 21.6422 23.5122 23.4908 22.2203C23.6742 22.0916 23.9104 22.0672 24.1162 22.1539L27.6248 23.6279L26.1508 20.1196C26.0642 19.9137 26.0896 19.6775 26.2173 19.4942C27.5092 17.6446 28.1923 15.4732 28.1923 13.2144C28.1923 7.15981 23.2664 2.23389 17.2114 2.23389Z" fill="#BEFA9E"/>
<path d="M0.830136 30.2477C0.660422 30.2477 0.493966 30.1815 0.369206 30.0568C0.181903 29.8698 0.126526 29.588 0.229136 29.3441L2.18524 24.6895C0.87118 22.6871 0.178645 20.3698 0.178645 17.9638C0.178645 15.3145 1.00897 12.791 2.58004 10.6668C2.79405 10.3775 3.20221 10.3163 3.49115 10.5303C3.78041 10.7443 3.84165 11.1522 3.62764 11.4414C2.22367 13.3399 1.48163 15.5953 1.48163 17.9638C1.48163 20.2229 2.16471 22.3943 3.45662 24.2432C3.58464 24.4266 3.60972 24.6624 3.52307 24.8686L2.04907 28.3772L5.55735 26.9032C5.76322 26.8166 5.99939 26.8417 6.18278 26.9697C8.03236 28.2616 10.2038 28.9447 12.4622 28.9447C14.4036 28.9447 16.3118 28.4313 17.9793 27.4599C18.2911 27.2788 18.6891 27.3844 18.8702 27.6951C19.0513 28.0062 18.9458 28.4053 18.635 28.586C16.7689 29.6731 14.6339 30.2477 12.4622 30.2477C10.0565 30.2477 7.73887 29.5548 5.73651 28.2411L1.08259 30.1969C1.00083 30.2311 0.915155 30.2477 0.830136 30.2477Z" fill="#BEFA9E"/>
<path d="M28.6411 15.2571L26.9067 19.5569L28.6411 24.8982L23.9937 22.748L18.3753 24.8982L14.4909 24.482L11.5083 23.1641L8.04012 20.3202L6.44476 17.0602L5.75049 14.355V11.7192L7.34555 7.62675L10.1207 4.22795L12.6876 2.56323L16.7096 1.52258L20.1793 1.87004L22.9522 2.97908L26.4214 6.24002L28.6411 9.49968V15.2571Z" fill="#BEFA9E"/>
<path d="M17.211 17.0035C16.8514 17.0035 16.5595 16.7117 16.5595 16.3521V14.7995C16.5595 14.6204 16.6335 14.4487 16.7638 14.3259L19.2547 11.974C19.7505 11.4636 20.0349 10.7642 20.0349 10.0241V9.93161C20.0349 9.1635 19.7316 8.44524 19.1818 7.90906C18.6319 7.37288 17.9032 7.09209 17.1364 7.1087C15.6207 7.14779 14.3875 8.44915 14.3875 10.0098C14.3875 10.3694 14.0956 10.6613 13.736 10.6613C13.3763 10.6613 13.0845 10.3694 13.0845 10.0098C13.0845 7.74879 14.8871 5.86305 17.1029 5.80605C18.2332 5.7751 19.2876 6.19271 20.0916 6.9758C20.8955 7.75922 21.3382 8.80909 21.3382 9.93161V10.0241C21.3382 11.1053 20.9232 12.1275 20.1694 12.9021L17.8628 15.0807V16.3524C17.8625 16.7117 17.571 17.0035 17.211 17.0035Z" fill="black"/>
<path d="M17.2112 20.3252C17.1363 20.3252 17.0614 20.3154 16.9894 20.3024C16.9148 20.2861 16.8431 20.2633 16.7747 20.2372C16.7063 20.2079 16.6412 20.1724 16.579 20.1297C16.5138 20.091 16.4584 20.0418 16.4031 19.9897C16.1917 19.7779 16.0708 19.4848 16.0708 19.1851C16.0708 19.1102 16.0773 19.0352 16.0933 18.9603C16.1063 18.8887 16.1291 18.8173 16.1584 18.7489C16.1877 18.6769 16.2203 18.6121 16.2627 18.5502C16.305 18.4883 16.3506 18.4297 16.4027 18.3776C16.4581 18.3254 16.5135 18.2766 16.5786 18.2346C16.6405 18.1955 16.706 18.1596 16.7744 18.1303C16.8428 18.1043 16.9145 18.0815 16.9891 18.0652C17.3575 17.9906 17.7516 18.114 18.0152 18.3779C18.0705 18.43 18.1162 18.4886 18.1585 18.5505C18.2008 18.6124 18.2331 18.6776 18.2624 18.7492C18.2917 18.8176 18.3145 18.8893 18.3276 18.9606C18.3438 19.0356 18.3504 19.1105 18.3504 19.1854C18.3504 19.4851 18.2298 19.7779 18.0148 19.99C17.8038 20.2014 17.5109 20.3252 17.2112 20.3252Z" fill="black"/>
</g>
<defs>
<clipPath id="clip0_1679_3796">
<rect width="29.6764" height="29.6764" fill="white" transform="translate(0.0161133 0.767822)"/>
</clipPath>
</defs>
</svg>
