<svg width="31" height="52" viewBox="0 0 31 52" fill="none" xmlns="http://www.w3.org/2000/svg">
<path d="M7.62233 42.2484V45.0039H10.8618V45.8729H7.62233V49.2609H6.55533V41.3794H11.4118V42.2484H7.62233ZM16.3268 46.3349L15.0893 43.1284C15.0526 43.033 15.0141 42.923 14.9738 42.7984C14.9334 42.67 14.8949 42.5344 14.8583 42.3914C14.7813 42.6884 14.7024 42.9359 14.6218 43.1339L13.3843 46.3349H16.3268ZM18.5488 49.2609H17.7238C17.6284 49.2609 17.5514 49.237 17.4928 49.1894C17.4341 49.1417 17.3901 49.0812 17.3608 49.0079L16.6238 47.1049H13.0873L12.3503 49.0079C12.3283 49.0739 12.2861 49.1325 12.2238 49.1839C12.1614 49.2352 12.0844 49.2609 11.9928 49.2609H11.1678L14.3193 41.3794H15.3973L18.5488 49.2609ZM19.9865 45.3229C19.9865 45.8069 20.0525 46.2414 20.1845 46.6264C20.3165 47.0077 20.5035 47.3322 20.7455 47.5999C20.9912 47.8639 21.2863 48.0674 21.631 48.2104C21.9757 48.3497 22.3588 48.4194 22.7805 48.4194C23.2058 48.4194 23.5908 48.3497 23.9355 48.2104C24.2802 48.0674 24.5735 47.8639 24.8155 47.5999C25.0575 47.3322 25.2445 47.0077 25.3765 46.6264C25.5085 46.2414 25.5745 45.8069 25.5745 45.3229C25.5745 44.8389 25.5085 44.4044 25.3765 44.0194C25.2445 43.6344 25.0575 43.3099 24.8155 43.0459C24.5735 42.7782 24.2802 42.5729 23.9355 42.4299C23.5908 42.2869 23.2058 42.2154 22.7805 42.2154C22.3588 42.2154 21.9757 42.2869 21.631 42.4299C21.2863 42.5729 20.9912 42.7782 20.7455 43.0459C20.5035 43.3099 20.3165 43.6344 20.1845 44.0194C20.0525 44.4044 19.9865 44.8389 19.9865 45.3229ZM27.032 50.8889H26.152C26.02 50.8889 25.9027 50.8705 25.8 50.8339C25.6973 50.7972 25.6038 50.733 25.5195 50.6414L24.139 49.1344C23.721 49.2737 23.2682 49.3434 22.7805 49.3434C22.2012 49.3434 21.6732 49.2462 21.1965 49.0519C20.7198 48.8539 20.311 48.577 19.97 48.2214C19.629 47.8657 19.365 47.4422 19.178 46.9509C18.991 46.4559 18.8975 45.9132 18.8975 45.3229C18.8975 44.7325 18.991 44.1917 19.178 43.7004C19.365 43.2054 19.629 42.78 19.97 42.4244C20.311 42.065 20.7198 41.7864 21.1965 41.5884C21.6732 41.3904 22.2012 41.2914 22.7805 41.2914C23.3598 41.2914 23.8878 41.3904 24.3645 41.5884C24.8448 41.7864 25.2555 42.065 25.5965 42.4244C25.9375 42.78 26.2015 43.2054 26.3885 43.7004C26.5755 44.1917 26.669 44.7325 26.669 45.3229C26.669 45.6932 26.6305 46.0452 26.5535 46.3789C26.4802 46.7125 26.372 47.0242 26.229 47.3139C26.086 47.5999 25.9118 47.8602 25.7065 48.0949C25.5012 48.3295 25.2702 48.533 25.0135 48.7054L27.032 50.8889Z" fill="white"/>
<g clip-path="url(#clip0_1680_3864)">
<path d="M17.8004 17.1652C17.4407 17.1652 17.1489 16.8733 17.1489 16.5137V14.9612C17.1489 14.782 17.2228 14.6103 17.3531 14.4875L19.8441 12.1357C20.3399 11.6252 20.6243 10.9258 20.6243 10.1857V10.0932C20.6243 9.32513 20.321 8.60686 19.7711 8.07068C19.2213 7.5345 18.4926 7.25371 17.7258 7.27032C16.2101 7.30941 14.9768 8.61077 14.9768 10.1714C14.9768 10.531 14.6849 10.8229 14.3253 10.8229C13.9657 10.8229 13.6738 10.531 13.6738 10.1714C13.6738 7.91041 15.4765 6.02467 17.6922 5.96767C18.8226 5.93672 19.877 6.35433 20.6809 7.13742C21.4849 7.92084 21.9276 8.97071 21.9276 10.0932V10.1857C21.9276 11.2669 21.5126 12.2891 20.7588 13.0637L18.4522 15.2423V16.514C18.4519 16.8733 18.1603 17.1652 17.8004 17.1652Z" fill="white"/>
<path d="M17.8001 20.4868C17.7252 20.4868 17.6503 20.477 17.5783 20.464C17.5037 20.4477 17.432 20.4249 17.3636 20.3989C17.2952 20.3695 17.23 20.334 17.1678 20.2914C17.1027 20.2526 17.0473 20.2034 16.9919 20.1513C16.7805 19.9396 16.6597 19.6464 16.6597 19.3467C16.6597 19.2718 16.6662 19.1969 16.6821 19.1219C16.6952 19.0503 16.718 18.9789 16.7473 18.9105C16.7766 18.8385 16.8092 18.7737 16.8515 18.7118C16.8939 18.6499 16.9395 18.5913 16.9916 18.5392C17.047 18.4871 17.1024 18.4382 17.1675 18.3962C17.2294 18.3571 17.2949 18.3213 17.3633 18.2919C17.4317 18.2659 17.5033 18.2431 17.5779 18.2268C17.9464 18.1522 18.3405 18.2757 18.604 18.5395C18.6594 18.5916 18.705 18.6503 18.7474 18.7122C18.7897 18.774 18.822 18.8392 18.8513 18.9109C18.8806 18.9793 18.9034 19.0509 18.9164 19.1223C18.9327 19.1972 18.9392 19.2721 18.9392 19.347C18.9392 19.6467 18.8187 19.9396 18.6037 20.1516C18.3926 20.363 18.0998 20.4868 17.8001 20.4868Z" fill="white"/>
<path d="M29.4326 25.2652C29.3473 25.2652 29.262 25.2485 29.1805 25.2143L24.5263 23.2586C22.5242 24.5726 20.2066 25.2652 17.8006 25.2652C11.0274 25.2652 5.51709 19.7549 5.51709 12.9816C5.51676 6.20842 11.0271 0.697784 17.8003 0.697784C24.5735 0.697784 30.0841 6.20842 30.0841 12.9813C30.0841 15.3869 29.3913 17.7046 28.0775 19.707L30.0333 24.3612C30.1356 24.6052 30.0809 24.887 29.8933 25.0739C29.7685 25.199 29.602 25.2652 29.4326 25.2652ZM17.8003 2.00077C11.7457 2.00077 6.81974 6.92668 6.81974 12.9813C6.81974 19.0359 11.7457 23.9622 17.8003 23.9622C20.0597 23.9622 22.2311 23.2791 24.0797 21.9872C24.2631 21.8585 24.4992 21.8341 24.7051 21.9207L28.2137 23.3947L26.7397 19.8865C26.6531 19.6806 26.6785 19.4444 26.8062 19.261C28.0981 17.4114 28.7812 15.24 28.7812 12.9813C28.7812 6.92668 23.8552 2.00077 17.8003 2.00077Z" fill="white"/>
<path d="M1.41851 30.0148C1.2488 30.0148 1.08235 29.9487 0.957585 29.8239C0.770281 29.6369 0.714905 29.3552 0.817515 29.1112L2.77361 24.4566C1.45956 22.4542 0.767024 20.1369 0.767024 17.7309C0.767024 15.0817 1.59735 12.5581 3.16842 10.4339C3.38243 10.1447 3.79059 10.0834 4.07953 10.2974C4.36879 10.5114 4.43003 10.9193 4.21601 11.2085C2.81205 13.107 2.07001 15.3624 2.07001 17.7309C2.07001 19.99 2.75309 22.1614 4.045 24.0103C4.17302 24.1937 4.1981 24.4296 4.11145 24.6358L2.63745 28.1444L6.14573 26.6704C6.3516 26.5837 6.58777 26.6088 6.77116 26.7368C8.62074 28.0287 10.7922 28.7118 13.0506 28.7118C14.992 28.7118 16.9002 28.1984 18.5677 27.2271C18.8794 27.0459 19.2775 27.1515 19.4586 27.4623C19.6397 27.7733 19.5342 28.1724 19.2234 28.3532C17.3572 29.4402 15.2223 30.0148 13.0506 30.0148C10.6449 30.0148 8.32725 29.3219 6.32489 28.0082L1.67097 29.964C1.58921 29.9982 1.50353 30.0148 1.41851 30.0148Z" fill="white"/>
</g>
<defs>
<clipPath id="clip0_1680_3864">
<rect width="29.6764" height="29.6764" fill="white" transform="translate(0.604004 0.534698)"/>
</clipPath>
</defs>
</svg>
