<svg width="69" height="68" viewBox="0 0 69 68" fill="none" xmlns="http://www.w3.org/2000/svg">
<g filter="url(#filter0_d_1886_4570)">
<path d="M34.8298 58.7277C50.7175 58.7277 63.5971 45.8482 63.5971 29.9605C63.5971 14.0727 50.7175 1.19318 34.8298 1.19318C18.942 1.19318 6.0625 14.0727 6.0625 29.9605C6.0625 45.8482 18.942 58.7277 34.8298 58.7277Z" fill="#4C9BDD"/>
<path d="M44.1406 41.5384L42.6594 43.9856C42.2229 44.7068 41.9921 45.5338 41.9921 46.3768V46.4502C41.9921 47.1657 41.4124 47.7457 40.6969 47.746C39.4547 47.7466 38.4473 46.7398 38.4473 45.4976C38.4473 44.3232 37.9808 43.1968 37.1504 42.3664L36.6024 41.8184C35.5552 40.7712 34.967 39.3509 34.967 37.87V34.3517C34.967 33.2407 34.0663 32.3402 32.9555 32.3402H32.5382C30.8808 32.3402 29.5371 30.9967 29.5371 29.3391V27.5077C29.5371 25.7683 30.9472 24.3583 32.6865 24.3583H42.7166L45.9428 27.5846C46.8782 28.5199 47.4036 29.7884 47.4036 31.1111V32.4795C47.4036 33.2227 48.0061 33.8252 48.7492 33.8252C49.3331 33.8252 49.6263 34.5303 49.2148 34.9442L47.8841 36.2828C46.9022 37.2704 46.0432 38.3731 45.3257 39.5668L44.1406 41.5384Z" fill="#92DD8C"/>
<path d="M38.7488 6.80356H43.126C43.9501 6.80356 44.6181 7.47153 44.6181 8.29564C44.6181 9.11974 43.9501 9.78772 43.126 9.78772H37.0776H31.4623C30.756 9.78772 30.1835 10.3603 30.1835 11.0665V11.3086C30.1835 11.8708 29.9602 12.41 29.5627 12.8076L28.8644 13.5059C27.9158 14.4545 27.3828 15.7412 27.3828 17.0828V18.7031C27.3828 19.2686 27.8413 19.7271 28.4069 19.7271H29.6102C30.5812 19.7271 31.3685 18.9399 31.3685 17.9688C31.3685 17.3703 31.6062 16.7963 32.0294 16.3732L32.6465 15.756C33.0697 15.3329 33.6437 15.0951 34.2422 15.0951H36.6213C38.017 15.0951 39.3556 15.6496 40.3426 16.6365L41.5306 17.8244C42.9212 19.215 43.7025 21.1011 43.7025 23.0678V25.2207H45.6597C47.5447 25.2207 49.3525 25.9695 50.6855 27.3025L51.6367 28.2537C52.6388 29.2558 54.2636 29.2558 55.2657 28.2537C56.2863 27.2331 56.2863 25.5783 55.2657 24.5577L54.8718 24.1638C54.0295 23.3216 54.626 21.8814 55.8172 21.8814H58.9449H62.2843C62.2645 21.8616 62.2502 21.6162 62.2402 21.2094C59.6849 13.1991 53.717 6.71236 46.0443 3.4613H38.7489C37.8259 3.4613 37.0777 4.20949 37.0777 5.13243C37.0776 6.05537 37.8258 6.80356 38.7488 6.80356Z" fill="#92DD8C"/>
<path d="M23.0736 36.5295V34.3945C23.0736 32.8654 22.4662 31.3991 21.3851 30.3179L21.362 30.2949C20.6647 29.5976 19.7188 29.2058 18.7326 29.2058C17.7876 29.2058 16.8813 28.8304 16.2131 28.1622L15.1649 27.114C14.0901 26.0392 12.6325 25.4355 11.1126 25.4355H6.70004L6.36736 25.7682C6.16766 27.1367 6.0625 28.5359 6.0625 29.9598C6.0625 38.6294 9.89798 46.4028 15.9641 51.677V50.461C15.9641 48.0251 16.9318 45.689 18.6542 43.9664L20.94 41.6805C22.3061 40.3145 23.0736 38.4616 23.0736 36.5295Z" fill="#92DD8C"/>
<path d="M56.0157 8.77533C50.3568 3.11641 42.8329 0 34.8301 0C26.8273 0 19.3034 3.11641 13.6445 8.77533C7.98556 14.4342 4.86914 21.9581 4.86914 29.9609C4.86914 37.9637 7.98556 45.4876 13.6445 51.1465C19.3034 56.8055 26.8273 59.9219 34.8301 59.9219C42.8329 59.9219 50.3568 56.8055 56.0157 51.1465C61.6746 45.4876 64.791 37.9637 64.791 29.9609C64.791 21.9581 61.6746 14.4342 56.0157 8.77533ZM60.7977 20.6882H55.8172C54.79 20.6882 53.8722 21.3014 53.4792 22.2504C53.0861 23.1994 53.3014 24.282 54.0276 25.0082L54.4215 25.4021C54.9752 25.9556 54.9752 26.8565 54.4215 27.41C54.1624 27.6692 53.8177 27.812 53.4511 27.812C53.0845 27.812 52.7399 27.6692 52.4807 27.41L51.5294 26.4587C49.9615 24.8909 47.8769 24.0274 45.6596 24.0274H44.896V23.0681C44.896 20.7685 44.0005 18.6067 42.3745 16.9806L41.1866 15.7926C39.9671 14.5732 38.3458 13.9015 36.6212 13.9015H34.2421C33.3205 13.9015 32.454 14.2605 31.8024 14.9121L31.1852 15.5291C30.5336 16.1807 30.1747 17.0472 30.1747 17.9688C30.1747 18.2801 29.9214 18.5334 29.6101 18.5334H28.5764V17.0826C28.5764 16.0503 28.9784 15.0797 29.7083 14.3497L30.4065 13.6516C31.0324 13.0257 31.3771 12.1936 31.3771 11.3085V11.0664C31.3771 11.0194 31.4152 10.9813 31.4622 10.9813H43.126C44.607 10.9813 45.8118 9.77658 45.8118 8.2956C45.8118 6.81462 44.607 5.61022 43.126 5.61022H38.7488C38.4854 5.61022 38.2713 5.39607 38.2713 5.13275C38.2713 4.86943 38.4854 4.65529 38.7488 4.65529H45.7756C52.7411 7.67979 58.2224 13.4978 60.7977 20.6882ZM47.6885 34.7878L47.0377 35.4424C45.9892 36.497 45.069 37.6781 44.3026 38.9529L43.1188 40.9225L41.6383 43.3685C41.0888 44.2761 40.7984 45.3166 40.7984 46.3777V46.4512C40.7984 46.5075 40.7526 46.5533 40.6962 46.5533H40.6957C40.4142 46.5533 40.1493 46.4438 39.9501 46.2446C39.7507 46.0454 39.641 45.7806 39.641 45.4986C39.641 43.997 39.0562 42.5852 37.9945 41.5234L37.4465 40.9753C36.6172 40.1461 36.1605 39.0436 36.1605 37.871V34.3527C36.1605 32.5853 34.7228 31.1476 32.9553 31.1476H32.5382C31.5417 31.1476 30.7308 30.3368 30.7308 29.3401V27.5087C30.7308 26.4303 31.6081 25.553 32.6865 25.553H42.2222L45.0988 28.4297C45.8154 29.1463 46.21 30.0989 46.21 31.1122V32.4806C46.21 33.5024 46.8166 34.3851 47.6885 34.7878ZM7.25647 29.9609C7.25647 28.8336 7.32606 27.7226 7.4582 26.6304H11.1131C12.325 26.6304 13.4643 27.1024 14.3212 27.9593L15.3693 29.0073C16.2678 29.9058 17.4623 30.4006 18.7329 30.4006C19.4074 30.4006 20.0414 30.6632 20.5183 31.14L20.5413 31.1631C21.4047 32.0265 21.8803 33.1745 21.8803 34.3956V36.5306C21.8803 38.1576 21.2467 39.6871 20.0963 40.8376L17.8105 43.1235C16.206 44.7281 15.1917 46.7656 14.8765 48.9726C10.1574 44.0222 7.25647 37.3239 7.25647 29.9609ZM34.8301 57.5345C28.1112 57.5345 21.9469 55.1177 17.158 51.1094V50.4621C17.158 48.3277 17.9892 46.3209 19.4984 44.8117L21.7843 42.5258C23.3856 40.9244 24.2675 38.7954 24.2675 36.5307V34.3958C24.2675 32.5369 23.5436 30.7893 22.2293 29.475L22.2063 29.4521C21.2785 28.5244 20.045 28.0134 18.7328 28.0134C18.0999 28.0134 17.5049 27.7669 17.0574 27.3194L16.0092 26.2712C14.7013 24.9634 12.9625 24.2432 11.113 24.2432H7.85425C10.4944 11.7737 21.586 2.38733 34.8301 2.38733C35.7543 2.38733 36.6678 2.43388 37.5691 2.52316C36.5764 2.97365 35.884 3.97358 35.884 5.13275C35.884 6.71244 37.1691 7.99754 38.7488 7.99754H43.126C43.2905 7.99754 43.4244 8.13147 43.4244 8.29596C43.4244 8.46044 43.2905 8.59437 43.126 8.59437H31.4624C30.0991 8.59437 28.99 9.70352 28.99 11.0668V11.3089C28.99 11.5562 28.8936 11.7889 28.7186 11.9637L28.0204 12.662C26.8395 13.8429 26.1892 15.4131 26.1892 17.083V18.7033C26.1892 19.9262 27.184 20.9211 28.4069 20.9211H29.6102C31.2379 20.9211 32.5621 19.5968 32.5621 17.9692C32.5621 17.6852 32.6727 17.4183 32.8734 17.2175L33.4904 16.6005C33.5147 16.5763 33.5398 16.5536 33.5659 16.532C33.5858 16.5553 33.6057 16.5784 33.6277 16.6005L36.0069 18.9797C35.5494 19.4466 35.5518 20.1956 36.015 20.659C36.2481 20.8921 36.5536 21.0086 36.8591 21.0086C37.1645 21.0086 37.4701 20.8921 37.7031 20.659L38.5387 19.8234C39.0048 19.3573 39.0048 18.6014 38.5387 18.1352L36.6945 16.291C37.7538 16.3096 38.7472 16.7299 39.4983 17.4811L40.6863 18.669C41.8614 19.844 42.5086 21.4066 42.5086 23.0684V23.1659H32.6863C30.2915 23.1659 28.3432 25.1142 28.3432 27.5089V29.3402C28.3432 31.6532 30.225 33.535 32.538 33.535H32.955C33.4059 33.535 33.7729 33.9018 33.7729 34.3528V37.8711C33.7729 39.6815 34.4778 41.3835 35.7579 42.6637L36.3059 43.2117C36.9168 43.8226 37.2533 44.6349 37.2533 45.4988C37.2533 46.4186 37.6116 47.2831 38.2621 47.9334C38.9122 48.5832 39.7763 48.9409 40.6953 48.9409C40.6957 48.9409 40.6965 48.9409 40.6971 48.9409C42.0694 48.9402 43.1857 47.8234 43.1857 46.4513V46.378C43.1857 45.7527 43.3569 45.1397 43.6806 44.6049L45.1618 42.1577C45.1624 42.1566 45.163 42.1555 45.1637 42.1546L46.3488 40.183C47.0162 39.0728 47.8176 38.0442 48.7308 37.1257L50.0613 35.7872C50.5899 35.2554 50.7454 34.4646 50.4575 33.7724C50.1696 33.0802 49.4991 32.633 48.7494 32.633C48.6656 32.633 48.5974 32.5648 48.5974 32.481V31.1126C48.5974 29.4615 47.9545 27.9094 46.787 26.7419L46.5226 26.4775C47.7748 26.6594 48.9306 27.2363 49.8415 28.1472L50.7927 29.0984C51.5257 29.8314 52.4885 30.1979 53.4512 30.1979C54.4139 30.1979 55.3768 29.8314 56.1097 29.0984C56.8288 28.3793 57.2247 27.4233 57.2247 26.4063C57.2247 25.3894 56.8288 24.4334 56.1097 23.7143L55.7158 23.3204C55.6922 23.2967 55.6482 23.2527 55.6848 23.1642C55.7214 23.0758 55.7838 23.0758 55.8172 23.0758H61.5334C62.1015 25.2771 62.4037 27.5844 62.4037 29.9609C62.4037 45.1651 50.0342 57.5345 34.8301 57.5345Z" fill="#441263"/>
<path d="M26.8323 10.1463C27.4916 10.1463 28.026 9.61193 28.026 8.95267V6.50494C28.026 5.84568 27.4916 5.31128 26.8323 5.31128C26.1731 5.31128 25.6387 5.84568 25.6387 6.50494V8.95267C25.6387 9.61193 26.1731 10.1463 26.8323 10.1463Z" fill="#441263"/>
<path d="M58.6308 37.5561C58.013 37.3257 57.3256 37.6399 57.0954 38.2576C53.6487 47.503 44.701 53.7147 34.8304 53.7147C34.1711 53.7147 33.6367 54.2491 33.6367 54.9084C33.6367 55.5676 34.1711 56.102 34.8304 56.102C40.2667 56.102 45.4787 54.4489 49.903 51.3216C54.2288 48.2638 57.4894 44.0348 59.3323 39.0916C59.5626 38.4739 59.2486 37.7865 58.6308 37.5561Z" fill="#441263"/>
<path d="M29.0331 53.0028C27.8736 52.7121 26.7268 52.3294 25.6247 51.8657C25.0169 51.6098 24.3172 51.8955 24.0615 52.503C23.8058 53.1106 24.0912 53.8106 24.6988 54.0663C25.9124 54.5769 27.1753 54.9983 28.4523 55.3185C28.5498 55.343 28.6474 55.3547 28.7435 55.3547C29.2781 55.3547 29.7646 54.993 29.9004 54.4511C30.0609 53.8115 29.6726 53.1631 29.0331 53.0028Z" fill="#441263"/>
</g>
<defs>
<filter id="filter0_d_1886_4570" x="0.869141" y="0" width="67.9219" height="67.9219" filterUnits="userSpaceOnUse" color-interpolation-filters="sRGB">
<feFlood flood-opacity="0" result="BackgroundImageFix"/>
<feColorMatrix in="SourceAlpha" type="matrix" values="0 0 0 0 0 0 0 0 0 0 0 0 0 0 0 0 0 0 127 0" result="hardAlpha"/>
<feOffset dy="4"/>
<feGaussianBlur stdDeviation="2"/>
<feComposite in2="hardAlpha" operator="out"/>
<feColorMatrix type="matrix" values="0 0 0 0 0 0 0 0 0 0 0 0 0 0 0 0 0 0 0.25 0"/>
<feBlend mode="normal" in2="BackgroundImageFix" result="effect1_dropShadow_1886_4570"/>
<feBlend mode="normal" in="SourceGraphic" in2="effect1_dropShadow_1886_4570" result="shape"/>
</filter>
</defs>
</svg>
