<svg width="44" height="49" viewBox="0 0 44 49" fill="none" xmlns="http://www.w3.org/2000/svg">
<path d="M2.68971 39.2484V42.0039H5.92921V42.8729H2.68971V46.2609H1.62271V38.3794H6.47921V39.2484H2.68971ZM9.84676 43.7529C9.39576 43.7675 9.01076 43.8042 8.69176 43.8629C8.37642 43.9179 8.11792 43.9912 7.91626 44.0829C7.71826 44.1745 7.57342 44.2827 7.48176 44.4074C7.39376 44.532 7.34976 44.6714 7.34976 44.8254C7.34976 44.972 7.37359 45.0985 7.42126 45.2049C7.46892 45.3112 7.53309 45.3992 7.61376 45.4689C7.69809 45.5349 7.79526 45.5844 7.90526 45.6174C8.01892 45.6467 8.13992 45.6614 8.26826 45.6614C8.44059 45.6614 8.59826 45.6449 8.74126 45.6119C8.88426 45.5752 9.01809 45.5239 9.14276 45.4579C9.27109 45.3919 9.39209 45.313 9.50576 45.2214C9.62309 45.1297 9.73676 45.0252 9.84676 44.9079V43.7529ZM6.68426 41.4759C6.99226 41.1789 7.32409 40.957 7.67976 40.8104C8.03542 40.6637 8.42959 40.5904 8.86226 40.5904C9.17392 40.5904 9.45076 40.6417 9.69276 40.7444C9.93476 40.847 10.1383 40.99 10.3033 41.1734C10.4683 41.3567 10.5929 41.5785 10.6773 41.8389C10.7616 42.0992 10.8038 42.3852 10.8038 42.6969V46.2609H10.3693C10.2739 46.2609 10.2006 46.2462 10.1493 46.2169C10.0979 46.1839 10.0576 46.1215 10.0283 46.0299L9.91826 45.5019C9.77159 45.6375 9.62859 45.7585 9.48926 45.8649C9.34992 45.9675 9.20326 46.0555 9.04926 46.1289C8.89526 46.1985 8.73026 46.2517 8.55426 46.2884C8.38192 46.3287 8.18942 46.3489 7.97676 46.3489C7.76042 46.3489 7.55692 46.3195 7.36626 46.2609C7.17559 46.1985 7.00876 46.1069 6.86576 45.9859C6.72642 45.8649 6.61459 45.7127 6.53026 45.5294C6.44959 45.3424 6.40926 45.1224 6.40926 44.8694C6.40926 44.6494 6.46976 44.4385 6.59076 44.2369C6.71176 44.0315 6.90792 43.85 7.17926 43.6924C7.45059 43.5347 7.80442 43.4064 8.24076 43.3074C8.67709 43.2047 9.21242 43.146 9.84676 43.1314V42.6969C9.84676 42.2642 9.75326 41.9379 9.56626 41.7179C9.37926 41.4942 9.10609 41.3824 8.74676 41.3824C8.50476 41.3824 8.30126 41.4135 8.13626 41.4759C7.97492 41.5345 7.83376 41.6024 7.71276 41.6794C7.59542 41.7527 7.49276 41.8205 7.40476 41.8829C7.32042 41.9415 7.23609 41.9709 7.15176 41.9709C7.08576 41.9709 7.02892 41.9544 6.98126 41.9214C6.93359 41.8847 6.89326 41.8407 6.86026 41.7894L6.68426 41.4759ZM16.9509 40.6894L14.6794 46.2609H13.7994L11.5279 40.6894H12.3254C12.406 40.6894 12.472 40.7095 12.5234 40.7499C12.5747 40.7902 12.6095 40.8379 12.6279 40.8929L14.0414 44.4789C14.0854 44.6145 14.1239 44.7465 14.1569 44.8749C14.1899 45.0032 14.221 45.1315 14.2504 45.2599C14.2797 45.1315 14.3109 45.0032 14.3439 44.8749C14.3769 44.7465 14.4172 44.6145 14.4649 44.4789L15.8949 40.8929C15.9169 40.8342 15.9535 40.7865 16.0049 40.7499C16.0562 40.7095 16.1167 40.6894 16.1864 40.6894H16.9509ZM20.0469 40.6014C20.4539 40.6014 20.8205 40.6692 21.1469 40.8049C21.4732 40.9405 21.7519 41.133 21.9829 41.3824C22.2139 41.6317 22.3899 41.9342 22.5109 42.2899C22.6355 42.6419 22.6979 43.036 22.6979 43.4724C22.6979 43.9124 22.6355 44.3084 22.5109 44.6604C22.3899 45.0124 22.2139 45.313 21.9829 45.5624C21.7519 45.8117 21.4732 46.0042 21.1469 46.1399C20.8205 46.2719 20.4539 46.3379 20.0469 46.3379C19.6362 46.3379 19.2659 46.2719 18.9359 46.1399C18.6095 46.0042 18.3309 45.8117 18.0999 45.5624C17.8689 45.313 17.691 45.0124 17.5664 44.6604C17.4454 44.3084 17.3849 43.9124 17.3849 43.4724C17.3849 43.036 17.4454 42.6419 17.5664 42.2899C17.691 41.9342 17.8689 41.6317 18.0999 41.3824C18.3309 41.133 18.6095 40.9405 18.9359 40.8049C19.2659 40.6692 19.6362 40.6014 20.0469 40.6014ZM20.0469 45.5734C20.5969 45.5734 21.0075 45.39 21.2789 45.0234C21.5502 44.653 21.6859 44.1379 21.6859 43.4779C21.6859 42.8142 21.5502 42.2972 21.2789 41.9269C21.0075 41.5565 20.5969 41.3714 20.0469 41.3714C19.7682 41.3714 19.5244 41.419 19.3154 41.5144C19.11 41.6097 18.9377 41.7472 18.7984 41.9269C18.6627 42.1065 18.56 42.3284 18.4904 42.5924C18.4244 42.8527 18.3914 43.1479 18.3914 43.4779C18.3914 44.1379 18.527 44.653 18.7984 45.0234C19.0734 45.39 19.4895 45.5734 20.0469 45.5734ZM24.8691 41.8059C25.0451 41.4245 25.2614 41.1275 25.5181 40.9149C25.7747 40.6985 26.0882 40.5904 26.4586 40.5904C26.5759 40.5904 26.6877 40.6032 26.7941 40.6289C26.9041 40.6545 27.0012 40.6949 27.0856 40.7499L27.0141 41.4814C26.9921 41.573 26.9371 41.6189 26.8491 41.6189C26.7977 41.6189 26.7226 41.6079 26.6236 41.5859C26.5246 41.5639 26.4127 41.5529 26.2881 41.5529C26.1121 41.5529 25.9544 41.5785 25.8151 41.6299C25.6794 41.6812 25.5566 41.7582 25.4466 41.8609C25.3402 41.9599 25.2431 42.0845 25.1551 42.2349C25.0707 42.3815 24.9937 42.5502 24.9241 42.7409V46.2609H23.9396V40.6894H24.5006C24.6069 40.6894 24.6802 40.7095 24.7206 40.7499C24.7609 40.7902 24.7884 40.8599 24.8031 40.9589L24.8691 41.8059ZM28.9804 40.6894V46.2609H28.0014V40.6894H28.9804ZM29.1894 38.9404C29.1894 39.0357 29.1692 39.1255 29.1289 39.2099C29.0922 39.2905 29.0409 39.3639 28.9749 39.4299C28.9126 39.4922 28.8374 39.5417 28.7494 39.5784C28.6651 39.615 28.5752 39.6334 28.4799 39.6334C28.3846 39.6334 28.2947 39.615 28.2104 39.5784C28.1297 39.5417 28.0582 39.4922 27.9959 39.4299C27.9336 39.3639 27.8841 39.2905 27.8474 39.2099C27.8107 39.1255 27.7924 39.0357 27.7924 38.9404C27.7924 38.845 27.8107 38.7552 27.8474 38.6709C27.8841 38.5829 27.9336 38.5077 27.9959 38.4454C28.0582 38.3794 28.1297 38.328 28.2104 38.2914C28.2947 38.2547 28.3846 38.2364 28.4799 38.2364C28.5752 38.2364 28.6651 38.2547 28.7494 38.2914C28.8374 38.328 28.9126 38.3794 28.9749 38.4454C29.0409 38.5077 29.0922 38.5829 29.1289 38.6709C29.1692 38.7552 29.1894 38.845 29.1894 38.9404ZM32.2995 46.3489C31.8595 46.3489 31.5203 46.226 31.282 45.9804C31.0473 45.7347 30.93 45.3809 30.93 44.9189V41.5089H30.259C30.2003 41.5089 30.1508 41.4924 30.1105 41.4594C30.0701 41.4227 30.05 41.3677 30.05 41.2944V40.9039L30.963 40.7884L31.1885 39.0669C31.1995 39.0119 31.2233 38.9679 31.26 38.9349C31.3003 38.8982 31.3516 38.8799 31.414 38.8799H31.909V40.7994H33.5205V41.5089H31.909V44.8529C31.909 45.0875 31.9658 45.2617 32.0795 45.3754C32.1931 45.489 32.3398 45.5459 32.5195 45.5459C32.6221 45.5459 32.7101 45.533 32.7835 45.5074C32.8605 45.478 32.9265 45.4469 32.9815 45.4139C33.0365 45.3809 33.0823 45.3515 33.119 45.3259C33.1593 45.2965 33.1941 45.2819 33.2235 45.2819C33.2748 45.2819 33.3206 45.313 33.361 45.3754L33.647 45.8429C33.4783 46.0005 33.2748 46.1252 33.0365 46.2169C32.7981 46.3049 32.5525 46.3489 32.2995 46.3489ZM38.2281 42.8674C38.2281 42.64 38.1951 42.4329 38.1291 42.2459C38.0668 42.0552 37.9733 41.892 37.8486 41.7564C37.7276 41.617 37.5791 41.5107 37.4031 41.4374C37.2271 41.3604 37.0273 41.3219 36.8036 41.3219C36.3343 41.3219 35.9621 41.4594 35.6871 41.7344C35.4158 42.0057 35.2471 42.3834 35.1811 42.8674H38.2281ZM39.0201 45.4799C38.8991 45.6265 38.7543 45.7549 38.5856 45.8649C38.417 45.9712 38.2355 46.0592 38.0411 46.1289C37.8505 46.1985 37.6525 46.2499 37.4471 46.2829C37.2418 46.3195 37.0383 46.3379 36.8366 46.3379C36.4516 46.3379 36.096 46.2737 35.7696 46.1454C35.447 46.0134 35.1665 45.8227 34.9281 45.5734C34.6935 45.3204 34.5101 45.0087 34.3781 44.6384C34.2461 44.268 34.1801 43.8427 34.1801 43.3624C34.1801 42.9737 34.2388 42.6107 34.3561 42.2734C34.4771 41.936 34.6495 41.6445 34.8731 41.3989C35.0968 41.1495 35.37 40.9552 35.6926 40.8159C36.0153 40.6729 36.3783 40.6014 36.7816 40.6014C37.1153 40.6014 37.4233 40.6582 37.7056 40.7719C37.9916 40.8819 38.2373 41.0432 38.4426 41.2559C38.6516 41.4649 38.8148 41.7252 38.9321 42.0369C39.0495 42.3449 39.1081 42.6969 39.1081 43.0929C39.1081 43.2469 39.0916 43.3495 39.0586 43.4009C39.0256 43.4522 38.9633 43.4779 38.8716 43.4779H35.1481C35.1591 43.8299 35.2068 44.136 35.2911 44.3964C35.3791 44.6567 35.5001 44.8749 35.6541 45.0509C35.8081 45.2232 35.9915 45.3534 36.2041 45.4414C36.4168 45.5257 36.6551 45.5679 36.9191 45.5679C37.1648 45.5679 37.3756 45.5404 37.5516 45.4854C37.7313 45.4267 37.8853 45.3644 38.0136 45.2984C38.142 45.2324 38.2483 45.1719 38.3326 45.1169C38.4206 45.0582 38.4958 45.0289 38.5581 45.0289C38.6388 45.0289 38.7011 45.06 38.7451 45.1224L39.0201 45.4799ZM41.2402 41.8059C41.4162 41.4245 41.6325 41.1275 41.8892 40.9149C42.1458 40.6985 42.4593 40.5904 42.8297 40.5904C42.947 40.5904 43.0588 40.6032 43.1652 40.6289C43.2752 40.6545 43.3723 40.6949 43.4567 40.7499L43.3852 41.4814C43.3632 41.573 43.3082 41.6189 43.2202 41.6189C43.1688 41.6189 43.0937 41.6079 42.9947 41.5859C42.8957 41.5639 42.7838 41.5529 42.6592 41.5529C42.4832 41.5529 42.3255 41.5785 42.1862 41.6299C42.0505 41.6812 41.9277 41.7582 41.8177 41.8609C41.7113 41.9599 41.6142 42.0845 41.5262 42.2349C41.4418 42.3815 41.3648 42.5502 41.2952 42.7409V46.2609H40.3107V40.6894H40.8717C40.978 40.6894 41.0513 40.7095 41.0917 40.7499C41.132 40.7902 41.1595 40.8599 41.1742 40.9589L41.2402 41.8059Z" fill="white"/>
<g clip-path="url(#clip0_1679_3859)">
<path d="M28.8997 2.47187C30.7732 2.47187 32.5341 3.20145 33.859 4.52599C36.5934 7.26041 36.5934 11.7099 33.859 14.4447L26.8887 21.4153L21.9293 26.3742L16.97 21.4149L9.99938 14.4443C7.26496 11.7099 7.26496 7.26052 9.99938 4.52574C11.3239 3.2012 13.0852 2.4715 14.9587 2.4715C16.8322 2.4715 18.5932 3.2012 19.9181 4.52574L20.4083 5.01584L21.9293 6.53724L23.4503 5.01622L23.9403 4.52599C25.2652 3.20109 27.0265 2.47187 28.8997 2.47187ZM28.8997 0.320435C26.5543 0.320435 24.2085 1.21512 22.4193 3.00472L21.9293 3.49482L21.4391 3.00472C19.6495 1.21512 17.3041 0.320435 14.9587 0.320435C12.6133 0.320435 10.2675 1.21512 8.47786 3.00472C4.89866 6.58392 4.89866 12.3865 8.47786 15.9657L15.4485 22.9363L21.9293 29.417L28.4097 22.9367L35.38 15.9661C38.9592 12.3869 38.9592 6.58417 35.38 3.00497C33.5908 1.21501 31.2454 0.320435 28.8997 0.320435Z" fill="white"/>
</g>
<defs>
<clipPath id="clip0_1679_3859">
<rect width="32.6455" height="32.6455" fill="white" transform="translate(5.79346 0.320435)"/>
</clipPath>
</defs>
</svg>
