<svg width="45" height="46" viewBox="0 0 45 46" fill="none" xmlns="http://www.w3.org/2000/svg">
<path d="M3.31435 36.3287V38.6827H6.29535V39.8652H3.31435V43.1047H1.82935V35.1517H6.84535V36.3287H3.31435ZM10.0851 40.6957C9.69277 40.7141 9.36277 40.7489 9.09511 40.8002C8.82744 40.8479 8.61294 40.9102 8.45161 40.9872C8.29027 41.0642 8.17477 41.1541 8.10511 41.2567C8.03544 41.3594 8.00061 41.4712 8.00061 41.5922C8.00061 41.8306 8.07027 42.0011 8.20961 42.1037C8.35261 42.2064 8.53777 42.2577 8.76511 42.2577C9.04377 42.2577 9.28394 42.2082 9.48561 42.1092C9.69094 42.0066 9.89077 41.8526 10.0851 41.6472V40.6957ZM6.97211 38.2482C7.62111 37.6542 8.40211 37.3572 9.31511 37.3572C9.64511 37.3572 9.94027 37.4122 10.2006 37.5222C10.4609 37.6286 10.6809 37.7789 10.8606 37.9732C11.0403 38.1639 11.1759 38.3931 11.2676 38.6607C11.3629 38.9284 11.4106 39.2217 11.4106 39.5407V43.1047H10.7946C10.6663 43.1047 10.5673 43.0864 10.4976 43.0497C10.4279 43.0094 10.3729 42.9306 10.3326 42.8132L10.2116 42.4062C10.0686 42.5346 9.92927 42.6482 9.79361 42.7472C9.65794 42.8426 9.51677 42.9232 9.37011 42.9892C9.22344 43.0552 9.06577 43.1047 8.89711 43.1377C8.73211 43.1744 8.54877 43.1927 8.34711 43.1927C8.10877 43.1927 7.88877 43.1616 7.68711 43.0992C7.48544 43.0332 7.31127 42.9361 7.16461 42.8077C7.01794 42.6794 6.90427 42.5199 6.82361 42.3292C6.74294 42.1386 6.70261 41.9167 6.70261 41.6637C6.70261 41.5207 6.72644 41.3796 6.77411 41.2402C6.82177 41.0972 6.89877 40.9616 7.00511 40.8332C7.11511 40.7049 7.25627 40.5839 7.42861 40.4702C7.60094 40.3566 7.81177 40.2576 8.06111 40.1732C8.31411 40.0889 8.60744 40.0211 8.94111 39.9697C9.27477 39.9147 9.65611 39.8817 10.0851 39.8707V39.5407C10.0851 39.1631 10.0044 38.8844 9.84311 38.7047C9.68177 38.5214 9.44894 38.4297 9.14461 38.4297C8.92461 38.4297 8.74127 38.4554 8.59461 38.5067C8.45161 38.5581 8.32511 38.6167 8.21511 38.6827C8.10511 38.7451 8.00427 38.8019 7.91261 38.8532C7.82461 38.9046 7.72561 38.9302 7.61561 38.9302C7.52027 38.9302 7.43961 38.9064 7.37361 38.8587C7.30761 38.8074 7.25444 38.7487 7.21411 38.6827L6.97211 38.2482ZM17.6486 37.4617L15.4101 43.1047H14.1781L11.9396 37.4617H13.0616C13.1643 37.4617 13.2486 37.4856 13.3146 37.5332C13.3843 37.5809 13.4301 37.6414 13.4521 37.7147L14.5411 40.7287C14.5998 40.9047 14.6511 41.0771 14.6951 41.2457C14.7391 41.4144 14.7776 41.5831 14.8106 41.7517C14.8473 41.5831 14.8876 41.4144 14.9316 41.2457C14.9756 41.0771 15.0288 40.9047 15.0911 40.7287L16.2021 37.7147C16.2278 37.6414 16.2736 37.5809 16.3396 37.5332C16.4056 37.4856 16.4845 37.4617 16.5761 37.4617H17.6486ZM20.6978 37.3737C21.1158 37.3737 21.4953 37.4416 21.8363 37.5772C22.181 37.7129 22.4743 37.9054 22.7163 38.1547C22.962 38.4041 23.1508 38.7084 23.2828 39.0677C23.4148 39.4271 23.4808 39.8286 23.4808 40.2722C23.4808 40.7196 23.4148 41.1229 23.2828 41.4822C23.1508 41.8416 22.962 42.1477 22.7163 42.4007C22.4743 42.6537 22.181 42.8481 21.8363 42.9837C21.4953 43.1194 21.1158 43.1872 20.6978 43.1872C20.2761 43.1872 19.893 43.1194 19.5483 42.9837C19.2036 42.8481 18.9085 42.6537 18.6628 42.4007C18.4208 42.1477 18.232 41.8416 18.0963 41.4822C17.9643 41.1229 17.8983 40.7196 17.8983 40.2722C17.8983 39.8286 17.9643 39.4271 18.0963 39.0677C18.232 38.7084 18.4208 38.4041 18.6628 38.1547C18.9085 37.9054 19.2036 37.7129 19.5483 37.5772C19.893 37.4416 20.2761 37.3737 20.6978 37.3737ZM20.6978 42.1422C21.1671 42.1422 21.5136 41.9846 21.7373 41.6692C21.9646 41.3539 22.0783 40.8919 22.0783 40.2832C22.0783 39.6746 21.9646 39.2107 21.7373 38.8917C21.5136 38.5727 21.1671 38.4132 20.6978 38.4132C20.2211 38.4132 19.8673 38.5746 19.6363 38.8972C19.409 39.2162 19.2953 39.6782 19.2953 40.2832C19.2953 40.8882 19.409 41.3502 19.6363 41.6692C19.8673 41.9846 20.2211 42.1422 20.6978 42.1422ZM25.7987 38.4407C25.9747 38.1034 26.1837 37.8394 26.4257 37.6487C26.6677 37.4544 26.9537 37.3572 27.2837 37.3572C27.544 37.3572 27.753 37.4141 27.9107 37.5277L27.8227 38.5452C27.8044 38.6112 27.7769 38.6589 27.7402 38.6882C27.7072 38.7139 27.6614 38.7267 27.6027 38.7267C27.5477 38.7267 27.4652 38.7176 27.3552 38.6992C27.2489 38.6809 27.1444 38.6717 27.0417 38.6717C26.8914 38.6717 26.7575 38.6937 26.6402 38.7377C26.5229 38.7817 26.4165 38.8459 26.3212 38.9302C26.2295 39.0109 26.147 39.1099 26.0737 39.2272C26.004 39.3446 25.938 39.4784 25.8757 39.6287V43.1047H24.5172V37.4617H25.3147C25.454 37.4617 25.5512 37.4874 25.6062 37.5387C25.6612 37.5864 25.6979 37.6744 25.7162 37.8027L25.7987 38.4407ZM30.0287 37.4617V43.1047H28.6647V37.4617H30.0287ZM30.2157 35.8172C30.2157 35.9346 30.1919 36.0446 30.1442 36.1472C30.0965 36.2499 30.0324 36.3397 29.9517 36.4167C29.8747 36.4937 29.783 36.5561 29.6767 36.6037C29.5704 36.6477 29.4567 36.6697 29.3357 36.6697C29.2184 36.6697 29.1065 36.6477 29.0002 36.6037C28.8975 36.5561 28.8077 36.4937 28.7307 36.4167C28.6537 36.3397 28.5914 36.2499 28.5437 36.1472C28.4997 36.0446 28.4777 35.9346 28.4777 35.8172C28.4777 35.6962 28.4997 35.5826 28.5437 35.4762C28.5914 35.3699 28.6537 35.2782 28.7307 35.2012C28.8077 35.1242 28.8975 35.0637 29.0002 35.0197C29.1065 34.9721 29.2184 34.9482 29.3357 34.9482C29.4567 34.9482 29.5704 34.9721 29.6767 35.0197C29.783 35.0637 29.8747 35.1242 29.9517 35.2012C30.0324 35.2782 30.0965 35.3699 30.1442 35.4762C30.1919 35.5826 30.2157 35.6962 30.2157 35.8172ZM33.2947 43.1927C32.8033 43.1927 32.4257 43.0552 32.1617 42.7802C31.9013 42.5016 31.7712 42.1184 31.7712 41.6307V38.4792H31.1937C31.1203 38.4792 31.058 38.4554 31.0067 38.4077C30.9553 38.3601 30.9297 38.2886 30.9297 38.1932V37.6542L31.8372 37.5057L32.1232 35.9657C32.1415 35.8924 32.1763 35.8356 32.2277 35.7952C32.279 35.7549 32.345 35.7347 32.4257 35.7347H33.1297V37.5112H34.6367V38.4792H33.1297V41.5372C33.1297 41.7132 33.1718 41.8507 33.2562 41.9497C33.3442 42.0487 33.4633 42.0982 33.6137 42.0982C33.698 42.0982 33.7677 42.0891 33.8227 42.0707C33.8813 42.0487 33.9308 42.0267 33.9712 42.0047C34.0152 41.9827 34.0537 41.9626 34.0867 41.9442C34.1197 41.9222 34.1527 41.9112 34.1857 41.9112C34.226 41.9112 34.259 41.9222 34.2847 41.9442C34.3103 41.9626 34.3378 41.9919 34.3672 42.0322L34.7742 42.6922C34.5762 42.8572 34.3488 42.9819 34.0922 43.0662C33.8355 43.1506 33.5697 43.1927 33.2947 43.1927ZM39.099 39.6342C39.099 39.4582 39.0733 39.2932 39.022 39.1392C38.9743 38.9816 38.901 38.8441 38.802 38.7267C38.703 38.6094 38.5765 38.5177 38.4225 38.4517C38.2721 38.3821 38.0961 38.3472 37.8945 38.3472C37.5021 38.3472 37.1923 38.4591 36.965 38.6827C36.7413 38.9064 36.5983 39.2236 36.536 39.6342H39.099ZM36.5085 40.4537C36.5305 40.7434 36.5818 40.9946 36.6625 41.2072C36.7431 41.4162 36.8495 41.5904 36.9815 41.7297C37.1135 41.8654 37.2693 41.9681 37.449 42.0377C37.6323 42.1037 37.834 42.1367 38.054 42.1367C38.274 42.1367 38.4628 42.1111 38.6205 42.0597C38.7818 42.0084 38.9211 41.9516 39.0385 41.8892C39.1595 41.8269 39.264 41.7701 39.352 41.7187C39.4436 41.6674 39.5316 41.6417 39.616 41.6417C39.7296 41.6417 39.814 41.6839 39.869 41.7682L40.2595 42.2632C40.1091 42.4392 39.9405 42.5877 39.7535 42.7087C39.5665 42.8261 39.3703 42.9214 39.165 42.9947C38.9633 43.0644 38.7561 43.1139 38.5435 43.1432C38.3345 43.1726 38.131 43.1872 37.933 43.1872C37.5406 43.1872 37.1758 43.1231 36.8385 42.9947C36.5011 42.8627 36.2078 42.6702 35.9585 42.4172C35.7091 42.1606 35.513 41.8452 35.37 41.4712C35.227 41.0936 35.1555 40.6572 35.1555 40.1622C35.1555 39.7772 35.2178 39.4161 35.3425 39.0787C35.4671 38.7377 35.645 38.4426 35.876 38.1932C36.1106 37.9402 36.3948 37.7404 36.7285 37.5937C37.0658 37.4471 37.4453 37.3737 37.867 37.3737C38.2226 37.3737 38.5508 37.4306 38.8515 37.5442C39.1521 37.6579 39.4106 37.8247 39.627 38.0447C39.8433 38.2611 40.012 38.5287 40.133 38.8477C40.2576 39.1631 40.32 39.5242 40.32 39.9312C40.32 40.1366 40.298 40.2759 40.254 40.3492C40.21 40.4189 40.1256 40.4537 40.001 40.4537H36.5085ZM42.621 38.4407C42.797 38.1034 43.006 37.8394 43.248 37.6487C43.49 37.4544 43.776 37.3572 44.106 37.3572C44.3663 37.3572 44.5753 37.4141 44.733 37.5277L44.645 38.5452C44.6266 38.6112 44.5991 38.6589 44.5625 38.6882C44.5295 38.7139 44.4836 38.7267 44.425 38.7267C44.37 38.7267 44.2875 38.7176 44.1775 38.6992C44.0711 38.6809 43.9666 38.6717 43.864 38.6717C43.7136 38.6717 43.5798 38.6937 43.4625 38.7377C43.3451 38.7817 43.2388 38.8459 43.1435 38.9302C43.0518 39.0109 42.9693 39.1099 42.896 39.2272C42.8263 39.3446 42.7603 39.4784 42.698 39.6287V43.1047H41.3395V37.4617H42.137C42.2763 37.4617 42.3735 37.4874 42.4285 37.5387C42.4835 37.5864 42.5201 37.6744 42.5385 37.8027L42.621 38.4407Z" fill="#BEFA9E"/>
<g clip-path="url(#clip0_1679_3790)">
<path d="M27.72 2.45344C29.5935 2.45344 31.3544 3.18302 32.6793 4.50756C35.4137 7.24198 35.4137 11.6915 32.6793 14.4262L25.709 21.3968L20.7496 26.3558L15.7903 21.3965L8.8197 14.4259C6.08527 11.6914 6.08527 7.24209 8.8197 4.50731C10.1442 3.18277 11.9055 2.45307 13.779 2.45307C15.6525 2.45307 17.4135 3.18277 18.7384 4.50731L19.2286 4.99741L20.7496 6.51881L22.2706 4.99779L22.7606 4.50756C24.0855 3.18266 25.8468 2.45344 27.72 2.45344ZM27.72 0.302002C25.3746 0.302002 23.0288 1.19668 21.2396 2.98629L20.7496 3.47639L20.2594 2.98629C18.4698 1.19668 16.1244 0.302002 13.779 0.302002C11.4337 0.302002 9.08778 1.19668 7.29817 2.98629C3.71897 6.56549 3.71897 12.3681 7.29817 15.9473L14.2688 22.9179L20.7496 29.3986L27.23 22.9182L34.2003 15.9476C37.7795 12.3684 37.7795 6.56574 34.2003 2.98654C32.4111 1.19657 30.0657 0.302002 27.72 0.302002Z" fill="#BEFA9E"/>
<path d="M9.6725 2.55793C13.4252 -1.19508 18.714 3.16996 20.8893 5.8216C20.2364 4.76116 23.8807 2.59234 25.7844 1.64048C26.6682 1.47052 29.3536 1.51811 33.0247 3.06813C36.2879 2.98655 35.4721 9.96847 34.6563 13.4696L20.8893 27.9501C18.7479 25.6047 13.8941 20.5263 11.6099 18.9763C9.32562 17.4263 6.78313 12.3479 5.79741 10.0025C5.52547 9.0847 5.91978 6.31094 9.6725 2.55793Z" fill="#BEFA9E"/>
</g>
<defs>
<clipPath id="clip0_1679_3790">
<rect width="32.6455" height="32.6455" fill="white" transform="translate(4.61377 0.302002)"/>
</clipPath>
</defs>
</svg>
