<svg width="36" height="36" viewBox="0 0 36 36" fill="none" xmlns="http://www.w3.org/2000/svg">
<g clip-path="url(#clip0_1886_5038)">
<mask id="path-1-inside-1_1886_5038" fill="white">
<path fill-rule="evenodd" clip-rule="evenodd" d="M18.3071 35.6108C28.0077 35.6108 35.8716 27.747 35.8716 18.0464C35.8716 8.34581 28.0077 0.481934 18.3071 0.481934C8.60655 0.481934 0.742676 8.34581 0.742676 18.0464C0.742676 27.747 8.60655 35.6108 18.3071 35.6108ZM18.3071 33.754C26.9822 33.754 34.0147 26.7215 34.0147 18.0464C34.0147 9.37128 26.9822 2.33873 18.3071 2.33873C9.63202 2.33873 2.59948 9.37128 2.59948 18.0464C2.59948 26.7215 9.63202 33.754 18.3071 33.754Z"/>
</mask>
<path fill-rule="evenodd" clip-rule="evenodd" d="M18.3071 35.6108C28.0077 35.6108 35.8716 27.747 35.8716 18.0464C35.8716 8.34581 28.0077 0.481934 18.3071 0.481934C8.60655 0.481934 0.742676 8.34581 0.742676 18.0464C0.742676 27.747 8.60655 35.6108 18.3071 35.6108ZM18.3071 33.754C26.9822 33.754 34.0147 26.7215 34.0147 18.0464C34.0147 9.37128 26.9822 2.33873 18.3071 2.33873C9.63202 2.33873 2.59948 9.37128 2.59948 18.0464C2.59948 26.7215 9.63202 33.754 18.3071 33.754Z" fill="white"/>
<path d="M34.8716 18.0464C34.8716 27.1947 27.4554 34.6108 18.3071 34.6108V36.6108C28.56 36.6108 36.8716 28.2992 36.8716 18.0464H34.8716ZM18.3071 1.48193C27.4554 1.48193 34.8716 8.89809 34.8716 18.0464H36.8716C36.8716 7.79352 28.56 -0.518066 18.3071 -0.518066V1.48193ZM1.74268 18.0464C1.74268 8.89809 9.15883 1.48193 18.3071 1.48193V-0.518066C8.05426 -0.518066 -0.257324 7.79352 -0.257324 18.0464H1.74268ZM18.3071 34.6108C9.15883 34.6108 1.74268 27.1947 1.74268 18.0464H-0.257324C-0.257324 28.2992 8.05426 36.6108 18.3071 36.6108V34.6108ZM33.0147 18.0464C33.0147 26.1692 26.4299 32.754 18.3071 32.754V34.754C27.5345 34.754 35.0147 27.2737 35.0147 18.0464H33.0147ZM18.3071 3.33873C26.4299 3.33873 33.0147 9.92357 33.0147 18.0464H35.0147C35.0147 8.819 27.5345 1.33873 18.3071 1.33873V3.33873ZM3.59948 18.0464C3.59948 9.92357 10.1843 3.33873 18.3071 3.33873V1.33873C9.07974 1.33873 1.59948 8.819 1.59948 18.0464H3.59948ZM18.3071 32.754C10.1843 32.754 3.59948 26.1692 3.59948 18.0464H1.59948C1.59948 27.2737 9.07974 34.754 18.3071 34.754V32.754Z" fill="#BEFA9E" mask="url(#path-1-inside-1_1886_5038)"/>
</g>
<g clip-path="url(#clip1_1886_5038)">
<path d="M21.6756 12.0146C22.6059 12.0146 23.4804 12.3769 24.1383 13.0347C25.4961 14.3925 25.4961 16.602 24.1383 17.96L20.677 21.4214L18.2143 23.8839L15.7516 21.4212L12.2902 17.9598C10.9324 16.602 10.9324 14.3926 12.2902 13.0345C12.9479 12.3768 13.8226 12.0145 14.7529 12.0145C15.6832 12.0145 16.5577 12.3768 17.2156 13.0345L17.459 13.2779L18.2143 14.0334L18.9696 13.2781L19.2129 13.0347C19.8708 12.3767 20.7454 12.0146 21.6756 12.0146ZM21.6756 10.9463C20.5109 10.9463 19.3461 11.3906 18.4576 12.2792L18.2143 12.5226L17.9709 12.2792C17.0822 11.3906 15.9175 10.9463 14.7529 10.9463C13.5882 10.9463 12.4233 11.3906 11.5347 12.2792C9.75733 14.0566 9.75733 16.938 11.5347 18.7153L14.9961 22.1767L18.2143 25.3949L21.4323 22.1769L24.8936 18.7155C26.6709 16.9382 26.6709 14.0567 24.8936 12.2794C24.0051 11.3905 22.8404 10.9463 21.6756 10.9463Z" fill="#BEFA9E"/>
<path d="M12.7141 12.0666C14.5776 10.2029 17.2039 12.3705 18.2841 13.6872C17.9598 13.1606 19.7695 12.0837 20.7149 11.611C21.1537 11.5266 22.4872 11.5502 24.3102 12.3199C25.9306 12.2794 25.5255 15.7464 25.1204 17.485L18.2841 24.6757C17.2207 23.511 14.8104 20.9892 13.6761 20.2195C12.5418 19.4498 11.2793 16.928 10.7898 15.7633C10.6548 15.3076 10.8506 13.9302 12.7141 12.0666Z" fill="#BEFA9E"/>
</g>
<defs>
<clipPath id="clip0_1886_5038">
<rect width="35.1289" height="35.1289" fill="white" transform="translate(0.742676 0.486816)"/>
</clipPath>
<clipPath id="clip1_1886_5038">
<rect width="16.2109" height="16.2109" fill="white" transform="translate(10.2017 10.9463)"/>
</clipPath>
</defs>
</svg>
