<svg width="36" height="36" viewBox="0 0 36 36" fill="none" xmlns="http://www.w3.org/2000/svg">
<g clip-path="url(#clip0_1854_3791)">
<path fill-rule="evenodd" clip-rule="evenodd" d="M18.293 35.6108C27.9935 35.6108 35.8574 27.747 35.8574 18.0464C35.8574 8.34581 27.9935 0.481934 18.293 0.481934C8.59239 0.481934 0.728516 8.34581 0.728516 18.0464C0.728516 27.747 8.59239 35.6108 18.293 35.6108ZM18.2929 33.754C26.968 33.754 34.0006 26.7215 34.0006 18.0464C34.0006 9.37128 26.968 2.33873 18.2929 2.33873C9.61786 2.33873 2.58532 9.37128 2.58532 18.0464C2.58532 26.7215 9.61786 33.754 18.2929 33.754Z" fill="white"/>
</g>
<g clip-path="url(#clip1_1854_3791)">
<path d="M21.6615 12.0146C22.5918 12.0146 23.4662 12.3769 24.1241 13.0347C25.482 14.3925 25.482 16.602 24.1241 17.96L20.6628 21.4215L18.2002 23.8839L15.7375 21.4213L12.2761 17.9598C10.9182 16.602 10.9182 14.3926 12.2761 13.0345C12.9338 12.3768 13.8084 12.0145 14.7387 12.0145C15.6691 12.0145 16.5435 12.3768 17.2014 13.0345L17.4449 13.2779L18.2002 14.0334L18.9555 13.2781L19.1988 13.0347C19.8567 12.3768 20.7313 12.0146 21.6615 12.0146ZM21.6615 10.9463C20.4968 10.9463 19.332 11.3906 18.4435 12.2792L18.2002 12.5226L17.9567 12.2792C17.0681 11.3906 15.9034 10.9463 14.7387 10.9463C13.5741 10.9463 12.4092 11.3906 11.5205 12.2792C9.74316 14.0566 9.74316 16.938 11.5205 18.7153L14.9819 22.1768L18.2002 25.3949L21.4181 22.1769L24.8794 18.7155C26.6568 16.9382 26.6568 14.0567 24.8794 12.2794C23.9909 11.3905 22.8263 10.9463 21.6615 10.9463Z" fill="white"/>
</g>
<defs>
<clipPath id="clip0_1854_3791">
<rect width="35.1289" height="35.1289" fill="white" transform="translate(0.728516 0.486816)"/>
</clipPath>
<clipPath id="clip1_1854_3791">
<rect width="16.2109" height="16.2109" fill="white" transform="translate(10.1875 10.9463)"/>
</clipPath>
</defs>
</svg>
