<svg width="31" height="51" viewBox="0 0 31 51" fill="none" xmlns="http://www.w3.org/2000/svg">
<path d="M10.7331 40.7191V48.6721H9.24807V45.1961H5.51357V48.6721H4.02857V40.7191H5.51357V44.1401H9.24807V40.7191H10.7331ZM15.7533 45.2016C15.7533 45.0256 15.7276 44.8606 15.6763 44.7066C15.6286 44.549 15.5553 44.4115 15.4563 44.2941C15.3573 44.1768 15.2308 44.0851 15.0768 44.0191C14.9264 43.9495 14.7504 43.9146 14.5488 43.9146C14.1564 43.9146 13.8466 44.0265 13.6193 44.2501C13.3956 44.4738 13.2526 44.791 13.1903 45.2016H15.7533ZM13.1628 46.0211C13.1848 46.3108 13.2361 46.562 13.3168 46.7746C13.3974 46.9836 13.5038 47.1578 13.6358 47.2971C13.7678 47.4328 13.9236 47.5355 14.1033 47.6051C14.2866 47.6711 14.4883 47.7041 14.7083 47.7041C14.9283 47.7041 15.1171 47.6785 15.2748 47.6271C15.4361 47.5758 15.5754 47.519 15.6928 47.4566C15.8138 47.3943 15.9183 47.3375 16.0063 47.2861C16.0979 47.2348 16.1859 47.2091 16.2703 47.2091C16.3839 47.2091 16.4683 47.2513 16.5233 47.3356L16.9138 47.8306C16.7634 48.0066 16.5948 48.1551 16.4078 48.2761C16.2208 48.3935 16.0246 48.4888 15.8193 48.5621C15.6176 48.6318 15.4104 48.6813 15.1978 48.7106C14.9888 48.74 14.7853 48.7546 14.5873 48.7546C14.1949 48.7546 13.8301 48.6905 13.4928 48.5621C13.1554 48.4301 12.8621 48.2376 12.6128 47.9846C12.3634 47.728 12.1673 47.4126 12.0243 47.0386C11.8813 46.661 11.8098 46.2246 11.8098 45.7296C11.8098 45.3446 11.8721 44.9835 11.9968 44.6461C12.1214 44.3051 12.2993 44.01 12.5303 43.7606C12.7649 43.5076 13.0491 43.3078 13.3828 43.1611C13.7201 43.0145 14.0996 42.9411 14.5213 42.9411C14.8769 42.9411 15.2051 42.998 15.5058 43.1116C15.8064 43.2253 16.0649 43.3921 16.2813 43.6121C16.4976 43.8285 16.6663 44.0961 16.7873 44.4151C16.9119 44.7305 16.9743 45.0916 16.9743 45.4986C16.9743 45.704 16.9523 45.8433 16.9083 45.9166C16.8643 45.9863 16.7799 46.0211 16.6553 46.0211H13.1628ZM17.9938 48.6721V43.0291H18.8243C19.0003 43.0291 19.1158 43.1116 19.1708 43.2766L19.2588 43.6946C19.3578 43.5846 19.4604 43.4838 19.5668 43.3921C19.6768 43.3005 19.7923 43.2216 19.9133 43.1556C20.0379 43.0896 20.1699 43.0383 20.3093 43.0016C20.4523 42.9613 20.6081 42.9411 20.7768 42.9411C21.1324 42.9411 21.4239 43.0383 21.6513 43.2326C21.8823 43.4233 22.0546 43.6781 22.1683 43.9971C22.2563 43.8101 22.3663 43.6506 22.4983 43.5186C22.6303 43.383 22.7751 43.273 22.9328 43.1886C23.0904 43.1043 23.2573 43.042 23.4333 43.0016C23.6129 42.9613 23.7926 42.9411 23.9723 42.9411C24.2839 42.9411 24.5608 42.9888 24.8028 43.0841C25.0448 43.1795 25.2483 43.3188 25.4133 43.5021C25.5783 43.6855 25.7029 43.9091 25.7873 44.1731C25.8753 44.4371 25.9193 44.7396 25.9193 45.0806V48.6721H24.5608V45.0806C24.5608 44.7213 24.4819 44.4518 24.3243 44.2721C24.1666 44.0888 23.9356 43.9971 23.6313 43.9971C23.4919 43.9971 23.3618 44.021 23.2408 44.0686C23.1234 44.1163 23.0189 44.186 22.9273 44.2776C22.8393 44.3656 22.7696 44.4775 22.7183 44.6131C22.6669 44.7488 22.6413 44.9046 22.6413 45.0806V48.6721H21.2773V45.0806C21.2773 44.703 21.2003 44.428 21.0463 44.2556C20.8959 44.0833 20.6741 43.9971 20.3808 43.9971C20.1828 43.9971 19.9976 44.0466 19.8253 44.1456C19.6566 44.241 19.4989 44.373 19.3523 44.5416V48.6721H17.9938Z" fill="#BEFA9E"/>
<g clip-path="url(#clip0_1679_3780)">
<path d="M25.7228 28.8809H5.48694C4.94344 28.8809 4.50293 28.4404 4.50293 27.8968V14.4733C4.50293 13.9298 4.94344 13.4893 5.48694 13.4893C6.03044 13.4893 6.47095 13.9298 6.47095 14.4733V26.9128H24.7384V14.4733C24.7384 13.9298 25.1789 13.4893 25.7224 13.4893C26.2659 13.4893 26.7064 13.9298 26.7064 14.4733V27.8968C26.7068 28.4407 26.2663 28.8809 25.7228 28.8809Z" fill="#BEFA9E"/>
<path d="M29.2159 13.7898C29.0257 13.7898 28.8332 13.7347 28.6636 13.6192L15.6048 4.74381L2.546 13.6196C2.09598 13.9259 1.48426 13.8082 1.17922 13.3591C0.873516 12.9094 0.990285 12.2977 1.43965 11.9923L15.0518 2.74036C15.386 2.51338 15.8242 2.51338 16.1581 2.74036L29.7703 11.9923C30.2196 12.2977 30.3364 12.9098 30.031 13.3591C29.8401 13.6389 29.5308 13.7898 29.2159 13.7898Z" fill="#BEFA9E"/>
<path d="M25.7228 7.26182C25.1793 7.26182 24.7388 6.82131 24.7388 6.27781V4.69946H22.2374C21.6939 4.69946 21.2534 4.25896 21.2534 3.71545C21.2534 3.17195 21.6939 2.73145 22.2374 2.73145H25.7228C26.2663 2.73145 26.7068 3.17195 26.7068 3.71545V6.27781C26.7068 6.82131 26.2663 7.26182 25.7228 7.26182Z" fill="#BEFA9E"/>
<path d="M4.50244 28.9686V10.0862L16.0537 2.54645L26.7056 10.5008V28.9686H4.50244Z" fill="#BEFA9E"/>
</g>
<defs>
<clipPath id="clip0_1679_3780">
<rect width="29.8821" height="29.8821" fill="white" transform="translate(0.680176 0.801025)"/>
</clipPath>
</defs>
</svg>
