<svg width="31" height="52" viewBox="0 0 31 52" fill="none" xmlns="http://www.w3.org/2000/svg">
<path d="M9.41593 41.3794V49.2609H8.34893V45.6749H4.09743V49.2609H3.03043V41.3794H4.09743V44.8939H8.34893V41.3794H9.41593ZM14.7569 45.8674C14.7569 45.64 14.7239 45.4329 14.6579 45.2459C14.5956 45.0552 14.5021 44.892 14.3774 44.7564C14.2564 44.617 14.1079 44.5107 13.9319 44.4374C13.7559 44.3604 13.5561 44.3219 13.3324 44.3219C12.8631 44.3219 12.4909 44.4594 12.2159 44.7344C11.9446 45.0057 11.7759 45.3834 11.7099 45.8674H14.7569ZM15.5489 48.4799C15.4279 48.6265 15.2831 48.7549 15.1144 48.8649C14.9458 48.9712 14.7643 49.0592 14.5699 49.1289C14.3793 49.1985 14.1813 49.2499 13.9759 49.2829C13.7706 49.3195 13.5671 49.3379 13.3654 49.3379C12.9804 49.3379 12.6248 49.2737 12.2984 49.1454C11.9758 49.0134 11.6953 48.8227 11.4569 48.5734C11.2223 48.3204 11.0389 48.0087 10.9069 47.6384C10.7749 47.268 10.7089 46.8427 10.7089 46.3624C10.7089 45.9737 10.7676 45.6107 10.8849 45.2734C11.0059 44.936 11.1783 44.6445 11.4019 44.3989C11.6256 44.1495 11.8988 43.9552 12.2214 43.8159C12.5441 43.6729 12.9071 43.6014 13.3104 43.6014C13.6441 43.6014 13.9521 43.6582 14.2344 43.7719C14.5204 43.8819 14.7661 44.0432 14.9714 44.2559C15.1804 44.4649 15.3436 44.7252 15.4609 45.0369C15.5783 45.3449 15.6369 45.6969 15.6369 46.0929C15.6369 46.2469 15.6204 46.3495 15.5874 46.4009C15.5544 46.4522 15.4921 46.4779 15.4004 46.4779H11.6769C11.6879 46.8299 11.7356 47.136 11.8199 47.3964C11.9079 47.6567 12.0289 47.8749 12.1829 48.0509C12.3369 48.2232 12.5203 48.3534 12.7329 48.4414C12.9456 48.5257 13.1839 48.5679 13.4479 48.5679C13.6936 48.5679 13.9044 48.5404 14.0804 48.4854C14.2601 48.4267 14.4141 48.3644 14.5424 48.2984C14.6708 48.2324 14.7771 48.1719 14.8614 48.1169C14.9494 48.0582 15.0246 48.0289 15.0869 48.0289C15.1676 48.0289 15.2299 48.06 15.2739 48.1224L15.5489 48.4799ZM16.8395 49.2609V43.6894H17.428C17.5673 43.6894 17.6535 43.7572 17.6865 43.8929L17.758 44.4649C17.9633 44.2119 18.1943 44.0047 18.451 43.8434C18.7076 43.682 19.0046 43.6014 19.342 43.6014C19.716 43.6014 20.0185 43.7059 20.2495 43.9149C20.4841 44.1239 20.6528 44.4062 20.7555 44.7619C20.8361 44.5602 20.9388 44.386 21.0635 44.2394C21.1918 44.0927 21.3348 43.9717 21.4925 43.8764C21.6501 43.781 21.817 43.7114 21.993 43.6674C22.1726 43.6234 22.3541 43.6014 22.5375 43.6014C22.8308 43.6014 23.0911 43.649 23.3185 43.7444C23.5495 43.836 23.7438 43.9717 23.9015 44.1514C24.0628 44.331 24.1856 44.5529 24.27 44.8169C24.3543 45.0772 24.3965 45.376 24.3965 45.7134V49.2609H23.412V45.7134C23.412 45.277 23.3166 44.947 23.126 44.7234C22.9353 44.496 22.6603 44.3824 22.301 44.3824C22.1396 44.3824 21.9856 44.4117 21.839 44.4704C21.696 44.5254 21.5695 44.6079 21.4595 44.7179C21.3495 44.8279 21.2615 44.9672 21.1955 45.1359C21.1331 45.3009 21.102 45.4934 21.102 45.7134V49.2609H20.1175V45.7134C20.1175 45.266 20.0276 44.9324 19.848 44.7124C19.6683 44.4924 19.4061 44.3824 19.0615 44.3824C18.8195 44.3824 18.5958 44.4484 18.3905 44.5804C18.1851 44.7087 17.9963 44.8847 17.824 45.1084V49.2609H16.8395Z" fill="white"/>
<g clip-path="url(#clip0_1679_3850)">
<path d="M25.2447 28.6145H5.00891C4.46541 28.6145 4.0249 28.174 4.0249 27.6305V14.2069C4.0249 13.6634 4.46541 13.2229 5.00891 13.2229C5.55241 13.2229 5.99292 13.6634 5.99292 14.2069V26.6465H24.2604V14.2069C24.2604 13.6634 24.7009 13.2229 25.2444 13.2229C25.7879 13.2229 26.2284 13.6634 26.2284 14.2069V27.6305C26.2287 28.1743 25.7882 28.6145 25.2447 28.6145Z" fill="white"/>
<path d="M28.7379 13.5234C28.5477 13.5234 28.3551 13.4683 28.1855 13.3529L15.1268 4.47745L2.06798 13.3532C1.61796 13.6596 1.00623 13.5418 0.701188 13.0928C0.395489 12.6431 0.512258 12.0314 0.961622 11.726L14.5737 2.47401C14.908 2.24703 15.3462 2.24703 15.6801 2.47401L29.2922 11.726C29.7416 12.0314 29.8584 12.6434 29.553 13.0928C29.3621 13.3726 29.0528 13.5234 28.7379 13.5234Z" fill="white"/>
<path d="M25.2448 6.99547C24.7013 6.99547 24.2608 6.55496 24.2608 6.01146V4.43311H21.7594C21.2159 4.43311 20.7754 3.9926 20.7754 3.4491C20.7754 2.9056 21.2159 2.46509 21.7594 2.46509H25.2448C25.7883 2.46509 26.2288 2.9056 26.2288 3.4491V6.01146C26.2288 6.55496 25.7883 6.99547 25.2448 6.99547Z" fill="white"/>
</g>
<defs>
<clipPath id="clip0_1679_3850">
<rect width="29.8821" height="29.8821" fill="white" transform="translate(0.202148 0.534668)"/>
</clipPath>
</defs>
</svg>
