<svg width="343" height="182" viewBox="0 0 343 182" fill="none" xmlns="http://www.w3.org/2000/svg">
<path d="M0.81604 16.7397C0.81604 7.90318 7.97948 0.739746 16.816 0.739746H326.816C335.653 0.739746 342.816 7.90319 342.816 16.7397V90.8801H0.81604V16.7397Z" fill="white"/>
<path d="M0.81604 91.8801C0.81604 91.3278 1.26376 90.8801 1.81604 90.8801H341.816C342.368 90.8801 342.816 91.3278 342.816 91.8801V165.02C342.816 173.857 335.653 181.02 326.816 181.02H16.816C7.97948 181.02 0.81604 173.857 0.81604 165.02V91.8801Z" fill="white"/>
<path d="M24.699 63.0828H21.211V72.8828H19.059V63.0828H15.571V61.3148H24.699V63.0828ZM26.1554 66.0988C26.4114 65.6081 26.7154 65.2241 27.0674 64.9468C27.4194 64.6641 27.8354 64.5228 28.3154 64.5228C28.694 64.5228 28.998 64.6055 29.2274 64.7708L29.0994 66.2508C29.0727 66.3468 29.0327 66.4161 28.9794 66.4588C28.9314 66.4961 28.8647 66.5148 28.7794 66.5148C28.6994 66.5148 28.5794 66.5015 28.4194 66.4748C28.2647 66.4481 28.1127 66.4348 27.9634 66.4348C27.7447 66.4348 27.55 66.4668 27.3794 66.5308C27.2087 66.5948 27.054 66.6881 26.9154 66.8108C26.782 66.9281 26.662 67.0721 26.5554 67.2428C26.454 67.4135 26.358 67.6081 26.2674 67.8268V72.8828H24.2914V64.6748H25.4514C25.654 64.6748 25.7954 64.7121 25.8754 64.7868C25.9554 64.8561 26.0087 64.9841 26.0354 65.1708L26.1554 66.0988ZM34.4867 69.3788C33.9161 69.4055 33.4361 69.4561 33.0467 69.5308C32.6574 69.6001 32.3454 69.6908 32.1107 69.8028C31.8761 69.9148 31.7081 70.0455 31.6067 70.1948C31.5054 70.3441 31.4547 70.5068 31.4547 70.6828C31.4547 71.0295 31.5561 71.2775 31.7587 71.4268C31.9667 71.5761 32.2361 71.6508 32.5667 71.6508C32.9721 71.6508 33.3214 71.5788 33.6147 71.4348C33.9134 71.2855 34.2041 71.0615 34.4867 70.7628V69.3788ZM29.9587 65.8188C30.9027 64.9548 32.0387 64.5228 33.3667 64.5228C33.8467 64.5228 34.2761 64.6028 34.6547 64.7628C35.0334 64.9175 35.3534 65.1361 35.6147 65.4188C35.8761 65.6961 36.0734 66.0295 36.2067 66.4188C36.3454 66.8081 36.4147 67.2348 36.4147 67.6988V72.8828H35.5187C35.3321 72.8828 35.1881 72.8561 35.0867 72.8028C34.9854 72.7441 34.9054 72.6295 34.8467 72.4588L34.6707 71.8668C34.4627 72.0535 34.2601 72.2188 34.0627 72.3628C33.8654 72.5015 33.6601 72.6188 33.4467 72.7148C33.2334 72.8108 33.0041 72.8828 32.7587 72.9308C32.5187 72.9841 32.2521 73.0108 31.9587 73.0108C31.6121 73.0108 31.2921 72.9655 30.9987 72.8748C30.7054 72.7788 30.4521 72.6375 30.2387 72.4508C30.0254 72.2641 29.8601 72.0321 29.7427 71.7548C29.6254 71.4775 29.5667 71.1548 29.5667 70.7868C29.5667 70.5788 29.6014 70.3735 29.6707 70.1708C29.7401 69.9628 29.8521 69.7655 30.0067 69.5788C30.1667 69.3921 30.3721 69.2161 30.6227 69.0508C30.8734 68.8855 31.1801 68.7415 31.5427 68.6188C31.9107 68.4961 32.3374 68.3975 32.8227 68.3228C33.3081 68.2428 33.8627 68.1948 34.4867 68.1788V67.6988C34.4867 67.1495 34.3694 66.7441 34.1347 66.4828C33.9001 66.2161 33.5614 66.0828 33.1187 66.0828C32.7987 66.0828 32.5321 66.1201 32.3187 66.1948C32.1107 66.2695 31.9267 66.3548 31.7667 66.4508C31.6067 66.5415 31.4601 66.6241 31.3267 66.6988C31.1987 66.7735 31.0547 66.8108 30.8947 66.8108C30.7561 66.8108 30.6387 66.7761 30.5427 66.7068C30.4467 66.6321 30.3694 66.5468 30.3107 66.4508L29.9587 65.8188ZM40.1237 65.6828C40.2891 65.5175 40.4624 65.3655 40.6437 65.2268C40.8304 65.0828 41.0251 64.9628 41.2277 64.8668C41.4357 64.7655 41.6571 64.6881 41.8917 64.6348C42.1264 64.5761 42.3824 64.5468 42.6597 64.5468C43.1077 64.5468 43.5051 64.6241 43.8517 64.7788C44.1984 64.9281 44.4864 65.1415 44.7157 65.4188C44.9504 65.6908 45.1264 66.0188 45.2437 66.4028C45.3664 66.7815 45.4277 67.2001 45.4277 67.6588V72.8828H43.4517V67.6588C43.4517 67.1575 43.3371 66.7708 43.1077 66.4988C42.8784 66.2215 42.5291 66.0828 42.0597 66.0828C41.7184 66.0828 41.3984 66.1601 41.0997 66.3148C40.8011 66.4695 40.5184 66.6801 40.2517 66.9468V72.8828H38.2757V64.6748H39.4837C39.7397 64.6748 39.9077 64.7948 39.9877 65.0348L40.1237 65.6828ZM52.315 66.2748C52.2617 66.3601 52.2057 66.4215 52.147 66.4588C52.0883 66.4908 52.0137 66.5068 51.923 66.5068C51.827 66.5068 51.723 66.4801 51.611 66.4268C51.5043 66.3735 51.379 66.3148 51.235 66.2508C51.091 66.1815 50.9257 66.1201 50.739 66.0668C50.5577 66.0135 50.3417 65.9868 50.091 65.9868C49.7017 65.9868 49.395 66.0695 49.171 66.2348C48.9523 66.4001 48.843 66.6161 48.843 66.8828C48.843 67.0588 48.899 67.2081 49.011 67.3308C49.1283 67.4481 49.2803 67.5521 49.467 67.6428C49.659 67.7335 49.875 67.8161 50.115 67.8908C50.355 67.9601 50.5977 68.0375 50.843 68.1228C51.0937 68.2081 51.339 68.3068 51.579 68.4188C51.819 68.5255 52.0323 68.6641 52.219 68.8348C52.411 69.0001 52.563 69.2001 52.675 69.4348C52.7923 69.6695 52.851 69.9521 52.851 70.2828C52.851 70.6775 52.779 71.0428 52.635 71.3788C52.4963 71.7095 52.2883 71.9975 52.011 72.2428C51.7337 72.4828 51.3897 72.6721 50.979 72.8108C50.5737 72.9441 50.1043 73.0108 49.571 73.0108C49.2883 73.0108 49.011 72.9841 48.739 72.9308C48.4723 72.8828 48.2137 72.8135 47.963 72.7228C47.7177 72.6321 47.4883 72.5255 47.275 72.4028C47.067 72.2801 46.883 72.1468 46.723 72.0028L47.179 71.2508C47.2377 71.1601 47.307 71.0908 47.387 71.0428C47.467 70.9948 47.5683 70.9708 47.691 70.9708C47.8137 70.9708 47.9283 71.0055 48.035 71.0748C48.147 71.1441 48.275 71.2188 48.419 71.2988C48.563 71.3788 48.731 71.4535 48.923 71.5228C49.1203 71.5921 49.3683 71.6268 49.667 71.6268C49.9017 71.6268 50.1017 71.6001 50.267 71.5468C50.4377 71.4881 50.5763 71.4135 50.683 71.3228C50.795 71.2321 50.875 71.1281 50.923 71.0108C50.9763 70.8881 51.003 70.7628 51.003 70.6348C51.003 70.4428 50.9443 70.2855 50.827 70.1628C50.715 70.0401 50.563 69.9335 50.371 69.8428C50.1843 69.7521 49.9683 69.6721 49.723 69.6028C49.483 69.5281 49.235 69.4481 48.979 69.3628C48.7283 69.2775 48.4803 69.1788 48.235 69.0668C47.995 68.9495 47.779 68.8028 47.587 68.6268C47.4003 68.4508 47.2483 68.2348 47.131 67.9788C47.019 67.7228 46.963 67.4135 46.963 67.0508C46.963 66.7148 47.0297 66.3948 47.163 66.0908C47.2963 65.7868 47.491 65.5228 47.747 65.2988C48.0083 65.0695 48.331 64.8881 48.715 64.7548C49.1043 64.6161 49.5523 64.5468 50.059 64.5468C50.6243 64.5468 51.139 64.6401 51.603 64.8268C52.067 65.0135 52.4537 65.2588 52.763 65.5628L52.315 66.2748ZM56.3142 70.7548C56.5382 71.0268 56.7809 71.2188 57.0422 71.3308C57.3089 71.4428 57.5969 71.4988 57.9062 71.4988C58.2049 71.4988 58.4742 71.4428 58.7142 71.3308C58.9542 71.2188 59.1569 71.0481 59.3222 70.8188C59.4929 70.5895 59.6236 70.3015 59.7142 69.9548C59.8049 69.6028 59.8502 69.1895 59.8502 68.7148C59.8502 68.2348 59.8102 67.8295 59.7302 67.4988C59.6556 67.1628 59.5462 66.8908 59.4022 66.6828C59.2582 66.4748 59.0822 66.3228 58.8742 66.2268C58.6716 66.1308 58.4396 66.0828 58.1782 66.0828C57.7676 66.0828 57.4182 66.1708 57.1302 66.3468C56.8422 66.5175 56.5702 66.7601 56.3142 67.0748V70.7548ZM56.2102 65.7948C56.5462 65.4161 56.9276 65.1095 57.3542 64.8748C57.7809 64.6401 58.2822 64.5228 58.8582 64.5228C59.3062 64.5228 59.7142 64.6161 60.0822 64.8028C60.4556 64.9895 60.7756 65.2615 61.0422 65.6188C61.3142 65.9708 61.5222 66.4081 61.6662 66.9308C61.8156 67.4481 61.8902 68.0428 61.8902 68.7148C61.8902 69.3281 61.8076 69.8961 61.6422 70.4188C61.4769 70.9415 61.2396 71.3948 60.9302 71.7788C60.6262 72.1628 60.2556 72.4641 59.8182 72.6828C59.3862 72.8961 58.9009 73.0028 58.3622 73.0028C57.9036 73.0028 57.5116 72.9335 57.1862 72.7948C56.8609 72.6508 56.5702 72.4535 56.3142 72.2028V75.5628H54.3382V64.6748H55.5462C55.8022 64.6748 55.9702 64.7948 56.0502 65.0348L56.2102 65.7948ZM67.064 64.5468C67.672 64.5468 68.224 64.6455 68.72 64.8428C69.2213 65.0401 69.648 65.3201 70 65.6828C70.3573 66.0455 70.632 66.4881 70.824 67.0108C71.016 67.5335 71.112 68.1175 71.112 68.7628C71.112 69.4135 71.016 70.0001 70.824 70.5228C70.632 71.0455 70.3573 71.4908 70 71.8588C69.648 72.2268 69.2213 72.5095 68.72 72.7068C68.224 72.9041 67.672 73.0028 67.064 73.0028C66.4507 73.0028 65.8933 72.9041 65.392 72.7068C64.8907 72.5095 64.4613 72.2268 64.104 71.8588C63.752 71.4908 63.4773 71.0455 63.28 70.5228C63.088 70.0001 62.992 69.4135 62.992 68.7628C62.992 68.1175 63.088 67.5335 63.28 67.0108C63.4773 66.4881 63.752 66.0455 64.104 65.6828C64.4613 65.3201 64.8907 65.0401 65.392 64.8428C65.8933 64.6455 66.4507 64.5468 67.064 64.5468ZM67.064 71.4828C67.7467 71.4828 68.2507 71.2535 68.576 70.7948C68.9067 70.3361 69.072 69.6641 69.072 68.7788C69.072 67.8935 68.9067 67.2188 68.576 66.7548C68.2507 66.2908 67.7467 66.0588 67.064 66.0588C66.3707 66.0588 65.856 66.2935 65.52 66.7628C65.1893 67.2268 65.024 67.8988 65.024 68.7788C65.024 69.6588 65.1893 70.3308 65.52 70.7948C65.856 71.2535 66.3707 71.4828 67.064 71.4828ZM74.4835 66.0988C74.7395 65.6081 75.0435 65.2241 75.3955 64.9468C75.7475 64.6641 76.1635 64.5228 76.6435 64.5228C77.0222 64.5228 77.3262 64.6055 77.5555 64.7708L77.4275 66.2508C77.4008 66.3468 77.3608 66.4161 77.3075 66.4588C77.2595 66.4961 77.1928 66.5148 77.1075 66.5148C77.0275 66.5148 76.9075 66.5015 76.7475 66.4748C76.5928 66.4481 76.4408 66.4348 76.2915 66.4348C76.0728 66.4348 75.8782 66.4668 75.7075 66.5308C75.5368 66.5948 75.3822 66.6881 75.2435 66.8108C75.1102 66.9281 74.9902 67.0721 74.8835 67.2428C74.7822 67.4135 74.6862 67.6081 74.5955 67.8268V72.8828H72.6195V64.6748H73.7795C73.9822 64.6748 74.1235 64.7121 74.2035 64.7868C74.2835 64.8561 74.3368 64.9841 74.3635 65.1708L74.4835 66.0988ZM81.3242 73.0108C80.6096 73.0108 80.0602 72.8108 79.6762 72.4108C79.2976 72.0055 79.1082 71.4481 79.1082 70.7388V66.1548H78.2682C78.1616 66.1548 78.0709 66.1201 77.9962 66.0508C77.9216 65.9815 77.8842 65.8775 77.8842 65.7388V64.9548L79.2042 64.7388L79.6202 62.4988C79.6469 62.3921 79.6976 62.3095 79.7722 62.2508C79.8469 62.1921 79.9429 62.1628 80.0602 62.1628H81.0842V64.7468H83.2762V66.1548H81.0842V70.6028C81.0842 70.8588 81.1456 71.0588 81.2682 71.2028C81.3962 71.3468 81.5696 71.4188 81.7882 71.4188C81.9109 71.4188 82.0122 71.4055 82.0922 71.3788C82.1776 71.3468 82.2496 71.3148 82.3082 71.2828C82.3722 71.2508 82.4282 71.2215 82.4762 71.1948C82.5242 71.1628 82.5722 71.1468 82.6202 71.1468C82.6789 71.1468 82.7269 71.1628 82.7642 71.1948C82.8016 71.2215 82.8416 71.2641 82.8842 71.3228L83.4762 72.2828C83.1882 72.5228 82.8576 72.7041 82.4842 72.8268C82.1109 72.9495 81.7242 73.0108 81.3242 73.0108Z" fill="black"/>
<path d="M119.686 22.7837H120.253C120.481 22.7837 120.67 22.7537 120.82 22.6937C120.97 22.6277 121.099 22.5257 121.207 22.3877L124.798 17.8427C124.948 17.6507 125.104 17.5187 125.266 17.4467C125.434 17.3687 125.644 17.3297 125.896 17.3297H127.984L123.601 22.7387C123.343 23.0687 123.076 23.3027 122.8 23.4407C122.998 23.5127 123.175 23.6147 123.331 23.7467C123.493 23.8727 123.646 24.0407 123.79 24.2507L128.308 30.3438H126.175C125.887 30.3438 125.671 30.3047 125.527 30.2267C125.389 30.1427 125.272 30.0227 125.176 29.8667L121.495 25.0607C121.381 24.8987 121.249 24.7847 121.099 24.7188C120.949 24.6527 120.733 24.6197 120.451 24.6197H119.686V30.3438H117.265V17.3297H119.686V22.7837ZM131.504 16.9697V30.3438H129.281V16.9697H131.504ZM136.023 21.1097V30.3438H133.791V21.1097H136.023ZM136.329 18.4187C136.329 18.6107 136.29 18.7907 136.212 18.9587C136.134 19.1267 136.029 19.2737 135.897 19.3997C135.771 19.5257 135.621 19.6277 135.447 19.7057C135.273 19.7777 135.087 19.8137 134.889 19.8137C134.697 19.8137 134.514 19.7777 134.34 19.7057C134.172 19.6277 134.025 19.5257 133.899 19.3997C133.773 19.2737 133.671 19.1267 133.593 18.9587C133.521 18.7907 133.485 18.6107 133.485 18.4187C133.485 18.2207 133.521 18.0347 133.593 17.8607C133.671 17.6867 133.773 17.5367 133.899 17.4107C134.025 17.2847 134.172 17.1857 134.34 17.1137C134.514 17.0357 134.697 16.9967 134.889 16.9967C135.087 16.9967 135.273 17.0357 135.447 17.1137C135.621 17.1857 135.771 17.2847 135.897 17.4107C136.029 17.5367 136.134 17.6867 136.212 17.8607C136.29 18.0347 136.329 18.2207 136.329 18.4187ZM138.289 30.3438V21.1097H139.648C139.936 21.1097 140.125 21.2447 140.215 21.5147L140.359 22.1987C140.521 22.0187 140.689 21.8537 140.863 21.7037C141.043 21.5537 141.232 21.4247 141.43 21.3167C141.634 21.2087 141.85 21.1247 142.078 21.0647C142.312 20.9987 142.567 20.9657 142.843 20.9657C143.425 20.9657 143.902 21.1247 144.274 21.4427C144.652 21.7547 144.934 22.1717 145.12 22.6937C145.264 22.3877 145.444 22.1267 145.66 21.9107C145.876 21.6887 146.113 21.5087 146.371 21.3707C146.629 21.2327 146.902 21.1307 147.19 21.0647C147.484 20.9987 147.778 20.9657 148.072 20.9657C148.582 20.9657 149.035 21.0437 149.431 21.1997C149.827 21.3557 150.16 21.5837 150.43 21.8837C150.7 22.1837 150.904 22.5497 151.042 22.9817C151.186 23.4137 151.258 23.9087 151.258 24.4667V30.3438H149.035V24.4667C149.035 23.8787 148.906 23.4377 148.648 23.1437C148.39 22.8437 148.012 22.6937 147.514 22.6937C147.286 22.6937 147.073 22.7327 146.875 22.8107C146.683 22.8887 146.512 23.0027 146.362 23.1527C146.218 23.2967 146.104 23.4797 146.02 23.7017C145.936 23.9237 145.894 24.1787 145.894 24.4667V30.3438H143.662V24.4667C143.662 23.8487 143.536 23.3987 143.284 23.1167C143.038 22.8347 142.675 22.6937 142.195 22.6937C141.871 22.6937 141.568 22.7747 141.286 22.9367C141.01 23.0927 140.752 23.3087 140.512 23.5847V30.3438H138.289ZM158.249 26.4017C157.607 26.4317 157.067 26.4887 156.629 26.5727C156.191 26.6507 155.84 26.7527 155.576 26.8787C155.312 27.0047 155.123 27.1517 155.009 27.3197C154.895 27.4877 154.838 27.6707 154.838 27.8687C154.838 28.2587 154.952 28.5377 155.18 28.7057C155.414 28.8737 155.717 28.9577 156.089 28.9577C156.545 28.9577 156.938 28.8767 157.268 28.7147C157.604 28.5467 157.931 28.2947 158.249 27.9587V26.4017ZM153.155 22.3967C154.217 21.4247 155.495 20.9387 156.989 20.9387C157.529 20.9387 158.012 21.0287 158.438 21.2087C158.864 21.3827 159.224 21.6287 159.518 21.9467C159.812 22.2587 160.034 22.6337 160.184 23.0717C160.34 23.5097 160.418 23.9897 160.418 24.5117V30.3438H159.41C159.2 30.3438 159.038 30.3137 158.924 30.2537C158.81 30.1877 158.72 30.0587 158.654 29.8667L158.456 29.2007C158.222 29.4107 157.994 29.5967 157.772 29.7587C157.55 29.9147 157.319 30.0467 157.079 30.1547C156.839 30.2627 156.581 30.3438 156.305 30.3978C156.035 30.4578 155.735 30.4878 155.405 30.4878C155.015 30.4878 154.655 30.4368 154.325 30.3347C153.995 30.2267 153.71 30.0677 153.47 29.8577C153.23 29.6477 153.044 29.3867 152.912 29.0747C152.78 28.7627 152.714 28.3997 152.714 27.9857C152.714 27.7517 152.753 27.5207 152.831 27.2927C152.909 27.0587 153.035 26.8367 153.209 26.6267C153.389 26.4167 153.62 26.2187 153.902 26.0327C154.184 25.8467 154.529 25.6847 154.937 25.5467C155.351 25.4087 155.831 25.2977 156.377 25.2137C156.923 25.1237 157.547 25.0697 158.249 25.0518V24.5117C158.249 23.8937 158.117 23.4377 157.853 23.1437C157.589 22.8437 157.208 22.6937 156.71 22.6937C156.35 22.6937 156.05 22.7357 155.81 22.8197C155.576 22.9037 155.369 22.9997 155.189 23.1077C155.009 23.2097 154.844 23.3027 154.694 23.3867C154.55 23.4707 154.388 23.5127 154.208 23.5127C154.052 23.5127 153.92 23.4737 153.812 23.3957C153.704 23.3117 153.617 23.2157 153.551 23.1077L153.155 22.3967ZM165.467 30.4878C164.663 30.4878 164.045 30.2627 163.613 29.8127C163.187 29.3567 162.974 28.7297 162.974 27.9317V22.7747H162.029C161.909 22.7747 161.807 22.7357 161.723 22.6577C161.639 22.5797 161.597 22.4627 161.597 22.3067V21.4247L163.082 21.1817L163.55 18.6617C163.58 18.5417 163.637 18.4487 163.721 18.3827C163.805 18.3167 163.913 18.2837 164.045 18.2837H165.197V21.1907H167.663V22.7747H165.197V27.7787C165.197 28.0667 165.266 28.2917 165.404 28.4537C165.548 28.6157 165.743 28.6967 165.989 28.6967C166.127 28.6967 166.241 28.6817 166.331 28.6517C166.427 28.6157 166.508 28.5797 166.574 28.5437C166.646 28.5077 166.709 28.4747 166.763 28.4447C166.817 28.4087 166.871 28.3907 166.925 28.3907C166.991 28.3907 167.045 28.4087 167.087 28.4447C167.129 28.4747 167.174 28.5227 167.222 28.5887L167.888 29.6687C167.564 29.9387 167.192 30.1427 166.772 30.2807C166.352 30.4188 165.917 30.4878 165.467 30.4878ZM173.964 26.4017C173.322 26.4317 172.782 26.4887 172.344 26.5727C171.906 26.6507 171.555 26.7527 171.291 26.8787C171.027 27.0047 170.838 27.1517 170.724 27.3197C170.61 27.4877 170.553 27.6707 170.553 27.8687C170.553 28.2587 170.667 28.5377 170.895 28.7057C171.129 28.8737 171.432 28.9577 171.804 28.9577C172.26 28.9577 172.653 28.8767 172.983 28.7147C173.319 28.5467 173.646 28.2947 173.964 27.9587V26.4017ZM168.87 22.3967C169.932 21.4247 171.21 20.9387 172.704 20.9387C173.244 20.9387 173.727 21.0287 174.153 21.2087C174.579 21.3827 174.939 21.6287 175.233 21.9467C175.527 22.2587 175.749 22.6337 175.899 23.0717C176.055 23.5097 176.133 23.9897 176.133 24.5117V30.3438H175.125C174.915 30.3438 174.753 30.3137 174.639 30.2537C174.525 30.1877 174.435 30.0587 174.369 29.8667L174.171 29.2007C173.937 29.4107 173.709 29.5967 173.487 29.7587C173.265 29.9147 173.034 30.0467 172.794 30.1547C172.554 30.2627 172.296 30.3438 172.02 30.3978C171.75 30.4578 171.45 30.4878 171.12 30.4878C170.73 30.4878 170.37 30.4368 170.04 30.3347C169.71 30.2267 169.425 30.0677 169.185 29.8577C168.945 29.6477 168.759 29.3867 168.627 29.0747C168.495 28.7627 168.429 28.3997 168.429 27.9857C168.429 27.7517 168.468 27.5207 168.546 27.2927C168.624 27.0587 168.75 26.8367 168.924 26.6267C169.104 26.4167 169.335 26.2187 169.617 26.0327C169.899 25.8467 170.244 25.6847 170.652 25.5467C171.066 25.4087 171.546 25.2977 172.092 25.2137C172.638 25.1237 173.262 25.0697 173.964 25.0518V24.5117C173.964 23.8937 173.832 23.4377 173.568 23.1437C173.304 22.8437 172.923 22.6937 172.425 22.6937C172.065 22.6937 171.765 22.7357 171.525 22.8197C171.291 22.9037 171.084 22.9997 170.904 23.1077C170.724 23.2097 170.559 23.3027 170.409 23.3867C170.265 23.4707 170.103 23.5127 169.923 23.5127C169.767 23.5127 169.635 23.4737 169.527 23.3957C169.419 23.3117 169.332 23.2157 169.266 23.1077L168.87 22.3967ZM186.341 21.1097L182.678 30.3438H180.662L176.999 21.1097H178.835C179.003 21.1097 179.141 21.1487 179.249 21.2267C179.363 21.3047 179.438 21.4037 179.474 21.5237L181.256 26.4557C181.352 26.7437 181.436 27.0257 181.508 27.3017C181.58 27.5777 181.643 27.8537 181.697 28.1297C181.757 27.8537 181.823 27.5777 181.895 27.3017C181.967 27.0257 182.054 26.7437 182.156 26.4557L183.974 21.5237C184.016 21.4037 184.091 21.3047 184.199 21.2267C184.307 21.1487 184.436 21.1097 184.586 21.1097H186.341ZM190.603 30.4878C189.799 30.4878 189.181 30.2627 188.749 29.8127C188.323 29.3567 188.11 28.7297 188.11 27.9317V22.7747H187.165C187.045 22.7747 186.943 22.7357 186.859 22.6577C186.775 22.5797 186.733 22.4627 186.733 22.3067V21.4247L188.218 21.1817L188.686 18.6617C188.716 18.5417 188.773 18.4487 188.857 18.3827C188.941 18.3167 189.049 18.2837 189.181 18.2837H190.333V21.1907H192.799V22.7747H190.333V27.7787C190.333 28.0667 190.402 28.2917 190.54 28.4537C190.684 28.6157 190.879 28.6967 191.125 28.6967C191.263 28.6967 191.377 28.6817 191.467 28.6517C191.563 28.6157 191.644 28.5797 191.71 28.5437C191.782 28.5077 191.845 28.4747 191.899 28.4447C191.953 28.4087 192.007 28.3907 192.061 28.3907C192.127 28.3907 192.181 28.4087 192.223 28.4447C192.265 28.4747 192.31 28.5227 192.358 28.5887L193.024 29.6687C192.7 29.9387 192.328 30.1427 191.908 30.2807C191.488 30.4188 191.053 30.4878 190.603 30.4878ZM196.32 22.7117C196.608 22.1597 196.95 21.7277 197.346 21.4157C197.742 21.0977 198.21 20.9387 198.75 20.9387C199.176 20.9387 199.518 21.0317 199.776 21.2177L199.632 22.8827C199.602 22.9907 199.557 23.0687 199.497 23.1167C199.443 23.1587 199.368 23.1797 199.272 23.1797C199.182 23.1797 199.047 23.1647 198.867 23.1347C198.693 23.1047 198.522 23.0897 198.354 23.0897C198.108 23.0897 197.889 23.1257 197.697 23.1977C197.505 23.2697 197.331 23.3747 197.175 23.5127C197.025 23.6447 196.89 23.8067 196.77 23.9987C196.656 24.1907 196.548 24.4097 196.446 24.6557V30.3438H194.223V21.1097H195.528C195.756 21.1097 195.915 21.1517 196.005 21.2357C196.095 21.3137 196.155 21.4577 196.185 21.6677L196.32 22.7117ZM209.325 21.1097L204.294 32.8818C204.228 33.0378 204.141 33.1548 204.033 33.2328C203.931 33.3168 203.772 33.3588 203.556 33.3588H201.9L203.628 29.6507L199.893 21.1097H201.846C202.02 21.1097 202.155 21.1517 202.251 21.2357C202.353 21.3197 202.428 21.4157 202.476 21.5237L204.438 26.3117C204.504 26.4737 204.558 26.6357 204.6 26.7977C204.648 26.9597 204.693 27.1247 204.735 27.2927C204.789 27.1247 204.843 26.9597 204.897 26.7977C204.951 26.6297 205.011 26.4647 205.077 26.3027L206.931 21.5237C206.979 21.4037 207.057 21.3047 207.165 21.2267C207.279 21.1487 207.405 21.1097 207.543 21.1097H209.325ZM216.763 23.0627C216.697 23.1467 216.631 23.2127 216.565 23.2607C216.505 23.3087 216.415 23.3327 216.295 23.3327C216.181 23.3327 216.07 23.2997 215.962 23.2337C215.854 23.1617 215.725 23.0837 215.575 22.9997C215.425 22.9097 215.245 22.8317 215.035 22.7657C214.831 22.6937 214.576 22.6577 214.27 22.6577C213.88 22.6577 213.538 22.7297 213.244 22.8737C212.95 23.0117 212.704 23.2127 212.506 23.4767C212.314 23.7407 212.17 24.0617 212.074 24.4397C211.978 24.8117 211.93 25.2347 211.93 25.7087C211.93 26.2007 211.981 26.6387 212.083 27.0227C212.191 27.4067 212.344 27.7307 212.542 27.9947C212.74 28.2527 212.98 28.4507 213.262 28.5887C213.544 28.7207 213.862 28.7867 214.216 28.7867C214.57 28.7867 214.855 28.7447 215.071 28.6607C215.293 28.5707 215.479 28.4747 215.629 28.3727C215.779 28.2647 215.908 28.1687 216.016 28.0847C216.13 27.9947 216.256 27.9497 216.394 27.9497C216.574 27.9497 216.709 28.0187 216.799 28.1567L217.438 28.9667C217.192 29.2547 216.925 29.4977 216.637 29.6957C216.349 29.8877 216.049 30.0437 215.737 30.1637C215.431 30.2777 215.113 30.3588 214.783 30.4068C214.459 30.4548 214.135 30.4788 213.811 30.4788C213.241 30.4788 212.704 30.3737 212.2 30.1637C211.696 29.9477 211.255 29.6357 210.877 29.2277C210.499 28.8197 210.199 28.3217 209.977 27.7337C209.761 27.1397 209.653 26.4647 209.653 25.7087C209.653 25.0307 209.749 24.4037 209.941 23.8277C210.139 23.2457 210.427 22.7447 210.805 22.3247C211.183 21.8987 211.651 21.5657 212.209 21.3257C212.767 21.0857 213.409 20.9657 214.135 20.9657C214.825 20.9657 215.428 21.0767 215.944 21.2988C216.466 21.5207 216.934 21.8387 217.348 22.2527L216.763 23.0627ZM221.055 16.9697V24.6287H221.469C221.619 24.6287 221.736 24.6107 221.82 24.5747C221.91 24.5327 222 24.4517 222.09 24.3317L224.385 21.4967C224.481 21.3707 224.586 21.2747 224.7 21.2087C224.82 21.1427 224.973 21.1097 225.159 21.1097H227.193L224.322 24.5387C224.118 24.8087 223.896 25.0157 223.656 25.1597C223.782 25.2497 223.893 25.3547 223.989 25.4747C224.091 25.5947 224.187 25.7237 224.277 25.8617L227.355 30.3438H225.348C225.174 30.3438 225.024 30.3167 224.898 30.2627C224.772 30.2027 224.667 30.0977 224.583 29.9477L222.225 26.4467C222.141 26.3087 222.054 26.2187 221.964 26.1767C221.874 26.1347 221.739 26.1137 221.559 26.1137H221.055V30.3438H218.832V16.9697H221.055Z" fill="black"/>
<path d="M18.779 107.344V110.768H23.115V112.488H18.779V117.2H16.619V105.632H23.915V107.344H18.779ZM28.2827 108.864C28.8907 108.864 29.4427 108.963 29.9387 109.16C30.4401 109.358 30.8667 109.638 31.2187 110C31.5761 110.363 31.8507 110.806 32.0427 111.328C32.2347 111.851 32.3307 112.435 32.3307 113.08C32.3307 113.731 32.2347 114.318 32.0427 114.84C31.8507 115.363 31.5761 115.808 31.2187 116.176C30.8667 116.544 30.4401 116.827 29.9387 117.024C29.4427 117.222 28.8907 117.32 28.2827 117.32C27.6694 117.32 27.1121 117.222 26.6107 117.024C26.1094 116.827 25.6801 116.544 25.3227 116.176C24.9707 115.808 24.6961 115.363 24.4987 114.84C24.3067 114.318 24.2107 113.731 24.2107 113.08C24.2107 112.435 24.3067 111.851 24.4987 111.328C24.6961 110.806 24.9707 110.363 25.3227 110C25.6801 109.638 26.1094 109.358 26.6107 109.16C27.1121 108.963 27.6694 108.864 28.2827 108.864ZM28.2827 115.8C28.9654 115.8 29.4694 115.571 29.7947 115.112C30.1254 114.654 30.2907 113.982 30.2907 113.096C30.2907 112.211 30.1254 111.536 29.7947 111.072C29.4694 110.608 28.9654 110.376 28.2827 110.376C27.5894 110.376 27.0747 110.611 26.7387 111.08C26.4081 111.544 26.2427 112.216 26.2427 113.096C26.2427 113.976 26.4081 114.648 26.7387 115.112C27.0747 115.571 27.5894 115.8 28.2827 115.8ZM27.7707 106.864C27.7707 107.014 27.7414 107.155 27.6827 107.288C27.6241 107.416 27.5414 107.528 27.4347 107.624C27.3334 107.72 27.2134 107.798 27.0747 107.856C26.9414 107.91 26.7974 107.936 26.6427 107.936C26.4987 107.936 26.3601 107.91 26.2267 107.856C26.0987 107.798 25.9841 107.72 25.8827 107.624C25.7867 107.528 25.7094 107.416 25.6507 107.288C25.5921 107.155 25.5627 107.014 25.5627 106.864C25.5627 106.71 25.5921 106.566 25.6507 106.432C25.7094 106.294 25.7867 106.174 25.8827 106.072C25.9841 105.971 26.0987 105.891 26.2267 105.832C26.3601 105.774 26.4987 105.744 26.6427 105.744C26.7974 105.744 26.9414 105.774 27.0747 105.832C27.2134 105.891 27.3334 105.971 27.4347 106.072C27.5414 106.174 27.6241 106.294 27.6827 106.432C27.7414 106.566 27.7707 106.71 27.7707 106.864ZM31.0027 106.864C31.0027 107.014 30.9734 107.155 30.9147 107.288C30.8561 107.416 30.7761 107.528 30.6747 107.624C30.5787 107.72 30.4614 107.798 30.3227 107.856C30.1894 107.91 30.0454 107.936 29.8907 107.936C29.7414 107.936 29.6001 107.91 29.4667 107.856C29.3334 107.798 29.2161 107.72 29.1147 107.624C29.0187 107.528 28.9414 107.416 28.8827 107.288C28.8241 107.155 28.7947 107.014 28.7947 106.864C28.7947 106.71 28.8241 106.566 28.8827 106.432C28.9414 106.294 29.0187 106.174 29.1147 106.072C29.2161 105.971 29.3334 105.891 29.4667 105.832C29.6001 105.774 29.7414 105.744 29.8907 105.744C30.0454 105.744 30.1894 105.774 30.3227 105.832C30.4614 105.891 30.5787 105.971 30.6747 106.072C30.7761 106.174 30.8561 106.294 30.9147 106.432C30.9734 106.566 31.0027 106.71 31.0027 106.864ZM35.7022 110.416C35.9582 109.926 36.2622 109.542 36.6142 109.264C36.9662 108.982 37.3822 108.84 37.8622 108.84C38.2409 108.84 38.5449 108.923 38.7742 109.088L38.6462 110.568C38.6196 110.664 38.5796 110.734 38.5262 110.776C38.4782 110.814 38.4116 110.832 38.3262 110.832C38.2462 110.832 38.1262 110.819 37.9662 110.792C37.8116 110.766 37.6596 110.752 37.5102 110.752C37.2916 110.752 37.0969 110.784 36.9262 110.848C36.7556 110.912 36.6009 111.006 36.4622 111.128C36.3289 111.246 36.2089 111.39 36.1022 111.56C36.0009 111.731 35.9049 111.926 35.8142 112.144V117.2H33.8382V108.992H34.9982C35.2009 108.992 35.3422 109.03 35.4222 109.104C35.5022 109.174 35.5556 109.302 35.5822 109.488L35.7022 110.416ZM41.783 115.072C42.007 115.344 42.2497 115.536 42.511 115.648C42.7777 115.76 43.0657 115.816 43.375 115.816C43.6737 115.816 43.943 115.76 44.183 115.648C44.423 115.536 44.6257 115.366 44.791 115.136C44.9617 114.907 45.0923 114.619 45.183 114.272C45.2737 113.92 45.319 113.507 45.319 113.032C45.319 112.552 45.279 112.147 45.199 111.816C45.1243 111.48 45.015 111.208 44.871 111C44.727 110.792 44.551 110.64 44.343 110.544C44.1403 110.448 43.9083 110.4 43.647 110.4C43.2363 110.4 42.887 110.488 42.599 110.664C42.311 110.835 42.039 111.078 41.783 111.392V115.072ZM41.679 110.112C42.015 109.734 42.3963 109.427 42.823 109.192C43.2497 108.958 43.751 108.84 44.327 108.84C44.775 108.84 45.183 108.934 45.551 109.12C45.9243 109.307 46.2443 109.579 46.511 109.936C46.783 110.288 46.991 110.726 47.135 111.248C47.2843 111.766 47.359 112.36 47.359 113.032C47.359 113.646 47.2763 114.214 47.111 114.736C46.9457 115.259 46.7083 115.712 46.399 116.096C46.095 116.48 45.7243 116.782 45.287 117C44.855 117.214 44.3697 117.32 43.831 117.32C43.3723 117.32 42.9803 117.251 42.655 117.112C42.3297 116.968 42.039 116.771 41.783 116.52V119.88H39.807V108.992H41.015C41.271 108.992 41.439 109.112 41.519 109.352L41.679 110.112ZM53.2367 113.696C52.6661 113.723 52.1861 113.774 51.7967 113.848C51.4074 113.918 51.0954 114.008 50.8607 114.12C50.6261 114.232 50.4581 114.363 50.3567 114.512C50.2554 114.662 50.2047 114.824 50.2047 115C50.2047 115.347 50.3061 115.595 50.5087 115.744C50.7167 115.894 50.9861 115.968 51.3167 115.968C51.7221 115.968 52.0714 115.896 52.3647 115.752C52.6634 115.603 52.9541 115.379 53.2367 115.08V113.696ZM48.7087 110.136C49.6527 109.272 50.7887 108.84 52.1167 108.84C52.5967 108.84 53.0261 108.92 53.4047 109.08C53.7834 109.235 54.1034 109.454 54.3647 109.736C54.6261 110.014 54.8234 110.347 54.9567 110.736C55.0954 111.126 55.1647 111.552 55.1647 112.016V117.2H54.2687C54.0821 117.2 53.9381 117.174 53.8367 117.12C53.7354 117.062 53.6554 116.947 53.5967 116.776L53.4207 116.184C53.2127 116.371 53.0101 116.536 52.8127 116.68C52.6154 116.819 52.4101 116.936 52.1967 117.032C51.9834 117.128 51.7541 117.2 51.5087 117.248C51.2687 117.302 51.0021 117.328 50.7087 117.328C50.3621 117.328 50.0421 117.283 49.7487 117.192C49.4554 117.096 49.2021 116.955 48.9887 116.768C48.7754 116.582 48.6101 116.35 48.4927 116.072C48.3754 115.795 48.3167 115.472 48.3167 115.104C48.3167 114.896 48.3514 114.691 48.4207 114.488C48.4901 114.28 48.6021 114.083 48.7567 113.896C48.9167 113.71 49.1221 113.534 49.3727 113.368C49.6234 113.203 49.9301 113.059 50.2927 112.936C50.6607 112.814 51.0874 112.715 51.5727 112.64C52.0581 112.56 52.6127 112.512 53.2367 112.496V112.016C53.2367 111.467 53.1194 111.062 52.8847 110.8C52.6501 110.534 52.3114 110.4 51.8687 110.4C51.5487 110.4 51.2821 110.438 51.0687 110.512C50.8607 110.587 50.6767 110.672 50.5167 110.768C50.3567 110.859 50.2101 110.942 50.0767 111.016C49.9487 111.091 49.8047 111.128 49.6447 111.128C49.5061 111.128 49.3887 111.094 49.2927 111.024C49.1967 110.95 49.1194 110.864 49.0607 110.768L48.7087 110.136ZM62.9057 110.728C62.8471 110.803 62.7884 110.862 62.7297 110.904C62.6764 110.947 62.5964 110.968 62.4897 110.968C62.3884 110.968 62.2897 110.939 62.1937 110.88C62.0977 110.816 61.9831 110.747 61.8497 110.672C61.7164 110.592 61.5564 110.523 61.3697 110.464C61.1884 110.4 60.9617 110.368 60.6897 110.368C60.3431 110.368 60.0391 110.432 59.7777 110.56C59.5164 110.683 59.2977 110.862 59.1217 111.096C58.9511 111.331 58.8231 111.616 58.7377 111.952C58.6524 112.283 58.6097 112.659 58.6097 113.08C58.6097 113.518 58.6551 113.907 58.7457 114.248C58.8417 114.59 58.9777 114.878 59.1537 115.112C59.3297 115.342 59.5431 115.518 59.7937 115.64C60.0444 115.758 60.3271 115.816 60.6417 115.816C60.9564 115.816 61.2097 115.779 61.4017 115.704C61.5991 115.624 61.7644 115.539 61.8977 115.448C62.0311 115.352 62.1457 115.267 62.2417 115.192C62.3431 115.112 62.4551 115.072 62.5777 115.072C62.7377 115.072 62.8577 115.134 62.9377 115.256L63.5057 115.976C63.2871 116.232 63.0497 116.448 62.7937 116.624C62.5377 116.795 62.2711 116.934 61.9937 117.04C61.7217 117.142 61.4391 117.214 61.1457 117.256C60.8577 117.299 60.5697 117.32 60.2817 117.32C59.7751 117.32 59.2977 117.227 58.8497 117.04C58.4017 116.848 58.0097 116.571 57.6737 116.208C57.3377 115.846 57.0711 115.403 56.8737 114.88C56.6817 114.352 56.5857 113.752 56.5857 113.08C56.5857 112.478 56.6711 111.92 56.8417 111.408C57.0177 110.891 57.2737 110.446 57.6097 110.072C57.9457 109.694 58.3617 109.398 58.8577 109.184C59.3537 108.971 59.9244 108.864 60.5697 108.864C61.1831 108.864 61.7191 108.963 62.1777 109.16C62.6417 109.358 63.0577 109.64 63.4257 110.008L62.9057 110.728ZM66.7205 105.312V112.12H67.0885C67.2218 112.12 67.3258 112.104 67.4005 112.072C67.4805 112.035 67.5605 111.963 67.6405 111.856L69.6805 109.336C69.7658 109.224 69.8592 109.139 69.9605 109.08C70.0672 109.022 70.2032 108.992 70.3685 108.992H72.1765L69.6245 112.04C69.4432 112.28 69.2458 112.464 69.0325 112.592C69.1445 112.672 69.2432 112.766 69.3285 112.872C69.4192 112.979 69.5045 113.094 69.5845 113.216L72.3205 117.2H70.5365C70.3818 117.2 70.2485 117.176 70.1365 117.128C70.0245 117.075 69.9312 116.982 69.8565 116.848L67.7605 113.736C67.6858 113.614 67.6085 113.534 67.5285 113.496C67.4485 113.459 67.3285 113.44 67.1685 113.44H66.7205V117.2H64.7445V105.312H66.7205ZM75.1394 110C75.3047 109.835 75.478 109.683 75.6594 109.544C75.846 109.4 76.0407 109.28 76.2434 109.184C76.4514 109.083 76.6727 109.006 76.9074 108.952C77.142 108.894 77.398 108.864 77.6754 108.864C78.1234 108.864 78.5207 108.942 78.8674 109.096C79.214 109.246 79.502 109.459 79.7314 109.736C79.966 110.008 80.142 110.336 80.2594 110.72C80.382 111.099 80.4434 111.518 80.4434 111.976V117.2H78.4674V111.976C78.4674 111.475 78.3527 111.088 78.1234 110.816C77.894 110.539 77.5447 110.4 77.0754 110.4C76.734 110.4 76.414 110.478 76.1154 110.632C75.8167 110.787 75.534 110.998 75.2674 111.264V117.2H73.2914V108.992H74.4994C74.7554 108.992 74.9234 109.112 75.0034 109.352L75.1394 110ZM84.3706 108.992V117.2H82.3866V108.992H84.3706ZM84.6426 106.6C84.6426 106.771 84.608 106.931 84.5386 107.08C84.4693 107.23 84.376 107.36 84.2586 107.472C84.1466 107.584 84.0133 107.675 83.8586 107.744C83.704 107.808 83.5386 107.84 83.3626 107.84C83.192 107.84 83.0293 107.808 82.8746 107.744C82.7253 107.675 82.5946 107.584 82.4826 107.472C82.3706 107.36 82.28 107.23 82.2106 107.08C82.1466 106.931 82.1146 106.771 82.1146 106.6C82.1146 106.424 82.1466 106.259 82.2106 106.104C82.28 105.95 82.3706 105.816 82.4826 105.704C82.5946 105.592 82.7253 105.504 82.8746 105.44C83.0293 105.371 83.192 105.336 83.3626 105.336C83.5386 105.336 83.704 105.371 83.8586 105.44C84.0133 105.504 84.1466 105.592 84.2586 105.704C84.376 105.816 84.4693 105.95 84.5386 106.104C84.608 106.259 84.6426 106.424 84.6426 106.6ZM88.2331 110C88.3985 109.835 88.5718 109.683 88.7531 109.544C88.9398 109.4 89.1345 109.28 89.3371 109.184C89.5451 109.083 89.7665 109.006 90.0011 108.952C90.2358 108.894 90.4918 108.864 90.7691 108.864C91.2171 108.864 91.6145 108.942 91.9611 109.096C92.3078 109.246 92.5958 109.459 92.8251 109.736C93.0598 110.008 93.2358 110.336 93.3531 110.72C93.4758 111.099 93.5371 111.518 93.5371 111.976V117.2H91.5611V111.976C91.5611 111.475 91.4465 111.088 91.2171 110.816C90.9878 110.539 90.6385 110.4 90.1691 110.4C89.8278 110.4 89.5078 110.478 89.2091 110.632C88.9105 110.787 88.6278 110.998 88.3611 111.264V117.2H86.3851V108.992H87.5931C87.8491 108.992 88.0171 109.112 88.0971 109.352L88.2331 110ZM98.4164 112.896C98.6617 112.896 98.875 112.864 99.0564 112.8C99.2377 112.731 99.387 112.638 99.5044 112.52C99.627 112.403 99.7177 112.262 99.7764 112.096C99.8404 111.931 99.8724 111.75 99.8724 111.552C99.8724 111.147 99.7497 110.827 99.5044 110.592C99.2644 110.352 98.9017 110.232 98.4164 110.232C97.931 110.232 97.5657 110.352 97.3204 110.592C97.0804 110.827 96.9604 111.147 96.9604 111.552C96.9604 111.744 96.9897 111.923 97.0484 112.088C97.1124 112.254 97.203 112.398 97.3204 112.52C97.443 112.638 97.595 112.731 97.7764 112.8C97.963 112.864 98.1764 112.896 98.4164 112.896ZM100.648 117.568C100.648 117.408 100.6 117.278 100.504 117.176C100.408 117.075 100.278 116.998 100.112 116.944C99.947 116.886 99.7524 116.843 99.5284 116.816C99.3097 116.79 99.075 116.771 98.8244 116.76C98.579 116.744 98.323 116.731 98.0564 116.72C97.795 116.71 97.539 116.688 97.2884 116.656C97.0697 116.779 96.891 116.923 96.7524 117.088C96.619 117.254 96.5524 117.446 96.5524 117.664C96.5524 117.808 96.587 117.942 96.6564 118.064C96.731 118.192 96.8457 118.302 97.0004 118.392C97.1604 118.483 97.3657 118.552 97.6164 118.6C97.867 118.654 98.1737 118.68 98.5364 118.68C98.9044 118.68 99.2217 118.651 99.4884 118.592C99.755 118.539 99.9737 118.462 100.144 118.36C100.32 118.264 100.448 118.147 100.528 118.008C100.608 117.875 100.648 117.728 100.648 117.568ZM102.616 109.272V110.008C102.616 110.243 102.475 110.387 102.192 110.44L101.456 110.576C101.568 110.859 101.624 111.168 101.624 111.504C101.624 111.91 101.542 112.278 101.376 112.608C101.216 112.934 100.992 113.211 100.704 113.44C100.416 113.67 100.075 113.848 99.6804 113.976C99.291 114.099 98.8697 114.16 98.4164 114.16C98.2564 114.16 98.1017 114.152 97.9524 114.136C97.803 114.12 97.6564 114.099 97.5124 114.072C97.2564 114.227 97.1284 114.4 97.1284 114.592C97.1284 114.758 97.203 114.88 97.3524 114.96C97.507 115.035 97.7097 115.088 97.9604 115.12C98.211 115.152 98.4964 115.174 98.8164 115.184C99.1364 115.19 99.4644 115.206 99.8004 115.232C100.136 115.259 100.464 115.307 100.784 115.376C101.104 115.44 101.39 115.544 101.64 115.688C101.891 115.832 102.091 116.03 102.24 116.28C102.395 116.526 102.472 116.843 102.472 117.232C102.472 117.595 102.382 117.947 102.2 118.288C102.024 118.63 101.766 118.934 101.424 119.2C101.088 119.467 100.672 119.68 100.176 119.84C99.6857 120.006 99.1257 120.088 98.4964 120.088C97.8777 120.088 97.339 120.027 96.8804 119.904C96.4217 119.787 96.0404 119.627 95.7364 119.424C95.4324 119.227 95.2057 118.998 95.0564 118.736C94.907 118.475 94.8324 118.203 94.8324 117.92C94.8324 117.536 94.947 117.216 95.1764 116.96C95.411 116.699 95.731 116.491 96.1364 116.336C95.9177 116.224 95.7444 116.075 95.6164 115.888C95.4884 115.702 95.4244 115.456 95.4244 115.152C95.4244 115.03 95.4457 114.904 95.4884 114.776C95.5364 114.643 95.603 114.512 95.6884 114.384C95.779 114.256 95.891 114.136 96.0244 114.024C96.1577 113.907 96.315 113.803 96.4964 113.712C96.0804 113.488 95.7524 113.19 95.5124 112.816C95.2777 112.443 95.1604 112.006 95.1604 111.504C95.1604 111.099 95.2404 110.734 95.4004 110.408C95.5657 110.078 95.7924 109.798 96.0804 109.568C96.3737 109.334 96.7177 109.155 97.1124 109.032C97.5124 108.91 97.947 108.848 98.4164 108.848C98.7684 108.848 99.099 108.886 99.4084 108.96C99.7177 109.03 100 109.134 100.256 109.272H102.616Z" fill="black"/>
<path d="M24.563 159.218C24.6803 159.218 24.7843 159.264 24.875 159.354L25.723 160.274C25.2537 160.856 24.675 161.301 23.987 161.61C23.3043 161.92 22.483 162.074 21.523 162.074C20.6643 162.074 19.891 161.928 19.203 161.634C18.5203 161.341 17.9363 160.933 17.451 160.41C16.9657 159.888 16.5923 159.264 16.331 158.538C16.075 157.813 15.947 157.021 15.947 156.162C15.947 155.293 16.0857 154.498 16.363 153.778C16.6403 153.053 17.0297 152.429 17.531 151.906C18.0377 151.384 18.6403 150.978 19.339 150.69C20.0377 150.397 20.811 150.25 21.659 150.25C22.5017 150.25 23.2483 150.389 23.899 150.666C24.555 150.944 25.1123 151.306 25.571 151.754L24.851 152.754C24.8083 152.818 24.7523 152.874 24.683 152.922C24.619 152.97 24.5283 152.994 24.411 152.994C24.331 152.994 24.2483 152.973 24.163 152.93C24.0777 152.882 23.9843 152.826 23.883 152.762C23.7817 152.693 23.6643 152.618 23.531 152.538C23.3977 152.458 23.243 152.386 23.067 152.322C22.891 152.253 22.6857 152.197 22.451 152.154C22.2217 152.106 21.955 152.082 21.651 152.082C21.1337 152.082 20.659 152.176 20.227 152.362C19.8003 152.544 19.4323 152.81 19.123 153.162C18.8137 153.509 18.5737 153.936 18.403 154.442C18.2323 154.944 18.147 155.517 18.147 156.162C18.147 156.813 18.2377 157.392 18.419 157.898C18.6057 158.405 18.8563 158.832 19.171 159.178C19.4857 159.525 19.8563 159.792 20.283 159.978C20.7097 160.16 21.1683 160.25 21.659 160.25C21.9523 160.25 22.2163 160.234 22.451 160.202C22.691 160.17 22.9097 160.12 23.107 160.05C23.3097 159.981 23.499 159.893 23.675 159.786C23.8563 159.674 24.035 159.538 24.211 159.378C24.2643 159.33 24.3203 159.293 24.379 159.266C24.4377 159.234 24.499 159.218 24.563 159.218ZM30.3452 153.61C30.9532 153.61 31.5052 153.709 32.0012 153.906C32.5026 154.104 32.9292 154.384 33.2812 154.746C33.6386 155.109 33.9132 155.552 34.1052 156.074C34.2972 156.597 34.3932 157.181 34.3932 157.826C34.3932 158.477 34.2972 159.064 34.1052 159.586C33.9132 160.109 33.6386 160.554 33.2812 160.922C32.9292 161.29 32.5026 161.573 32.0012 161.77C31.5052 161.968 30.9532 162.066 30.3452 162.066C29.7319 162.066 29.1746 161.968 28.6732 161.77C28.1719 161.573 27.7426 161.29 27.3852 160.922C27.0332 160.554 26.7586 160.109 26.5612 159.586C26.3692 159.064 26.2732 158.477 26.2732 157.826C26.2732 157.181 26.3692 156.597 26.5612 156.074C26.7586 155.552 27.0332 155.109 27.3852 154.746C27.7426 154.384 28.1719 154.104 28.6732 153.906C29.1746 153.709 29.7319 153.61 30.3452 153.61ZM30.3452 160.546C31.0279 160.546 31.5319 160.317 31.8572 159.858C32.1879 159.4 32.3532 158.728 32.3532 157.842C32.3532 156.957 32.1879 156.282 31.8572 155.818C31.5319 155.354 31.0279 155.122 30.3452 155.122C29.6519 155.122 29.1372 155.357 28.8012 155.826C28.4706 156.29 28.3052 156.962 28.3052 157.842C28.3052 158.722 28.4706 159.394 28.8012 159.858C29.1372 160.317 29.6519 160.546 30.3452 160.546ZM42.7727 160.106C42.9861 160.106 43.1541 160.168 43.2767 160.29C43.4047 160.408 43.4687 160.565 43.4687 160.762V161.946H35.5327V161.29C35.5327 161.157 35.5594 161.018 35.6127 160.874C35.6714 160.725 35.7621 160.592 35.8847 160.474L39.3967 156.954C39.6901 156.656 39.9514 156.37 40.1807 156.098C40.4154 155.826 40.6101 155.557 40.7647 155.29C40.9194 155.024 41.0367 154.754 41.1167 154.482C41.2021 154.205 41.2447 153.914 41.2447 153.61C41.2447 153.333 41.2047 153.09 41.1247 152.882C41.0447 152.669 40.9301 152.49 40.7807 152.346C40.6367 152.202 40.4607 152.096 40.2527 152.026C40.0501 151.952 39.8207 151.914 39.5647 151.914C39.3301 151.914 39.1114 151.949 38.9087 152.018C38.7114 152.082 38.5354 152.176 38.3807 152.298C38.2261 152.416 38.0954 152.554 37.9887 152.714C37.8821 152.874 37.8021 153.05 37.7487 153.242C37.6581 153.488 37.5407 153.65 37.3967 153.73C37.2527 153.81 37.0447 153.829 36.7727 153.786L35.7327 153.602C35.8127 153.048 35.9674 152.562 36.1967 152.146C36.4261 151.725 36.7114 151.376 37.0527 151.098C37.3994 150.816 37.7941 150.605 38.2367 150.466C38.6847 150.322 39.1647 150.25 39.6767 150.25C40.2101 150.25 40.6981 150.33 41.1407 150.49C41.5834 150.645 41.9621 150.866 42.2767 151.154C42.5914 151.442 42.8367 151.789 43.0127 152.194C43.1887 152.6 43.2767 153.05 43.2767 153.546C43.2767 153.973 43.2127 154.368 43.0847 154.73C42.9621 155.093 42.7941 155.44 42.5807 155.77C42.3727 156.101 42.1274 156.421 41.8447 156.73C41.5621 157.04 41.2661 157.354 40.9567 157.674L38.3487 160.338C38.5994 160.264 38.8474 160.208 39.0927 160.17C39.3434 160.128 39.5807 160.106 39.8047 160.106H42.7727Z" fill="black"/>
<line x1="342.816" y1="46.2877" x2="0.81604" y2="46.2877" stroke="#441263" stroke-width="0.955307"/>
<line x1="342.816" y1="91.3578" x2="0.81604" y2="91.3578" stroke="#441263" stroke-width="0.955307"/>
<line x1="342.816" y1="136.428" x2="0.81604" y2="136.428" stroke="#441263" stroke-width="0.955307"/>
<g clip-path="url(#clip0_874_2518)">
<path d="M208.788 74.2099C211.776 71.3136 211.537 66.4782 208.469 63.668C204.235 59.7906 200.494 61.9148 196.286 57.6292C196.087 57.426 195.741 57.5344 195.7 57.816C194.824 63.875 194.397 69.7388 198.788 74.1307C201.545 76.8876 205.999 76.914 208.788 74.2099Z" fill="#69B565"/>
<path d="M199.808 66.5374C199.728 66.3778 199.939 66.2339 200.06 66.3653C200.927 67.31 201.844 68.1648 202.844 68.8926C204.096 69.8138 205.47 70.5275 206.92 71.0428C208.371 71.5589 209.894 71.8801 211.453 72.0436C212.131 72.1168 212.815 72.1584 213.506 72.1784C213.938 72.1909 213.983 72.8198 213.556 72.8899C212.849 73.0061 212.131 73.07 211.409 73.0835C209.748 73.1106 208.062 72.8572 206.475 72.2889C204.888 71.7247 203.403 70.8414 202.181 69.6902C201.209 68.7759 200.397 67.705 199.808 66.5374Z" fill="#009455"/>
</g>
<g clip-path="url(#clip1_874_2518)">
<path d="M233.875 74.2099C236.862 71.3136 236.624 66.4782 233.555 63.668C229.321 59.7906 225.581 61.9148 221.373 57.6292C221.174 57.426 220.828 57.5344 220.787 57.816C219.91 63.875 219.483 69.7388 223.875 74.1307C226.632 76.8876 231.085 76.914 233.875 74.2099Z" fill="#69B565"/>
<path d="M224.895 66.5374C224.815 66.3778 225.026 66.2339 225.147 66.3653C226.014 67.31 226.93 68.1648 227.931 68.8926C229.182 69.8138 230.557 70.5275 232.007 71.0428C233.457 71.5589 234.98 71.8801 236.54 72.0436C237.218 72.1168 237.902 72.1584 238.593 72.1784C239.025 72.1909 239.07 72.8198 238.643 72.8899C237.936 73.0061 237.217 73.07 236.495 73.0835C234.835 73.1106 233.149 72.8572 231.561 72.2889C229.974 71.7247 228.489 70.8414 227.268 69.6902C226.296 68.7759 225.484 67.705 224.895 66.5374Z" fill="#009455"/>
</g>
<g clip-path="url(#clip2_874_2518)">
<g clip-path="url(#clip3_874_2518)">
<path d="M284.048 74.2099C287.036 71.3136 286.797 66.4782 283.729 63.668C279.495 59.7906 275.754 61.9148 271.546 57.6292C271.347 57.426 271.001 57.5344 270.96 57.816C270.084 63.875 269.657 69.7388 274.048 74.1307C276.805 76.8876 281.259 76.914 284.048 74.2099Z" fill="#A6A6A6"/>
<path d="M275.068 66.5374C274.988 66.3778 275.199 66.2339 275.32 66.3653C276.187 67.31 277.103 68.1648 278.104 68.8926C279.356 69.8138 280.73 70.5275 282.18 71.0428C283.631 71.5589 285.154 71.8801 286.713 72.0436C287.391 72.1168 288.075 72.1584 288.766 72.1784C289.198 72.1909 289.243 72.8198 288.816 72.8899C288.109 73.0061 287.391 73.07 286.669 73.0835C285.008 73.1106 283.322 72.8572 281.735 72.2889C280.148 71.7247 278.663 70.8414 277.441 69.6902C276.469 68.7759 275.657 67.705 275.068 66.5374Z" fill="#6D6D6D"/>
</g>
</g>
<g clip-path="url(#clip4_874_2518)">
<path d="M258.961 74.2099C261.949 71.3136 261.711 66.4782 258.642 63.668C254.408 59.7906 250.668 61.9148 246.46 57.6292C246.26 57.426 245.915 57.5344 245.874 57.816C244.997 63.875 244.57 69.7388 248.962 74.1307C251.719 76.8876 256.172 76.914 258.961 74.2099Z" fill="#A6A6A6"/>
<path d="M249.982 66.5374C249.901 66.3778 250.113 66.2339 250.233 66.3653C251.101 67.31 252.017 68.1648 253.018 68.8926C254.269 69.8138 255.644 70.5275 257.094 71.0428C258.544 71.5589 260.067 71.8801 261.626 72.0436C262.305 72.1168 262.988 72.1584 263.679 72.1784C264.112 72.1909 264.157 72.8198 263.73 72.8899C263.023 73.0061 262.304 73.07 261.582 73.0835C259.922 73.1106 258.236 72.8572 256.648 72.2889C255.061 71.7247 253.576 70.8414 252.354 69.6902C251.382 68.7759 250.571 67.705 249.982 66.5374Z" fill="#6D6D6D"/>
</g>
<g clip-path="url(#clip5_874_2518)">
<path d="M309.135 74.2099C312.122 71.3136 311.884 66.4782 308.815 63.668C304.581 59.7906 300.841 61.9148 296.633 57.6292C296.434 57.426 296.088 57.5344 296.047 57.816C295.17 63.875 294.743 69.7388 299.135 74.1307C301.892 76.8876 306.345 76.914 309.135 74.2099Z" fill="#A6A6A6"/>
<path d="M300.155 66.5374C300.074 66.3778 300.286 66.2339 300.406 66.3653C301.274 67.31 302.19 68.1648 303.191 68.8926C304.442 69.8138 305.817 70.5275 307.267 71.0428C308.717 71.5589 310.24 71.8801 311.799 72.0436C312.478 72.1168 313.162 72.1584 313.852 72.1784C314.285 72.1909 314.33 72.8198 313.903 72.8899C313.196 73.0061 312.477 73.07 311.755 73.0835C310.095 73.1106 308.409 72.8572 306.821 72.2889C305.234 71.7247 303.749 70.8414 302.527 69.6902C301.556 68.7759 300.744 67.705 300.155 66.5374Z" fill="#6D6D6D"/>
</g>
<g clip-path="url(#clip6_874_2518)">
<path d="M208.913 118.004C211.901 115.108 211.663 110.273 208.594 107.462C204.36 103.585 200.62 105.709 196.412 101.424C196.212 101.22 195.867 101.329 195.826 101.61C194.949 107.669 194.522 113.533 198.914 117.925C201.671 120.682 206.124 120.708 208.913 118.004Z" fill="#69B565"/>
<path d="M199.934 110.332C199.853 110.172 200.065 110.028 200.185 110.16C201.053 111.104 201.969 111.959 202.97 112.687C204.221 113.608 205.596 114.322 207.046 114.837C208.496 115.353 210.019 115.675 211.578 115.838C212.257 115.911 212.94 115.953 213.631 115.973C214.064 115.985 214.109 116.614 213.682 116.684C212.975 116.801 212.256 116.864 211.534 116.878C209.874 116.905 208.188 116.652 206.6 116.083C205.013 115.519 203.528 114.636 202.306 113.485C201.334 112.57 200.523 111.499 199.934 110.332Z" fill="#009455"/>
</g>
<g clip-path="url(#clip7_874_2518)">
<path d="M234 118.004C236.988 115.108 236.75 110.273 233.681 107.462C229.447 103.585 225.706 105.709 221.499 101.424C221.299 101.22 220.953 101.329 220.913 101.61C220.036 107.669 219.609 113.533 224 117.925C226.757 120.682 231.211 120.708 234 118.004Z" fill="#69B565"/>
<path d="M225.02 110.332C224.94 110.172 225.151 110.028 225.272 110.16C226.139 111.104 227.056 111.959 228.056 112.687C229.308 113.608 230.682 114.322 232.132 114.837C233.583 115.353 235.106 115.675 236.665 115.838C237.343 115.911 238.027 115.953 238.718 115.973C239.15 115.985 239.196 116.614 238.768 116.684C238.061 116.801 237.343 116.864 236.621 116.878C234.96 116.905 233.274 116.652 231.687 116.083C230.1 115.519 228.615 114.636 227.393 113.485C226.421 112.57 225.609 111.499 225.02 110.332Z" fill="#009455"/>
</g>
<g clip-path="url(#clip8_874_2518)">
<g clip-path="url(#clip9_874_2518)">
<path d="M284.173 118.004C287.161 115.108 286.923 110.273 283.854 107.462C279.62 103.585 275.88 105.709 271.672 101.424C271.472 101.22 271.127 101.329 271.086 101.61C270.209 107.669 269.782 113.533 274.174 117.925C276.931 120.682 281.384 120.708 284.173 118.004Z" fill="#A6A6A6"/>
<path d="M275.194 110.332C275.113 110.172 275.325 110.028 275.445 110.16C276.313 111.104 277.229 111.959 278.23 112.687C279.481 113.608 280.856 114.322 282.306 114.837C283.756 115.353 285.279 115.675 286.838 115.838C287.517 115.911 288.2 115.953 288.891 115.973C289.324 115.985 289.369 116.614 288.942 116.684C288.235 116.801 287.516 116.864 286.794 116.878C285.134 116.905 283.448 116.652 281.86 116.083C280.273 115.519 278.788 114.636 277.566 113.485C276.594 112.57 275.783 111.499 275.194 110.332Z" fill="#6D6D6D"/>
</g>
</g>
<g clip-path="url(#clip10_874_2518)">
<g clip-path="url(#clip11_874_2518)">
<path d="M259.087 118.004C262.074 115.108 261.836 110.273 258.767 107.462C254.534 103.585 250.793 105.709 246.585 101.424C246.386 101.22 246.04 101.329 245.999 101.61C245.122 107.669 244.695 113.533 249.087 117.925C251.844 120.682 256.297 120.708 259.087 118.004Z" fill="#A6A6A6"/>
<path d="M250.107 110.332C250.027 110.172 250.238 110.028 250.359 110.16C251.226 111.104 252.142 111.959 253.143 112.687C254.394 113.608 255.769 114.322 257.219 114.837C258.669 115.353 260.192 115.675 261.752 115.838C262.43 115.911 263.114 115.953 263.805 115.973C264.237 115.985 264.282 116.614 263.855 116.684C263.148 116.801 262.429 116.864 261.707 116.878C260.047 116.905 258.361 116.652 256.773 116.083C255.186 115.519 253.701 114.636 252.48 113.485C251.508 112.57 250.696 111.499 250.107 110.332Z" fill="#6D6D6D"/>
</g>
</g>
<g clip-path="url(#clip12_874_2518)">
<path d="M309.26 118.004C312.248 115.108 312.009 110.273 308.941 107.462C304.707 103.585 300.966 105.709 296.758 101.424C296.559 101.22 296.213 101.329 296.172 101.61C295.296 107.669 294.869 113.533 299.26 117.925C302.017 120.682 306.471 120.708 309.26 118.004Z" fill="#A6A6A6"/>
<path d="M300.28 110.332C300.2 110.172 300.411 110.028 300.532 110.16C301.399 111.104 302.316 111.959 303.316 112.687C304.568 113.608 305.942 114.322 307.392 114.837C308.843 115.353 310.366 115.675 311.925 115.838C312.603 115.911 313.287 115.953 313.978 115.973C314.41 115.985 314.455 116.614 314.028 116.684C313.321 116.801 312.603 116.864 311.881 116.878C310.22 116.905 308.534 116.652 306.947 116.083C305.36 115.519 303.875 114.636 302.653 113.485C301.681 112.57 300.869 111.499 300.28 110.332Z" fill="#6D6D6D"/>
</g>
<g clip-path="url(#clip13_874_2518)">
<path d="M211.223 161.799C214.211 158.902 213.973 154.067 210.904 151.257C206.67 147.379 202.93 149.503 198.722 145.218C198.522 145.015 198.177 145.123 198.136 145.405C197.259 151.464 196.832 157.327 201.224 161.719C203.981 164.476 208.434 164.503 211.223 161.799Z" fill="#69B565"/>
<path d="M202.244 154.126C202.163 153.966 202.375 153.822 202.495 153.954C203.363 154.898 204.279 155.753 205.28 156.481C206.531 157.402 207.906 158.116 209.356 158.631C210.806 159.147 212.329 159.468 213.888 159.632C214.567 159.705 215.25 159.747 215.941 159.767C216.374 159.779 216.419 160.408 215.992 160.478C215.285 160.595 214.566 160.658 213.844 160.672C212.184 160.699 210.498 160.446 208.91 159.877C207.323 159.313 205.838 158.43 204.616 157.279C203.644 156.364 202.833 155.293 202.244 154.126Z" fill="#009455"/>
</g>
<g clip-path="url(#clip14_874_2518)">
<path d="M236.31 161.799C239.298 158.902 239.059 154.067 235.991 151.257C231.757 147.379 228.016 149.503 223.809 145.218C223.609 145.015 223.263 145.123 223.223 145.405C222.346 151.464 221.919 157.327 226.31 161.719C229.067 164.476 233.521 164.503 236.31 161.799Z" fill="#69B565"/>
<path d="M227.33 154.126C227.25 153.966 227.461 153.822 227.582 153.954C228.449 154.898 229.366 155.753 230.366 156.481C231.618 157.402 232.992 158.116 234.442 158.631C235.893 159.147 237.416 159.468 238.975 159.632C239.653 159.705 240.337 159.747 241.028 159.767C241.46 159.779 241.505 160.408 241.078 160.478C240.371 160.595 239.653 160.658 238.931 160.672C237.27 160.699 235.584 160.446 233.997 159.877C232.41 159.313 230.925 158.43 229.703 157.279C228.731 156.364 227.919 155.293 227.33 154.126Z" fill="#009455"/>
</g>
<g clip-path="url(#clip15_874_2518)">
<g clip-path="url(#clip16_874_2518)">
<path d="M261.397 161.799C264.384 158.902 264.146 154.067 261.077 151.257C256.843 147.379 253.103 149.503 248.895 145.218C248.696 145.015 248.35 145.123 248.309 145.405C247.432 151.464 247.005 157.327 251.397 161.719C254.154 164.476 258.607 164.503 261.397 161.799Z" fill="#69B565"/>
<path d="M252.417 154.126C252.336 153.966 252.548 153.822 252.668 153.954C253.536 154.898 254.452 155.753 255.453 156.481C256.704 157.402 258.079 158.116 259.529 158.631C260.979 159.147 262.502 159.468 264.061 159.632C264.74 159.705 265.424 159.747 266.114 159.767C266.547 159.779 266.592 160.408 266.165 160.478C265.458 160.595 264.739 160.658 264.017 160.672C262.357 160.699 260.671 160.446 259.083 159.877C257.496 159.313 256.011 158.43 254.79 157.279C253.818 156.364 253.006 155.293 252.417 154.126Z" fill="#009455"/>
</g>
<g clip-path="url(#clip17_874_2518)">
<path d="M261.397 161.799C264.384 158.902 264.146 154.067 261.077 151.257C256.843 147.379 253.103 149.503 248.895 145.218C248.696 145.015 248.35 145.123 248.309 145.405C247.432 151.464 247.005 157.327 251.397 161.719C254.154 164.476 258.607 164.503 261.397 161.799Z" fill="#69B565"/>
<path d="M252.417 154.126C252.336 153.966 252.548 153.822 252.668 153.954C253.536 154.898 254.452 155.753 255.453 156.481C256.704 157.402 258.079 158.116 259.529 158.631C260.979 159.147 262.502 159.468 264.061 159.632C264.74 159.705 265.424 159.747 266.114 159.767C266.547 159.779 266.592 160.408 266.165 160.478C265.458 160.595 264.739 160.658 264.017 160.672C262.357 160.699 260.671 160.446 259.083 159.877C257.496 159.313 256.011 158.43 254.79 157.279C253.818 156.364 253.006 155.293 252.417 154.126Z" fill="#009455"/>
</g>
</g>
<g clip-path="url(#clip18_874_2518)">
<path d="M286.483 161.799C289.471 158.902 289.233 154.067 286.164 151.257C281.93 147.379 278.19 149.503 273.982 145.218C273.782 145.015 273.437 145.123 273.396 145.405C272.519 151.464 272.092 157.327 276.484 161.719C279.241 164.476 283.694 164.503 286.483 161.799Z" fill="#69B565"/>
<path d="M277.504 154.126C277.423 153.966 277.635 153.822 277.755 153.954C278.623 154.898 279.539 155.753 280.54 156.481C281.791 157.402 283.166 158.116 284.616 158.631C286.066 159.147 287.589 159.468 289.148 159.632C289.826 159.705 290.51 159.747 291.201 159.767C291.634 159.779 291.679 160.408 291.252 160.478C290.545 160.595 289.826 160.658 289.104 160.672C287.444 160.699 285.758 160.446 284.17 159.877C282.583 159.313 281.098 158.43 279.876 157.279C278.904 156.364 278.093 155.293 277.504 154.126Z" fill="#009455"/>
</g>
<g clip-path="url(#clip19_874_2518)">
<path d="M311.57 161.799C314.558 158.902 314.319 154.067 311.251 151.257C307.017 147.379 303.276 149.503 299.068 145.218C298.869 145.015 298.523 145.123 298.482 145.405C297.606 151.464 297.178 157.327 301.57 161.719C304.327 164.476 308.78 164.503 311.57 161.799Z" fill="#A6A6A6"/>
<path d="M302.59 154.126C302.51 153.966 302.721 153.822 302.842 153.954C303.709 154.898 304.625 155.753 305.626 156.481C306.877 157.402 308.252 158.116 309.702 158.631C311.153 159.147 312.676 159.468 314.235 159.632C314.913 159.705 315.597 159.747 316.288 159.767C316.72 159.779 316.765 160.408 316.338 160.478C315.631 160.595 314.912 160.658 314.191 160.672C312.53 160.699 310.844 160.446 309.256 159.877C307.669 159.313 306.184 158.43 304.963 157.279C303.991 156.364 303.179 155.293 302.59 154.126Z" fill="#6D6D6D"/>
</g>
<defs>
<clipPath id="clip0_874_2518">
<rect width="18.9518" height="18.9518" fill="white" transform="translate(195.028 57.4062)"/>
</clipPath>
<clipPath id="clip1_874_2518">
<rect width="18.9518" height="18.9518" fill="white" transform="translate(220.115 57.4062)"/>
</clipPath>
<clipPath id="clip2_874_2518">
<rect width="18.9518" height="18.9518" fill="white" transform="translate(270.288 57.4062)"/>
</clipPath>
<clipPath id="clip3_874_2518">
<rect width="18.9518" height="18.9518" fill="white" transform="translate(270.288 57.4062)"/>
</clipPath>
<clipPath id="clip4_874_2518">
<rect width="18.9518" height="18.9518" fill="white" transform="translate(245.201 57.4062)"/>
</clipPath>
<clipPath id="clip5_874_2518">
<rect width="18.9518" height="18.9518" fill="white" transform="translate(295.375 57.4062)"/>
</clipPath>
<clipPath id="clip6_874_2518">
<rect width="18.9518" height="18.9518" fill="white" transform="translate(195.153 101.2)"/>
</clipPath>
<clipPath id="clip7_874_2518">
<rect width="18.9518" height="18.9518" fill="white" transform="translate(220.24 101.2)"/>
</clipPath>
<clipPath id="clip8_874_2518">
<rect width="18.9518" height="18.9518" fill="white" transform="translate(270.413 101.2)"/>
</clipPath>
<clipPath id="clip9_874_2518">
<rect width="18.9518" height="18.9518" fill="white" transform="translate(270.413 101.2)"/>
</clipPath>
<clipPath id="clip10_874_2518">
<rect width="18.9518" height="18.9518" fill="white" transform="translate(245.327 101.2)"/>
</clipPath>
<clipPath id="clip11_874_2518">
<rect width="18.9518" height="18.9518" fill="white" transform="translate(245.327 101.2)"/>
</clipPath>
<clipPath id="clip12_874_2518">
<rect width="18.9518" height="18.9518" fill="white" transform="translate(295.5 101.2)"/>
</clipPath>
<clipPath id="clip13_874_2518">
<rect width="18.9518" height="18.9518" fill="white" transform="translate(197.463 144.994)"/>
</clipPath>
<clipPath id="clip14_874_2518">
<rect width="18.9518" height="18.9518" fill="white" transform="translate(222.55 144.995)"/>
</clipPath>
<clipPath id="clip15_874_2518">
<rect width="18.9518" height="18.9518" fill="white" transform="translate(247.637 144.995)"/>
</clipPath>
<clipPath id="clip16_874_2518">
<rect width="18.9518" height="18.9518" fill="white" transform="translate(247.637 144.995)"/>
</clipPath>
<clipPath id="clip17_874_2518">
<rect width="18.9518" height="18.9518" fill="white" transform="translate(247.637 144.995)"/>
</clipPath>
<clipPath id="clip18_874_2518">
<rect width="18.9518" height="18.9518" fill="white" transform="translate(272.723 144.995)"/>
</clipPath>
<clipPath id="clip19_874_2518">
<rect width="18.9518" height="18.9518" fill="white" transform="translate(297.81 144.995)"/>
</clipPath>
</defs>
</svg>
