<svg width="342" height="91" viewBox="0 0 342 91" fill="none" xmlns="http://www.w3.org/2000/svg">
<rect y="0.29834" width="342" height="90.1403" rx="9.55307" fill="white"/>
<path d="M17.8005 65.0231H18.2819C18.4755 65.0231 18.6359 64.9976 18.7633 64.9466C18.8906 64.8906 19.0002 64.804 19.0918 64.6869L22.1406 60.8282C22.2679 60.6652 22.4004 60.5531 22.5379 60.492C22.6805 60.4258 22.8588 60.3927 23.0728 60.3927H24.8454L21.1243 64.9849C20.9053 65.265 20.6786 65.4637 20.4443 65.5808C20.6124 65.642 20.7627 65.7286 20.8951 65.8406C21.0326 65.9476 21.1625 66.0902 21.2848 66.2685L25.1205 71.4414H23.3096C23.0651 71.4414 22.8817 71.4083 22.7595 71.3421C22.6423 71.2708 22.543 71.1689 22.4615 71.0364L19.3364 66.9562C19.2396 66.8187 19.1275 66.7219 19.0002 66.6658C18.8728 66.6098 18.6894 66.5818 18.45 66.5818H17.8005V71.4414H15.7451V60.3927H17.8005V65.0231ZM27.8337 60.087V71.4414H25.9464V60.087H27.8337ZM31.6702 63.6019V71.4414H29.7752V63.6019H31.6702ZM31.93 61.3172C31.93 61.4802 31.8969 61.633 31.8306 61.7757C31.7644 61.9183 31.6753 62.0431 31.5632 62.1501C31.4562 62.2571 31.3289 62.3437 31.1812 62.4099C31.0334 62.471 30.8755 62.5016 30.7074 62.5016C30.5444 62.5016 30.3891 62.471 30.2413 62.4099C30.0987 62.3437 29.9739 62.2571 29.8669 62.1501C29.76 62.0431 29.6734 61.9183 29.6071 61.7757C29.546 61.633 29.5155 61.4802 29.5155 61.3172C29.5155 61.1491 29.546 60.9912 29.6071 60.8435C29.6734 60.6958 29.76 60.5684 29.8669 60.4614C29.9739 60.3545 30.0987 60.2704 30.2413 60.2093C30.3891 60.1431 30.5444 60.11 30.7074 60.11C30.8755 60.11 31.0334 60.1431 31.1812 60.2093C31.3289 60.2704 31.4562 60.3545 31.5632 60.4614C31.6753 60.5684 31.7644 60.6958 31.8306 60.8435C31.8969 60.9912 31.93 61.1491 31.93 61.3172ZM33.5943 71.4414V63.6019H34.748C34.9925 63.6019 35.153 63.7165 35.2294 63.9457L35.3517 64.5264C35.4892 64.3736 35.6318 64.2335 35.7796 64.1061C35.9324 63.9788 36.0928 63.8693 36.2609 63.7776C36.4341 63.6859 36.6175 63.6146 36.8111 63.5636C37.0097 63.5076 37.2262 63.4796 37.4606 63.4796C37.9547 63.4796 38.3596 63.6146 38.6755 63.8846C38.9964 64.1494 39.2358 64.5035 39.3937 64.9466C39.516 64.6869 39.6688 64.4653 39.8522 64.2819C40.0355 64.0934 40.2367 63.9406 40.4558 63.8234C40.6748 63.7063 40.9066 63.6197 41.1511 63.5636C41.4007 63.5076 41.6503 63.4796 41.8999 63.4796C42.3329 63.4796 42.7175 63.5458 43.0537 63.6783C43.3899 63.8107 43.6726 64.0043 43.9018 64.259C44.1311 64.5137 44.3042 64.8244 44.4214 65.1912C44.5437 65.5579 44.6048 65.9782 44.6048 66.4519V71.4414H42.7175V66.4519C42.7175 65.9527 42.608 65.5783 42.3889 65.3287C42.1699 65.074 41.849 64.9466 41.4262 64.9466C41.2326 64.9466 41.0518 64.9798 40.8837 65.046C40.7207 65.1122 40.5755 65.209 40.4481 65.3363C40.3259 65.4586 40.2291 65.614 40.1578 65.8024C40.0865 65.9909 40.0508 66.2074 40.0508 66.4519V71.4414H38.1559V66.4519C38.1559 65.9272 38.0489 65.5452 37.835 65.3058C37.6261 65.0664 37.3179 64.9466 36.9104 64.9466C36.6353 64.9466 36.3781 65.0154 36.1387 65.153C35.9044 65.2854 35.6853 65.4688 35.4816 65.7031V71.4414H33.5943ZM50.5401 68.0947C49.995 68.1202 49.5366 68.1686 49.1647 68.2399C48.7929 68.3061 48.4949 68.3927 48.2707 68.4997C48.0466 68.6066 47.8862 68.7314 47.7894 68.8741C47.6926 69.0167 47.6442 69.1721 47.6442 69.3402C47.6442 69.6713 47.741 69.9081 47.9345 70.0508C48.1332 70.1934 48.3905 70.2647 48.7063 70.2647C49.0934 70.2647 49.4271 70.1959 49.7072 70.0584C49.9925 69.9158 50.2701 69.7018 50.5401 69.4166V68.0947ZM46.2153 64.6945C47.117 63.8693 48.202 63.4567 49.4704 63.4567C49.9288 63.4567 50.3389 63.5331 50.7005 63.6859C51.0622 63.8336 51.3679 64.0425 51.6175 64.3125C51.8671 64.5773 52.0555 64.8957 52.1829 65.2676C52.3153 65.6394 52.3815 66.0469 52.3815 66.4901V71.4414H51.5258C51.3475 71.4414 51.2099 71.4159 51.1132 71.365C51.0164 71.309 50.94 71.1994 50.8839 71.0364L50.7158 70.471C50.5172 70.6493 50.3236 70.8072 50.1351 70.9447C49.9466 71.0772 49.7505 71.1893 49.5468 71.2809C49.343 71.3726 49.124 71.4414 48.8897 71.4873C48.6604 71.5382 48.4057 71.5637 48.1256 71.5637C47.7945 71.5637 47.4888 71.5204 47.2087 71.4338C46.9285 71.3421 46.6865 71.2071 46.4828 71.0288C46.279 70.8505 46.1211 70.6289 46.009 70.364C45.897 70.0992 45.8409 69.791 45.8409 69.4395C45.8409 69.2408 45.874 69.0447 45.9403 68.8511C46.0065 68.6525 46.1135 68.464 46.2612 68.2857C46.414 68.1074 46.6101 67.9393 46.8495 67.7814C47.089 67.6235 47.3819 67.486 47.7282 67.3688C48.0797 67.2517 48.4872 67.1574 48.9508 67.0861C49.4143 67.0097 49.9441 66.9638 50.5401 66.9486V66.4901C50.5401 65.9654 50.428 65.5783 50.2039 65.3287C49.9798 65.074 49.6563 64.9466 49.2335 64.9466C48.9279 64.9466 48.6732 64.9823 48.4694 65.0536C48.2707 65.1249 48.095 65.2064 47.9422 65.2981C47.7894 65.3847 47.6493 65.4637 47.5219 65.535C47.3997 65.6063 47.2621 65.642 47.1093 65.642C46.9769 65.642 46.8648 65.6089 46.7731 65.5426C46.6814 65.4713 46.6076 65.3898 46.5515 65.2981L46.2153 64.6945ZM56.6677 71.5637C55.9851 71.5637 55.4605 71.3726 55.0937 70.9906C54.732 70.6035 54.5512 70.0711 54.5512 69.3936V65.0154H53.7489C53.647 65.0154 53.5604 64.9823 53.4891 64.9161C53.4178 64.8499 53.3821 64.7505 53.3821 64.6181V63.8693L54.6429 63.663L55.0402 61.5235C55.0657 61.4216 55.1141 61.3427 55.1854 61.2867C55.2567 61.2306 55.3484 61.2026 55.4605 61.2026H56.4385V63.6706H58.5321V65.0154H56.4385V69.2638C56.4385 69.5083 56.4971 69.6993 56.6142 69.8368C56.7365 69.9744 56.902 70.0431 57.1109 70.0431C57.2281 70.0431 57.3248 70.0304 57.4013 70.0049C57.4828 69.9744 57.5515 69.9438 57.6076 69.9132C57.6687 69.8827 57.7222 69.8546 57.768 69.8292C57.8139 69.7986 57.8597 69.7833 57.9056 69.7833C57.9616 69.7833 58.0074 69.7986 58.0431 69.8292C58.0787 69.8546 58.1169 69.8954 58.1577 69.9514L58.7231 70.8683C58.4481 71.0976 58.1322 71.2708 57.7757 71.3879C57.4191 71.5051 57.0498 71.5637 56.6677 71.5637ZM63.8818 68.0947C63.3368 68.1202 62.8783 68.1686 62.5064 68.2399C62.1346 68.3061 61.8366 68.3927 61.6125 68.4997C61.3883 68.6066 61.2279 68.7314 61.1311 68.8741C61.0343 69.0167 60.9859 69.1721 60.9859 69.3402C60.9859 69.6713 61.0827 69.9081 61.2763 70.0508C61.4749 70.1934 61.7322 70.2647 62.048 70.2647C62.4351 70.2647 62.7688 70.1959 63.0489 70.0584C63.3342 69.9158 63.6118 69.7018 63.8818 69.4166V68.0947ZM59.5571 64.6945C60.4587 63.8693 61.5437 63.4567 62.8121 63.4567C63.2705 63.4567 63.6806 63.5331 64.0423 63.6859C64.4039 63.8336 64.7096 64.0425 64.9592 64.3125C65.2088 64.5773 65.3972 64.8957 65.5246 65.2676C65.657 65.6394 65.7233 66.0469 65.7233 66.4901V71.4414H64.8675C64.6892 71.4414 64.5517 71.4159 64.4549 71.365C64.3581 71.309 64.2817 71.1994 64.2256 71.0364L64.0575 70.471C63.8589 70.6493 63.6653 70.8072 63.4768 70.9447C63.2884 71.0772 63.0922 71.1893 62.8885 71.2809C62.6847 71.3726 62.4657 71.4414 62.2314 71.4873C62.0021 71.5382 61.7474 71.5637 61.4673 71.5637C61.1362 71.5637 60.8305 71.5204 60.5504 71.4338C60.2702 71.3421 60.0282 71.2071 59.8245 71.0288C59.6207 70.8505 59.4628 70.6289 59.3508 70.364C59.2387 70.0992 59.1827 69.791 59.1827 69.4395C59.1827 69.2408 59.2158 69.0447 59.282 68.8511C59.3482 68.6525 59.4552 68.464 59.6029 68.2857C59.7557 68.1074 59.9518 67.9393 60.1913 67.7814C60.4307 67.6235 60.7236 67.486 61.07 67.3688C61.4214 67.2517 61.8289 67.1574 62.2925 67.0861C62.756 67.0097 63.2858 66.9638 63.8818 66.9486V66.4901C63.8818 65.9654 63.7697 65.5783 63.5456 65.3287C63.3215 65.074 62.998 64.9466 62.5752 64.9466C62.2696 64.9466 62.0149 64.9823 61.8111 65.0536C61.6125 65.1249 61.4367 65.2064 61.2839 65.2981C61.1311 65.3847 60.991 65.4637 60.8637 65.535C60.7414 65.6063 60.6039 65.642 60.451 65.642C60.3186 65.642 60.2065 65.6089 60.1148 65.5426C60.0232 65.4713 59.9493 65.3898 59.8933 65.2981L59.5571 64.6945ZM74.3895 63.6019L71.2796 71.4414H69.5681L66.4582 63.6019H68.017C68.1596 63.6019 68.2767 63.635 68.3684 63.7012C68.4652 63.7674 68.5289 63.8515 68.5595 63.9533L70.0724 68.1405C70.1539 68.385 70.2252 68.6245 70.2863 68.8588C70.3474 69.0931 70.4009 69.3274 70.4468 69.5617C70.4977 69.3274 70.5537 69.0931 70.6149 68.8588C70.676 68.6245 70.7498 68.385 70.8364 68.1405L72.3799 63.9533C72.4156 63.8515 72.4792 63.7674 72.5709 63.7012C72.6626 63.635 72.7721 63.6019 72.8995 63.6019H74.3895ZM78.0085 71.5637C77.3259 71.5637 76.8012 71.3726 76.4345 70.9906C76.0728 70.6035 75.892 70.0711 75.892 69.3936V65.0154H75.0897C74.9878 65.0154 74.9012 64.9823 74.8299 64.9161C74.7586 64.8499 74.7229 64.7505 74.7229 64.6181V63.8693L75.9837 63.663L76.381 61.5235C76.4065 61.4216 76.4548 61.3427 76.5262 61.2867C76.5975 61.2306 76.6892 61.2026 76.8012 61.2026H77.7793V63.6706H79.8729V65.0154H77.7793V69.2638C77.7793 69.5083 77.8379 69.6993 77.955 69.8368C78.0773 69.9744 78.2428 70.0431 78.4517 70.0431C78.5688 70.0431 78.6656 70.0304 78.742 70.0049C78.8235 69.9744 78.8923 69.9438 78.9483 69.9132C79.0095 69.8827 79.0629 69.8546 79.1088 69.8292C79.1546 69.7986 79.2005 69.7833 79.2463 69.7833C79.3024 69.7833 79.3482 69.7986 79.3839 69.8292C79.4195 69.8546 79.4577 69.8954 79.4985 69.9514L80.0639 70.8683C79.7888 71.0976 79.473 71.2708 79.1164 71.3879C78.7599 71.5051 78.3905 71.5637 78.0085 71.5637ZM82.8615 64.9619C83.1061 64.4933 83.3964 64.1265 83.7326 63.8616C84.0688 63.5917 84.4661 63.4567 84.9246 63.4567C85.2863 63.4567 85.5766 63.5356 85.7956 63.6935L85.6734 65.1071C85.6479 65.1988 85.6097 65.265 85.5588 65.3058C85.5129 65.3414 85.4493 65.3593 85.3678 65.3593C85.2913 65.3593 85.1767 65.3465 85.0239 65.3211C84.8762 65.2956 84.731 65.2828 84.5884 65.2828C84.3795 65.2828 84.1936 65.3134 84.0306 65.3745C83.8676 65.4357 83.7199 65.5248 83.5874 65.642C83.4601 65.754 83.3455 65.8916 83.2436 66.0546C83.1468 66.2176 83.0551 66.4035 82.9685 66.6124V71.4414H81.0812V63.6019H82.1891C82.3827 63.6019 82.5177 63.6375 82.5941 63.7088C82.6705 63.775 82.7215 63.8973 82.7469 64.0756L82.8615 64.9619ZM93.9033 63.6019L89.6321 73.5961C89.5761 73.7286 89.5022 73.8279 89.4105 73.8941C89.3239 73.9654 89.1889 74.0011 89.0055 74.0011H87.5996L89.0667 70.8531L85.8957 63.6019H87.5538C87.7015 63.6019 87.8161 63.6375 87.8976 63.7088C87.9842 63.7801 88.0479 63.8616 88.0886 63.9533L89.7543 68.0183C89.8104 68.1558 89.8562 68.2934 89.8919 68.4309C89.9326 68.5684 89.9708 68.7085 90.0065 68.8511C90.0523 68.7085 90.0982 68.5684 90.144 68.4309C90.1899 68.2883 90.2408 68.1482 90.2968 68.0106L91.8709 63.9533C91.9116 63.8515 91.9778 63.7674 92.0695 63.7012C92.1663 63.635 92.2733 63.6019 92.3904 63.6019H93.9033ZM100.218 65.2599C100.162 65.3312 100.106 65.3873 100.05 65.428C99.999 65.4688 99.9226 65.4892 99.8207 65.4892C99.724 65.4892 99.6297 65.4611 99.538 65.4051C99.4463 65.344 99.3368 65.2778 99.2095 65.2064C99.0821 65.13 98.9293 65.0638 98.751 65.0078C98.5778 64.9466 98.3613 64.9161 98.1015 64.9161C97.7704 64.9161 97.4801 64.9772 97.2305 65.0995C96.9809 65.2166 96.772 65.3873 96.6039 65.6114C96.4409 65.8355 96.3187 66.1081 96.2372 66.429C96.1557 66.7448 96.1149 67.1039 96.1149 67.5063C96.1149 67.924 96.1582 68.2959 96.2448 68.6219C96.3365 68.9479 96.4664 69.223 96.6345 69.4471C96.8026 69.6662 97.0063 69.8343 97.2458 69.9514C97.4852 70.0635 97.7552 70.1195 98.0557 70.1195C98.3562 70.1195 98.5982 70.0839 98.7816 70.0126C98.9701 69.9362 99.128 69.8546 99.2553 69.7681C99.3827 69.6764 99.4922 69.5949 99.5839 69.5235C99.6807 69.4471 99.7876 69.4089 99.9048 69.4089C100.058 69.4089 100.172 69.4675 100.249 69.5847L100.791 70.2723C100.582 70.5169 100.356 70.7232 100.111 70.8913C99.8666 71.0543 99.6119 71.1867 99.347 71.2886C99.0872 71.3854 98.8172 71.4541 98.5371 71.4949C98.262 71.5356 97.9869 71.556 97.7119 71.556C97.2279 71.556 96.772 71.4669 96.3441 71.2886C95.9162 71.1052 95.5418 70.8403 95.2209 70.4939C94.9 70.1475 94.6453 69.7248 94.4568 69.2255C94.2735 68.7212 94.1818 68.1482 94.1818 67.5063C94.1818 66.9307 94.2633 66.3984 94.4263 65.9094C94.5944 65.4153 94.8389 64.9899 95.1598 64.6334C95.4807 64.2717 95.878 63.989 96.3518 63.7852C96.8255 63.5815 97.3706 63.4796 97.9869 63.4796C98.5727 63.4796 99.0847 63.5738 99.5227 63.7623C99.9659 63.9508 100.363 64.2208 100.715 64.5722L100.218 65.2599ZM103.862 60.087V66.5894H104.213C104.34 66.5894 104.44 66.5742 104.511 66.5436C104.587 66.5079 104.664 66.4392 104.74 66.3373L106.689 63.9304C106.77 63.8234 106.859 63.7419 106.956 63.6859C107.058 63.6299 107.188 63.6019 107.346 63.6019H109.073L106.635 66.513C106.462 66.7423 106.274 66.918 106.07 67.0403C106.177 67.1167 106.271 67.2058 106.353 67.3077C106.439 67.4096 106.521 67.5191 106.597 67.6362L109.21 71.4414H107.506C107.359 71.4414 107.231 71.4185 107.124 71.3726C107.017 71.3217 106.928 71.2326 106.857 71.1052L104.855 68.1329C104.784 68.0157 104.71 67.9393 104.633 67.9037C104.557 67.868 104.442 67.8502 104.289 67.8502H103.862V71.4414H101.974V60.087H103.862Z" fill="black"/>
<path d="M19.3364 23.6649C19.7133 23.6649 20.0419 23.619 20.322 23.5274C20.6022 23.4306 20.834 23.2956 21.0174 23.1224C21.2058 22.9441 21.3459 22.7302 21.4376 22.4806C21.5293 22.2259 21.5751 21.9431 21.5751 21.6324C21.5751 21.337 21.5293 21.0695 21.4376 20.8301C21.3459 20.5907 21.2084 20.3869 21.025 20.2188C20.8416 20.0507 20.6098 19.9234 20.3297 19.8368C20.0495 19.7451 19.7184 19.6993 19.3364 19.6993H17.8005V23.6649H19.3364ZM19.3364 18.11C20.075 18.11 20.7143 18.1966 21.2542 18.3698C21.7942 18.5429 22.2399 18.7849 22.5914 19.0956C22.9429 19.4064 23.2026 19.7782 23.3707 20.2112C23.5439 20.6442 23.6305 21.1179 23.6305 21.6324C23.6305 22.1673 23.5414 22.6588 23.3631 23.1071C23.1848 23.5503 22.9174 23.9323 22.5608 24.2532C22.2042 24.5742 21.756 24.8238 21.216 25.002C20.6812 25.1803 20.0546 25.2695 19.3364 25.2695H17.8005V29.1587H15.7451V18.11H19.3364ZM26.5697 22.6792C26.8142 22.2106 27.1045 21.8438 27.4407 21.5789C27.7769 21.3089 28.1742 21.174 28.6327 21.174C28.9944 21.174 29.2847 21.2529 29.5038 21.4108L29.3815 22.8244C29.356 22.9161 29.3178 22.9823 29.2669 23.0231C29.221 23.0587 29.1574 23.0765 29.0759 23.0765C28.9995 23.0765 28.8848 23.0638 28.732 23.0383C28.5843 23.0129 28.4391 23.0001 28.2965 23.0001C28.0876 23.0001 27.9017 23.0307 27.7387 23.0918C27.5757 23.1529 27.428 23.2421 27.2955 23.3593C27.1682 23.4713 27.0536 23.6089 26.9517 23.7719C26.8549 23.9349 26.7632 24.1208 26.6766 24.3296V29.1587H24.7893V21.3191H25.8973C26.0908 21.3191 26.2258 21.3548 26.3022 21.4261C26.3786 21.4923 26.4296 21.6146 26.455 21.7929L26.5697 22.6792ZM32.4462 21.3191V29.1587H30.5513V21.3191H32.4462ZM32.706 19.0345C32.706 19.1975 32.6729 19.3503 32.6067 19.493C32.5405 19.6356 32.4513 19.7604 32.3392 19.8674C32.2323 19.9743 32.1049 20.0609 31.9572 20.1272C31.8095 20.1883 31.6516 20.2188 31.4835 20.2188C31.3205 20.2188 31.1651 20.1883 31.0174 20.1272C30.8747 20.0609 30.7499 19.9743 30.643 19.8674C30.536 19.7604 30.4494 19.6356 30.3832 19.493C30.322 19.3503 30.2915 19.1975 30.2915 19.0345C30.2915 18.8664 30.322 18.7085 30.3832 18.5608C30.4494 18.413 30.536 18.2857 30.643 18.1787C30.7499 18.0718 30.8747 17.9877 31.0174 17.9266C31.1651 17.8604 31.3205 17.8272 31.4835 17.8272C31.6516 17.8272 31.8095 17.8604 31.9572 17.9266C32.1049 17.9877 32.2323 18.0718 32.3392 18.1787C32.4513 18.2857 32.5405 18.413 32.6067 18.5608C32.6729 18.7085 32.706 18.8664 32.706 19.0345ZM39.1535 22.8473C39.1025 22.9288 39.0491 22.9874 38.993 23.0231C38.937 23.0536 38.8657 23.0689 38.7791 23.0689C38.6874 23.0689 38.5881 23.0434 38.4811 22.9925C38.3792 22.9416 38.2595 22.8855 38.122 22.8244C37.9844 22.7582 37.8265 22.6996 37.6482 22.6487C37.475 22.5977 37.2687 22.5722 37.0293 22.5722C36.6575 22.5722 36.3646 22.6512 36.1506 22.8091C35.9418 22.967 35.8373 23.1733 35.8373 23.428C35.8373 23.5961 35.8908 23.7388 35.9978 23.8559C36.1099 23.968 36.255 24.0673 36.4333 24.1539C36.6167 24.2405 36.823 24.3195 37.0522 24.3908C37.2815 24.457 37.5132 24.5309 37.7476 24.6124C37.987 24.6939 38.2213 24.7881 38.4505 24.8951C38.6798 24.997 38.8835 25.1294 39.0618 25.2924C39.2452 25.4503 39.3904 25.6413 39.4973 25.8655C39.6094 26.0896 39.6654 26.3596 39.6654 26.6754C39.6654 27.0524 39.5967 27.4013 39.4591 27.7222C39.3267 28.038 39.128 28.3131 38.8631 28.5474C38.5983 28.7766 38.2697 28.9575 37.8775 29.0899C37.4903 29.2173 37.0421 29.2809 36.5327 29.2809C36.2627 29.2809 35.9978 29.2555 35.738 29.2045C35.4833 29.1587 35.2363 29.0925 34.9968 29.0059C34.7625 28.9193 34.5435 28.8174 34.3397 28.7002C34.1411 28.5831 33.9653 28.4557 33.8125 28.3182L34.248 27.5999C34.3041 27.5134 34.3703 27.4471 34.4467 27.4013C34.5231 27.3554 34.6199 27.3325 34.7371 27.3325C34.8542 27.3325 34.9637 27.3656 35.0656 27.4318C35.1726 27.4981 35.2948 27.5694 35.4324 27.6458C35.5699 27.7222 35.7304 27.7935 35.9137 27.8597C36.1022 27.926 36.3391 27.9591 36.6244 27.9591C36.8485 27.9591 37.0395 27.9336 37.1974 27.8827C37.3604 27.8266 37.4929 27.7553 37.5947 27.6687C37.7017 27.5821 37.7781 27.4828 37.824 27.3707C37.8749 27.2536 37.9004 27.1339 37.9004 27.0116C37.9004 26.8282 37.8443 26.6779 37.7323 26.5608C37.6253 26.4436 37.4801 26.3417 37.2968 26.2552C37.1185 26.1686 36.9122 26.0921 36.6778 26.0259C36.4486 25.9546 36.2117 25.8782 35.9672 25.7967C35.7278 25.7152 35.491 25.621 35.2566 25.514C35.0274 25.4019 34.8211 25.2618 34.6377 25.0937C34.4594 24.9256 34.3143 24.7193 34.2022 24.4748C34.0952 24.2303 34.0417 23.9349 34.0417 23.5885C34.0417 23.2676 34.1054 22.9619 34.2328 22.6716C34.3601 22.3812 34.546 22.1291 34.7905 21.9151C35.0401 21.6961 35.3483 21.5229 35.7151 21.3955C36.0869 21.2631 36.5148 21.1969 36.9988 21.1969C37.5387 21.1969 38.0303 21.286 38.4734 21.4643C38.9166 21.6426 39.2859 21.8769 39.5814 22.1673L39.1535 22.8473Z" fill="black"/>
<line x1="342" y1="45.8463" y2="45.8463" stroke="#441263" stroke-width="0.955307"/>
</svg>
