<svg width="59" height="49" viewBox="0 0 59 49" fill="none" xmlns="http://www.w3.org/2000/svg">
<path d="M35.8464 24.5456C35.4213 24.5456 35.0768 24.201 35.0768 23.776V20.5958H31.8966C31.4714 20.5958 31.127 20.2511 31.127 19.8261C31.127 19.4012 31.4714 19.0565 31.8966 19.0565H35.8464C36.2715 19.0565 36.616 19.4012 36.616 19.8261V23.776C36.616 24.201 36.2715 24.5456 35.8464 24.5456Z" fill="white"/>
<path d="M27.9465 28.4954C27.7495 28.4954 27.5526 28.4203 27.4022 28.2699C27.1016 27.9695 27.1016 27.4822 27.4022 27.1817L35.302 19.2819C35.6024 18.9814 36.09 18.9814 36.3903 19.2819C36.6909 19.5825 36.6909 20.0698 36.3903 20.3703L28.4908 28.2699C28.3404 28.4203 28.1435 28.4954 27.9465 28.4954Z" fill="white"/>
<path d="M34.2137 32.9099H25.1648C23.8403 32.9099 22.7627 31.8323 22.7627 30.5078V21.4589C22.7627 20.1344 23.8403 19.0568 25.1648 19.0568H27.9465C28.3715 19.0568 28.7162 19.4014 28.7162 19.8264C28.7162 20.2514 28.3715 20.596 27.9465 20.596H25.1648C24.6891 20.596 24.3019 20.9831 24.3019 21.4589V30.5076C24.3019 30.9835 24.6891 31.3707 25.1648 31.3707H34.2135C34.6895 31.3707 35.0766 30.9835 35.0766 30.5078V27.7261C35.0766 27.3009 35.4211 26.9564 35.8462 26.9564C36.2714 26.9564 36.6158 27.3009 36.6158 27.7261V30.5076C36.6158 31.8323 35.5382 32.9099 34.2137 32.9099Z" fill="white"/>
</svg>
