<svg width="15" height="15" viewBox="0 0 15 15" fill="none" xmlns="http://www.w3.org/2000/svg">
<g clip-path="url(#clip0_1886_4504)">
<path d="M13.5945 5.56574C13.1693 5.56574 12.8248 5.2211 12.8248 4.79612V1.6159H9.64462C9.21948 1.6159 8.875 1.27126 8.875 0.846279C8.875 0.421295 9.21948 0.0766602 9.64462 0.0766602H13.5945C14.0196 0.0766602 14.3641 0.421295 14.3641 0.846279V4.79612C14.3641 5.2211 14.0196 5.56574 13.5945 5.56574Z" fill="white"/>
<path d="M5.69454 9.51557C5.49752 9.51557 5.30065 9.44046 5.15026 9.29008C4.84965 8.98962 4.84965 8.50229 5.15026 8.20184L13.0501 0.302005C13.3504 0.00154534 13.838 0.00154534 14.1383 0.302005C14.4389 0.602618 14.4389 1.08994 14.1383 1.3904L6.23881 9.29008C6.08843 9.44046 5.89156 9.51557 5.69454 9.51557Z" fill="white"/>
<path d="M11.9617 13.93H2.91288C1.58836 13.93 0.510742 12.8524 0.510742 11.5279V2.47904C0.510742 1.15452 1.58836 0.0769043 2.91288 0.0769043H5.69459C6.11957 0.0769043 6.46421 0.42154 6.46421 0.846523C6.46421 1.27151 6.11957 1.61614 5.69459 1.61614H2.91288C2.4371 1.61614 2.04998 2.00326 2.04998 2.47904V11.5278C2.04998 12.0037 2.4371 12.3908 2.91288 12.3908H11.9616C12.4375 12.3908 12.8246 12.0037 12.8246 11.5279V8.7462C12.8246 8.32106 13.1691 7.97658 13.5943 7.97658C14.0194 7.97658 14.3639 8.32106 14.3639 8.7462V11.5278C14.3639 12.8524 13.2863 13.93 11.9617 13.93Z" fill="white"/>
</g>
<defs>
<clipPath id="clip0_1886_4504">
<rect width="14.0229" height="14.0229" fill="white" transform="translate(0.433594)"/>
</clipPath>
</defs>
</svg>
