<svg width="126" height="94" viewBox="0 0 126 94" fill="none" xmlns="http://www.w3.org/2000/svg">
<path fill-rule="evenodd" clip-rule="evenodd" d="M114.943 21.0312C114.943 21.0298 114.943 21.0325 114.943 21.0312C114.94 20.9793 114.936 20.9808 114.943 21.0312ZM114.796 22.4399C114.604 23.516 114.23 24.9565 113.652 26.7274C112.338 30.7567 110.15 35.9561 107.435 41.3699C104.725 46.7754 101.549 52.275 98.3024 56.9246C94.9908 61.6666 91.848 65.1682 89.277 66.9395C79.5053 73.6725 67.2933 72.6267 59.8697 65.6685C57.419 62.5537 57.419 62.5537 57.419 62.5537C54.8735 58.3445 57.419 62.5537 54.8735 58.3445C51.092 48.8769 54.5241 37.0521 64.2959 30.3192C66.8668 28.5477 71.2496 26.864 76.8446 25.4693C82.3305 24.1018 88.5795 23.1079 94.5735 22.516C100.577 21.9231 106.191 21.7463 110.405 21.9668C112.257 22.0636 113.728 22.2321 114.796 22.4399ZM47.4433 63.4641C40.7435 49.5699 45.8404 32.2688 59.2997 22.9952C63.2087 20.3017 68.8448 18.3123 74.7271 16.846C80.7179 15.3525 87.4039 14.2976 93.7225 13.6736C100.031 13.0504 106.107 12.844 110.88 13.0936C113.248 13.2175 115.441 13.4606 117.235 13.874C118.127 14.0798 119.056 14.3578 119.907 14.7565C120.684 15.1204 121.843 15.788 122.677 17.0104C123.51 18.2327 123.712 19.5598 123.77 20.4192C123.833 21.3608 123.756 22.3314 123.625 23.2426C123.363 25.0726 122.798 27.216 122.059 29.4812C120.57 34.0454 118.188 39.666 115.335 45.3556C112.478 51.0537 109.088 56.941 105.542 62.0185C102.061 67.004 98.1823 71.5702 94.2732 74.2635C80.814 83.5373 62.9193 82.0778 52.4395 70.788L40.1789 79.2358C38.163 80.6248 35.41 80.1113 34.0304 78.0889C32.6509 76.0666 33.1668 73.3008 35.1827 71.9118L47.4433 63.4641ZM116.153 22.8084C116.152 22.8078 116.154 22.809 116.153 22.8084C116.2 22.8304 116.197 22.8335 116.153 22.8084Z" fill="#BEFA9D"/>
<path d="M67.5711 52.2236C67.6739 51.9409 67.9038 51.8263 68.1589 51.655C69.7188 50.6077 71.3742 49.713 72.977 48.7353C75.0315 47.4821 76.9933 45.9913 78.8261 44.4376C81.0765 42.5298 83.2749 40.1666 86.1302 39.2148" stroke="#BEFA9D" stroke-width="1.08295" stroke-linecap="round"/>
<path d="M90.1196 35.7461C88.7366 38.4168 87.1327 40.8786 85.4365 43.3586C83.6788 45.9286 81.9858 49.0376 79.6259 51.1446C78.4299 52.2124 80.7895 48.1549 81.4472 46.6927C82.517 44.314 83.7674 42.0149 84.868 39.6487C85.2992 38.7215 85.6238 37.6552 84.3765 38.7333C81.812 40.9501 79.3321 43.3584 77.0724 45.8833C76.1544 46.909 73.5743 50.1354 74.461 49.0824C76.6888 46.4369 78.1648 43.1621 79.8283 40.1594C80.3913 39.1431 80.9662 38.1537 81.6591 37.2204C81.8989 36.8975 82.7068 36.0241 82.3722 36.2472C82.01 36.4887 81.4449 37.6343 81.293 37.866C79.7816 40.1708 78.1416 42.3868 76.5424 44.6306C75.4738 46.1299 74.3843 47.621 73.3721 49.1595C73.0015 49.7228 72.1377 51.5398 72.3314 50.894C72.4385 50.5371 72.8162 50.0822 72.9867 49.7859C73.7477 48.4632 74.3599 47.0636 75.1355 45.7484C75.8452 44.5449 78.398 41.2453 77.7854 42.501C76.3064 45.5331 73.8831 48.3384 71.9267 51.0868C71.7357 51.3551 71.4053 51.8945 71.6472 51.1446C72.1824 49.4857 72.719 47.8832 72.9963 46.1531C73.2169 44.7765 73.3442 43.3866 73.5648 42.0096C73.597 41.8086 74.034 40.1202 73.6612 41.4121C72.7261 44.6522 71.1951 47.8827 69.4791 50.7784C68.946 51.678 68.3331 52.5025 67.6772 53.3127C67.1713 53.9377 67.5391 53.0851 67.5905 52.7345C68.0337 49.7057 68.7822 46.74 69.402 43.7441C69.4505 43.5098 69.6311 42.8155 69.5851 43.0503C69.1322 45.3603 68.4632 47.6498 67.7254 49.8822C66.8563 52.5117 65.8482 55.2366 64.4973 57.6682C64.0537 58.4666 64.2756 57.4077 64.2756 56.984C64.2756 54.7419 63.9798 52.3 64.4491 50.0942C64.4993 49.858 64.6723 49.1545 64.6225 49.3908C64.3741 50.5708 63.8998 51.7429 63.4662 52.8598C62.0928 56.3973 60.4562 59.8437 58.8216 63.2668C58.2031 64.562 58.2101 64.1025 58.388 63.0355C58.8352 60.3522 58.89 57.5776 59.0336 54.8641C59.0645 54.2792 59.0277 53.6297 59.1589 53.0525C59.1934 52.9008 59.2373 54.3526 59.236 54.4112C59.1959 56.1737 59.1451 57.9547 58.9854 59.7111C58.8074 61.6692 58.8943 59.2995 58.8216 58.6415C58.5884 56.5313 57.6834 54.6293 57.0197 52.6382C56.4868 51.0397 56.5308 53.6837 56.5089 54.1703C56.4301 55.9214 56.4704 57.6792 56.4704 59.4316C56.4704 60.7154 56.4704 58.349 56.4704 58.2464C56.4704 56.8684 56.4704 55.4904 56.4704 54.1125C56.4704 54.0065 56.4704 53.6885 56.4704 53.7945C56.4704 54.8148 56.4878 55.8441 56.3644 56.8588C56.2484 57.8123 55.9501 58.7545 55.9501 59.7207C55.9501 61.0715 55.4548 57.0645 55.237 55.7314C55.1966 55.4841 55.0828 52.7491 55.0828 54.3823C55.0828 55.6564 55.0108 56.9794 54.4661 58.1596C54.3056 58.5075 54.389 57.396 54.389 57.013C54.389 55.8919 54.4195 54.7855 54.5432 53.6692C54.8983 50.4636 55.814 47.3852 56.268 44.2066C56.4303 43.0705 55.712 46.2275 55.6995 46.2687C54.9651 48.7026 53.9237 51.0279 53.1459 53.4476C52.7184 54.7777 53.9762 50.7795 54.3697 49.439C54.7157 48.2606 56.1424 44.8666 55.5839 45.9604C54.5056 48.072 53.9085 50.7265 53.329 53.014C52.7393 55.342 54.7521 51.6101 54.9672 51.2024C56.1072 49.0418 57.0427 46.5035 58.6096 44.6113C58.7526 44.4387 58.8794 44.373 58.8794 44.6306C58.8794 46.1961 58.4072 47.8353 58.07 49.3426C57.5985 51.4499 57.0815 53.5467 56.7017 55.6735C56.5919 56.2881 56.1821 58.019 56.586 57.5429C58.1996 55.6412 59.1578 52.7854 60.1996 50.576C60.9888 48.9023 61.7737 47.2304 62.676 45.6135C62.9898 45.0512 63.5698 43.6501 64.1793 43.2622C64.6906 42.9369 64.1461 44.48 64.0251 45.0738C63.5187 47.5589 62.8131 49.9937 62.1364 52.4358C61.7442 53.8514 61.3458 55.2676 61.0379 56.7046C60.6616 58.4605 61.505 56.0758 61.5293 56.0108C61.9467 54.8943 62.3063 53.7612 62.676 52.6285C62.6974 52.563 63.3608 50.9563 63.3698 51.0097C63.4864 51.6946 63.2283 52.639 63.1097 53.2838C62.8526 54.6807 62.5352 56.0681 62.1942 57.4466C61.7414 59.2772 60.8259 61.3537 60.8259 63.2668C60.8259 63.779 61.6344 62.3374 61.7124 62.2068C61.8996 61.8934 62.0254 61.5105 62.2328 61.2143C62.6492 60.6195 61.8802 62.623 61.6932 63.3246C61.3844 64.4823 61.3025 65.6576 61.1632 66.8418C61.0996 67.3822 61.2798 66.0773 61.2884 66.0034C61.5449 63.824 61.1535 68.2781 61.1535 65.7529" stroke="#BEFA9D" stroke-width="3.60983" stroke-linecap="round"/>
<path d="M81.2741 32.6241C79.4443 35.8313 77.6673 39.0798 75.6177 42.1542C74.958 43.1437 74.4168 44.244 73.6037 45.1221C73.5528 45.1771 73.2571 45.4908 73.3725 45.1703C73.5957 44.5501 73.8848 43.9235 74.1626 43.3298C75.2128 41.0854 76.4745 38.9627 77.4293 36.6712C77.4704 36.5724 78.2639 34.7884 77.94 34.6669C77.5021 34.5027 77.1689 35.201 76.8222 35.5149C75.438 36.7683 74.1113 38.0849 72.775 39.3886C70.9117 41.2065 68.7229 43.9684 66.1165 44.7752C65.1558 45.0725 67.4687 40.8872 67.5715 40.6991C68.6854 38.6629 69.9961 36.7619 71.2911 34.8404C71.94 33.8774 71.972 33.9984 71.4838 35.0524C69.9962 38.2637 67.6884 41.101 65.3552 43.7248C64.3399 44.8667 61.6187 48.4982 62.2717 47.1167C63.2574 45.0315 64.1554 42.9608 64.9505 40.7955C65.4126 39.5373 66.2279 38.5616 66.8007 37.3843C66.8493 37.2843 63.6374 40.9939 63.6207 40.9689C63.3588 40.5761 63.6879 39.6244 63.8424 39.2537C63.9834 38.9153 64.1244 38.6543 63.64 39.1766C62.8228 40.0579 62.0843 41.0124 61.2888 41.9133C60.4649 42.8464 59.5878 43.7172 58.6678 44.5535C58.6275 44.5901 59.1986 42.4238 59.2845 42.1734C59.6476 41.1145 60.0584 40.0785 60.4794 39.0417C60.6246 38.684 61.1983 37.8748 60.8166 37.9335C60.0349 38.0538 58.8848 39.8614 58.3209 40.3908C58.1616 40.5403 57.3371 41.3908 57.3669 41.2965C57.5731 40.6435 57.7555 39.9907 57.9354 39.3308C58.0179 39.0286 56.2602 41.4629 57.1646 39.7933C58.0022 38.2469 58.6193 36.7901 60.0939 35.7076C62.3137 34.0782 65.1803 33.0848 67.8992 32.759C70.0971 32.4955 72.3173 32.4328 74.5288 32.4506C75.8417 32.4612 75.3579 32.8509 74.3939 33.2793C73.6575 33.6066 66.8023 35.3455 66.7043 33.9731C66.5539 31.8681 70.0344 30.6169 71.4549 29.9067C71.6186 29.8248 73.7709 28.785 73.2954 28.8178C72.0209 28.9057 70.8123 29.3375 69.5469 29.4731C69.2584 29.504 67.9877 29.5967 68.8339 29.1454C70.3152 28.3554 72.2202 28.1514 73.8543 27.9698C76.4712 27.6791 79.1624 27.5421 81.7944 27.4398C82.5166 27.4118 84.6548 27.2418 83.9625 27.4495C82.5721 27.8666 81.2309 28.4166 79.8287 28.8082C78.383 29.2118 76.9206 29.5686 75.4539 29.8874C74.9911 29.988 74.1451 30.2643 73.623 30.1572C73.387 30.1088 73.9749 29.8062 74.2012 29.7236C75.8016 29.1396 77.5496 28.8387 79.2119 28.5191C83.976 27.6032 88.7427 26.9724 93.589 26.7653C95.7017 26.675 94.5673 26.8624 93.2614 27.0737C91.4109 27.373 89.4825 27.4111 87.6917 27.9987C86.1874 28.4923 90.6887 26.9471 92.2399 26.6304C93.54 26.365 94.8467 26.1563 96.1618 25.9848C96.2871 25.9685 96.6632 25.9506 96.5376 25.9366C95.9239 25.8684 95.3044 26.0043 94.6875 26.033C92.1988 26.1486 89.7108 26.2064 87.2195 26.2064C86.7552 26.2064 85.6654 26.4212 86.5546 26.0812C87.7448 25.6261 88.8846 25.0492 90.0718 24.5876C90.9477 24.247 91.1301 24.1678 90.0044 24.1347C87.7993 24.0698 85.6235 24.3461 83.4326 24.5394C82.5558 24.6167 80.0881 25.0964 80.7923 24.5683C81.1101 24.3299 82.8265 24.6454 83.2206 24.6454C85.6098 24.6454 87.9485 24.2733 90.3224 24.0479C95.0533 23.5988 99.8225 23.4312 104.574 23.4312C105.124 23.4312 107.028 23.3055 105.326 23.6432C103.802 23.9456 102.217 24.125 100.662 24.125C100.358 24.125 99.7128 24.0427 100.296 23.7396C101.68 23.0198 103.763 22.9937 105.268 22.8145C107.378 22.5634 109.496 22.3085 111.608 22.0822C112.296 22.0085 113.132 22.2171 113.863 22.2171C114.329 22.2171 114.888 22.1432 115.347 22.2267C116.457 22.4285 114.329 25.5064 114.22 25.6957C113.47 26.9943 112.407 27.9589 111.608 29.184C111.337 29.6003 112.431 28.2139 112.514 28.0758C113.189 26.9505 113.867 25.785 114.788 24.8381C115.402 24.2081 116.015 23.4358 115.964 24.6647C115.871 26.9079 115.058 29.0502 114.307 31.1401C113.227 34.1408 112.282 37.3044 110.934 40.198C110.557 41.0061 110.577 40.3634 110.587 39.8704C110.614 38.5442 110.871 37.2462 111.069 35.9389C111.158 35.3538 110.478 38.1073 110.394 38.3286C109.062 41.8381 107.022 45.0879 105.191 48.3502C104.608 49.3888 103.697 50.5751 103.341 51.7324C103.182 52.2477 103.905 50.8096 104.121 50.3159C104.999 48.3144 106.083 46.4626 107.33 44.6692C107.522 44.3925 108.961 42.0838 108.082 43.6959C106.254 47.0458 100.343 56.8505 102.213 53.5247C102.914 52.2798 103.566 51.036 104.391 49.863C104.76 49.3381 105.76 47.5659 104.96 49.3234C103.986 51.4604 102.55 53.2795 101.105 55.1147C100.272 56.1727 99.4141 57.1992 98.5227 58.2079C98.1869 58.5878 97.585 59.1184 97.4049 59.6437C97.3121 59.9144 99.5397 57.6175 98.4649 59.0077C97.4503 60.3198 96.156 61.5875 94.8031 62.5538C94.7642 62.5816 93.7928 63.2153 94.2442 63.1127C94.7488 62.998 93.7007 64.4025 93.589 64.5581C93.0436 65.3177 92.3495 65.9698 91.681 66.6202C90.7686 67.508 91.8914 66.0456 91.0643 66.678C89.787 67.6548 88.3421 68.4606 86.8726 69.1063C86.7069 69.1791 85.2357 70.0409 85.5332 69.3183C85.6416 69.055 85.9374 68.9248 86.1885 68.8172C87.015 68.463 84.6041 69.6767 83.7698 70.0121C82.4825 70.5297 80.9594 71.4546 79.5588 71.6021C79.5034 71.6079 80.9496 70.6094 81.1006 70.5228C81.1062 70.5196 82.5559 69.6115 82.546 69.6074C82.2284 69.4736 81.3172 69.6521 81.0717 69.6748C79.8446 69.7887 78.6408 69.9641 77.4389 70.2434C76.2458 70.5206 75.0741 70.882 73.8832 71.1684C73.7311 71.205 72.9746 71.278 72.7943 71.4382C72.0791 72.074 74.6578 70.9626 75.531 70.571C75.6789 70.5046 78.0785 69.5688 76.88 69.5688C75.364 69.5688 73.6798 69.5829 72.2354 70.0892C72.1068 70.1343 70.9617 70.7362 71.6958 70.571C72.1426 70.4705 72.662 70.0278 73.0063 69.7423C73.5004 69.3326 72.8692 69.3925 72.5534 69.4147C70.6315 69.5495 68.6369 69.7598 66.7525 70.1663C65.432 70.4511 66.8444 70.1033 67.3692 69.5785C67.7998 69.1478 65.7624 69.9395 66.4441 69.2123C67.2349 68.3688 62.8373 69.0202 62.58 68.4414C62.4569 68.1644 65.3377 67.0143 63.9676 66.9671C63.6863 66.9574 61.3952 67.0794 61.5393 66.7551C61.9162 65.9071 63.5862 65.2033 64.3145 64.7893C65.1822 64.2962 66.0875 63.8772 66.9837 63.4403C67.3866 63.2439 68.5057 62.9204 68.1112 62.7079C67.2031 62.219 65.0346 62.617 64.0255 62.6694C63.8165 62.6803 62.1332 62.9165 62.4066 62.7272C62.8109 62.4473 63.1804 62.11 63.5629 61.8022C63.9042 61.5275 66.1069 60.3417 66.1069 59.9617C66.1069 59.3521 61.3062 60.463 61.443 60.6169C62.1476 61.4096 65.4122 60.3063 66.1069 60.0677C67.2805 59.6645 68.4121 59.1483 69.5759 58.7186C69.7754 58.6449 71.1959 58.3335 71.3393 58.0826C71.639 57.558 70.1325 58.2278 69.5566 58.4102C68.4804 58.7512 67.5491 59.2942 66.6079 59.9038C66.2288 60.1494 64.083 61.2094 65.3263 61.8311C67.1621 62.749 69.914 62.4461 71.8885 62.4574C73.9718 62.4693 76.2133 62.2135 78.2869 62.4574C78.7453 62.5113 77.3717 62.5817 76.9186 62.6694C75.8747 62.8714 74.8375 63.1275 73.8157 63.421C73.0962 63.6277 71.5058 64.1833 73.199 64.3268C74.5102 64.4379 75.9751 64.429 77.2462 64.057C77.3276 64.0332 77.4211 64.0144 77.4774 63.951C77.6081 63.8041 77.0852 63.8822 76.8896 63.9028C75.6524 64.0331 74.4194 64.3204 73.2183 64.6352C72.5034 64.8225 70.47 65.396 71.1947 65.541C73.0003 65.9021 75.2618 65.6053 77.0727 65.4639C79.5855 65.2676 82.1166 65.0249 84.6178 64.7122C84.7385 64.6972 86.1856 64.3379 86.4197 64.481C86.8172 64.7239 85.6244 64.9727 85.196 65.1555C84.271 65.5503 82.3004 65.8594 81.6306 66.678C81.4731 66.8705 82.1246 66.7737 82.3726 66.7551C83.1362 66.6978 83.8983 66.5898 84.6467 66.4275C85.1104 66.3269 87.3976 65.4468 87.2195 65.435C86.1073 65.3608 84.7397 65.5824 83.6831 65.9264C82.2054 66.4075 85.0462 65.5031 85.196 65.435C86.3924 64.8901 87.6017 64.3501 88.7709 63.7486C89.3371 63.4574 90.2113 63.0808 90.5344 62.467C91.4908 60.6497 81.7105 60.6723 80.561 60.8C78.3486 61.0458 82.3302 60.8645 82.6809 60.8193C84.7566 60.5514 86.8995 60.135 88.8095 59.2389C90.058 58.6532 86.3609 58.6416 86.3427 58.6415C83.1759 58.6206 80.0083 58.6415 76.8415 58.6415C75.1905 58.6415 78.6658 58.2653 78.9036 58.2175C80.1168 57.9739 81.323 57.694 82.5171 57.3695C82.727 57.3125 83.668 57.1537 83.8951 56.9456C84.0233 56.828 83.5487 56.907 83.3747 56.907C82.1346 56.907 80.8936 56.9514 79.6552 57.013C76.5384 57.168 73.3629 57.3305 70.3082 58.0152C68.6489 58.3871 71.746 58.0982 71.85 58.0826C74.1973 57.7305 76.4572 57.0128 78.788 56.589C82.0907 55.9885 72.0741 56.64 68.7182 56.7239C68.3425 56.7333 67.2454 56.8816 67.5908 56.7336C68.356 56.4056 69.2948 56.1721 70.0673 55.9049C72.7633 54.9723 75.5083 54.2716 78.2387 53.4573C78.7283 53.3113 79.2763 53.2701 79.6937 52.9755C80.1506 52.653 78.5763 52.9152 78.0171 52.9177C75.7969 52.9275 73.5668 53.1314 71.3489 53.0911C69.8596 53.064 74.2621 52.4519 75.6851 52.0119C75.8316 51.9666 79.5217 50.6223 79.1349 50.3545C77.7157 49.372 72.3263 51.1815 74.047 51.3181C75.7373 51.4522 77.823 50.5177 79.4239 50.0461C80.0251 49.869 80.5542 49.5046 79.4818 49.7763C77.7796 50.2075 76.0156 50.7877 74.4517 51.5975C73.1715 52.2605 73.6865 52.8938 74.895 53.0719C77.2817 53.4236 79.8009 53.2507 82.1799 52.9177C82.6465 52.8523 84.0285 52.5508 83.5675 52.6479C82.9322 52.7816 82.2969 53.0493 81.6981 53.2838C81.5839 53.3285 79.2219 54.4912 79.4336 54.5365C80.395 54.7426 81.9429 53.7188 82.7098 53.2742C83.3896 52.8802 84.0216 52.4713 84.6371 51.9926C84.6523 51.9808 84.2573 53.5886 84.1649 53.8909C84.1263 54.0173 83.8664 54.7935 84.242 54.71C87.1195 54.0705 89.9315 52.4519 92.7025 51.453C93.8914 51.0244 97.4417 49.8097 96.3642 50.4701C94.4519 51.6421 92.4259 52.6252 90.5247 53.8235C90.29 53.9714 89.6408 54.4569 89.908 54.3824C90.9413 54.094 91.962 53.6479 92.953 53.2453C95.2236 52.3229 97.3778 51.1494 99.467 49.8727C99.7197 49.7182 100.473 49.2848 100.276 49.5065C99.6662 50.1955 98.9798 50.821 98.3492 51.4915C97.1187 52.7999 95.7169 54.2033 94.7839 55.7507C94.0187 57.0197 95.8627 55.2071 94.4466 56.165C93.4242 56.8566 92.7433 57.8996 91.9509 58.8053C90.2705 60.7258 95.0785 54.7721 96.6147 52.7346C98.0204 50.8702 99.4817 48.9227 100.228 46.6831C100.562 45.6825 98.5267 47.2713 98.33 47.4058C97.7147 47.8264 97.3627 48.0935 96.7689 48.5429C96.5496 48.7088 96.3331 48.8783 96.1136 49.044C95.933 49.1803 95.5828 49.654 95.5548 49.4294C95.5257 49.197 96.5676 47.6145 96.5858 47.5793C97.2285 46.3353 97.8254 45.0664 98.4263 43.8019C98.4708 43.7084 99.6369 41.5713 98.8696 42.3951C97.4364 43.9337 95.806 45.4128 94.013 46.5193C93.8382 46.6272 91.758 47.991 91.893 47.136C92.2925 44.6061 94.5397 42.2695 96.21 40.5064C97.141 39.5237 98.2995 38.6922 99.1587 37.6445C99.2333 37.5534 99.4224 37.3697 99.3128 37.3265C98.7782 37.1154 98.2506 37.7732 97.7518 38.0588C95.0654 39.597 92.5336 41.4326 89.9851 43.1852C88.7907 44.0066 87.309 44.8903 86.4487 46.105C86.445 46.11 86.2061 46.4615 86.4197 46.4615C86.9241 46.4615 87.6717 45.8069 88.0001 45.5653C88.9094 44.8964 90.0081 44.1438 90.6982 43.2238C91.321 42.3933 89.2641 44.7256 88.5204 45.4497C87.8161 46.1355 87.0333 46.7289 86.3041 47.3866C86.1387 47.5357 85.6548 47.9563 85.7452 47.7527C86.9903 44.9512 88.8156 42.2422 90.3802 39.6102C91.5128 37.7049 93.1382 35.8502 93.9552 33.7708C94.0744 33.4673 93.3137 33.9279 93.0301 34.0887C91.5271 34.9412 90.0424 35.8338 88.6071 36.7965C86.596 38.1454 84.6094 39.6388 82.8737 41.3351C82.7972 41.4099 82.7051 41.4782 82.6617 41.576C82.5453 41.8378 83.1277 41.2414 83.3458 41.0556C84.4857 40.0852 85.595 39.0781 86.7088 38.0781C88.8685 36.1391 91.2821 34.3452 93.2614 32.2193C94.4242 30.9704 91.3511 32.0477 90.9487 32.1423C89.5161 32.479 88.1181 32.9046 86.7185 33.3564C86.1855 33.5285 84.8478 34.1978 85.0707 33.684C85.6748 32.2919 87.3268 30.8654 88.347 29.7525C88.7688 29.2924 89.8345 28.5296 88.5204 28.9238C86.6844 29.4746 84.8865 30.589 83.2784 31.6026C81.9245 32.456 81.9864 32.7601 83.5771 31.9014C86.4206 30.3664 89.1048 28.5984 91.999 27.1411C92.0231 27.129 95.2964 25.4616 95.256 25.9463C95.1531 27.1815 93.8407 28.4246 93.377 29.5598C92.5437 31.5998 94.4418 30.9396 95.7378 30.4848C96.9513 30.0591 98.1184 29.5229 99.2743 28.9623C99.6044 28.8022 100.555 28.3078 100.305 28.5769C98.9643 30.0238 97.4694 31.3436 96.2196 32.8746C96.0641 33.0651 95.7145 33.6827 95.9209 33.5491C96.9658 32.873 97.9303 31.98 98.9081 31.2172C100.614 29.8863 102.349 28.5839 104.035 27.2279C105.226 26.2699 103.031 28.2429 102.878 28.4035C102.006 29.32 101.129 30.2337 100.267 31.1594C100.058 31.383 99.0863 32.2342 99.043 32.6819C99.0043 33.0825 99.8061 32.4032 100.142 32.1808C101.543 31.2516 102.868 30.2057 104.131 29.0973C105.978 27.477 107.744 25.8159 109.681 24.2985C110.57 23.6021 108.962 25.4601 108.891 25.5512C106.788 28.2422 104.355 30.6485 102.223 33.3179C101.921 33.6959 101.628 34.0814 101.346 34.4742C101.147 34.7507 100.536 35.3378 100.874 35.38C101.288 35.4317 102.77 33.9806 102.994 33.8189C104.681 32.6028 106.75 31.1117 108.775 30.533C110.662 29.9941 105.883 33.1867 104.362 34.426C102.488 35.954 100.679 37.5662 98.9467 39.2537C98.1486 40.031 97.018 41.0134 96.4702 42.0482C96.1472 42.6583 99.5312 41.0633 99.7079 40.9593C102.503 39.3136 105.004 37.1468 107.292 34.8596C107.637 34.514 108.5 33.3788 107.359 34.1755C104.666 36.0563 102.187 38.2805 99.9006 40.6317C99.7545 40.7819 96.3575 44.2121 98.2529 43.5803C100.222 42.9241 102.003 41.3151 103.611 40.0631C105.405 38.6654 110.725 34.3937 108.987 35.8618C106.887 37.6366 105.145 40.0429 103.668 42.3372C103.627 42.4014 102.041 45.8067 103.032 45.1317C104.276 44.2852 105.313 42.9124 106.309 41.7976C106.433 41.658 107.192 40.7862 106.482 41.3158C104.831 42.5481 103.446 44.0297 101.703 45.1703C100.177 46.1687 98.5741 47.0139 97.2314 48.2345" stroke="#BEFA9D" stroke-width="7.21966" stroke-linecap="round"/>
<path d="M20.8957 55.6528C21.0994 56.0349 21.1121 56.4169 20.9339 56.7989C20.8065 57.2064 20.59 57.512 20.2844 57.7157C20.1316 57.843 19.9916 57.9576 19.8642 58.0595C19.7369 58.1359 19.5968 58.1996 19.444 58.2505C19.1639 58.4033 18.8328 58.4543 18.4508 58.4033C18.298 58.4033 18.1579 58.3779 18.0306 58.3269C17.9032 58.276 17.7759 58.2123 17.6486 58.1359C17.5212 58.0595 17.3812 57.9831 17.2284 57.9067C17.101 57.8048 16.9737 57.703 16.8463 57.6011C16.6935 57.4738 16.5535 57.3592 16.4261 57.2573C16.2988 57.1554 16.1842 57.0408 16.0823 56.9135C15.955 56.7861 15.8404 56.6588 15.7385 56.5315C15.6366 56.4041 15.5348 56.2895 15.4329 56.1877L14.9745 55.691L7.63988 48.0126L7.75449 55.691V56.0349C7.75449 56.1367 7.74175 56.2513 7.71629 56.3787C7.69082 56.4805 7.66535 56.5951 7.63988 56.7225C7.56348 57.0535 7.47435 57.3464 7.37248 57.6011C7.32154 57.7539 7.24514 57.8812 7.14327 57.9831C7.06687 58.085 6.97773 58.1868 6.87586 58.2887C6.59572 58.5434 6.26465 58.6835 5.88264 58.7089C5.50063 58.8363 5.14408 58.8745 4.81301 58.8235C4.5074 58.7981 4.18906 58.7089 3.85798 58.5561C3.60331 58.4033 3.3741 58.1486 3.17036 57.7921C3.11943 57.6902 3.08122 57.6266 3.05576 57.6011C3.05576 57.5756 3.03029 57.4865 2.97935 57.3337C2.82655 57.079 2.75015 56.8243 2.75015 56.5697C2.72468 56.4169 2.69921 56.2768 2.67375 56.1495C2.67375 56.0221 2.66101 55.882 2.63555 55.7292C2.61008 55.6274 2.59734 55.5255 2.59734 55.4236C2.59734 55.3218 2.59734 55.2199 2.59734 55.118C2.62281 54.9907 2.63555 54.8888 2.63555 54.8124C2.63555 54.7106 2.63555 54.5959 2.63555 54.4686L2.59734 51.4507L2.55914 45.8352C2.55914 44.2053 2.52094 42.448 2.44454 40.5634C2.41907 39.6466 2.40634 38.8316 2.40634 38.1186C2.40634 37.4055 2.41907 36.6032 2.44454 35.7119V35.5591C2.49547 35.2789 2.52094 35.0115 2.52094 34.7569C2.52094 34.4767 2.53368 34.2093 2.55914 33.9546C2.55914 33.4453 2.67375 32.9359 2.90295 32.4266C3.05576 32.0446 3.32316 31.739 3.70517 31.5098C3.90891 31.3824 4.09992 31.306 4.27819 31.2806C4.48193 31.2296 4.6984 31.1787 4.92761 31.1278C5.10588 31.1278 5.27142 31.1405 5.42422 31.166C5.60249 31.1914 5.76803 31.2169 5.92084 31.2424C6.25191 31.2933 6.55752 31.4334 6.83766 31.6626C6.91406 31.739 6.97773 31.8281 7.02867 31.93C7.10507 32.0319 7.16874 32.1592 7.21967 32.312C7.34701 32.5157 7.43615 32.8086 7.48708 33.1906C7.51255 33.3434 7.52528 33.4962 7.52528 33.649C7.55075 33.8018 7.56348 33.9674 7.56348 34.1456V35.7119L7.60168 40.3724C8.00916 40.0159 8.40391 39.6466 8.78592 39.2646C9.19339 38.8826 9.58814 38.4751 9.97015 38.0422C10.6578 37.3291 11.3327 36.6414 11.9948 35.9793C12.6824 35.2917 13.37 34.6168 14.0577 33.9546L14.1723 33.84C14.376 33.6363 14.5797 33.4453 14.7835 33.267C15.0127 33.0633 15.2292 32.8723 15.4329 32.694C15.8149 32.2611 16.2861 31.9554 16.8463 31.7772C17.2029 31.548 17.6231 31.4588 18.107 31.5098C18.3362 31.5352 18.5399 31.5862 18.7182 31.6626C18.9219 31.739 19.1129 31.8408 19.2912 31.9682C19.4185 32.0955 19.5459 32.2101 19.6732 32.312C19.8006 32.3884 19.9024 32.4903 19.9788 32.6176C20.1826 32.7959 20.3099 33.0633 20.3608 33.4198C20.3608 33.7 20.3099 33.9546 20.208 34.1838C20.1316 34.3112 20.0552 34.4385 19.9788 34.5659C19.9024 34.6932 19.8133 34.8205 19.7114 34.9479C19.5841 35.1007 19.4695 35.2407 19.3676 35.3681C19.2657 35.4954 19.1511 35.6227 19.0238 35.7501C18.9219 35.8774 18.8073 35.992 18.68 36.0939C18.5781 36.1958 18.4763 36.3104 18.3744 36.4377L17.8778 36.9343L10.7342 44.2307C11.1162 44.6127 11.5109 45.0202 11.9184 45.4532C12.3513 45.8606 12.7588 46.2681 13.1408 46.6756C13.5228 47.0576 13.8794 47.4269 14.2105 47.7834C14.5415 48.1145 14.8217 48.3946 15.0509 48.6238C15.7385 49.3369 16.4007 50.05 17.0373 50.7631C17.674 51.4507 18.298 52.1511 18.9092 52.8642L19.0238 52.9788C19.2275 53.1825 19.4185 53.399 19.5968 53.6282C19.7751 53.8319 19.9406 54.0357 20.0934 54.2394C20.4754 54.6723 20.7429 55.1435 20.8957 55.6528ZM31.9104 55.3472C31.8849 55.4746 31.8595 55.6019 31.834 55.7292C31.834 55.8311 31.834 55.9457 31.834 56.0731L31.6048 56.8753C31.5539 56.9771 31.5156 57.0408 31.4902 57.0663L31.3756 57.2955C31.2482 57.5756 31.019 57.8048 30.688 57.9831C30.0767 58.2887 29.4273 58.3651 28.7397 58.2123C28.3068 58.1614 27.963 58.034 27.7083 57.8303C27.4536 57.652 27.2753 57.4356 27.1735 57.1809C27.0716 56.9262 26.9952 56.6715 26.9443 56.4169C26.8679 56.1622 26.8297 55.933 26.8297 55.7292V34.3366C26.8297 34.1584 26.8297 34.0056 26.8297 33.8782C26.8551 33.7254 26.8806 33.5854 26.9061 33.458C26.9315 33.2798 26.957 33.1269 26.9825 32.9996C27.0334 32.8723 27.0843 32.7322 27.1353 32.5794C27.2117 32.3247 27.3517 32.121 27.5555 31.9682C27.8611 31.739 28.154 31.6116 28.4341 31.5862C28.6124 31.5352 28.7779 31.5098 28.9307 31.5098C29.0835 31.4843 29.2618 31.4716 29.4655 31.4716C29.8221 31.4716 30.2295 31.5734 30.688 31.7772C31.0445 31.9809 31.2992 32.2611 31.452 32.6176C31.7067 33.1269 31.834 33.5981 31.834 34.031C31.8595 34.2857 31.8722 34.6677 31.8722 35.1771C31.8977 35.6864 31.9104 36.0684 31.9104 36.3231V36.4759C31.9613 37.2909 31.9868 38.0804 31.9868 38.8444C31.9868 39.5829 31.9741 40.3979 31.9486 41.2892C31.9486 42.1551 31.9359 42.9956 31.9104 43.8105C31.9104 44.6 31.9104 45.3895 31.9104 46.179V54.2012C31.9104 54.3031 31.9104 54.4049 31.9104 54.5068C31.9359 54.5832 31.9486 54.6723 31.9486 54.7742C31.9486 55.0289 31.9359 55.2199 31.9104 55.3472ZM42.5243 43.9251C42.5243 44.6382 42.5243 45.4404 42.5243 46.3318C42.5498 47.2231 42.5625 48.1527 42.5625 49.1205C42.5625 50.0628 42.5625 51.005 42.5625 51.9473C42.5625 52.8642 42.5498 53.7173 42.5243 54.5068C42.4989 54.8888 42.4607 55.309 42.4097 55.7674C42.3588 56.2004 42.2569 56.6079 42.1041 56.9899C41.9513 57.3719 41.7094 57.6902 41.3783 57.9449C41.0727 58.1741 40.6525 58.276 40.1177 58.2505C39.3282 58.1996 38.7552 57.8558 38.3986 57.2191C38.0675 56.5824 37.8765 55.691 37.8256 54.545C37.8256 53.9593 37.8129 53.2844 37.7874 52.5204C37.7874 51.7563 37.7747 50.9796 37.7492 50.1901C37.7492 49.4006 37.7492 48.6366 37.7492 47.898C37.7492 47.134 37.7492 46.4464 37.7492 45.8352C37.7492 45.4786 37.7365 45.0457 37.711 44.5363C37.711 44.027 37.7237 43.5049 37.7492 42.9701C37.7747 42.4353 37.8383 41.9259 37.9402 41.442C38.0421 40.9327 38.2076 40.5125 38.4368 40.1814C38.6151 39.9777 38.8698 39.8249 39.2008 39.723C39.5319 39.5957 39.8757 39.532 40.2323 39.532C40.6143 39.532 40.9708 39.5957 41.3019 39.723C41.6584 39.8503 41.9131 40.0286 42.0659 40.2578C42.1678 40.4106 42.2442 40.6271 42.2951 40.9072C42.3461 41.1874 42.3843 41.5057 42.4097 41.8623C42.4607 42.1933 42.4861 42.5499 42.4861 42.9319C42.5116 43.2884 42.5243 43.6195 42.5243 43.9251ZM41.0727 36.2085C40.2832 36.4122 39.621 36.3358 39.0862 35.9793C38.5769 35.5973 38.2585 35.037 38.1312 34.2984C38.0293 33.7636 38.0675 33.2925 38.2458 32.885C38.4241 32.4775 38.6915 32.1719 39.048 31.9682C39.4046 31.739 39.812 31.6371 40.2705 31.6626C40.7289 31.688 41.1873 31.8663 41.6457 32.1974C42.0786 32.503 42.3843 32.8595 42.5625 33.267C42.7663 33.6745 42.8299 34.0692 42.7535 34.4513C42.7026 34.8333 42.5371 35.1898 42.2569 35.5209C41.9768 35.8265 41.582 36.0557 41.0727 36.2085Z" fill="white"/>
<path d="M69.26 49.5025C69.3109 50.3174 69.3364 51.0942 69.3364 51.8327C69.3364 52.5458 69.3109 53.3098 69.26 54.1248C69.26 54.4304 69.26 54.7742 69.26 55.1562C69.26 55.5382 69.2345 55.9075 69.1836 56.2641C69.1327 56.6206 69.0435 56.9517 68.9162 57.2573C68.7888 57.5629 68.5978 57.8048 68.3432 57.9831C68.0376 58.1868 67.6938 58.3269 67.3117 58.4033C66.9297 58.4543 66.5732 58.4288 66.2421 58.3269C65.911 58.225 65.6182 58.034 65.3635 57.7539C65.1343 57.4738 65.0069 57.079 64.9815 56.5697C64.9051 55.3982 64.8669 54.2267 64.8669 53.0552C64.8669 52.4694 64.8541 51.9091 64.8287 51.3743C64.8287 50.8395 64.8414 50.0882 64.8669 49.1205C64.8669 48.6366 64.8287 48.089 64.7523 47.4778C64.6759 46.8411 64.4849 46.3955 64.1793 46.1408C63.95 45.937 63.6954 45.8224 63.4152 45.797C63.1351 45.746 62.8549 45.7715 62.5748 45.8734C62.3201 45.9752 62.0909 46.1662 61.8872 46.4464C61.6834 46.7011 61.5434 47.0321 61.467 47.4396C61.467 47.7707 61.4542 48.1145 61.4288 48.471C61.4288 48.8021 61.4415 49.1205 61.467 49.4261C61.4924 50.241 61.5052 51.0178 61.5052 51.7563C61.5052 52.4694 61.4924 53.2334 61.467 54.0484C61.4415 54.3795 61.4288 54.736 61.4288 55.118C61.4542 55.5 61.4542 55.882 61.4288 56.2641C61.4033 56.6206 61.3269 56.9517 61.1996 57.2573C61.0977 57.5629 60.9067 57.8048 60.6266 57.9831C60.3209 58.1868 59.9899 58.3142 59.6333 58.3651C59.3022 58.3906 58.9839 58.3397 58.6783 58.2123C58.3982 58.0595 58.1435 57.8303 57.9143 57.5247C57.7105 57.2191 57.5959 56.8116 57.5705 56.3023C57.5195 55.7165 57.4813 55.1817 57.4559 54.6978C57.4559 54.1885 57.4559 53.6537 57.4559 53.0934C57.4559 52.5076 57.4686 51.9091 57.4941 51.2979C57.5195 50.6612 57.5068 50.05 57.4559 49.4643C57.4559 49.286 57.4431 49.0823 57.4177 48.8531C57.4177 48.5984 57.4049 48.3437 57.3795 48.089C57.3795 47.8344 57.354 47.5924 57.3031 47.3632C57.2776 47.1085 57.2267 46.9048 57.1503 46.752C56.9465 46.3955 56.5772 46.1662 56.0424 46.0644C55.5331 45.9625 55.1001 46.0007 54.7436 46.179C54.387 46.3573 54.1196 46.5865 53.9414 46.8666C53.7631 47.1467 53.6358 47.4523 53.5594 47.7834C53.483 48.1145 53.4448 48.471 53.4448 48.8531C53.4448 49.2096 53.4448 49.5534 53.4448 49.8845C53.4448 51.5399 53.4448 52.9788 53.4448 54.2012C53.4702 55.3982 53.3429 56.3659 53.0627 57.1045C52.9354 57.4865 52.668 57.7794 52.2605 57.9831C51.8785 58.1868 51.4583 58.2887 50.9999 58.2887C50.5669 58.2887 50.1595 58.1868 49.7775 57.9831C49.3954 57.7794 49.1408 57.461 49.0134 57.0281C48.937 56.7479 48.8606 56.3532 48.7842 55.8438C48.7333 55.309 48.6951 54.7233 48.6696 54.0866C48.6442 53.4499 48.6314 52.8132 48.6314 52.1765C48.6314 51.5144 48.6314 50.9159 48.6314 50.3811V44.8801C48.606 44.2944 48.5932 43.6577 48.5932 42.9701C48.5932 42.2825 48.6951 41.6585 48.8988 41.0982C49.0771 40.6144 49.3572 40.3087 49.7392 40.1814C50.1213 40.0286 50.516 39.9649 50.9235 39.9904C51.3819 39.9904 51.7384 40.1177 51.9931 40.3724C52.2733 40.6016 52.477 40.8945 52.6043 41.251C52.7317 41.5821 52.8081 41.9641 52.8335 42.3971C52.859 42.8046 52.8845 43.1993 52.9099 43.5813C53.1901 42.9446 53.5212 42.4225 53.9032 42.0151C54.3106 41.5821 54.8837 41.302 55.6222 41.1746C57.5068 40.8181 59.0094 41.302 60.1299 42.6263C60.6393 42.1169 61.2887 41.6967 62.0782 41.3656C62.6894 41.1364 63.3134 41.0346 63.95 41.06C64.5867 41.06 65.1852 41.1746 65.7455 41.4038C66.3312 41.6331 66.8533 41.9641 67.3117 42.3971C67.7956 42.83 68.1776 43.3521 68.4578 43.9633C68.8398 44.7783 69.0563 45.6824 69.1072 46.6756C69.1581 47.6688 69.2091 48.6111 69.26 49.5025ZM79.537 42.3207C80.301 41.9387 81.1032 41.6713 81.9436 41.5184C82.7841 41.3402 83.6118 41.302 84.4267 41.4038C85.2671 41.4802 86.0694 41.6967 86.8334 42.0533C87.5974 42.3843 88.3105 42.8682 88.9726 43.5049C89.6348 44.1671 90.1441 44.8929 90.5007 45.6824C90.8572 46.4719 91.1119 47.3505 91.2647 48.3182C91.3666 48.9804 91.5321 49.5916 91.7613 50.1519C91.9905 50.7122 92.2325 51.2725 92.4871 51.8327C92.7673 52.393 93.022 52.9533 93.2512 53.5136C93.5058 54.0739 93.7096 54.6596 93.8624 55.2708C93.9897 55.8566 93.9388 56.4296 93.7096 56.9899C93.5058 57.5247 93.0729 57.8558 92.4107 57.9831C92.0287 58.0595 91.6594 58.034 91.3029 57.9067C90.9718 57.7539 90.6662 57.5502 90.3861 57.2955C90.1059 57.0153 89.8513 56.7225 89.6221 56.4169C89.4183 56.0858 89.2273 55.7802 89.049 55.5C88.4633 56.2641 87.8266 56.8625 87.139 57.2955C86.4514 57.703 85.6237 57.9704 84.6559 58.0977C83.841 58.1996 83.0642 58.225 82.3257 58.1741C81.5871 58.1232 80.7976 57.9831 79.9572 57.7539C78.8621 57.4738 77.958 56.9899 77.2449 56.3023C76.5573 55.5892 76.0225 54.7742 75.6405 53.8574C75.2839 52.9151 75.0929 51.9091 75.0674 50.8395C75.042 49.7699 75.1693 48.713 75.4495 47.6688C75.806 46.2936 76.3408 45.173 77.0539 44.3071C77.767 43.4412 78.5947 42.7791 79.537 42.3207ZM80.492 46.7902C80.1355 47.1467 79.8553 47.567 79.6516 48.0508C79.4478 48.5347 79.3205 49.0441 79.2696 49.5789C79.2441 50.1137 79.295 50.6485 79.4224 51.1833C79.5497 51.7181 79.7534 52.1893 80.0336 52.5968C80.2883 52.9533 80.7212 53.2589 81.3324 53.5136C81.9436 53.7428 82.5803 53.8829 83.2425 53.9338C84.0065 53.9847 84.6686 53.781 85.2289 53.3226C85.8147 52.8642 86.2476 52.2911 86.5278 51.6035C86.8334 50.8904 86.9734 50.1392 86.948 49.3497C86.9225 48.5347 86.706 47.7962 86.2986 47.134C85.993 46.6501 85.5855 46.2936 85.0761 46.0644C84.5922 45.8352 84.0702 45.7206 83.5099 45.7206C82.9496 45.6951 82.3893 45.7842 81.829 45.988C81.2942 46.1662 80.8485 46.4337 80.492 46.7902ZM111.512 41.5567C111.716 42.0405 111.729 42.5753 111.551 43.1611C111.398 43.7468 111.105 44.1289 110.672 44.3071C110.443 44.409 110.137 44.4981 109.755 44.5745C109.373 44.6255 108.953 44.6764 108.495 44.7273C108.062 44.7783 107.629 44.8165 107.196 44.8419C106.763 44.8674 106.394 44.8801 106.088 44.8801C106.113 45.6442 106.139 46.4337 106.164 47.2486C106.19 48.0381 106.215 48.8149 106.241 49.5789C106.266 50.3429 106.279 51.0814 106.279 51.7945C106.279 52.4822 106.266 53.1061 106.241 53.6664C106.241 54.0484 106.241 54.4941 106.241 55.0034C106.241 55.4873 106.203 55.9585 106.126 56.4169C106.075 56.8753 105.986 57.2828 105.859 57.6393C105.731 57.9704 105.54 58.1868 105.286 58.2887C104.496 58.6198 103.77 58.7089 103.108 58.5561C102.472 58.4288 102.013 58.1614 101.733 57.7539C101.529 57.4228 101.376 57.0408 101.275 56.6079C101.173 56.1495 101.096 55.691 101.045 55.2326C101.02 54.7488 101.007 54.2903 101.007 53.8574C101.033 53.399 101.045 53.0042 101.045 52.6732C101.071 51.6035 101.084 50.3938 101.084 49.0441C101.109 47.6688 101.122 46.2936 101.122 44.9183H100.549C100.243 44.9183 99.8484 44.9183 99.3645 44.9183C98.9061 44.8929 98.435 44.8547 97.9511 44.8037C97.4927 44.7273 97.0597 44.6382 96.6522 44.5363C96.2448 44.409 95.9519 44.2307 95.7736 44.0015C95.4935 43.6704 95.3152 43.3139 95.2388 42.9319C95.1879 42.5499 95.2133 42.1933 95.3152 41.8623C95.4425 41.5057 95.6335 41.2001 95.8882 40.9454C96.1429 40.6653 96.4358 40.487 96.7668 40.4106C97.2253 40.2833 97.8747 40.2196 98.7151 40.2196C99.5555 40.1941 100.345 40.1941 101.084 40.2196C101.058 39.9649 101.045 39.723 101.045 39.4938C101.045 39.2391 101.033 38.9972 101.007 38.768C100.982 38.4624 100.969 38.0804 100.969 37.6219C100.969 37.1381 100.994 36.6669 101.045 36.2085C101.122 35.7246 101.236 35.2789 101.389 34.8715C101.542 34.4385 101.758 34.1074 102.039 33.8782C102.421 33.5726 102.803 33.4071 103.185 33.3816C103.592 33.3307 103.961 33.3816 104.292 33.5344C104.649 33.6872 104.942 33.9164 105.171 34.222C105.426 34.5022 105.604 34.8205 105.706 35.1771C105.782 35.4827 105.846 35.852 105.897 36.2849C105.948 36.6924 105.973 37.1253 105.973 37.5837C105.999 38.0422 106.012 38.5006 106.012 38.959C106.012 39.4174 106.012 39.8376 106.012 40.2196H106.394C106.776 40.2196 107.221 40.2069 107.731 40.1814C108.24 40.1559 108.737 40.1687 109.22 40.2196C109.73 40.2705 110.188 40.3979 110.596 40.6016C111.003 40.7799 111.309 41.0982 111.512 41.5567Z" fill="#441263"/>
</svg>
