<svg width="118" height="73" viewBox="0 0 118 73" fill="none" xmlns="http://www.w3.org/2000/svg">
<circle cx="81.1983" cy="36.6931" r="36.2087" fill="#BEFA9D"/>
<path d="M8.37207 29.2238L8.25654 30.6102L8.75718 29.917L20.1563 18.0173H24.9701L13.4555 29.9555L25.6248 45.8604H20.888L10.7212 32.3432L8.37207 34.6153V45.8604H4.59805V18.0173H8.37207V29.2238ZM29.8498 16.0532H33.4313V45.8604H29.8498V16.0532ZM39.6278 29.917H43.2093V45.8604H39.6278V29.917ZM39.3583 24.1404C39.3583 23.5756 39.5765 23.1007 40.0129 22.7156C40.4751 22.3305 40.9757 22.1379 41.5148 22.1379C42.054 22.1379 42.529 22.3305 42.9397 22.7156C43.3762 23.1007 43.5944 23.5756 43.5944 24.1404C43.5944 24.7309 43.3762 25.2187 42.9397 25.6038C42.529 25.9633 42.054 26.143 41.5148 26.143C40.9757 26.143 40.4751 25.9504 40.0129 25.5653C39.5765 25.1802 39.3583 24.7053 39.3583 24.1404Z" fill="white"/>
<path d="M52.6023 29.917L52.9103 33.4985L52.7563 33.1904C53.3468 31.9837 54.1812 31.0338 55.2595 30.3406C56.3634 29.6474 57.6214 29.3008 59.0335 29.3008C59.9321 29.3008 60.728 29.4421 61.4211 29.7245C62.1143 30.0069 62.6792 30.4177 63.1156 30.9568C63.5777 31.4703 63.873 32.1121 64.0014 32.8823L63.8088 32.9979C64.425 31.8425 65.2722 30.944 66.3505 30.3021C67.4545 29.6346 68.6098 29.3008 69.8164 29.3008C71.3825 29.3008 72.6149 29.7501 73.5134 30.6487C74.4377 31.5216 74.9127 32.6641 74.9383 34.0761V45.8604H71.3569V35.347C71.3312 34.5254 71.1258 33.8451 70.7407 33.3059C70.3813 32.7411 69.7394 32.433 68.8152 32.3817C67.8909 32.3817 67.0565 32.6641 66.312 33.2289C65.5931 33.7937 65.0283 34.5254 64.6175 35.424C64.2067 36.2969 63.9885 37.2468 63.9628 38.2738V45.8604H60.3814V35.347C60.3557 34.5254 60.1375 33.8451 59.7267 33.3059C59.3416 32.7411 58.6869 32.433 57.7627 32.3817C56.8127 32.3817 55.9783 32.6641 55.2595 33.2289C54.5406 33.7937 53.9758 34.5254 53.565 35.424C53.1799 36.3226 52.9874 37.2854 52.9874 38.3123V45.8604H49.4059V29.917H52.6023ZM87.8083 46.2455C86.3193 46.2455 84.9586 45.9245 83.7262 45.2827C82.5196 44.6409 81.5568 43.7038 80.8379 42.4714C80.1448 41.2134 79.7982 39.6858 79.7982 37.8887C79.7982 36.1172 80.1704 34.5896 80.915 33.3059C81.6595 31.9966 82.6479 30.9953 83.8803 30.3021C85.1383 29.6089 86.5118 29.2623 88.0009 29.2623C89.49 29.2623 90.748 29.6089 91.7749 30.3021C92.8019 30.9696 93.5849 31.7655 94.1241 32.6898L93.893 33.3059L94.2396 29.917H97.5515V45.8604H93.97V41.7012L94.3551 42.6255C94.2524 42.8822 94.0214 43.216 93.6619 43.6267C93.3282 44.0118 92.8661 44.4098 92.2756 44.8206C91.7107 45.2313 91.0561 45.5779 90.3115 45.8604C89.567 46.1171 88.7326 46.2455 87.8083 46.2455ZM88.7711 43.2801C89.6697 43.2801 90.4784 43.1133 91.1973 42.7795C91.9161 42.4458 92.5066 41.9836 92.9687 41.3931C93.4565 40.777 93.7903 40.0453 93.97 39.198V36.0787C93.7646 35.3085 93.4052 34.641 92.8917 34.0761C92.3783 33.4857 91.7621 33.0364 91.0432 32.7283C90.3244 32.3945 89.5285 32.2276 88.6556 32.2276C87.7056 32.2276 86.8327 32.4587 86.0369 32.9208C85.241 33.383 84.5991 34.0248 84.1113 34.8464C83.6492 35.6679 83.4181 36.6307 83.4181 37.7346C83.4181 38.7616 83.662 39.6987 84.1498 40.5459C84.6376 41.3931 85.2923 42.0607 86.1139 42.5485C86.9354 43.0363 87.8212 43.2801 88.7711 43.2801ZM105.29 22.9081H108.871V29.994H113.261V32.8053H108.871V45.8604H105.29V32.8053H102.363V29.994H105.29V22.9081Z" fill="black"/>
</svg>
