<svg width="276" height="239" viewBox="0 0 276 239" fill="none" xmlns="http://www.w3.org/2000/svg">
<path d="M219.118 36.3165L207.623 43.5631" stroke="white" stroke-width="1.25739"/>
<path d="M209.712 23.9561L236.082 19.2451C236.351 19.1971 237.373 20.4569 237.85 21.0929L239.164 25.5714L249.133 29.6708L274.605 116.47L246.492 128.799C241.922 128.079 232.611 126.576 231.922 126.33C231.234 126.084 230.844 125.569 230.735 125.342L207.35 43.4202L210.571 30.6674L209.508 27.0435C208.804 25.4175 209.167 24.6206 209.712 23.9561Z" stroke="white" stroke-width="1.25739"/>
<path d="M210.666 30.8391L222.48 28.445M222.48 28.445C222.396 27.6154 222.33 25.8188 222.741 25.2691M222.48 28.445L222.593 28.8291C222.768 29.8309 224.221 31.8564 228.633 31.9443C233.046 32.0322 235.375 30.5422 235.987 29.7862C236.09 28.5955 236.188 26.0634 235.754 25.4613M222.741 25.2691C223.254 24.5819 231.173 22.3177 235.213 24.7086C235.681 24.9856 235.838 25.2369 235.754 25.4613M222.741 25.2691C220.442 27.3139 235.116 27.1738 235.754 25.4613" stroke="white" stroke-width="0.628697"/>
<path d="M236.046 27.155C235.566 28.11 233.605 29.9776 229.593 29.8078C224.579 29.5955 222.729 28.9168 222.379 28.062" stroke="white" stroke-width="0.628697"/>
<path d="M210.586 31.1943C213.357 32.4762 218.966 35.1675 219.243 35.6778C219.519 36.1882 237.567 97.9403 246.556 128.752" stroke="white" stroke-width="1.25739"/>
<path d="M219.518 36.3201L249.168 29.6646" stroke="white" stroke-width="1.25739"/>
<path d="M239.113 25.7762L236.292 26.2603" stroke="white" stroke-width="0.628697"/>
<g clip-path="url(#clip0_934_2567)">
<path d="M159.224 210.338C158.723 212.076 158.934 213.942 159.809 215.525C160.684 217.109 162.153 218.279 163.891 218.78C182.717 224.201 202.371 213.335 207.792 194.509C208.292 192.77 208.082 190.904 207.207 189.321C206.331 187.738 204.863 186.567 203.124 186.066C201.386 185.566 199.52 185.776 197.936 186.652C196.353 187.527 195.182 188.996 194.682 190.734C193.08 196.297 189.334 200.996 184.267 203.797C179.201 206.598 173.229 207.272 167.666 205.67C165.928 205.17 164.062 205.38 162.478 206.255C160.895 207.131 159.724 208.599 159.224 210.338Z" stroke="white" stroke-width="1.5" stroke-linecap="round" stroke-linejoin="round"/>
<path d="M159.044 211.152L152.89 212.909C152.422 213.043 151.926 213.049 151.455 212.926C150.983 212.804 150.553 212.558 150.209 212.213C149.865 211.868 149.62 211.438 149.498 210.966C149.377 210.494 149.384 209.999 149.519 209.531L150.57 205.881C150.704 205.413 150.962 204.989 151.316 204.654C151.669 204.32 152.106 204.085 152.581 203.976C153.056 203.867 153.551 203.887 154.015 204.034C154.48 204.182 154.896 204.45 155.222 204.812L159.499 209.579M202.39 185.906L200.633 179.753C200.499 179.284 200.493 178.789 200.615 178.317C200.738 177.846 200.984 177.416 201.329 177.072C201.674 176.728 202.104 176.482 202.576 176.361C203.048 176.239 203.543 176.246 204.011 176.381L207.661 177.432C208.129 177.567 208.552 177.824 208.887 178.178C209.222 178.532 209.456 178.969 209.565 179.443C209.674 179.918 209.654 180.413 209.507 180.878C209.36 181.342 209.092 181.758 208.729 182.084L203.962 186.364" stroke="white" stroke-width="1.5" stroke-linecap="round" stroke-linejoin="round"/>
</g>
<g clip-path="url(#clip1_934_2567)">
<path d="M56.6051 177.667L56.3131 177.729L56.0688 177.901C52.1102 180.659 47.8074 181.96 43.7732 180.875C39.7631 179.79 35.5697 176.219 32.0905 168.241C28.5318 160.081 28.9251 155.964 30.8177 153.697C31.8095 152.511 33.3674 151.612 35.555 150.942C37.7416 150.275 40.4275 149.877 43.5305 149.599L44.0732 149.549L44.4573 149.16C48.196 145.375 51.963 142.905 55.4041 142.994C58.6309 143.074 62.3345 145.482 65.8407 153.522C69.3207 161.502 69.0857 167.002 67.1495 170.678C65.2014 174.376 61.3203 176.644 56.6051 177.667Z" stroke="white" stroke-width="1.80233"/>
<path d="M43.7939 149.023C41.8049 144.462 39.1849 143.433 35.5363 145.024" stroke="white" stroke-width="1.80233" stroke-linecap="round" stroke-linejoin="round"/>
</g>
<g clip-path="url(#clip2_934_2567)">
<path d="M132.708 84.7724C125.852 84.8509 119.11 88.7167 115.14 90.6568C114.378 89.54 113.551 88.4691 112.662 87.4498C108.781 82.9806 103.299 81.2832 103.299 81.2832C103.299 81.2832 103.246 88.22 106.26 92.7256C101.587 95.4746 98.6198 101.745 98.6198 101.745C98.6198 101.745 104.295 102.599 109.732 100.261C110.965 99.7337 112.165 99.1342 113.327 98.4655C116.052 101.94 120.466 108.37 126.612 111.428L122.921 118.135C128.169 118.436 134.067 115.896 136.473 114.728C153.209 117.78 161.793 108.55 162.467 105.603C163.111 102.783 159.422 90.6119 143.073 86.1002C141.441 84.0428 137.197 79.1535 132.299 77.1271L132.708 84.7724Z" stroke="white" stroke-width="1.5" stroke-linejoin="round"/>
<path d="M152.215 103.257C153.347 103.516 154.475 102.808 154.734 101.675C154.993 100.543 154.285 99.4149 153.153 99.1559C152.02 98.8969 150.892 99.605 150.633 100.737C150.374 101.87 151.082 102.998 152.215 103.257Z" fill="white"/>
<path d="M144.462 114.97C143.093 110.56 142.914 105.867 143.943 101.366C144.973 96.8652 147.174 92.7163 150.323 89.3401" stroke="white" stroke-width="1.5" stroke-miterlimit="20" stroke-linecap="round"/>
</g>
<g clip-path="url(#clip3_934_2567)">
<path d="M29.0174 61.4832C18.8506 61.4839 9.37781 57.4256 3.41519 50.0044C2.94609 49.4202 2.7973 48.6345 3.01792 47.9015L3.46503 46.4151C3.64973 45.8016 4.08511 45.2892 4.65902 45.0085C5.23732 44.7263 5.91384 44.6999 6.51487 44.9323C14.2073 47.9125 23.842 47.8839 32.9498 44.8539C41.4675 42.0188 48.66 36.932 53.2029 30.5282C57.6967 24.1939 59.049 17.3327 57.0106 11.2081C56.9168 10.9245 57.004 10.6122 57.232 10.418C59.7812 8.25135 62.5965 7.15778 65.8413 7.07422C65.8472 7.07422 65.8538 7.07422 65.8596 7.07422C66.1169 7.07422 66.3551 7.20908 66.4878 7.4297C66.6241 7.65619 66.627 7.93764 66.4973 8.16779C64.7257 11.2983 64.6554 14.5284 65.1677 19.7412C67.6942 27.4146 66.6322 35.7637 62.1728 43.2582C57.7194 50.7454 50.4022 56.4866 41.5708 59.4243C37.3988 60.8126 33.1506 61.4832 29.0174 61.4832ZM5.67197 46.2391C5.54517 46.2391 5.41983 46.2677 5.30182 46.3249C5.09 46.429 4.93608 46.61 4.86791 46.8365L4.42081 48.3229C4.33945 48.5927 4.39075 48.8778 4.55787 49.086C12.5618 59.0483 27.2503 62.645 41.1083 58.0324C49.6055 55.2062 56.639 49.6921 60.9129 42.5084C65.167 35.3591 66.1748 27.4102 63.7502 20.1253C63.7333 20.0732 63.7216 20.0197 63.7164 19.9662C63.2393 15.1375 63.2481 11.7534 64.6268 8.62809C62.3832 8.89489 60.4211 9.73706 58.555 11.2257C60.5193 17.6794 59.0526 24.814 54.3976 31.3755C49.6759 38.0315 42.2232 43.3117 33.4123 46.2435C23.9864 49.3784 13.9896 49.4004 5.98421 46.2978C5.88306 46.2589 5.77678 46.2391 5.67197 46.2391Z" fill="white"/>
<path d="M49.9807 45.5065C49.7755 45.5065 49.571 45.4208 49.4266 45.2529C49.162 44.9466 49.195 44.4841 49.5014 44.2195C52.5541 41.5779 55.1598 38.3551 57.2451 34.6419C57.4437 34.2886 57.8901 34.1633 58.2434 34.3619C58.5959 34.5605 58.7212 35.0069 58.5233 35.3602C56.3538 39.2221 53.6411 42.5754 50.4601 45.3284C50.3215 45.4479 50.1508 45.5065 49.9807 45.5065Z" fill="white"/>
<path d="M41.8902 50.7796C41.6168 50.7796 41.3552 50.6264 41.2291 50.3647C41.0539 49.9997 41.2078 49.5614 41.5721 49.3862C42.6738 48.857 43.7431 48.2787 44.751 47.6682C45.0984 47.4607 45.5477 47.57 45.758 47.9152C45.9677 48.2619 45.857 48.7126 45.511 48.9223C44.4622 49.557 43.351 50.158 42.2076 50.7078C42.105 50.7561 41.9965 50.7796 41.8902 50.7796Z" fill="white"/>
<path d="M14.244 48.3238C14.1282 48.3238 14.0109 48.2966 13.901 48.238C7.88414 45.0423 3.22985 40.1263 0.795693 34.3961C0.519368 33.7459 0.585334 32.9946 0.973069 32.387L1.73608 31.1894C2.06005 30.6807 2.58558 30.3274 3.17781 30.2197C3.77297 30.1105 4.39379 30.2585 4.87974 30.6243C10.9003 35.1525 19.3777 37.5243 28.1387 37.1146C44.9645 36.3384 58.1952 25.7596 57.6308 13.5324C57.6125 13.1278 57.9247 12.7848 58.3293 12.7665C58.731 12.7474 59.0769 13.0604 59.0952 13.465C59.6963 26.4999 45.8389 37.7662 28.2062 38.5791C19.1138 39.0005 10.2882 36.526 3.99946 31.7963C3.83674 31.6739 3.64031 31.6262 3.43948 31.6621C3.24524 31.698 3.07959 31.8095 2.97258 31.9773L2.20957 33.1757C2.08204 33.3758 2.05785 33.6177 2.1458 33.8229C4.44949 39.2453 8.8685 43.9055 14.5892 46.9436C14.9469 47.1334 15.0825 47.5769 14.8927 47.9346C14.7608 48.183 14.5064 48.3238 14.244 48.3238Z" fill="white"/>
<path d="M17.8786 37.793C17.7401 37.793 17.6001 37.7534 17.4755 37.6713C10.5453 33.0925 6.03692 25.9381 5.41537 18.5337C5.36186 17.8931 5.63233 17.2628 6.1388 16.8479L7.09018 16.0695C7.5153 15.7221 8.07088 15.5667 8.61327 15.6422C9.15859 15.7185 9.65261 16.0226 9.96924 16.4763C13.6773 21.8042 19.98 26.0231 27.2612 28.0527C34.0653 29.9496 41.0401 29.7722 46.8972 27.5521C52.6722 25.3642 56.6001 21.4751 57.959 16.6009C58.0667 16.211 58.4706 15.9838 58.8613 16.0915C59.2512 16.2 59.4791 16.6046 59.3699 16.9945C57.8835 22.3283 53.6382 26.5648 47.4169 28.9227C41.2703 31.2528 33.9714 31.4448 26.8676 29.4651C19.2639 27.3454 12.6658 22.9161 8.76572 17.3134C8.68143 17.1917 8.55463 17.114 8.41097 17.0935C8.26731 17.0722 8.12952 17.1125 8.01811 17.2042L7.06673 17.9818C6.93406 18.0903 6.86223 18.2516 6.87542 18.4106C7.45959 25.3715 11.7239 32.1147 18.2825 36.448C18.6204 36.6708 18.7127 37.126 18.4899 37.4639C18.3499 37.6779 18.1168 37.793 17.8786 37.793Z" fill="white"/>
</g>
<defs>
<clipPath id="clip0_934_2567">
<rect width="65.4844" height="65.4844" fill="white" transform="translate(140.651 220.606) rotate(-73.9368)"/>
</clipPath>
<clipPath id="clip1_934_2567">
<rect width="47.7666" height="47.7666" fill="white" transform="translate(17.5265 148.537) rotate(-23.5624)"/>
</clipPath>
<clipPath id="clip2_934_2567">
<rect width="67.3067" height="67.3067" fill="white" transform="translate(106.407 58.26) rotate(12.8816)"/>
</clipPath>
<clipPath id="clip3_934_2567">
<rect width="66.7749" height="66.7749" fill="white" transform="translate(0.259888 0.928711)"/>
</clipPath>
</defs>
</svg>
