<svg width="36" height="36" viewBox="0 0 36 36" fill="none" xmlns="http://www.w3.org/2000/svg">
<path d="M16.9481 24.6838L10.9515 18.6872C10.8607 18.5964 10.7962 18.498 10.758 18.392C10.7198 18.286 10.7011 18.1724 10.7017 18.0512C10.7017 17.9301 10.7208 17.8165 10.7589 17.7105C10.7971 17.6045 10.8613 17.5061 10.9515 17.4152L16.9481 11.4187C17.1147 11.2521 17.3231 11.1652 17.5732 11.1579C17.8234 11.1506 18.039 11.2375 18.2201 11.4187C18.4018 11.5852 18.4966 11.7936 18.5045 12.0438C18.5124 12.2939 18.4252 12.5095 18.2428 12.6907L13.7908 17.1427H23.9441C24.2016 17.1427 24.4175 17.2299 24.592 17.4043C24.7664 17.5788 24.8533 17.7944 24.8527 18.0512C24.8527 18.3087 24.7658 18.5246 24.592 18.6991C24.4181 18.8735 24.2022 18.9604 23.9441 18.9598H13.7908L18.2428 23.4118C18.4094 23.5784 18.4966 23.7904 18.5045 24.0478C18.5124 24.3053 18.4252 24.5173 18.2428 24.6838C18.0763 24.8656 17.8643 24.9564 17.6068 24.9564C17.3494 24.9564 17.1298 24.8656 16.9481 24.6838Z" fill="#F8F8F8"/>
<path fill-rule="evenodd" clip-rule="evenodd" d="M17.75 35.6157C27.4506 35.6157 35.3145 27.7518 35.3145 18.0513C35.3145 8.35069 27.4506 0.486816 17.75 0.486816C8.04942 0.486816 0.185547 8.35069 0.185547 18.0513C0.185547 27.7518 8.04942 35.6157 17.75 35.6157ZM17.75 33.7589C26.4251 33.7589 33.4576 26.7263 33.4576 18.0513C33.4576 9.37616 26.4251 2.34362 17.75 2.34362C9.07489 2.34362 2.04235 9.37616 2.04235 18.0513C2.04235 26.7263 9.07489 33.7589 17.75 33.7589Z" fill="white"/>
</svg>
