<svg width="230" height="230" viewBox="0 0 230 230" fill="none" xmlns="http://www.w3.org/2000/svg">
<path d="M91.922 188.823C128.073 188.823 157.379 159.517 157.379 123.366C157.379 87.2155 128.073 57.9094 91.922 57.9094C55.7711 57.9094 26.465 87.2155 26.465 123.366C26.465 159.517 55.7711 188.823 91.922 188.823Z" fill="#4C9BDD"/>
<path d="M32.2784 96.377C34.0845 99.8761 36.8843 103.111 39.9508 105.584C41.5934 106.91 43.4348 108.104 44.5014 109.928C45.2787 111.256 45.578 112.816 46.3176 114.164C48.1992 117.596 52.3599 118.889 55.9396 120.468C58.5431 121.615 61.0159 123.059 63.295 124.765C63.9214 125.233 64.5503 125.738 64.9377 126.42C66.6256 129.386 62.8825 132.623 62.6259 136.024C62.4598 138.223 63.8107 140.261 65.4055 141.783C67.0004 143.304 68.8946 144.512 70.331 146.18C72.839 149.09 73.6842 153.07 74.0313 156.896C74.3785 160.722 74.6401 169.277 75.7193 172.965C76.7984 176.653 83.1024 182.758 82.6848 176.615C82.0257 173.31 81.5528 169.36 84.003 167.044C85.3261 165.793 87.2178 165.353 88.7095 164.312C92.9306 161.358 92.6967 154.775 96.2813 151.077C97.2096 150.119 98.3642 149.392 99.222 148.373C100.948 146.326 101.214 143.46 101.408 140.791C101.511 139.352 101.599 137.826 100.917 136.553C98.9679 132.908 92.7193 134.168 90.3069 130.812C89.3762 129.519 89.2554 127.816 88.5787 126.375C87.4694 124.015 84.9714 122.594 82.4559 121.915C79.9404 121.233 77.3016 121.145 74.7483 120.619C71.2014 119.89 67.8834 118.33 64.6911 116.62C61.3832 114.846 57.7457 112.152 57.9218 108.401C57.9746 107.274 58.435 106.127 59.328 105.438C60.6738 104.399 62.5605 104.628 64.2585 104.681C71.4781 104.912 78.6574 100.704 81.983 94.2916C82.7578 92.7999 83.3942 91.132 84.7476 90.1359C85.5701 89.5271 86.5789 89.2378 87.5423 88.8957C90.2013 87.9574 92.6992 86.5663 94.8978 84.7979C95.3279 84.4533 95.7606 84.0709 95.9644 83.5577C96.2285 82.8936 96.0549 82.1365 95.7782 81.4799C94.4651 78.3506 90.6767 76.4941 87.3989 77.3745C85.2029 77.9632 83.4068 79.5681 81.256 80.3102C79.1052 81.0523 76.0815 80.3856 75.6488 78.1518C75.5331 77.5607 75.6262 76.9494 75.7469 76.3583C76.2199 74.044 77.128 71.8202 78.4084 69.838C72.2604 67.4105 63.6296 66.8772 57.1068 67.9438L57.1043 67.9387C51.7537 71.307 46.9264 75.4275 42.7682 80.1517C38.5194 84.9765 34.9675 90.4403 32.2784 96.377Z" fill="#BFDD8C"/>
<path d="M139.674 168.141C135.843 162.144 132.193 156.544 132.334 149.428C132.435 144.313 134.689 139.303 134.02 134.231C133.916 133.441 133.73 132.636 133.262 131.99C132.797 131.343 132.093 130.913 131.393 130.531C127.794 128.561 123.766 127.376 119.673 127.085C117.89 126.959 116.038 126.986 114.398 126.272C111.289 124.921 109.822 121.294 109.473 117.92C109.214 115.4 109.45 112.701 110.892 110.615C112.401 108.434 115.032 107.247 117.661 106.895C120.287 106.543 122.954 106.922 125.577 107.305C127.957 107.649 130.337 107.997 132.716 108.341C136.055 108.824 139.838 109.194 142.439 107.046C144.293 105.514 145.085 102.815 144.351 100.525C143.616 98.2362 141.408 96.498 139.01 96.327C137.106 96.1911 135.265 96.9508 133.484 97.6401C129.723 99.094 125.864 100.294 121.942 101.227C121.067 101.436 120.111 101.625 119.294 101.247C118.164 100.727 117.746 99.3607 117.452 98.1532C116.984 96.2263 116.524 94.151 117.258 92.3096C118.335 89.613 121.447 88.5036 123.977 87.0798C126.508 85.656 128.913 82.5971 127.439 80.0967C126.953 79.2741 126.136 78.7156 125.497 78.0063C123.245 75.5083 125.879 71.0231 128.722 69.2295L128.528 69.0962C145.941 80.8589 157.386 100.779 157.386 123.374C157.384 140.689 150.657 156.436 139.674 168.141Z" fill="#BFDD8C"/>
<path d="M161.66 69.0129C169.436 49.3615 155.185 25.4613 140.024 18.3146C116.994 9.49012 96.5705 20.8906 78.192 33.8154C86.614 34.8242 93.7531 44.4436 98.832 52.8581C103.121 59.967 107.984 68.0243 116.182 73.322C131.149 82.5189 147.251 79.5329 161.66 69.0129Z" fill="#A1CB5A"/>
<path d="M91.9294 213.722C41.933 213.722 1.25919 173.048 1.25919 123.052C1.25919 110.021 3.96591 97.4411 9.30389 85.6659C12.0685 79.5657 15.5223 73.7573 19.5723 68.4042C20.9257 66.6131 22.3621 64.8573 23.8362 63.1819C29.6144 56.6113 36.2957 50.9237 43.6889 46.2674C44.8787 45.5178 46.4509 45.875 47.1955 47.0648C47.9452 48.2547 47.588 49.8244 46.3981 50.5715C39.4175 54.9636 33.111 60.3368 27.6548 66.5402C26.2637 68.1224 24.9103 69.7827 23.6299 71.4732C19.8063 76.5244 16.5461 82.0057 13.9375 87.7638C8.90141 98.8775 6.34813 110.751 6.34813 123.052C6.34813 170.241 44.7404 208.636 91.9294 208.636C115.83 208.636 137.999 199.031 154.358 181.594C169.287 165.68 177.511 144.889 177.511 123.054C177.511 107.667 172.993 92.41 163.695 76.4086C156.229 63.5542 143.377 56.5182 133.911 52.8808C132.601 52.3777 131.944 50.9036 132.447 49.593C132.953 48.2824 134.432 47.6258 135.735 48.1314C145.968 52.0657 159.884 59.7205 168.095 73.8554C177.853 90.6542 182.597 106.749 182.597 123.057C182.597 146.19 173.886 168.216 158.068 185.08C140.988 203.28 116.881 213.722 91.9294 213.722Z" fill="#879F5D"/>
<path d="M175.775 94.9381C170.94 82.7226 179.8 67.8658 189.223 63.4233C203.539 57.9369 216.235 65.0232 227.658 73.0604C222.423 73.6867 217.986 79.6662 214.829 84.8985C212.162 89.3183 209.141 94.3268 204.045 97.6196C194.74 103.335 184.73 101.478 175.775 94.9381Z" fill="#A1CB5A"/>
<path d="M175.77 97.4838C175.229 97.4838 174.681 97.3103 174.218 96.9531C173.109 96.0953 172.902 94.4979 173.758 93.386C177.677 88.3071 183.128 83.7892 189.958 79.9555C191.178 79.2663 192.732 79.704 193.422 80.929C194.111 82.1541 193.673 83.7062 192.448 84.3929C186.22 87.8896 181.287 91.9622 177.79 96.4952C177.287 97.1417 176.535 97.4838 175.77 97.4838Z" fill="#879F5D"/>
</svg>
