<svg width="36" height="36" viewBox="0 0 36 36" fill="none" xmlns="http://www.w3.org/2000/svg">
<path d="M17.5789 24.1973L11.5823 18.2007C11.4914 18.1098 11.4269 18.0114 11.3887 17.9054C11.3506 17.7994 11.3318 17.6858 11.3324 17.5647C11.3324 17.4435 11.3515 17.33 11.3897 17.224C11.4278 17.118 11.492 17.0195 11.5823 16.9287L17.5789 10.9321C17.7454 10.7655 17.9538 10.6786 18.204 10.6713C18.4541 10.6641 18.6698 10.751 18.8509 10.9321C19.0326 11.0987 19.1274 11.307 19.1353 11.5572C19.1431 11.8073 19.0559 12.023 18.8736 12.2041L14.4216 16.6561H24.5749C24.8323 16.6561 25.0483 16.7433 25.2227 16.9178C25.3971 17.0922 25.4841 17.3079 25.4835 17.5647C25.4835 17.8221 25.3965 18.038 25.2227 18.2125C25.0489 18.3869 24.8329 18.4739 24.5749 18.4732H14.4216L18.8736 22.9253C19.0402 23.0918 19.1274 23.3038 19.1353 23.5613C19.1431 23.8187 19.0559 24.0307 18.8736 24.1973C18.707 24.379 18.495 24.4698 18.2376 24.4698C17.9801 24.4698 17.7606 24.379 17.5789 24.1973Z" fill="#F8F8F8"/>
<path fill-rule="evenodd" clip-rule="evenodd" d="M18.3805 35.1289C28.0811 35.1289 35.9449 27.265 35.9449 17.5645C35.9449 7.86387 28.0811 0 18.3805 0C8.67991 0 0.81604 7.86387 0.81604 17.5645C0.81604 27.265 8.67991 35.1289 18.3805 35.1289ZM18.3805 33.2721C27.0556 33.2721 34.0881 26.2395 34.0881 17.5644C34.0881 8.88935 27.0556 1.8568 18.3805 1.8568C9.70539 1.8568 2.67284 8.88935 2.67284 17.5644C2.67284 26.2395 9.70539 33.2721 18.3805 33.2721Z" fill="white"/>
</svg>
