<svg width="150" height="98" viewBox="0 0 150 98" fill="none" xmlns="http://www.w3.org/2000/svg">
<path fill-rule="evenodd" clip-rule="evenodd" d="M116.592 21.9011C116.592 21.8996 116.592 21.9025 116.592 21.9011C116.589 21.8472 116.585 21.8488 116.592 21.9011ZM116.44 23.3644C116.24 24.4821 115.851 25.9785 115.251 27.818C113.886 32.0034 111.613 37.4042 108.793 43.0278C105.978 48.6427 102.679 54.3553 99.3067 59.1851C95.8669 64.1108 92.6023 67.748 89.9317 69.588C79.7814 76.5818 67.0964 75.4955 59.3852 68.2677C56.8395 65.0322 56.8395 65.0322 56.8395 65.0322C54.1954 60.66 56.8395 65.0322 54.1954 60.66C50.2673 50.8255 53.8324 38.5426 63.9828 31.549C66.6533 29.7088 71.206 27.9599 77.0177 26.5111C82.7161 25.0907 89.2072 24.0583 95.4334 23.4434C101.669 22.8276 107.501 22.644 111.878 22.8729C113.802 22.9735 115.33 23.1485 116.44 23.3644ZM46.4773 65.9779C39.5179 51.5454 44.8123 33.5741 58.7931 23.9412C62.8535 21.1434 68.708 19.0769 74.8182 17.5538C81.0411 16.0024 87.9861 14.9066 94.5494 14.2584C101.103 13.6112 107.413 13.3967 112.371 13.656C114.832 13.7847 117.11 14.0372 118.972 14.4666C119.9 14.6804 120.864 14.9692 121.748 15.3833C122.555 15.7613 123.759 16.4548 124.625 17.7245C125.491 18.9942 125.701 20.3727 125.761 21.2654C125.827 22.2435 125.747 23.2517 125.611 24.1982C125.338 26.0991 124.751 28.3255 123.983 30.6784C122.437 35.4195 119.962 41.2579 116.999 47.1678C114.031 53.0868 110.51 59.2021 106.827 64.4763C103.211 69.655 99.1821 74.3981 95.1215 77.1957C81.1408 86.8287 62.5528 85.3127 51.6671 73.5856L38.9314 82.3607C36.8374 83.8035 33.9779 83.2701 32.5448 81.1694C31.1118 79.0687 31.6477 76.1957 33.7417 74.7529L46.4773 65.9779ZM117.849 23.7472C117.848 23.7466 117.85 23.7477 117.849 23.7472C117.898 23.77 117.895 23.7732 117.849 23.7472Z" fill="#BEFA9D"/>
<path d="M67.3848 54.302C67.4915 54.0084 67.7303 53.8894 67.9953 53.7115C69.6157 52.6235 71.3352 51.6942 73 50.6786C75.1341 49.3768 77.172 47.8283 79.0758 46.2144C81.4134 44.2327 83.6969 41.778 86.6629 40.7893" stroke="#BEFA9D" stroke-width="1.1249" stroke-linecap="round"/>
<path d="M90.807 37.1861C89.3704 39.9603 87.7043 42.5174 85.9425 45.0935C84.1166 47.7631 82.3581 50.9925 79.9068 53.1811C78.6645 54.2903 81.1154 50.0757 81.7986 48.5568C82.9098 46.086 84.2087 43.6978 85.3519 41.2399C85.7999 40.2768 86.137 39.1691 84.8414 40.289C82.1776 42.5917 79.6015 45.0933 77.2543 47.716C76.3007 48.7815 73.6207 52.1329 74.5417 51.0391C76.8559 48.2911 78.389 44.8894 80.117 41.7704C80.7018 40.7147 81.299 39.687 82.0188 38.7175C82.2678 38.3821 83.1071 37.4749 82.7595 37.7066C82.3832 37.9574 81.7963 39.1474 81.6384 39.3882C80.0685 41.7823 78.3649 44.084 76.7038 46.4148C75.5938 47.9722 74.4621 49.521 73.4107 51.1192C73.0257 51.7043 72.1284 53.5917 72.3297 52.9209C72.4409 52.5501 72.8332 52.0776 73.0103 51.7698C73.8008 50.3959 74.4367 48.942 75.2424 47.5759C75.9796 46.3258 78.6312 42.8984 77.995 44.2027C76.4586 47.3522 73.9415 50.2663 71.9093 53.1211C71.7108 53.3998 71.3677 53.9602 71.619 53.1811C72.1748 51.458 72.7323 49.7934 73.0203 47.9963C73.2495 46.5663 73.3817 45.1226 73.6109 43.6922C73.6443 43.4834 74.0982 41.7297 73.711 43.0716C72.7397 46.4373 71.1493 49.7929 69.3669 52.8008C68.8131 53.7352 68.1764 54.5916 67.4951 55.4333C66.9696 56.0824 67.3517 55.1969 67.405 54.8327C67.8655 51.6865 68.6429 48.6059 69.2868 45.4939C69.3371 45.2506 69.5248 44.5294 69.477 44.7732C69.0065 47.1728 68.3116 49.551 67.5452 51.8699C66.6425 54.6012 65.5952 57.4317 64.192 59.9575C63.7313 60.7868 63.9618 59.6869 63.9618 59.2468C63.9618 56.9179 63.6545 54.3813 64.142 52.0901C64.1942 51.8447 64.3738 51.1139 64.3221 51.3594C64.0641 52.5851 63.5714 53.8027 63.121 54.9628C61.6944 58.6374 59.9944 62.2173 58.2965 65.773C57.654 67.1184 57.6613 66.6411 57.846 65.5327C58.3106 62.7455 58.3675 59.8634 58.5167 57.0448C58.5488 56.4373 58.5105 55.7626 58.6468 55.163C58.6826 55.0054 58.7283 56.5134 58.7269 56.5743C58.6853 58.4051 58.6325 60.2551 58.4666 62.0795C58.2817 64.1135 58.372 61.652 58.2965 60.9685C58.0542 58.7766 57.1141 56.8008 56.4247 54.7326C55.8712 53.0722 55.917 55.8186 55.8942 56.3241C55.8124 58.143 55.8542 59.9689 55.8542 61.7892C55.8542 63.1227 55.8542 60.6647 55.8542 60.5581C55.8542 59.1267 55.8542 57.6954 55.8542 56.264C55.8542 56.1539 55.8542 55.8236 55.8542 55.9337C55.8542 56.9935 55.8723 58.0627 55.7441 59.1167C55.6236 60.1071 55.3137 61.0859 55.3137 62.0895C55.3137 63.4927 54.7992 59.3304 54.573 57.9456C54.531 57.6888 54.4128 54.8478 54.4128 56.5443C54.4128 57.8677 54.3381 59.242 53.7722 60.468C53.6055 60.8293 53.6921 59.6748 53.6921 59.2769C53.6921 58.1124 53.7238 56.9631 53.8523 55.8036C54.2211 52.4738 55.1723 49.2761 55.644 45.9744C55.8126 44.7943 55.0663 48.0736 55.0534 48.1164C54.2906 50.6446 53.2088 53.06 52.4009 55.5734C51.9568 56.955 53.2633 52.8019 53.6721 51.4095C54.0315 50.1854 55.5135 46.6599 54.9333 47.7961C53.8133 49.9895 53.193 52.7469 52.5911 55.123C51.9785 57.5412 54.0693 53.6647 54.2927 53.2412C55.4769 50.9969 56.4486 48.3602 58.0763 46.3948C58.2248 46.2154 58.3565 46.1472 58.3565 46.4148C58.3565 48.0409 57.8661 49.7436 57.5157 51.3094C57.026 53.4983 56.4889 55.6763 56.0944 57.8856C55.9804 58.524 55.5547 60.3219 55.9743 59.8274C57.6504 57.852 58.6457 54.8856 59.7278 52.5906C60.5476 50.852 61.363 49.1153 62.3002 47.4357C62.6262 46.8517 63.2286 45.3963 63.8617 44.9934C64.3928 44.6555 63.8272 46.2584 63.7015 46.8752C63.1755 49.4565 62.4426 51.9857 61.7397 54.5224C61.3323 55.9928 60.9185 57.4639 60.5986 58.9566C60.2078 60.7805 61.0839 58.3035 61.1091 58.2359C61.5427 57.0761 61.9162 55.8991 62.3002 54.7226C62.3225 54.6545 63.0115 52.9856 63.0209 53.041C63.142 53.7524 62.8739 54.7335 62.7507 55.4032C62.4837 56.8542 62.1539 58.2954 61.7998 59.7273C61.3294 61.6288 60.3784 63.7857 60.3784 65.773C60.3784 66.305 61.2183 64.8076 61.2993 64.6719C61.4937 64.3464 61.6244 63.9486 61.8398 63.641C62.2723 63.0231 61.4736 65.1043 61.2793 65.833C60.9586 67.0356 60.8735 68.2564 60.7288 69.4865C60.6627 70.0478 60.8498 68.6924 60.8589 68.6156C61.1252 66.3518 60.7187 70.9784 60.7187 68.3554" stroke="#BEFA9D" stroke-width="3.74968" stroke-linecap="round"/>
<path d="M81.6186 33.9428C79.718 37.2742 77.8721 40.6486 75.7431 43.8421C75.0578 44.8699 74.4956 46.0129 73.6511 46.925C73.5982 46.9821 73.291 47.308 73.4109 46.975C73.6428 46.3308 73.9431 45.6799 74.2317 45.0632C75.3225 42.7319 76.6331 40.5269 77.6249 38.1467C77.6676 38.0441 78.4918 36.1909 78.1553 36.0647C77.7005 35.8942 77.3544 36.6195 76.9943 36.9456C75.5565 38.2476 74.1783 39.6152 72.7903 40.9694C70.8548 42.8577 68.5812 45.7266 65.8738 46.5646C64.8759 46.8735 67.2784 42.526 67.3852 42.3306C68.5423 40.2156 69.9038 38.2409 71.2489 36.2449C71.923 35.2446 71.9562 35.3704 71.449 36.4651C69.9038 39.8009 67.5066 42.7481 65.0831 45.4736C64.0283 46.6597 61.2017 50.4318 61.88 48.9969C62.904 46.8309 63.8367 44.6799 64.6627 42.4307C65.1426 41.1238 65.9895 40.1103 66.5845 38.8874C66.635 38.7835 63.2987 42.6368 63.2814 42.6109C63.0093 42.2028 63.3511 41.2143 63.5116 40.8292C63.6581 40.4777 63.8045 40.2066 63.3014 40.7491C62.4525 41.6646 61.6854 42.656 60.8591 43.5918C60.0033 44.5611 59.0921 45.4657 58.1365 46.3344C58.0947 46.3724 58.688 44.1222 58.7771 43.8621C59.1543 42.7621 59.581 41.6859 60.0183 40.609C60.1692 40.2374 60.765 39.3969 60.3686 39.4579C59.5566 39.5829 58.3619 41.4604 57.7762 42.0103C57.6107 42.1657 56.7543 43.0492 56.7853 42.9512C56.9995 42.2729 57.1889 41.5948 57.3758 40.9093C57.4614 40.5954 55.6357 43.124 56.5751 41.3897C57.4452 39.7834 58.0861 38.2702 59.6179 37.1458C61.9237 35.4532 64.9013 34.4214 67.7255 34.0829C70.0086 33.8093 72.3148 33.7441 74.612 33.7626C75.9757 33.7736 75.4732 34.1783 74.4719 34.6234C73.707 34.9633 66.5862 36.7696 66.4844 35.3441C66.3282 33.1575 69.9435 31.8579 71.419 31.1201C71.5891 31.035 73.8247 29.955 73.3308 29.989C72.007 30.0803 70.7515 30.5288 69.4372 30.6697C69.1375 30.7018 67.8175 30.7981 68.6965 30.3294C70.2352 29.5087 72.214 29.2968 73.9114 29.1082C76.6296 28.8062 79.4251 28.6639 82.1591 28.5577C82.9093 28.5286 85.1303 28.352 84.4112 28.5677C82.9669 29.001 81.5738 29.5723 80.1172 29.979C78.6155 30.3983 77.0965 30.7689 75.5729 31.1001C75.0922 31.2046 74.2134 31.4916 73.6711 31.3803C73.426 31.3301 74.0366 31.0157 74.2717 30.9299C75.9342 30.3233 77.7498 30.0107 79.4766 29.6787C84.4252 28.7274 89.3766 28.0722 94.4106 27.857C96.6052 27.7632 95.4268 27.9579 94.0703 28.1773C92.1481 28.4883 90.145 28.5279 88.2849 29.1382C86.7223 29.651 91.398 28.0458 93.0093 27.7169C94.3598 27.4412 95.717 27.2245 97.0831 27.0463C97.2132 27.0293 97.6039 27.0107 97.4735 26.9962C96.836 26.9254 96.1925 27.0666 95.5517 27.0963C92.9665 27.2164 90.3822 27.2765 87.7944 27.2765C87.3121 27.2765 86.18 27.4996 87.1038 27.1464C88.3401 26.6737 89.524 26.0745 90.7572 25.5949C91.667 25.2411 91.8565 25.1589 90.6871 25.1245C88.3967 25.0571 86.1365 25.344 83.8607 25.5449C82.95 25.6252 80.3867 26.1234 81.1181 25.5749C81.4482 25.3273 83.2312 25.655 83.6405 25.655C86.1224 25.655 88.5516 25.2685 91.0174 25.0344C95.9317 24.5678 100.886 24.3938 105.821 24.3938C106.392 24.3938 108.37 24.2632 106.602 24.614C105.019 24.928 103.373 25.1145 101.758 25.1145C101.441 25.1145 100.772 25.0289 101.377 24.7141C102.815 23.9664 104.979 23.9393 106.542 23.7532C108.734 23.4923 110.934 23.2275 113.128 22.9925C113.843 22.9159 114.71 23.1326 115.47 23.1326C115.954 23.1326 116.535 23.0559 117.012 23.1426C118.165 23.3522 115.954 26.5494 115.841 26.746C115.061 28.0949 113.958 29.0969 113.128 30.3694C112.846 30.8019 113.983 29.3617 114.069 29.2183C114.77 28.0494 115.474 26.8387 116.431 25.8551C117.068 25.2007 117.706 24.3985 117.652 25.675C117.555 28.0052 116.712 30.2305 115.931 32.4013C114.81 35.5183 113.828 38.8044 112.428 41.8101C112.037 42.6495 112.057 41.9819 112.067 41.4698C112.095 40.0923 112.362 38.744 112.568 37.386C112.66 36.7782 111.954 39.6384 111.867 39.8683C110.483 43.5137 108.364 46.8894 106.462 50.2781C105.856 51.357 104.91 52.5892 104.54 53.7914C104.375 54.3266 105.126 52.8329 105.351 52.32C106.263 50.2409 107.389 48.3174 108.684 46.4545C108.884 46.1672 110.378 43.7689 109.465 45.4436C107.567 48.9232 101.426 59.1078 103.369 55.6532C104.096 54.36 104.774 53.068 105.631 51.8496C106.015 51.3043 107.054 49.4635 106.222 51.2891C105.21 53.5088 103.719 55.3984 102.218 57.3047C101.353 58.4037 100.461 59.4699 99.5354 60.5177C99.1867 60.9124 98.5614 61.4635 98.3744 62.0091C98.278 62.2903 100.592 59.9045 99.4754 61.3485C98.4215 62.7115 97.0771 64.0282 95.6718 65.032C95.6313 65.0609 94.6223 65.7191 95.0913 65.6125C95.6153 65.4934 94.5267 66.9523 94.4106 67.1139C93.8441 67.903 93.1231 68.5804 92.4288 69.2559C91.481 70.1781 92.6473 68.6591 91.7882 69.316C90.4613 70.3307 88.9605 71.1677 87.4341 71.8384C87.2619 71.914 85.7337 72.8092 86.0428 72.0586C86.1554 71.7851 86.4626 71.6499 86.7234 71.5381C87.582 71.1701 85.0777 72.4308 84.211 72.7793C82.8738 73.3169 81.2918 74.2777 79.8369 74.4308C79.7794 74.4369 81.2816 73.3997 81.4384 73.3098C81.4442 73.3064 82.9501 72.3632 82.9398 72.3589C82.6099 72.2199 81.6634 72.4053 81.4084 72.4289C80.1337 72.5472 78.8833 72.7294 77.6349 73.0195C76.3955 73.3075 75.1784 73.6829 73.9414 73.9804C73.7834 74.0184 72.9976 74.0942 72.8103 74.2607C72.0674 74.921 74.746 73.7666 75.653 73.3598C75.8067 73.2909 78.2992 72.3188 77.0543 72.3188C75.4796 72.3188 73.7302 72.3334 72.2298 72.8593C72.0962 72.9062 70.9068 73.5314 71.6693 73.3598C72.1334 73.2554 72.6729 72.7955 73.0305 72.499C73.5438 72.0734 72.8882 72.1357 72.5601 72.1587C70.5637 72.2988 68.4919 72.5172 66.5344 72.9394C65.1628 73.2352 66.6299 72.8739 67.175 72.3288C67.6224 71.8815 65.506 72.7038 66.2141 71.9485C67.0355 71.0723 62.4676 71.749 62.2003 71.1477C62.0725 70.86 65.0648 69.6654 63.6417 69.6163C63.3495 69.6062 60.9696 69.733 61.1193 69.3961C61.5108 68.5152 63.2455 67.7841 64.002 67.3542C64.9033 66.8419 65.8436 66.4067 66.7747 65.9528C67.1931 65.7489 68.3556 65.4128 67.9458 65.1921C67.0025 64.6842 64.75 65.0976 63.7018 65.1521C63.4847 65.1634 61.7361 65.4088 62.0202 65.2121C62.4402 64.9214 62.824 64.5711 63.2213 64.2512C63.5758 63.9659 65.8638 62.7342 65.8638 62.3394C65.8638 61.7063 60.8772 62.8602 61.0192 63.0201C61.7512 63.8435 65.1422 62.6974 65.8638 62.4495C67.0829 62.0308 68.2583 61.4946 69.4672 61.0482C69.6745 60.9717 71.15 60.6482 71.2989 60.3876C71.6103 59.8427 70.0454 60.5384 69.4472 60.7279C68.3293 61.0821 67.3619 61.6461 66.3843 62.2794C65.9905 62.5345 63.7616 63.6355 65.053 64.2813C66.9599 65.2347 69.8184 64.9202 71.8694 64.9319C74.0335 64.9442 76.3618 64.6785 78.5157 64.9319C78.9918 64.9879 77.565 65.061 77.0944 65.1521C76.0101 65.3619 74.9327 65.6279 73.8713 65.9328C73.1239 66.1475 71.4719 66.7247 73.2307 66.8737C74.5926 66.9891 76.1143 66.9799 77.4347 66.5934C77.5192 66.5687 77.6164 66.5492 77.6749 66.4833C77.8106 66.3307 77.2674 66.4119 77.0643 66.4333C75.7792 66.5686 74.4984 66.867 73.2507 67.194C72.5082 67.3886 70.396 67.9843 71.1488 68.1349C73.0243 68.51 75.3734 68.2018 77.2545 68.0548C79.8646 67.8509 82.4938 67.5988 85.0919 67.2741C85.2173 67.2584 86.7204 66.8852 86.9636 67.0339C87.3765 67.2862 86.1374 67.5446 85.6924 67.7345C84.7317 68.1446 82.6847 68.4656 81.989 69.316C81.8254 69.5159 82.5021 69.4154 82.7597 69.3961C83.5529 69.3366 84.3445 69.2243 85.1219 69.0558C85.6035 68.9513 87.9794 68.0371 87.7944 68.0248C86.639 67.9478 85.2185 68.1779 84.121 68.5353C82.5861 69.035 85.5369 68.0956 85.6924 68.0248C86.9352 67.4589 88.1913 66.898 89.4059 66.2731C89.994 65.9706 90.9021 65.5794 91.2376 64.9419C92.2312 63.0541 82.0719 63.0776 80.8779 63.2103C78.5798 63.4656 82.7157 63.2773 83.08 63.2303C85.2361 62.9521 87.4619 62.5195 89.446 61.5887C90.7428 60.9803 86.9025 60.9683 86.8836 60.9682C83.5941 60.9464 80.3038 60.9682 77.0143 60.9682C75.2994 60.9682 78.9093 60.5773 79.1563 60.5277C80.4165 60.2747 81.6694 59.984 82.9098 59.6469C83.1279 59.5877 84.1053 59.4227 84.3412 59.2065C84.4743 59.0844 83.9813 59.1665 83.8007 59.1665C82.5124 59.1665 81.2234 59.2126 79.937 59.2766C76.6995 59.4375 73.401 59.6063 70.2279 60.3175C68.5043 60.7039 71.7214 60.4038 71.8294 60.3876C74.2677 60.0219 76.6152 59.2763 79.0362 58.8362C82.4669 58.2124 72.0622 58.8891 68.5763 58.9763C68.1861 58.986 67.0464 59.1401 67.4052 58.9863C68.2 58.6457 69.1752 58.4031 69.9777 58.1255C72.7782 57.1568 75.6294 56.429 78.4656 55.5831C78.9742 55.4314 79.5435 55.3887 79.9771 55.0826C80.4516 54.7476 78.8163 55.02 78.2354 55.0226C75.9292 55.0327 73.6128 55.2446 71.3089 55.2027C69.762 55.1746 74.335 54.5388 75.8131 54.0817C75.9653 54.0346 79.7983 52.6382 79.3965 52.3601C77.9223 51.3395 72.3242 53.2192 74.1115 53.361C75.8674 53.5004 78.0338 52.5296 79.6968 52.0398C80.3213 51.8558 80.8708 51.4773 79.7569 51.7595C77.9887 52.2074 76.1564 52.81 74.5319 53.6513C73.2022 54.3399 73.7371 54.9977 74.9924 55.1827C77.4715 55.5481 80.0884 55.3685 82.5595 55.0226C83.0442 54.9547 84.4798 54.6415 84.0008 54.7423C83.341 54.8812 82.681 55.1593 82.059 55.4029C81.9405 55.4494 79.4869 56.657 79.7068 56.7041C80.7055 56.9182 82.3133 55.8548 83.11 55.3929C83.8161 54.9836 84.4726 54.5589 85.1119 54.0617C85.1277 54.0494 84.7174 55.7195 84.6214 56.0335C84.5813 56.1648 84.3114 56.971 84.7015 56.8843C87.6905 56.2201 90.6115 54.5388 93.4898 53.5011C94.7247 53.0559 98.4126 51.7942 97.2933 52.4802C95.307 53.6976 93.2024 54.7187 91.2276 55.9635C90.9838 56.1171 90.3095 56.6215 90.587 56.544C91.6604 56.2444 92.7206 55.7811 93.75 55.3629C96.1086 54.4047 98.3462 53.1858 100.516 51.8596C100.779 51.6992 101.561 51.249 101.357 51.4792C100.723 52.195 100.01 52.8447 99.3553 53.5412C98.0771 54.9002 96.6209 56.358 95.6518 57.9653C94.857 59.2836 96.7725 57.4007 95.3015 58.3957C94.2395 59.1141 93.5322 60.1975 92.709 61.1383C90.9636 63.1331 95.9578 56.9489 97.5536 54.8324C99.0137 52.8958 100.532 50.8728 101.307 48.5465C101.654 47.5071 99.5396 49.1575 99.3353 49.2972C98.6961 49.7341 98.3305 50.0115 97.7137 50.4783C97.486 50.6506 97.2611 50.8268 97.0331 50.9988C96.8454 51.1404 96.4817 51.6324 96.4526 51.3992C96.4224 51.1577 97.5047 49.5139 97.5236 49.4774C98.1912 48.1852 98.8111 46.8672 99.4354 45.5537C99.4815 45.4565 100.693 43.2366 99.8958 44.0923C98.4071 45.6905 96.7135 47.2269 94.851 48.3763C94.6694 48.4884 92.5087 49.905 92.649 49.0169C93.0639 46.389 95.3982 43.9618 97.1332 42.1304C98.1002 41.1097 99.3036 40.246 100.196 39.1577C100.274 39.063 100.47 38.8723 100.356 38.8273C99.8009 38.6081 99.2528 39.2914 98.7347 39.5881C95.9442 41.1858 93.3143 43.0925 90.6671 44.9131C89.4264 45.7663 87.8874 46.6842 86.9937 47.9459C86.9899 47.9512 86.7417 48.3163 86.9636 48.3163C87.4875 48.3163 88.2641 47.6363 88.6052 47.3854C89.5498 46.6905 90.6911 45.9088 91.4078 44.9531C92.0548 44.0905 89.9182 46.5131 89.1457 47.2653C88.414 47.9777 87.601 48.5941 86.8435 49.2772C86.6717 49.4321 86.169 49.8689 86.263 49.6575C87.5563 46.7475 89.4523 43.9335 91.0775 41.1996C92.254 39.2205 93.9424 37.2939 94.791 35.1339C94.9148 34.8186 94.1247 35.2971 93.8301 35.4642C92.2688 36.3497 90.7266 37.2769 89.2358 38.2768C87.1467 39.678 85.0832 41.2292 83.2802 42.9913C83.2007 43.0689 83.1051 43.14 83.06 43.2415C82.9391 43.5135 83.544 42.8939 83.7706 42.701C84.9547 41.6929 86.107 40.6468 87.2639 39.6081C89.5072 37.594 92.0144 35.7306 94.0703 33.5224C95.2782 32.225 92.0861 33.344 91.6681 33.4423C90.1799 33.7921 88.7278 34.2341 87.2739 34.7035C86.7203 34.8822 85.3307 35.5774 85.5623 35.0438C86.1898 33.5978 87.9058 32.116 88.9655 30.9599C89.4036 30.482 90.5107 29.6896 89.1457 30.0991C87.2386 30.6713 85.371 31.8289 83.7006 32.8818C82.2942 33.7682 82.3585 34.084 84.0109 33.192C86.9645 31.5976 89.7527 29.7611 92.7591 28.2474C92.7841 28.2348 96.1842 26.5028 96.1423 27.0062C96.0353 28.2893 94.672 29.5806 94.1904 30.7598C93.3249 32.8789 95.2965 32.193 96.6427 31.7207C97.9032 31.2784 99.1155 30.7215 100.316 30.1392C100.659 29.9729 101.646 29.4593 101.387 29.7388C99.9942 31.2417 98.4414 32.6127 97.1432 34.203C96.9817 34.4009 96.6185 35.0424 96.8329 34.9037C97.9183 34.2014 98.9201 33.2738 99.9358 32.4814C101.708 31.0989 103.51 29.7461 105.261 28.3375C106.498 27.3424 104.218 29.3918 104.06 29.5586C103.154 30.5107 102.243 31.4598 101.347 32.4213C101.131 32.6536 100.121 33.5378 100.076 34.0028C100.036 34.4189 100.869 33.7134 101.217 33.4823C102.673 32.5171 104.049 31.4306 105.361 30.2793C107.279 28.5963 109.114 26.8708 111.126 25.2946C112.05 24.5712 110.379 26.5013 110.306 26.5958C108.121 29.3911 105.593 31.8906 103.379 34.6634C103.065 35.0561 102.761 35.4565 102.468 35.8646C102.262 36.1518 101.627 36.7616 101.978 36.8054C102.408 36.8592 103.947 35.3518 104.18 35.1839C105.932 33.9206 108.082 32.3717 110.185 31.7707C112.145 31.2109 107.181 34.5271 105.601 35.8145C103.654 37.4016 101.776 39.0763 99.9759 40.8292C99.1469 41.6367 97.9725 42.6571 97.4034 43.732C97.0679 44.3657 100.583 42.7089 100.767 42.6009C103.67 40.8915 106.268 38.6407 108.644 36.2649C109.003 35.9059 109.899 34.7267 108.714 35.5543C105.917 37.508 103.342 39.8184 100.967 42.2606C100.815 42.4166 97.2864 45.9797 99.2552 45.3234C101.3 44.6418 103.151 42.9704 104.82 41.67C106.684 40.2182 112.21 35.7809 110.406 37.3059C108.224 39.1495 106.415 41.6491 104.88 44.0322C104.838 44.0989 103.19 47.6361 104.22 46.935C105.512 46.0557 106.589 44.6296 107.623 43.4717C107.753 43.3266 108.54 42.421 107.803 42.9712C106.088 44.2513 104.649 45.7902 102.839 46.975C101.253 48.0122 99.5889 48.8901 98.1942 50.158" stroke="#BEFA9D" stroke-width="7.49936" stroke-linecap="round"/>
<path d="M79.9526 46.9476C80.7462 46.5508 81.5795 46.273 82.4525 46.1143C83.3255 45.9291 84.1852 45.8894 85.0318 45.9953C85.9047 46.0746 86.738 46.2995 87.5317 46.6698C88.3253 47.0137 89.066 47.5164 89.7538 48.1777C90.4416 48.8655 90.9707 49.6195 91.341 50.4395C91.7114 51.2596 91.9759 52.1723 92.1347 53.1775C92.2405 53.8653 92.4124 54.5002 92.6505 55.0822C92.8886 55.6642 93.1399 56.2462 93.4045 56.8282C93.6954 57.4102 93.96 57.9922 94.1981 58.5741C94.4626 59.1561 94.6742 59.7646 94.833 60.3995C94.9652 61.0079 94.9123 61.6031 94.6742 62.1851C94.4626 62.7407 94.0129 63.0846 93.3251 63.2168C92.9283 63.2962 92.5447 63.2697 92.1743 63.1375C91.8304 62.9787 91.513 62.7671 91.222 62.5026C90.931 62.2116 90.6665 61.9074 90.4284 61.5899C90.2167 61.246 90.0183 60.9286 89.8332 60.6376C89.2247 61.4312 88.5634 62.0529 87.8491 62.5026C87.1348 62.9258 86.2751 63.2036 85.2698 63.3359C84.4233 63.4417 83.6165 63.4681 82.8493 63.4152C82.0821 63.3623 81.2621 63.2168 80.3891 62.9787C79.2515 62.6877 78.3124 62.1851 77.5717 61.4709C76.8575 60.7302 76.3019 59.8836 75.9051 58.9313C75.5348 57.9525 75.3364 56.9075 75.3099 55.7965C75.2834 54.6854 75.4157 53.5876 75.7067 52.5029C76.0771 51.0744 76.6326 49.9105 77.3733 49.011C78.114 48.1116 78.9738 47.4238 79.9526 46.9476ZM80.9446 51.5903C80.5742 51.9606 80.2833 52.3971 80.0716 52.8998C79.86 53.4024 79.7277 53.9315 79.6748 54.487C79.6484 55.0425 79.7013 55.5981 79.8335 56.1536C79.9658 56.7091 80.1774 57.1985 80.4684 57.6218C80.733 57.9922 81.1827 58.3096 81.8176 58.5741C82.4525 58.8122 83.1138 58.9577 83.8016 59.0106C84.5953 59.0635 85.2831 58.8519 85.8651 58.3757C86.4735 57.8996 86.9232 57.3044 87.2142 56.5901C87.5317 55.8494 87.6772 55.069 87.6507 54.2489C87.6242 53.4024 87.3994 52.6352 86.9761 51.9474C86.6587 51.4448 86.2354 51.0744 85.7063 50.8363C85.2037 50.5983 84.6614 50.4792 84.0794 50.4792C83.4974 50.4528 82.9154 50.5454 82.3334 50.757C81.7779 50.9422 81.315 51.2199 80.9446 51.5903ZM109 46.154C109.212 46.6566 109.225 47.2121 109.04 47.8206C108.881 48.429 108.577 48.8258 108.127 49.011C107.889 49.1168 107.572 49.2094 107.175 49.2888C106.778 49.3417 106.342 49.3946 105.866 49.4475C105.416 49.5004 104.966 49.5401 104.516 49.5666C104.067 49.593 103.683 49.6062 103.366 49.6062C103.392 50.3999 103.419 51.2199 103.445 52.0665C103.471 52.8865 103.498 53.6934 103.524 54.487C103.551 55.2806 103.564 56.0478 103.564 56.7885C103.564 57.5028 103.551 58.1509 103.524 58.7329C103.524 59.1297 103.524 59.5926 103.524 60.1217C103.524 60.6243 103.485 61.1137 103.405 61.5899C103.352 62.0661 103.26 62.4893 103.128 62.8597C102.995 63.2036 102.797 63.4285 102.532 63.5343C101.712 63.8782 100.958 63.9708 100.271 63.812C99.6092 63.6798 99.133 63.402 98.842 62.9787C98.6304 62.6348 98.4716 62.238 98.3658 61.7883C98.26 61.3121 98.1806 60.836 98.1277 60.3598C98.1013 59.8572 98.0881 59.381 98.0881 58.9313C98.1145 58.4551 98.1277 58.0451 98.1277 57.7012C98.1542 56.5901 98.1674 55.3335 98.1674 53.9315C98.1939 52.5029 98.2071 51.0744 98.2071 49.6459H97.6119C97.2944 49.6459 96.8844 49.6459 96.3818 49.6459C95.9056 49.6195 95.4162 49.5798 94.9136 49.5269C94.4374 49.4475 93.9877 49.3549 93.5644 49.2491C93.1411 49.1168 92.8369 48.9317 92.6518 48.6936C92.3608 48.3497 92.1756 47.9793 92.0962 47.5825C92.0433 47.1857 92.0698 46.8153 92.1756 46.4714C92.3078 46.1011 92.5063 45.7836 92.7708 45.5191C93.0353 45.2281 93.3396 45.0429 93.6835 44.9636C94.1596 44.8313 94.8342 44.7651 95.7072 44.7651C96.5802 44.7387 97.4002 44.7387 98.1674 44.7651C98.141 44.5006 98.1277 44.2493 98.1277 44.0112C98.1277 43.7467 98.1145 43.4954 98.0881 43.2573C98.0616 42.9398 98.0484 42.543 98.0484 42.0668C98.0484 41.5642 98.0748 41.0748 98.1277 40.5986C98.2071 40.096 98.3261 39.6331 98.4849 39.2098C98.6436 38.7601 98.8684 38.4162 99.1594 38.1781C99.5563 37.8606 99.9531 37.6887 100.35 37.6622C100.773 37.6093 101.157 37.6622 101.501 37.821C101.871 37.9797 102.175 38.2178 102.413 38.5352C102.678 38.8262 102.863 39.1569 102.969 39.5272C103.048 39.8447 103.114 40.2283 103.167 40.678C103.22 41.1013 103.247 41.551 103.247 42.0272C103.273 42.5033 103.286 42.9795 103.286 43.4557C103.286 43.9318 103.286 44.3683 103.286 44.7651H103.683C104.08 44.7651 104.543 44.7519 105.072 44.7255C105.601 44.699 106.117 44.7122 106.619 44.7651C107.149 44.8181 107.625 44.9503 108.048 45.162C108.471 45.3471 108.789 45.6778 109 46.154Z" fill="#441263"/>
<path d="M21.5155 60.7963C21.7272 61.1931 21.7404 61.5899 21.5552 61.9867C21.4229 62.41 21.1981 62.7274 20.8806 62.9391C20.7219 63.0713 20.5764 63.1904 20.4441 63.2962C20.3119 63.3756 20.1664 63.4417 20.0076 63.4946C19.7166 63.6533 19.3727 63.7062 18.9759 63.6533C18.8172 63.6533 18.6717 63.6269 18.5394 63.574C18.4072 63.5211 18.2749 63.4549 18.1426 63.3756C18.0104 63.2962 17.8649 63.2168 17.7061 63.1375C17.5739 63.0317 17.4416 62.9258 17.3093 62.82C17.1506 62.6877 17.0051 62.5687 16.8728 62.4629C16.7406 62.3571 16.6215 62.238 16.5157 62.1058C16.3834 61.9735 16.2644 61.8412 16.1586 61.7089C16.0528 61.5767 15.9469 61.4576 15.8411 61.3518L15.365 60.836L7.7462 52.8601L7.86524 60.836V61.1931C7.86524 61.2989 7.85202 61.418 7.82556 61.5502C7.79911 61.656 7.77265 61.7751 7.7462 61.9074C7.66684 62.2513 7.57425 62.5555 7.46843 62.82C7.41552 62.9787 7.33616 63.111 7.23035 63.2168C7.15098 63.3226 7.0584 63.4285 6.95258 63.5343C6.66158 63.7988 6.31768 63.9443 5.92087 63.9708C5.52406 64.103 5.15371 64.1427 4.8098 64.0898C4.49235 64.0634 4.16168 63.9708 3.81778 63.812C3.55324 63.6533 3.31515 63.3888 3.10352 63.0184C3.05061 62.9126 3.01093 62.8465 2.98448 62.82C2.98448 62.7936 2.95802 62.701 2.90511 62.5423C2.74639 62.2777 2.66703 62.0132 2.66703 61.7486C2.64057 61.5899 2.61412 61.4444 2.58766 61.3121C2.58766 61.1799 2.57444 61.0344 2.54798 60.8756C2.52153 60.7698 2.5083 60.664 2.5083 60.5582C2.5083 60.4524 2.5083 60.3466 2.5083 60.2408C2.53476 60.1085 2.54798 60.0027 2.54798 59.9233C2.54798 59.8175 2.54798 59.6984 2.54798 59.5662L2.5083 56.4314L2.46862 50.5983C2.46862 48.9052 2.42894 47.0799 2.34958 45.1223C2.32312 44.1699 2.3099 43.3234 2.3099 42.5827C2.3099 41.842 2.32312 41.0087 2.34958 40.0828V39.9241C2.40249 39.6331 2.42894 39.3553 2.42894 39.0908C2.42894 38.7998 2.44217 38.522 2.46862 38.2575C2.46862 37.7284 2.58766 37.1993 2.82575 36.6702C2.98448 36.2734 3.26224 35.956 3.65905 35.7179C3.87069 35.5856 4.06909 35.5062 4.25427 35.4798C4.4659 35.4269 4.69076 35.374 4.92885 35.3211C5.11402 35.3211 5.28598 35.3343 5.4447 35.3607C5.62988 35.3872 5.80183 35.4137 5.96055 35.4401C6.30446 35.493 6.6219 35.6385 6.9129 35.8766C6.99226 35.956 7.0584 36.0485 7.1113 36.1544C7.19067 36.2602 7.2568 36.3924 7.30971 36.5512C7.44198 36.7628 7.53457 37.067 7.58748 37.4638C7.61393 37.6226 7.62716 37.7813 7.62716 37.94C7.65361 38.0987 7.66684 38.2707 7.66684 38.4559V40.0828L7.70652 44.9239C8.12978 44.5535 8.53982 44.1699 8.93663 43.7731C9.3599 43.3763 9.76993 42.953 10.1667 42.5033C10.881 41.7626 11.582 41.0484 12.2698 40.3606C12.9841 39.6463 13.6984 38.9453 14.4126 38.2575L14.5317 38.1384C14.7433 37.9268 14.9549 37.7284 15.1666 37.5432C15.4046 37.3316 15.6295 37.1332 15.8411 36.948C16.2379 36.4983 16.7273 36.1808 17.3093 35.9956C17.6797 35.7576 18.1162 35.665 18.6188 35.7179C18.8569 35.7443 19.0685 35.7972 19.2537 35.8766C19.4653 35.956 19.6637 36.0618 19.8489 36.194C19.9812 36.3263 20.1135 36.4454 20.2457 36.5512C20.378 36.6305 20.4838 36.7364 20.5632 36.8686C20.7748 37.0538 20.9071 37.3316 20.96 37.7019C20.96 37.9929 20.9071 38.2575 20.8013 38.4955C20.7219 38.6278 20.6425 38.7601 20.5632 38.8924C20.4838 39.0246 20.3912 39.1569 20.2854 39.2892C20.1531 39.4479 20.0341 39.5934 19.9283 39.7257C19.8225 39.8579 19.7034 39.9902 19.5711 40.1225C19.4653 40.2547 19.3463 40.3738 19.214 40.4796C19.1082 40.5854 19.0024 40.7045 18.8966 40.8367L18.3807 41.3526L10.9604 48.9317C11.3572 49.3285 11.7672 49.7517 12.1905 50.2014C12.6402 50.6247 13.0635 51.048 13.4603 51.4712C13.8571 51.8681 14.2274 52.2516 14.5713 52.622C14.9152 52.9659 15.2062 53.2569 15.4443 53.495C16.1586 54.2357 16.8464 54.9764 17.5077 55.7171C18.1691 56.4314 18.8172 57.1589 19.4521 57.8996L19.5711 58.0186C19.7828 58.2302 19.9812 58.4551 20.1664 58.6932C20.3515 58.9048 20.5235 59.1165 20.6822 59.3281C21.079 59.7778 21.3568 60.2672 21.5155 60.7963ZM30.1793 60.4788C30.1529 60.6111 30.1264 60.7434 30.1 60.8756C30.1 60.9815 30.1 61.1005 30.1 61.2328L29.8619 62.0661C29.809 62.1719 29.7693 62.238 29.7428 62.2645L29.6238 62.5026C29.4915 62.7936 29.2534 63.0317 28.9095 63.2168C28.2746 63.5343 27.6 63.6136 26.8858 63.4549C26.4361 63.402 26.0789 63.2697 25.8144 63.0581C25.5499 62.8729 25.3647 62.6481 25.2589 62.3835C25.153 62.119 25.0737 61.8544 25.0208 61.5899C24.9414 61.3254 24.9017 61.0873 24.9017 60.8756V38.6543C24.9017 38.4691 24.9017 38.3104 24.9017 38.1781C24.9282 38.0194 24.9546 37.8739 24.9811 37.7416C25.0076 37.5564 25.034 37.3977 25.0605 37.2654C25.1134 37.1332 25.1663 36.9877 25.2192 36.8289C25.2985 36.5644 25.444 36.3528 25.6557 36.194C25.9731 35.956 26.2773 35.8237 26.5683 35.7972C26.7535 35.7443 26.9255 35.7179 27.0842 35.7179C27.2429 35.6914 27.4281 35.6782 27.6397 35.6782C28.0101 35.6782 28.4333 35.784 28.9095 35.9956C29.2799 36.2073 29.5444 36.4983 29.7031 36.8686C29.9677 37.3977 30.1 37.8871 30.1 38.3368C30.1264 38.6014 30.1396 38.9982 30.1396 39.5272C30.1661 40.0563 30.1793 40.4531 30.1793 40.7177V40.8764C30.2322 41.7229 30.2587 42.543 30.2587 43.3366C30.2587 44.1038 30.2454 44.9503 30.219 45.8762C30.219 46.7757 30.2058 47.6486 30.1793 48.4952C30.1793 49.3152 30.1793 50.1353 30.1793 50.9554V59.2884C30.1793 59.3942 30.1793 59.5 30.1793 59.6059C30.2058 59.6852 30.219 59.7778 30.219 59.8836C30.219 60.1482 30.2058 60.3466 30.1793 60.4788ZM39.6172 48.6142C39.6172 49.3549 39.6172 50.1882 39.6172 51.1141C39.6437 52.04 39.6569 53.0056 39.6569 54.0108C39.6569 54.9896 39.6569 55.9684 39.6569 56.9472C39.6569 57.8996 39.6437 58.7858 39.6172 59.6059C39.5907 60.0027 39.5511 60.4392 39.4982 60.9153C39.4452 61.365 39.3394 61.7883 39.1807 62.1851C39.022 62.5819 38.7707 62.9126 38.4268 63.1771C38.1093 63.4152 37.6728 63.5211 37.1173 63.4946C36.2972 63.4417 35.702 63.0846 35.3316 62.4232C34.9877 61.7619 34.7893 60.836 34.7364 59.6455C34.7364 59.0371 34.7232 58.3361 34.6968 57.5424C34.6968 56.7488 34.6835 55.942 34.6571 55.1219C34.6571 54.3018 34.6571 53.5082 34.6571 52.741C34.6571 51.9474 34.6571 51.2332 34.6571 50.5983C34.6571 50.2279 34.6438 49.7782 34.6174 49.2491C34.6174 48.72 34.6306 48.1777 34.6571 47.6222C34.6835 47.0666 34.7497 46.5376 34.8555 46.0349C34.9613 45.5059 35.1332 45.0694 35.3713 44.7255C35.5565 44.5138 35.821 44.3551 36.1649 44.2493C36.5089 44.117 36.866 44.0509 37.2363 44.0509C37.6331 44.0509 38.0035 44.117 38.3474 44.2493C38.7178 44.3816 38.9823 44.5667 39.141 44.8048C39.2468 44.9636 39.3262 45.1884 39.3791 45.4794C39.432 45.7704 39.4717 46.1011 39.4982 46.4714C39.5511 46.8153 39.5775 47.1857 39.5775 47.5825C39.604 47.9529 39.6172 48.2968 39.6172 48.6142ZM38.1093 40.5986C37.2892 40.8103 36.6014 40.7309 36.0459 40.3606C35.5168 39.9637 35.1862 39.3818 35.0539 38.6146C34.9481 38.0591 34.9877 37.5697 35.1729 37.1464C35.3581 36.7231 35.6359 36.4057 36.0062 36.194C36.3766 35.956 36.7998 35.8501 37.276 35.8766C37.7522 35.903 38.2284 36.0882 38.7045 36.4321C39.1543 36.7496 39.4717 37.1199 39.6569 37.5432C39.8685 37.9665 39.9346 38.3765 39.8553 38.7733C39.8024 39.1701 39.6304 39.5405 39.3394 39.8844C39.0484 40.2018 38.6384 40.4399 38.1093 40.5986Z" fill="white"/>
<path d="M73.4756 60.7963C73.4492 61.1137 73.4095 61.4444 73.3566 61.7883C73.3037 62.1322 73.2111 62.4497 73.0788 62.7407C72.9466 63.0581 72.7746 63.2962 72.563 63.4549C72.272 63.7195 71.9281 63.865 71.5313 63.8914C71.1609 64.0237 70.8038 64.0634 70.4599 64.0104C70.116 63.9575 69.7985 63.865 69.5075 63.7327C69.1372 63.4946 68.8594 63.2168 68.6742 62.8994C68.5155 62.5555 68.3965 62.1983 68.3171 61.828C68.2378 61.4576 68.1981 61.0741 68.1981 60.6772C68.1981 60.2804 68.1981 59.9101 68.1981 59.5662V56.4711L68.1584 50.3999C68.1584 49.9766 68.1584 49.6459 68.1584 49.4078C68.1584 49.1697 68.1584 48.9581 68.1584 48.7729C68.1584 48.5613 68.1452 48.3364 68.1187 48.0984C68.1187 47.8338 68.1187 47.4635 68.1187 46.9873C68.1187 46.9079 68.1187 46.7757 68.1187 46.5905C68.1452 46.3788 68.1319 45.8365 68.079 44.9636C67.0473 46.6831 66.1876 48.0719 65.4998 49.1301C64.8384 50.1618 64.2696 50.9686 63.7935 51.5506C63.3438 52.1061 62.9469 52.4897 62.603 52.7014C62.2591 52.8865 61.902 52.9923 61.5317 53.0188C61.32 53.0453 61.1084 53.0056 60.8968 52.8998C60.6851 52.7939 60.4735 52.6617 60.2619 52.5029C60.0767 52.3442 59.8915 52.1855 59.7063 52.0268C59.5476 51.8416 59.4153 51.6696 59.3095 51.5109C58.6746 50.7173 57.9604 49.765 57.1667 48.6539C56.3731 47.5428 55.553 46.1937 54.7065 44.6064C54.7065 44.6329 54.6933 45.0694 54.6668 45.9159C54.6668 46.7624 54.6668 47.8206 54.6668 49.0904C54.6668 50.3337 54.6536 51.6829 54.6272 53.1378C54.6272 54.5664 54.6139 55.9023 54.5875 57.1456C54.5875 58.389 54.5742 59.4339 54.5478 60.2804C54.5213 61.1005 54.4949 61.5105 54.4684 61.5105C54.4684 61.9603 54.3626 62.3835 54.151 62.7803C53.9394 63.1507 53.6484 63.4549 53.278 63.693C52.9341 63.9311 52.5241 64.0634 52.0479 64.0898C51.5717 64.1163 51.0559 63.984 50.5003 63.693C50.1564 63.4814 49.8919 63.1771 49.7067 62.7803C49.548 62.3835 49.4422 62.0132 49.3893 61.6693C49.3628 61.2989 49.3364 60.9418 49.3099 60.5979C49.3099 60.254 49.3099 59.8968 49.3099 59.5265L49.3496 56.4314L49.3893 50.3205V45.0032C49.3893 42.7017 49.4686 40.4399 49.6273 38.2178C49.6273 37.9268 49.6538 37.6622 49.7067 37.4242C49.7861 37.1596 49.8787 36.9083 49.9845 36.6702C50.1961 36.247 50.4739 35.9295 50.8178 35.7179C51.2146 35.4798 51.6379 35.3607 52.0876 35.3607C52.2727 35.3607 52.4447 35.374 52.6034 35.4004C52.7886 35.4004 52.9606 35.4137 53.1193 35.4401C53.6484 35.5459 54.0981 35.8634 54.4684 36.3924C54.8652 36.8951 55.2356 37.3316 55.5795 37.7019C55.7911 37.94 56.016 38.231 56.2541 38.5749C56.4922 38.9188 56.7303 39.2759 56.9683 39.6463C57.2064 40.0167 57.4313 40.3738 57.6429 40.7177C57.8545 41.0616 58.0397 41.3658 58.1984 41.6303C58.8863 42.7414 59.4947 43.7599 60.0238 44.6858C60.5793 45.6117 61.0952 46.4053 61.5713 47.0666C61.6507 46.9873 61.7433 46.8815 61.8491 46.7492C61.9549 46.5905 62.0607 46.4318 62.1666 46.273C62.2988 46.0878 62.4046 45.9159 62.484 45.7572C62.5898 45.5984 62.6692 45.4662 62.7221 45.3604C62.9866 44.9371 63.2512 44.5271 63.5157 44.1303C63.7802 43.707 64.058 43.2705 64.349 42.8208C64.6665 42.3446 64.9839 41.8288 65.3014 41.2732C65.6453 40.7177 66.0421 40.0828 66.4918 39.3685C66.677 39.0511 66.9151 38.6675 67.206 38.2178C67.497 37.7681 67.8277 37.3316 68.1981 36.9083C68.5684 36.485 68.952 36.1279 69.3488 35.8369C69.7721 35.5195 70.1954 35.3607 70.6186 35.3607C70.8302 35.3607 71.0154 35.374 71.1741 35.4004C71.3329 35.4004 71.4916 35.4137 71.6503 35.4401C71.9678 35.4666 72.272 35.6121 72.563 35.8766C72.7746 36.0882 72.9333 36.3131 73.0392 36.5512C73.145 36.8951 73.2111 37.1861 73.2376 37.4242C73.264 37.6093 73.2772 37.7813 73.2772 37.94C73.3037 38.0987 73.3169 38.2575 73.3169 38.4162C73.3169 39.8976 73.3302 41.3658 73.3566 42.8208C73.3831 44.2757 73.3963 45.7439 73.3963 47.2254C73.3963 49.0242 73.3963 50.876 73.3963 52.7807C73.4227 54.6854 73.436 56.5372 73.436 58.3361C73.436 58.7064 73.4492 59.1032 73.4756 59.5265C73.5021 59.9498 73.5021 60.373 73.4756 60.7963Z" fill="#441263"/>
</svg>
