<svg width="250" height="262" viewBox="0 0 250 262" fill="none" xmlns="http://www.w3.org/2000/svg">
<path d="M203.457 68.9765L194.103 74.8736" stroke="white" stroke-width="1.02324"/>
<path d="M195.803 58.9177L217.262 55.084C217.481 55.0449 218.313 56.0702 218.701 56.5877L219.771 60.2322L227.883 63.5682L248.611 134.204L225.734 144.237C222.015 143.651 214.438 142.428 213.877 142.228C213.317 142.027 213 141.608 212.911 141.423L193.881 74.7572L196.502 64.3792L195.637 61.4302C195.064 60.107 195.359 59.4585 195.803 58.9177Z" stroke="white" stroke-width="1.62756"/>
<path d="M196.578 64.5189L206.193 62.5706M206.193 62.5706C206.124 61.8955 206.07 60.4335 206.405 59.9862M206.193 62.5706L206.285 62.8832C206.427 63.6984 207.609 65.3468 211.2 65.4183C214.791 65.4898 216.686 64.2773 217.185 63.6621C217.269 62.6931 217.348 60.6325 216.995 60.1425M206.405 59.9862C206.823 59.4269 213.267 57.5844 216.554 59.5301C216.935 59.7554 217.063 59.96 216.995 60.1425M206.405 59.9862C204.534 61.6502 216.476 61.5362 216.995 60.1425" stroke="white" stroke-width="0.813781"/>
<path d="M217.232 61.5212C216.843 62.2983 215.247 63.8182 211.982 63.68C207.901 63.5072 206.396 62.9549 206.111 62.2593" stroke="white" stroke-width="0.813781"/>
<path d="M196.515 64.808C198.769 65.8511 203.334 68.0413 203.559 68.4566C203.784 68.8719 218.471 119.125 225.786 144.199" stroke="white" stroke-width="1.62756"/>
<path d="M203.783 68.9794L227.911 63.5633" stroke="white" stroke-width="1.62756"/>
<path d="M219.729 60.399L217.433 60.793" stroke="white" stroke-width="0.511621"/>
<g clip-path="url(#clip0_1467_2995)">
<path d="M90.4471 43.0088C90.0397 44.4236 90.2111 45.9422 90.9234 47.2306C91.6357 48.5191 92.8307 49.4717 94.2454 49.8791C109.566 54.2904 125.56 45.4478 129.971 30.1277C130.378 28.713 130.207 27.1944 129.495 25.9059C128.782 24.6175 127.587 23.6648 126.172 23.2575C124.758 22.8501 123.239 23.0214 121.951 23.7338C120.662 24.4461 119.71 25.6411 119.302 27.0558C117.999 31.583 114.95 35.4069 110.827 37.6864C106.704 39.9658 101.845 40.5141 97.3174 39.2105C95.9026 38.8031 94.384 38.9745 93.0956 39.6868C91.8071 40.3991 90.8545 41.5941 90.4471 43.0088Z" stroke="white" stroke-width="1.62756" stroke-linecap="round" stroke-linejoin="round"/>
<path d="M90.3007 43.6713L85.293 45.1015C84.9119 45.2104 84.5086 45.2153 84.125 45.1156C83.7414 45.016 83.3914 44.8155 83.1114 44.5349C82.8315 44.2543 82.6317 43.904 82.5329 43.5201C82.4341 43.1363 82.4398 42.733 82.5494 42.3521L83.4047 39.382C83.5143 39.0011 83.724 38.6565 84.0118 38.384C84.2996 38.1115 84.6551 37.921 85.0414 37.8323C85.4277 37.7436 85.8307 37.7599 86.2086 37.8795C86.5864 37.9991 86.9254 38.2177 87.1903 38.5126L90.6715 42.3917M125.575 23.1269L124.145 18.1193C124.036 17.7382 124.031 17.3349 124.131 16.9512C124.23 16.5676 124.431 16.2176 124.711 15.9377C124.992 15.6577 125.342 15.4579 125.726 15.3591C126.11 15.2603 126.513 15.266 126.894 15.3757L129.864 16.2309C130.245 16.3406 130.59 16.5502 130.862 16.838C131.135 17.1258 131.325 17.4813 131.414 17.8676C131.503 18.2539 131.487 18.6569 131.367 19.0348C131.247 19.4127 131.029 19.7516 130.734 20.0165L126.854 23.4998" stroke="white" stroke-width="1.22067" stroke-linecap="round" stroke-linejoin="round"/>
</g>
<g clip-path="url(#clip1_1467_2995)">
<path d="M63.1907 206.226L62.953 206.276L62.7542 206.416C59.5328 208.66 56.0313 209.719 52.7484 208.836C49.485 207.953 46.0725 205.047 43.2412 198.555C40.3451 191.914 40.6652 188.564 42.2054 186.719C43.0125 185.754 44.2803 185.022 46.0606 184.478C47.84 183.935 50.0257 183.611 52.5508 183.384L52.9925 183.343L53.305 183.027C56.3476 179.947 59.413 177.937 62.2134 178.009C64.8392 178.074 67.8532 180.034 70.7065 186.577C73.5384 193.071 73.3471 197.547 71.7715 200.538C70.1862 203.548 67.0278 205.393 63.1907 206.226Z" stroke="white" stroke-width="1.4667"/>
<path d="M52.7648 182.915C51.1462 179.204 49.0141 178.367 46.0449 179.662" stroke="white" stroke-width="1.4667" stroke-linecap="round" stroke-linejoin="round"/>
</g>
<g clip-path="url(#clip2_1467_2995)">
<path d="M147.195 217.039C141.616 217.103 136.129 220.249 132.899 221.828C132.278 220.919 131.605 220.047 130.882 219.218C127.724 215.581 123.263 214.2 123.263 214.2C123.263 214.2 123.22 219.845 125.672 223.511C121.87 225.748 119.455 230.851 119.455 230.851C119.455 230.851 124.073 231.546 128.498 229.643C129.501 229.214 130.478 228.726 131.423 228.182C133.641 231.009 137.233 236.242 142.235 238.73L139.231 244.189C143.502 244.434 148.301 242.366 150.259 241.416C163.878 243.9 170.864 236.389 171.412 233.99C171.937 231.696 168.935 221.791 155.63 218.12C154.302 216.445 150.849 212.466 146.862 210.817L147.195 217.039Z" stroke="white" stroke-width="1.22067" stroke-linejoin="round"/>
<path d="M163.069 232.081C163.991 232.292 164.909 231.716 165.12 230.794C165.33 229.873 164.754 228.955 163.833 228.744C162.911 228.533 161.993 229.109 161.782 230.031C161.572 230.952 162.148 231.87 163.069 232.081Z" fill="white"/>
<path d="M156.76 241.613C155.646 238.025 155.501 234.205 156.338 230.543C157.176 226.88 158.967 223.503 161.53 220.756" stroke="white" stroke-width="1.22067" stroke-miterlimit="20" stroke-linecap="round"/>
</g>
<g clip-path="url(#clip3_1467_2995)" filter="url(#filter0_d_1467_2995)">
<path d="M11.8902 102.071C9.56814 110.012 10.5751 118.337 15.0103 124.689C15.3594 125.189 15.9392 125.485 16.5621 125.48L17.8252 125.47C18.3466 125.466 18.8462 125.243 19.1965 124.858C19.5489 124.471 19.724 123.949 19.6798 123.426C19.1084 116.737 21.3307 109.218 25.7771 102.796C29.9365 96.7904 35.552 92.3339 41.5913 90.2478C47.565 88.1841 53.233 88.6945 57.5514 91.6851C57.7516 91.8231 58.0154 91.8263 58.2191 91.6926C60.4936 90.1962 61.9906 88.2469 62.7968 85.7314C62.7981 85.7269 62.7996 85.7217 62.8009 85.7171C62.8597 85.5162 62.8087 85.2993 62.6667 85.1453C62.5209 84.9871 62.3018 84.9206 62.0924 84.9693C59.2427 85.6383 56.7036 84.9557 52.7489 83.3652C47.3322 79.6397 40.5683 78.5628 33.6962 80.3347C26.8311 82.1036 20.6759 86.508 16.3648 92.7354C14.3278 95.6771 12.8339 98.8422 11.8902 102.071ZM18.4665 123.786C18.4376 123.885 18.3866 123.977 18.315 124.056C18.1854 124.197 18.0088 124.276 17.8163 124.278L16.5532 124.288C16.3239 124.29 16.113 124.185 15.9885 124.006C10.0346 115.48 10.5793 103.186 17.3464 93.4144C21.4942 87.4227 27.4071 83.188 33.9942 81.49C40.5498 79.7997 46.9887 80.8275 52.1252 84.3848C52.162 84.4098 52.2011 84.4312 52.2418 84.4474C55.9045 85.9227 58.5497 86.6885 61.3057 86.3253C60.585 88.0168 59.4792 89.3571 57.8903 90.4748C53.2979 87.4669 47.3903 86.9833 41.2023 89.1211C34.9252 91.2894 29.0991 95.905 24.7972 102.118C20.1964 108.764 17.8965 116.568 18.492 123.529C18.4993 123.617 18.4905 123.704 18.4665 123.786Z" fill="white"/>
<path d="M29.1548 89.3458C29.1079 89.5061 29.1282 89.6854 29.2264 89.8365C29.4053 90.1131 29.774 90.193 30.0507 90.0141C32.811 88.2327 35.9233 86.9334 39.2998 86.1524C39.6211 86.078 39.8209 85.7579 39.7464 85.4366C39.6718 85.1159 39.3517 84.9161 39.0306 84.99C35.5187 85.8028 32.2801 87.1559 29.4034 89.012C29.2784 89.0929 29.1936 89.2129 29.1548 89.3458Z" fill="white"/>
<path d="M23.1887 94.4611C23.1262 94.6747 23.1862 94.914 23.3618 95.0722C23.6069 95.2924 23.9844 95.2723 24.2044 95.0277C24.8693 94.2881 25.5652 93.5848 26.2722 92.9371C26.5135 92.7131 26.5308 92.3372 26.3092 92.094C26.0863 91.8511 25.7089 91.8347 25.4662 92.057C24.7309 92.7313 24.0077 93.462 23.3172 94.2296C23.256 94.2987 23.2129 94.3781 23.1887 94.4611Z" fill="white"/>
<path d="M18.7956 116.615C18.7692 116.705 18.7636 116.803 18.7843 116.902C19.9066 122.332 22.6836 127.09 26.6037 130.299C27.0484 130.664 27.6503 130.784 28.2134 130.62L29.3231 130.297C29.7944 130.16 30.1903 129.83 30.4097 129.392C30.6309 128.952 30.657 128.434 30.4823 127.971C28.3201 122.234 28.4032 115.071 30.7237 108.321C35.1719 95.356 46.4559 87.4372 55.8776 90.67C56.1895 90.7767 56.5287 90.6111 56.6354 90.2993C56.742 89.9899 56.5765 89.6482 56.2647 89.5415C46.2205 86.0957 34.2563 94.347 29.5952 107.934C27.1899 114.94 27.1075 122.398 29.3659 128.391C29.4243 128.546 29.4167 128.71 29.3428 128.859C29.2704 129.002 29.1455 129.106 28.99 129.151L27.8797 129.474C27.6943 129.528 27.4999 129.491 27.3596 129.376C23.6502 126.338 21.0193 121.822 19.9525 116.66C19.8859 116.338 19.5705 116.13 19.2478 116.197C19.0236 116.243 18.8556 116.41 18.7956 116.615Z" fill="white"/>
<path d="M27.8509 116.18C27.8192 116.289 27.8182 116.407 27.8538 116.523C29.8479 122.982 34.4067 128.137 40.0482 130.313C40.5364 130.501 41.0905 130.434 41.5302 130.133L42.3554 129.567C42.7238 129.315 42.9721 128.916 43.037 128.475C43.1019 128.032 42.9771 127.577 42.6951 127.226C39.3802 123.113 37.524 117.227 37.6013 111.076C37.6733 105.328 39.4044 99.9207 42.4759 95.8527C45.5035 91.8415 49.4381 89.6615 53.5556 89.713C53.8848 89.7179 54.1545 89.4543 54.1595 89.1246C54.1638 88.7952 53.8998 88.5248 53.5703 88.521C49.0648 88.4642 44.7863 90.8128 41.524 95.1338C38.3005 99.4028 36.4839 105.06 36.4082 111.061C36.3277 117.484 38.2807 123.649 41.7664 127.975C41.8422 128.068 41.874 128.185 41.8572 128.302C41.841 128.419 41.778 128.517 41.681 128.584L40.8564 129.149C40.7414 129.228 40.599 129.247 40.4778 129.201C35.1741 127.155 30.8807 122.284 28.9936 116.172C28.8967 115.857 28.5623 115.681 28.2475 115.778C28.0484 115.839 27.9052 115.994 27.8509 116.18Z" fill="white"/>
</g>
<path d="M131.077 187.416C162.364 187.416 187.726 162.054 187.726 130.768C187.726 99.4817 162.364 74.1193 131.077 74.1193C99.7914 74.1193 74.429 99.4817 74.429 130.768C74.429 162.054 99.7914 187.416 131.077 187.416Z" fill="#4C9BDD"/>
<path d="M149.412 153.568L146.495 158.387C145.635 159.807 145.181 161.436 145.181 163.096V163.24C145.181 164.649 144.039 165.791 142.63 165.792C140.184 165.793 138.2 163.811 138.2 161.365C138.2 159.052 137.282 156.834 135.646 155.199L134.567 154.119C132.505 152.057 131.347 149.26 131.347 146.344V139.416C131.347 137.228 129.573 135.455 127.386 135.455H126.564C123.3 135.455 120.654 132.809 120.654 129.545V125.939C120.654 122.514 123.431 119.737 126.856 119.737H146.607L152.96 126.09C154.802 127.932 155.837 130.43 155.837 133.035V135.729C155.837 137.193 157.023 138.379 158.487 138.379C159.636 138.379 160.214 139.768 159.404 140.583L156.783 143.219C154.85 145.164 153.158 147.335 151.745 149.686L149.412 153.568Z" fill="#92DD8C"/>
<path d="M138.794 85.1674H147.414C149.037 85.1674 150.352 86.4828 150.352 88.1056C150.352 89.7284 149.037 91.0438 147.414 91.0438H135.504H124.446C123.055 91.0438 121.928 92.1714 121.928 93.5619V94.0386C121.928 95.1458 121.488 96.2075 120.705 96.9905L119.33 98.3656C117.462 100.234 116.413 102.767 116.413 105.409V108.6C116.413 109.714 117.315 110.616 118.429 110.616H120.799C122.711 110.616 124.261 109.066 124.261 107.154C124.261 105.975 124.729 104.845 125.563 104.012L126.778 102.797C127.611 101.963 128.742 101.495 129.92 101.495H134.605C137.354 101.495 139.989 102.587 141.933 104.53L144.272 106.87C147.011 109.608 148.549 113.322 148.549 117.195V121.434H152.403C156.115 121.434 159.675 122.909 162.3 125.534L164.173 127.407C166.147 129.38 169.346 129.38 171.32 127.407C173.329 125.397 173.329 122.139 171.32 120.129L170.544 119.353C168.885 117.695 170.06 114.859 172.406 114.859H178.565H185.141C185.102 114.82 185.073 114.336 185.054 113.535C180.022 97.7615 168.27 84.9878 153.161 78.5858H138.795C136.977 78.5858 135.504 80.0591 135.504 81.8766C135.504 83.6941 136.977 85.1674 138.794 85.1674Z" fill="#92DD8C"/>
<path d="M107.927 143.705V139.5C107.927 136.489 106.731 133.602 104.602 131.473L104.557 131.427C103.184 130.054 101.321 129.283 99.379 129.283C97.518 129.283 95.7333 128.543 94.4174 127.228L92.3534 125.164C90.2369 123.047 87.3667 121.858 84.3737 121.858H75.6844L75.0293 122.513C74.636 125.208 74.429 127.964 74.429 130.767C74.429 147.84 81.9818 163.147 93.9271 173.533V171.138C93.9271 166.342 95.8327 161.741 99.2246 158.349L103.726 153.848C106.416 151.158 107.927 147.509 107.927 143.705Z" fill="#92DD8C"/>
<path d="M172.796 89.0493C161.653 77.9058 146.837 71.7689 131.077 71.7689C115.318 71.7689 100.502 77.9058 89.3588 89.0493C78.2152 100.193 72.0784 115.009 72.0784 130.768C72.0784 146.527 78.2152 161.343 89.3588 172.487C100.502 183.63 115.318 189.767 131.077 189.767C146.837 189.767 161.653 183.63 172.796 172.487C183.94 161.343 190.077 146.527 190.077 130.768C190.077 115.009 183.94 100.193 172.796 89.0493ZM182.213 112.508H172.405C170.383 112.508 168.575 113.716 167.801 115.584C167.027 117.453 167.451 119.585 168.881 121.015L169.657 121.791C170.747 122.881 170.747 124.655 169.657 125.745C169.147 126.255 168.468 126.536 167.746 126.536C167.024 126.536 166.346 126.255 165.835 125.745L163.962 123.871C160.874 120.784 156.769 119.084 152.403 119.084H150.899V117.195C150.899 112.666 149.136 108.409 145.934 105.207L143.595 102.868C141.193 100.466 138.001 99.1438 134.604 99.1438H129.92C128.105 99.1438 126.398 99.8506 125.115 101.134L123.9 102.349C122.617 103.632 121.91 105.338 121.91 107.153C121.91 107.766 121.411 108.265 120.798 108.265H118.763V105.408C118.763 103.375 119.554 101.464 120.992 100.026L122.367 98.6516C123.599 97.4192 124.278 95.7806 124.278 94.0377V93.561C124.278 93.4684 124.353 93.3934 124.445 93.3934H147.414C150.33 93.3934 152.703 91.021 152.703 88.1046C152.703 85.1883 150.33 82.8166 147.414 82.8166H138.794C138.276 82.8166 137.854 82.3949 137.854 81.8763C137.854 81.3578 138.276 80.9361 138.794 80.9361H152.631C166.348 86.892 177.142 98.3488 182.213 112.508ZM156.398 140.273L155.117 141.562C153.052 143.639 151.24 145.965 149.731 148.475L147.4 152.353L144.484 157.17C143.402 158.957 142.83 161.006 142.83 163.096V163.241C142.83 163.351 142.74 163.442 142.629 163.442H142.628C142.074 163.442 141.552 163.226 141.16 162.834C140.767 162.442 140.551 161.92 140.551 161.365C140.551 158.408 139.4 155.628 137.309 153.537L136.23 152.458C134.597 150.825 133.697 148.654 133.697 146.344V139.416C133.697 135.936 130.866 133.105 127.386 133.105H126.564C124.602 133.105 123.005 131.508 123.005 129.545V125.939C123.005 123.816 124.733 122.088 126.856 122.088H145.634L151.299 127.753C152.71 129.164 153.487 131.04 153.487 133.035V135.73C153.487 137.742 154.681 139.48 156.398 140.273ZM76.7795 130.768C76.7795 128.548 76.9165 126.36 77.1767 124.209H84.3739C86.7604 124.209 89.0041 125.139 90.6913 126.826L92.7553 128.89C94.5246 130.659 96.8768 131.634 99.379 131.634C100.707 131.634 101.956 132.151 102.895 133.09L102.94 133.135C104.64 134.835 105.577 137.096 105.577 139.501V143.705C105.577 146.909 104.329 149.921 102.064 152.186L97.5625 156.688C94.4028 159.848 92.4056 163.86 91.7848 168.206C82.4921 158.457 76.7795 145.267 76.7795 130.768ZM131.077 185.066C117.847 185.066 105.708 180.307 96.2776 172.414V171.139C96.2776 166.936 97.9143 162.984 100.886 160.012L105.388 155.511C108.541 152.357 110.278 148.165 110.278 143.705V139.501C110.278 135.841 108.852 132.399 106.264 129.811L106.219 129.766C104.392 127.939 101.963 126.933 99.3787 126.933C98.1325 126.933 96.9607 126.447 96.0795 125.566L94.0155 123.502C91.4399 120.927 88.0159 119.509 84.3737 119.509H77.9567C83.1556 94.9537 104.997 76.47 131.077 76.47C132.897 76.47 134.696 76.5617 136.471 76.7375C134.516 77.6246 133.153 79.5937 133.153 81.8763C133.153 84.9871 135.683 87.5177 138.794 87.5177H147.414C147.738 87.5177 148.002 87.7814 148.002 88.1053C148.002 88.4292 147.738 88.693 147.414 88.693H124.446C121.761 88.693 119.577 90.8771 119.577 93.5617V94.0384C119.577 94.5254 119.387 94.9835 119.043 95.3279L117.668 96.703C115.342 99.0284 114.062 102.12 114.062 105.409V108.599C114.062 111.008 116.021 112.967 118.429 112.967H120.798C124.004 112.967 126.611 110.359 126.611 107.154C126.611 106.595 126.829 106.069 127.224 105.674L128.439 104.459C128.487 104.411 128.537 104.366 128.588 104.324C128.627 104.37 128.666 104.415 128.71 104.459L133.395 109.144C132.494 110.063 132.499 111.538 133.411 112.451C133.87 112.91 134.471 113.139 135.073 113.139C135.674 113.139 136.276 112.91 136.735 112.451L138.38 110.805C139.298 109.887 139.298 108.399 138.38 107.481L134.749 103.849C136.835 103.886 138.791 104.713 140.27 106.193L142.61 108.532C144.923 110.846 146.198 113.923 146.198 117.195V117.387H126.856C122.14 117.387 118.304 121.224 118.304 125.939V129.546C118.304 134.1 122.009 137.806 126.564 137.806H127.385C128.273 137.806 128.996 138.528 128.996 139.416V146.345C128.996 149.91 130.384 153.261 132.905 155.782L133.984 156.861C135.187 158.064 135.849 159.664 135.849 161.365C135.849 163.176 136.555 164.879 137.836 166.159C139.116 167.439 140.817 168.143 142.627 168.143C142.628 168.143 142.63 168.143 142.631 168.143C145.333 168.142 147.531 165.943 147.531 163.241V163.096C147.531 161.865 147.868 160.658 148.506 159.605L151.423 154.786C151.424 154.784 151.425 154.782 151.427 154.78L153.76 150.897C155.074 148.711 156.653 146.686 158.451 144.877L161.071 142.241C162.112 141.194 162.418 139.637 161.851 138.274C161.284 136.91 159.964 136.03 158.487 136.03C158.322 136.03 158.188 135.896 158.188 135.731V133.036C158.188 129.785 156.922 126.728 154.623 124.429L154.102 123.908C156.568 124.267 158.844 125.403 160.638 127.196L162.511 129.069C163.955 130.513 165.85 131.235 167.746 131.235C169.642 131.235 171.538 130.513 172.981 129.069C174.397 127.654 175.177 125.771 175.177 123.768C175.177 121.766 174.397 119.883 172.981 118.467L172.206 117.691C172.159 117.645 172.072 117.558 172.145 117.384C172.217 117.21 172.339 117.21 172.405 117.21H183.662C184.78 121.545 185.375 126.088 185.375 130.768C185.375 160.708 161.018 185.066 131.077 185.066Z" fill="#441263"/>
<path d="M115.329 91.7487C116.627 91.7487 117.679 90.6964 117.679 89.3982V84.5781C117.679 83.2799 116.627 82.2275 115.329 82.2275C114.03 82.2275 112.978 83.2799 112.978 84.5781V89.3982C112.978 90.6964 114.03 91.7487 115.329 91.7487Z" fill="#441263"/>
<path d="M177.945 145.725C176.729 145.271 175.375 145.89 174.922 147.106C168.135 165.312 150.515 177.544 131.078 177.544C129.779 177.544 128.727 178.597 128.727 179.895C128.727 181.193 129.779 182.245 131.078 182.245C141.783 182.245 152.046 178.99 160.759 172.832C169.277 166.81 175.698 158.483 179.327 148.748C179.78 147.532 179.162 146.178 177.945 145.725Z" fill="#441263"/>
<path d="M119.662 176.142C117.378 175.569 115.12 174.816 112.95 173.903C111.753 173.399 110.375 173.961 109.872 175.158C109.368 176.354 109.93 177.733 111.127 178.236C113.516 179.242 116.003 180.071 118.518 180.702C118.71 180.75 118.902 180.773 119.091 180.773C120.144 180.773 121.102 180.061 121.37 178.994C121.686 177.735 120.921 176.458 119.662 176.142Z" fill="#441263"/>
<path d="M225.26 194.821C233.562 166.527 230.346 157.769 227.701 156.926" stroke="url(#paint0_linear_1467_2995)" stroke-width="1.41113" stroke-linecap="round"/>
<path d="M215.396 197.503C228.56 171.119 226.94 161.93 224.485 160.634" stroke="url(#paint1_linear_1467_2995)" stroke-width="1.41113" stroke-linecap="round"/>
<path d="M203.744 197.367C221.617 173.916 221.747 164.586 219.578 162.853" stroke="url(#paint2_linear_1467_2995)" stroke-width="1.41113" stroke-linecap="round"/>
<defs>
<filter id="filter0_d_1467_2995" x="-2.78979" y="70.9554" width="73.9148" height="73.9147" filterUnits="userSpaceOnUse" color-interpolation-filters="sRGB">
<feFlood flood-opacity="0" result="BackgroundImageFix"/>
<feColorMatrix in="SourceAlpha" type="matrix" values="0 0 0 0 0 0 0 0 0 0 0 0 0 0 0 0 0 0 127 0" result="hardAlpha"/>
<feOffset dy="3.25512"/>
<feGaussianBlur stdDeviation="1.62756"/>
<feComposite in2="hardAlpha" operator="out"/>
<feColorMatrix type="matrix" values="0 0 0 0 0 0 0 0 0 0 0 0 0 0 0 0 0 0 0.25 0"/>
<feBlend mode="normal" in2="BackgroundImageFix" result="effect1_dropShadow_1467_2995"/>
<feBlend mode="normal" in="SourceGraphic" in2="effect1_dropShadow_1467_2995" result="shape"/>
</filter>
<linearGradient id="paint0_linear_1467_2995" x1="218.086" y1="190.782" x2="234.891" y2="160.934" gradientUnits="userSpaceOnUse">
<stop stop-color="white"/>
<stop offset="1" stop-color="white" stop-opacity="0"/>
</linearGradient>
<linearGradient id="paint1_linear_1467_2995" x1="209.048" y1="192.263" x2="230.855" y2="165.848" gradientUnits="userSpaceOnUse">
<stop stop-color="white"/>
<stop offset="1" stop-color="white" stop-opacity="0"/>
</linearGradient>
<linearGradient id="paint2_linear_1467_2995" x1="198.49" y1="191.03" x2="224.859" y2="169.168" gradientUnits="userSpaceOnUse">
<stop stop-color="white"/>
<stop offset="1" stop-color="white" stop-opacity="0"/>
</linearGradient>
<clipPath id="clip0_1467_2995">
<rect width="53.2899" height="53.2899" fill="white" transform="translate(75.3335 51.3656) rotate(-73.9368)"/>
</clipPath>
<clipPath id="clip1_1467_2995">
<rect width="38.8715" height="38.8715" fill="white" transform="translate(31.3892 182.52) rotate(-23.5624)"/>
</clipPath>
<clipPath id="clip2_1467_2995">
<rect width="54.7729" height="54.7729" fill="white" transform="translate(125.792 195.464) rotate(12.8816)"/>
</clipPath>
<clipPath id="clip3_1467_2995">
<rect width="54.3401" height="54.3401" fill="white" transform="matrix(0.280588 -0.959828 -0.959828 -0.280588 52.6226 138.36)"/>
</clipPath>
</defs>
</svg>
