<svg width="307" height="321" viewBox="0 0 307 321" fill="none" xmlns="http://www.w3.org/2000/svg">
<path d="M249.443 84.5685L237.948 91.815" stroke="white" stroke-width="1.25739"/>
<path d="M240.037 72.208L266.407 67.4971C266.676 67.449 267.698 68.7089 268.175 69.3448L269.489 73.8233L279.458 77.9227L304.929 164.722L276.817 177.051C272.247 176.331 262.936 174.828 262.247 174.582C261.559 174.336 261.169 173.821 261.06 173.594L237.675 91.6722L240.896 78.9193L239.832 75.2955C239.129 73.6695 239.491 72.8726 240.037 72.208Z" stroke="white" stroke-width="2"/>
<path d="M240.99 79.0911L252.805 76.6969M252.805 76.6969C252.721 75.8674 252.654 74.0708 253.065 73.521M252.805 76.6969L252.918 77.0811C253.093 78.0828 254.545 80.1083 258.958 80.1962C263.371 80.2841 265.699 78.7942 266.312 78.0382C266.415 76.8474 266.512 74.3153 266.079 73.7132M253.065 73.521C253.579 72.8339 261.498 70.5696 265.537 72.9606C266.005 73.2375 266.163 73.4889 266.079 73.7132M253.065 73.521C250.767 75.5659 265.441 75.4257 266.079 73.7132" stroke="white"/>
<path d="M266.37 75.4072C265.891 76.3622 263.93 78.2298 259.918 78.06C254.903 77.8477 253.054 77.169 252.704 76.3142" stroke="white"/>
<path d="M240.911 79.4463C243.681 80.7281 249.291 83.4194 249.567 83.9298C249.844 84.4401 267.891 146.192 276.881 177.004" stroke="white" stroke-width="2"/>
<path d="M249.843 84.572L279.492 77.9166" stroke="white" stroke-width="2"/>
<path d="M269.438 74.0284L266.616 74.5125" stroke="white" stroke-width="0.628697"/>
<g clip-path="url(#clip0_1060_2372)">
<path d="M110.572 52.6589C110.072 54.3974 110.282 56.2635 111.158 57.8468C112.033 59.43 113.501 60.6007 115.24 61.1013C134.066 66.522 153.72 55.656 159.14 36.8302C159.641 35.0917 159.43 33.2256 158.555 31.6423C157.68 30.059 156.211 28.8884 154.473 28.3878C152.734 27.8872 150.868 28.0977 149.285 28.9731C147.702 29.8484 146.531 31.3168 146.03 33.0553C144.428 38.6184 140.682 43.3174 135.616 46.1185C130.549 48.9195 124.578 49.5932 119.015 47.9914C117.276 47.4908 115.41 47.7013 113.827 48.5767C112.244 49.452 111.073 50.9204 110.572 52.6589Z" stroke="white" stroke-width="2" stroke-linecap="round" stroke-linejoin="round"/>
<path d="M110.392 53.473L104.239 55.2304C103.77 55.3642 103.275 55.3702 102.803 55.2478C102.332 55.1253 101.902 54.8789 101.558 54.5342C101.214 54.1894 100.968 53.7588 100.847 53.2872C100.725 52.8155 100.733 52.3199 100.867 51.8519L101.918 48.2021C102.053 47.734 102.311 47.3106 102.664 46.9757C103.018 46.6409 103.455 46.4068 103.929 46.2978C104.404 46.1887 104.899 46.2088 105.364 46.3558C105.828 46.5028 106.245 46.7714 106.57 47.1338L110.848 51.9005M153.739 28.2274L151.981 22.0738C151.847 21.6055 151.841 21.1099 151.964 20.6385C152.086 20.1671 152.333 19.737 152.677 19.393C153.022 19.0489 153.453 18.8035 153.924 18.682C154.396 18.5606 154.892 18.5676 155.36 18.7024L159.009 19.7533C159.477 19.8881 159.901 20.1457 160.236 20.4993C160.571 20.853 160.805 21.2899 160.914 21.7646C161.023 22.2393 161.003 22.7345 160.856 23.1988C160.709 23.6632 160.44 24.0797 160.078 24.4052L155.31 28.6856" stroke="white" stroke-width="1.5" stroke-linecap="round" stroke-linejoin="round"/>
</g>
<g clip-path="url(#clip1_1060_2372)">
<path d="M77.0787 253.225L76.7866 253.287L76.5423 253.458C72.5838 256.216 68.2809 257.517 64.2468 256.432C60.2367 255.348 56.0433 251.776 52.5641 243.798C49.0053 235.638 49.3986 231.521 51.2912 229.254C52.2831 228.068 53.841 227.17 56.0286 226.5C58.2152 225.833 60.9011 225.435 64.004 225.156L64.5468 225.106L64.9308 224.717C68.6696 220.933 72.4366 218.463 75.8777 218.551C79.1044 218.632 82.808 221.04 86.3143 229.08C89.7943 237.059 89.5592 242.56 87.623 246.235C85.675 249.934 81.7938 252.202 77.0787 253.225Z" stroke="white" stroke-width="1.80233"/>
<path d="M64.2674 224.58C62.2784 220.02 59.6584 218.991 56.0098 220.582" stroke="white" stroke-width="1.80233" stroke-linecap="round" stroke-linejoin="round"/>
</g>
<g clip-path="url(#clip2_1060_2372)">
<path d="M180.306 266.512C173.45 266.591 166.708 270.457 162.738 272.397C161.976 271.28 161.149 270.209 160.26 269.19C156.379 264.721 150.897 263.023 150.897 263.023C150.897 263.023 150.844 269.96 153.858 274.466C149.185 277.215 146.218 283.485 146.218 283.485C146.218 283.485 151.893 284.339 157.33 282.001C158.563 281.474 159.763 280.874 160.925 280.206C163.65 283.68 168.064 290.11 174.21 293.168L170.519 299.875C175.767 300.176 181.665 297.636 184.071 296.468C200.807 299.52 209.391 290.29 210.065 287.343C210.709 284.523 207.02 272.352 190.671 267.84C189.039 265.783 184.795 260.893 179.897 258.867L180.306 266.512Z" stroke="white" stroke-width="1.5" stroke-linejoin="round"/>
<path d="M199.813 284.997C200.945 285.256 202.073 284.548 202.332 283.415C202.591 282.283 201.883 281.155 200.751 280.896C199.618 280.637 198.49 281.345 198.231 282.477C197.972 283.61 198.68 284.738 199.813 284.997Z" fill="white"/>
<path d="M192.06 296.71C190.691 292.3 190.512 287.607 191.541 283.106C192.571 278.605 194.772 274.456 197.921 271.08" stroke="white" stroke-width="1.5" stroke-miterlimit="20" stroke-linecap="round"/>
</g>
<g clip-path="url(#clip3_1060_2372)" filter="url(#filter0_d_1060_2372)">
<path d="M14.0392 125.236C11.1858 134.994 12.4232 145.225 17.8732 153.03C18.3023 153.644 19.0147 154.008 19.7801 154.002L21.3323 153.99C21.973 153.984 22.5869 153.71 23.0174 153.238C23.4505 152.762 23.6657 152.12 23.6113 151.478C22.9092 143.259 25.64 134.019 31.1039 126.127C36.2151 118.747 43.1156 113.271 50.5369 110.707C57.8775 108.172 64.8426 108.799 70.1492 112.474C70.3952 112.643 70.7193 112.647 70.9697 112.483C73.7646 110.644 75.6042 108.249 76.5948 105.158C76.5965 105.152 76.5983 105.146 76.6 105.14C76.6722 104.893 76.6095 104.627 76.435 104.437C76.2559 104.243 75.9866 104.161 75.7292 104.221C72.2275 105.043 69.1073 104.204 64.2477 102.25C57.5915 97.6719 49.2798 96.3486 40.8351 98.526C32.3991 100.7 24.8354 106.112 19.5377 113.764C17.0346 117.379 15.1989 121.269 14.0392 125.236ZM22.1204 151.921C22.0848 152.042 22.0222 152.155 21.9342 152.252C21.7749 152.426 21.5579 152.523 21.3214 152.525L19.7693 152.537C19.4875 152.539 19.2283 152.41 19.0754 152.191C11.759 141.714 12.4283 126.606 20.7439 114.599C25.8409 107.236 33.1069 102.032 41.2013 99.9457C49.257 97.8685 57.1694 99.1315 63.4813 103.503C63.5265 103.534 63.5746 103.56 63.6245 103.58C68.1254 105.393 71.376 106.334 74.7626 105.887C73.877 107.966 72.5181 109.613 70.5657 110.986C64.9224 107.29 57.6628 106.696 50.0588 109.323C42.3454 111.987 35.1861 117.659 29.8998 125.294C24.2461 133.461 21.42 143.05 22.1517 151.605C22.1606 151.713 22.1498 151.82 22.1204 151.921Z" fill="white"/>
<path d="M35.2563 109.598C35.1987 109.794 35.2236 110.015 35.3442 110.201C35.564 110.54 36.0172 110.639 36.3571 110.419C39.7492 108.23 43.5737 106.633 47.7228 105.673C48.1176 105.582 48.3631 105.189 48.2716 104.794C48.1799 104.4 47.7866 104.154 47.392 104.245C43.0764 105.244 39.0967 106.907 35.5617 109.187C35.4082 109.287 35.304 109.434 35.2563 109.598Z" fill="white"/>
<path d="M27.9248 115.884C27.8481 116.146 27.9217 116.44 28.1375 116.634C28.4387 116.905 28.9026 116.88 29.1729 116.58C29.99 115.671 30.8451 114.807 31.7139 114.011C32.0105 113.735 32.0317 113.274 31.7594 112.975C31.4855 112.676 31.0218 112.656 30.7235 112.929C29.8199 113.758 28.9313 114.656 28.0828 115.599C28.0076 115.684 27.9546 115.781 27.9248 115.884Z" fill="white"/>
<path d="M22.5249 143.108C22.4924 143.219 22.4855 143.339 22.5109 143.461C23.89 150.133 27.3025 155.98 32.1196 159.924C32.6661 160.372 33.4057 160.519 34.0977 160.318L35.4614 159.921C36.0405 159.753 36.5271 159.348 36.7966 158.81C37.0685 158.269 37.1005 157.632 36.8858 157.062C34.2288 150.013 34.3309 141.211 37.1824 132.917C42.6486 116.985 56.5148 107.254 68.0924 111.226C68.4756 111.357 68.8925 111.154 69.0236 110.771C69.1546 110.391 68.9513 109.971 68.5681 109.84C56.2254 105.605 41.5235 115.745 35.7957 132.441C32.84 141.05 32.7387 150.215 35.5139 157.579C35.5858 157.769 35.5764 157.971 35.4855 158.154C35.3966 158.33 35.2432 158.458 35.052 158.513L33.6877 158.909C33.4598 158.976 33.2209 158.931 33.0486 158.789C28.4904 155.056 25.2574 149.507 23.9465 143.164C23.8646 142.767 23.477 142.513 23.0805 142.595C22.8049 142.652 22.5985 142.856 22.5249 143.108Z" fill="white"/>
<path d="M33.6523 142.574C33.6134 142.707 33.6121 142.853 33.6559 142.995C36.1063 150.932 41.7083 157.267 48.6408 159.941C49.2406 160.172 49.9215 160.089 50.4618 159.719L51.4759 159.025C51.9287 158.714 52.2337 158.224 52.3134 157.683C52.3933 157.138 52.2399 156.578 51.8933 156.147C47.8199 151.093 45.5389 143.86 45.6339 136.302C45.7224 129.239 47.8497 122.594 51.624 117.595C55.3444 112.666 60.1794 109.987 65.2391 110.05C65.6436 110.056 65.975 109.732 65.9812 109.327C65.9865 108.922 65.6621 108.59 65.2572 108.585C59.7206 108.516 54.4631 111.402 50.4543 116.711C46.4931 121.957 44.2609 128.909 44.1678 136.283C44.0688 144.176 46.4688 151.752 50.7522 157.067C50.8453 157.182 50.8843 157.326 50.8637 157.47C50.8438 157.613 50.7664 157.734 50.6472 157.816L49.6339 158.511C49.4925 158.607 49.3176 158.631 49.1686 158.574C42.6513 156.06 37.3755 150.075 35.0565 142.564C34.9375 142.177 34.5265 141.961 34.1396 142.08C33.8949 142.154 33.7191 142.346 33.6523 142.574Z" fill="white"/>
</g>
<path d="M160.5 230.111C198.946 230.111 230.112 198.945 230.112 160.5C230.112 122.054 198.946 90.8882 160.5 90.8882C122.055 90.8882 90.8887 122.054 90.8887 160.5C90.8887 198.945 122.055 230.111 160.5 230.111Z" fill="#4C9BDD"/>
<path d="M183.03 188.517L179.446 194.439C178.389 196.184 177.831 198.186 177.831 200.225V200.403C177.831 202.134 176.428 203.538 174.697 203.539C171.691 203.54 169.253 201.104 169.253 198.098C169.253 195.256 168.124 192.531 166.115 190.521L164.789 189.195C162.255 186.661 160.831 183.224 160.831 179.641V171.127C160.831 168.439 158.652 166.26 155.964 166.26H154.954C150.944 166.26 147.692 163.008 147.692 158.997V154.566C147.692 150.357 151.104 146.945 155.313 146.945H179.584L187.391 154.752C189.654 157.015 190.926 160.085 190.926 163.285V166.597C190.926 168.395 192.384 169.853 194.182 169.853C195.595 169.853 196.304 171.559 195.309 172.561L192.088 175.8C189.712 178.19 187.634 180.858 185.898 183.747L183.03 188.517Z" fill="#92DD8C"/>
<path d="M169.983 104.464H180.575C182.569 104.464 184.186 106.081 184.186 108.075C184.186 110.069 182.569 111.685 180.575 111.685H165.939H152.351C150.642 111.685 149.256 113.071 149.256 114.78V115.366C149.256 116.726 148.716 118.031 147.754 118.993L146.064 120.683C143.769 122.978 142.479 126.092 142.479 129.338V133.259C142.479 134.628 143.589 135.737 144.957 135.737H147.869C150.219 135.737 152.124 133.832 152.124 131.482C152.124 130.034 152.699 128.645 153.723 127.621L155.216 126.128C156.24 125.104 157.629 124.528 159.078 124.528H164.835C168.212 124.528 171.451 125.87 173.84 128.258L176.714 131.133C180.079 134.498 181.97 139.062 181.97 143.821V149.03H186.706C191.267 149.03 195.642 150.842 198.867 154.068L201.169 156.37C203.594 158.795 207.526 158.795 209.951 156.37C212.42 153.9 212.42 149.896 209.951 147.426L208.998 146.473C206.959 144.435 208.403 140.95 211.285 140.95H218.854H226.935C226.887 140.902 226.852 140.308 226.828 139.324C220.644 119.94 206.203 104.244 187.637 96.3767H169.983C167.75 96.3767 165.939 98.1872 165.939 100.421C165.939 102.654 167.749 104.464 169.983 104.464Z" fill="#92DD8C"/>
<path d="M132.052 176.397V171.231C132.052 167.53 130.583 163.982 127.966 161.366L127.911 161.31C126.223 159.623 123.935 158.675 121.548 158.675C119.261 158.675 117.068 157.766 115.451 156.149L112.915 153.613C110.314 151.012 106.787 149.551 103.109 149.551H92.4314L91.6264 150.356C91.1431 153.668 90.8887 157.054 90.8887 160.499C90.8887 181.478 100.17 200.288 114.849 213.051V210.108C114.849 204.214 117.19 198.561 121.358 194.393L126.889 188.861C130.195 185.556 132.052 181.072 132.052 176.397Z" fill="#92DD8C"/>
<path d="M211.765 109.235C198.072 95.5412 179.865 88 160.5 88C141.135 88 122.928 95.5412 109.235 109.235C95.5412 122.928 88 141.135 88 160.5C88 179.865 95.5412 198.072 109.235 211.765C122.928 225.459 141.135 233 160.5 233C179.865 233 198.072 225.459 211.765 211.765C225.459 198.072 233 179.865 233 160.5C233 141.135 225.459 122.928 211.765 109.235ZM223.337 138.062H211.285C208.799 138.062 206.579 139.545 205.627 141.842C204.676 144.138 205.197 146.758 206.955 148.515L207.908 149.468C209.247 150.808 209.247 152.988 207.908 154.327C207.281 154.954 206.447 155.3 205.559 155.3C204.672 155.3 203.839 154.954 203.211 154.327L200.909 152.025C197.115 148.231 192.071 146.142 186.705 146.142H184.858V143.821C184.858 138.256 182.691 133.025 178.756 129.09L175.882 126.215C172.931 123.264 169.007 121.639 164.834 121.639H159.077C156.847 121.639 154.75 122.508 153.173 124.084L151.68 125.578C150.103 127.154 149.235 129.251 149.235 131.481C149.235 132.235 148.622 132.847 147.869 132.847H145.367V129.337C145.367 126.839 146.34 124.49 148.106 122.724L149.796 121.034C151.31 119.52 152.144 117.506 152.144 115.365V114.779C152.144 114.665 152.237 114.573 152.35 114.573H180.575C184.158 114.573 187.074 111.658 187.074 108.074C187.074 104.49 184.158 101.576 180.575 101.576H169.982C169.345 101.576 168.827 101.058 168.827 100.42C168.827 99.7831 169.345 99.2649 169.982 99.2649H186.986C203.841 106.584 217.105 120.662 223.337 138.062ZM191.615 172.18L190.04 173.764C187.503 176.316 185.276 179.174 183.422 182.259L180.557 187.025L176.975 192.944C175.645 195.14 174.942 197.658 174.942 200.226V200.403C174.942 200.54 174.831 200.651 174.695 200.651H174.694C174.012 200.651 173.371 200.385 172.889 199.904C172.407 199.422 172.142 198.781 172.142 198.098C172.142 194.465 170.727 191.048 168.157 188.479L166.831 187.153C164.825 185.146 163.719 182.478 163.719 179.641V171.127C163.719 166.851 160.24 163.371 155.963 163.371H154.954C152.543 163.371 150.58 161.41 150.58 158.998V154.566C150.58 151.957 152.704 149.834 155.313 149.834H178.388L185.348 156.795C187.082 158.529 188.037 160.834 188.037 163.286V166.597C188.037 169.07 189.505 171.206 191.615 172.18ZM93.7769 160.5C93.7769 157.772 93.9453 155.084 94.265 152.441H103.109C106.042 152.441 108.799 153.583 110.872 155.656L113.409 158.192C115.583 160.367 118.473 161.564 121.548 161.564C123.18 161.564 124.714 162.199 125.868 163.353L125.924 163.409C128.013 165.498 129.164 168.276 129.164 171.231V176.397C129.164 180.334 127.631 184.036 124.847 186.82L119.316 192.351C115.433 196.234 112.979 201.164 112.216 206.505C100.797 194.526 93.7769 178.317 93.7769 160.5ZM160.5 227.223C144.242 227.223 129.325 221.375 117.737 211.675V210.109C117.737 204.944 119.748 200.088 123.4 196.436L128.932 190.905C132.806 187.03 134.94 181.878 134.94 176.398V171.231C134.94 166.733 133.189 162.505 130.008 159.324L129.953 159.269C127.708 157.024 124.723 155.787 121.548 155.787C120.016 155.787 118.576 155.191 117.493 154.108L114.957 151.572C111.792 148.407 107.585 146.664 103.109 146.664H95.2234C101.612 116.49 128.452 93.7769 160.5 93.7769C162.737 93.7769 164.947 93.8895 167.128 94.1056C164.726 95.1957 163.05 97.6153 163.05 100.42C163.05 104.243 166.16 107.353 169.982 107.353H180.575C180.973 107.353 181.297 107.677 181.297 108.075C181.297 108.473 180.973 108.797 180.575 108.797H152.351C149.052 108.797 146.368 111.481 146.368 114.78V115.365C146.368 115.964 146.135 116.527 145.711 116.95L144.022 118.64C141.164 121.497 139.591 125.297 139.591 129.338V133.258C139.591 136.218 141.998 138.625 144.957 138.625H147.869C151.808 138.625 155.012 135.421 155.012 131.482C155.012 130.795 155.279 130.149 155.765 129.663L157.258 128.17C157.317 128.112 157.378 128.057 157.441 128.004C157.489 128.061 157.537 128.117 157.59 128.17L163.348 133.927C162.241 135.057 162.246 136.87 163.367 137.991C163.931 138.555 164.671 138.837 165.41 138.837C166.149 138.837 166.888 138.555 167.452 137.991L169.474 135.969C170.602 134.841 170.602 133.012 169.474 131.884L165.011 127.421C167.575 127.466 169.979 128.483 171.796 130.301L174.671 133.176C177.514 136.019 179.081 139.8 179.081 143.821V144.057H155.312C149.518 144.057 144.803 148.772 144.803 154.567V158.998C144.803 164.595 149.357 169.149 154.954 169.149H155.963C157.054 169.149 157.942 170.036 157.942 171.127V179.641C157.942 184.022 159.648 188.14 162.745 191.238L164.071 192.564C165.55 194.043 166.364 196.008 166.364 198.099C166.364 200.324 167.231 202.417 168.805 203.99C170.378 205.562 172.469 206.428 174.693 206.428C174.694 206.428 174.696 206.428 174.697 206.428C178.018 206.426 180.719 203.724 180.719 200.404V200.226C180.719 198.713 181.133 197.23 181.917 195.936L185.501 190.014C185.502 190.011 185.504 190.009 185.506 190.006L188.373 185.235C189.988 182.549 191.927 180.06 194.137 177.837L197.357 174.599C198.636 173.312 199.012 171.398 198.316 169.723C197.619 168.048 195.996 166.966 194.182 166.966C193.979 166.966 193.814 166.801 193.814 166.598V163.287C193.814 159.291 192.259 155.536 189.434 152.71L188.794 152.071C191.824 152.511 194.621 153.907 196.825 156.111L199.127 158.413C200.9 160.187 203.23 161.073 205.56 161.073C207.889 161.073 210.219 160.187 211.993 158.413C213.733 156.673 214.691 154.359 214.691 151.898C214.691 149.438 213.733 147.124 211.993 145.384L211.04 144.431C210.983 144.374 210.876 144.267 210.965 144.053C211.053 143.839 211.204 143.839 211.285 143.839H225.117C226.492 149.166 227.223 154.749 227.223 160.5C227.223 197.291 197.291 227.223 160.5 227.223Z" fill="#441263"/>
<path d="M141.148 112.552C142.743 112.552 144.036 111.259 144.036 109.663V103.74C144.036 102.145 142.743 100.852 141.148 100.852C139.552 100.852 138.259 102.145 138.259 103.74V109.663C138.259 111.259 139.552 112.552 141.148 112.552Z" fill="#441263"/>
<path d="M218.093 178.879C216.598 178.322 214.934 179.082 214.377 180.577C206.037 202.949 184.385 217.98 160.5 217.98C158.905 217.98 157.612 219.273 157.612 220.869C157.612 222.464 158.905 223.757 160.5 223.757C173.655 223.757 186.267 219.757 196.973 212.189C207.441 204.79 215.331 194.557 219.79 182.595C220.347 181.1 219.588 179.437 218.093 178.879Z" fill="#441263"/>
<path d="M146.472 216.257C143.666 215.554 140.891 214.627 138.224 213.506C136.753 212.886 135.06 213.578 134.442 215.048C133.823 216.518 134.513 218.212 135.984 218.83C138.92 220.066 141.976 221.086 145.066 221.861C145.302 221.92 145.539 221.948 145.771 221.948C147.065 221.948 148.242 221.073 148.571 219.762C148.959 218.214 148.019 216.645 146.472 216.257Z" fill="#441263"/>
<path d="M276.235 239.21C286.437 204.442 282.486 193.679 279.235 192.644" stroke="url(#paint0_linear_1060_2372)" stroke-width="1.73404" stroke-linecap="round"/>
<path d="M264.114 242.507C280.29 210.084 278.299 198.793 275.282 197.2" stroke="url(#paint1_linear_1060_2372)" stroke-width="1.73404" stroke-linecap="round"/>
<path d="M249.795 242.34C271.757 213.521 271.917 202.057 269.252 199.927" stroke="url(#paint2_linear_1060_2372)" stroke-width="1.73404" stroke-linecap="round"/>
<defs>
<filter id="filter0_d_1060_2372" x="-4.00012" y="87.0005" width="90.8287" height="90.8286" filterUnits="userSpaceOnUse" color-interpolation-filters="sRGB">
<feFlood flood-opacity="0" result="BackgroundImageFix"/>
<feColorMatrix in="SourceAlpha" type="matrix" values="0 0 0 0 0 0 0 0 0 0 0 0 0 0 0 0 0 0 127 0" result="hardAlpha"/>
<feOffset dy="4"/>
<feGaussianBlur stdDeviation="2"/>
<feComposite in2="hardAlpha" operator="out"/>
<feColorMatrix type="matrix" values="0 0 0 0 0 0 0 0 0 0 0 0 0 0 0 0 0 0 0.25 0"/>
<feBlend mode="normal" in2="BackgroundImageFix" result="effect1_dropShadow_1060_2372"/>
<feBlend mode="normal" in="SourceGraphic" in2="effect1_dropShadow_1060_2372" result="shape"/>
</filter>
<linearGradient id="paint0_linear_1060_2372" x1="267.42" y1="234.247" x2="288.07" y2="197.569" gradientUnits="userSpaceOnUse">
<stop stop-color="white"/>
<stop offset="1" stop-color="white" stop-opacity="0"/>
</linearGradient>
<linearGradient id="paint1_linear_1060_2372" x1="256.313" y1="236.067" x2="283.11" y2="203.607" gradientUnits="userSpaceOnUse">
<stop stop-color="white"/>
<stop offset="1" stop-color="white" stop-opacity="0"/>
</linearGradient>
<linearGradient id="paint2_linear_1060_2372" x1="243.338" y1="234.552" x2="275.741" y2="207.687" gradientUnits="userSpaceOnUse">
<stop stop-color="white"/>
<stop offset="1" stop-color="white" stop-opacity="0"/>
</linearGradient>
<clipPath id="clip0_1060_2372">
<rect width="65.4844" height="65.4844" fill="white" transform="translate(92 62.9277) rotate(-73.9368)"/>
</clipPath>
<clipPath id="clip1_1060_2372">
<rect width="47.7666" height="47.7666" fill="white" transform="translate(38 224.095) rotate(-23.5624)"/>
</clipPath>
<clipPath id="clip2_1060_2372">
<rect width="67.3067" height="67.3067" fill="white" transform="translate(154.005 240) rotate(12.8816)"/>
</clipPath>
<clipPath id="clip3_1060_2372">
<rect width="66.7749" height="66.7749" fill="white" transform="matrix(0.280588 -0.959828 -0.959828 -0.280588 64.0923 169.829)"/>
</clipPath>
</defs>
</svg>
