
<svg width="272" height="284" viewBox="0 0 272 284" fill="none" xmlns="http://www.w3.org/2000/svg">
<path d="M220.963 74.9503L210.823 81.3429" stroke="white" stroke-width="1.10923"/>
<path d="M212.666 64.046L235.929 59.8901C236.166 59.8478 237.067 60.9592 237.488 61.5202L238.648 65.4709L247.442 69.0873L269.912 145.659L245.112 156.535C241.081 155.9 232.867 154.574 232.259 154.357C231.652 154.14 231.308 153.685 231.212 153.485L210.582 81.2166L213.424 69.9664L212.486 66.7696C211.865 65.3352 212.185 64.6322 212.666 64.046Z" stroke="white" stroke-width="2.6465"/>
<path d="M213.507 70.118L223.93 68.006M223.93 68.006C223.855 67.2742 223.797 65.6893 224.159 65.2043M223.93 68.006L224.029 68.3448C224.183 69.2286 225.465 71.0154 229.358 71.0929C233.25 71.1705 235.305 69.8561 235.845 69.1892C235.936 68.1387 236.022 65.905 235.639 65.3738M224.159 65.2043C224.612 64.5981 231.598 62.6007 235.161 64.7099C235.574 64.9542 235.713 65.1759 235.639 65.3738M224.159 65.2043C222.131 67.0082 235.076 66.8846 235.639 65.3738" stroke="white" stroke-width="0.882166"/>
<path d="M235.896 66.8684C235.474 67.7109 233.744 69.3585 230.205 69.2086C225.781 69.0214 224.149 68.4226 223.84 67.6686" stroke="white" stroke-width="0.882166"/>
<path d="M213.437 70.4314C215.881 71.5622 220.83 73.9364 221.074 74.3866C221.317 74.8368 237.238 129.312 245.168 156.494" stroke="white" stroke-width="2.6465"/>
<path d="M221.316 74.9534L247.472 69.0822" stroke="white" stroke-width="2.6465"/>
<path d="M238.603 65.6521L236.113 66.0791" stroke="white" stroke-width="0.554615"/>
<g clip-path="url(#clip0_1226_2753)">
<path d="M98.457 46.8001C98.0154 48.3337 98.2012 49.9799 98.9733 51.3766C99.7455 52.7733 101.041 53.8061 102.575 54.2477C119.182 59.0297 136.52 49.444 141.302 32.8365C141.744 31.3029 141.558 29.6566 140.786 28.2599C140.014 26.8633 138.718 25.8305 137.185 25.3889C135.651 24.9473 134.005 25.133 132.608 25.9052C131.211 26.6774 130.179 27.9728 129.737 29.5064C128.324 34.4141 125.019 38.5593 120.55 41.0303C116.08 43.5013 110.812 44.0956 105.905 42.6825C104.371 42.241 102.725 42.4267 101.328 43.1989C99.9314 43.9711 98.8986 45.2664 98.457 46.8001Z" stroke="white" stroke-width="2.6465" stroke-linecap="round" stroke-linejoin="round"/>
<path d="M98.298 47.5179L92.8695 49.0683C92.4564 49.1863 92.0192 49.1916 91.6033 49.0836C91.1875 48.9756 90.8081 48.7582 90.5046 48.4541C90.2011 48.1499 89.9846 47.7701 89.8774 47.354C89.7703 46.9379 89.7765 46.5007 89.8954 46.0878L90.8225 42.8681C90.9414 42.4552 91.1686 42.0817 91.4806 41.7863C91.7926 41.4909 92.178 41.2844 92.5967 41.1882C93.0155 41.092 93.4524 41.1097 93.862 41.2394C94.2716 41.3691 94.6391 41.606 94.9262 41.9257L98.6999 46.1308M136.537 25.2471L134.986 19.8186C134.868 19.4055 134.863 18.9683 134.971 18.5524C135.079 18.1366 135.296 17.7572 135.6 17.4537C135.905 17.1502 136.284 16.9337 136.701 16.8265C137.117 16.7194 137.554 16.7256 137.967 16.8445L141.186 17.7716C141.599 17.8905 141.973 18.1177 142.268 18.4297C142.564 18.7417 142.77 19.1271 142.866 19.5458C142.963 19.9646 142.945 20.4015 142.815 20.8111C142.685 21.2207 142.449 21.5882 142.129 21.8753L137.923 25.6513" stroke="white" stroke-width="1.5" stroke-linecap="round" stroke-linejoin="round"/>
</g>
<g clip-path="url(#clip1_1226_2753)">
<path d="M68.9099 223.732L68.6523 223.787L68.4367 223.938C64.9447 226.371 61.1489 227.519 57.5901 226.562C54.0525 225.605 50.3532 222.454 47.284 215.417C44.1446 208.218 44.4915 204.586 46.1611 202.586C47.0361 201.54 48.4104 200.747 50.3402 200.156C52.2692 199.568 54.6386 199.217 57.3759 198.971L57.8547 198.927L58.1935 198.584C61.4917 195.245 64.8148 193.066 67.8504 193.145C70.697 193.215 73.9642 195.34 77.0573 202.432C80.1272 209.472 79.9198 214.324 78.2118 217.567C76.4933 220.829 73.0694 222.83 68.9099 223.732Z" stroke="white" stroke-width="2.6465"/>
<path d="M57.6082 198.463C55.8536 194.44 53.5423 193.532 50.3236 194.936" stroke="white" stroke-width="1.58995" stroke-linecap="round" stroke-linejoin="round"/>
</g>
<g clip-path="url(#clip2_1226_2753)">
<path d="M159.974 235.455C153.925 235.524 147.978 238.934 144.475 240.646C143.803 239.661 143.073 238.716 142.29 237.817C138.866 233.874 134.03 232.377 134.03 232.377C134.03 232.377 133.983 238.496 136.642 242.471C132.52 244.896 129.902 250.427 129.902 250.427C129.902 250.427 134.908 251.181 139.705 249.118C140.792 248.653 141.851 248.124 142.876 247.534C145.28 250.599 149.174 256.272 154.596 258.969L151.339 264.886C155.969 265.152 161.173 262.911 163.295 261.88C178.059 264.573 185.631 256.431 186.225 253.83C186.794 251.343 183.54 240.606 169.117 236.626C167.677 234.811 163.934 230.498 159.613 228.71L159.974 235.455Z" stroke="white" stroke-width="2.6465" stroke-linejoin="round"/>
<path d="M177.182 251.761C178.181 251.989 179.176 251.365 179.404 250.366C179.633 249.367 179.008 248.372 178.009 248.143C177.01 247.915 176.015 248.539 175.787 249.538C175.558 250.537 176.183 251.532 177.182 251.761Z" fill="white"/>
<path d="M170.342 262.094C169.135 258.204 168.977 254.064 169.885 250.093C170.793 246.122 172.735 242.462 175.513 239.484" stroke="white" stroke-width="1.76433" stroke-miterlimit="20" stroke-linecap="round"/>
</g>
<g clip-path="url(#clip3_1226_2753)" filter="url(#filter0_d_1226_2753)">
<path d="M13.2981 110.826C10.7809 119.434 11.8725 128.459 16.6803 135.345C17.0589 135.887 17.6873 136.207 18.3626 136.202L19.7318 136.191C20.297 136.187 20.8386 135.945 21.2183 135.528C21.6004 135.109 21.7902 134.542 21.7423 133.976C21.1229 126.725 23.532 118.574 28.352 111.612C32.8609 105.102 38.9483 100.271 45.4951 98.0092C51.9708 95.7721 58.1151 96.3254 62.7964 99.5673C63.0134 99.717 63.2994 99.7204 63.5202 99.5755C65.9858 97.9532 67.6086 95.8401 68.4825 93.1134C68.484 93.1084 68.4856 93.1028 68.4871 93.0978C68.5507 92.88 68.4955 92.6449 68.3415 92.478C68.1835 92.3065 67.9459 92.2343 67.7189 92.2872C64.6298 93.0124 61.8773 92.2724 57.5903 90.5483C51.7184 86.5097 44.3861 85.3423 36.9365 87.2631C29.4946 89.1807 22.8221 93.9552 18.1487 100.706C15.9406 103.895 14.3212 107.326 13.2981 110.826ZM20.4271 134.366C20.3957 134.473 20.3405 134.572 20.2628 134.658C20.1223 134.812 19.9309 134.897 19.7222 134.899L18.353 134.91C18.1044 134.912 17.8757 134.798 17.7408 134.605C11.2866 125.362 11.877 112.034 19.2128 101.442C23.7091 94.9468 30.119 90.3562 37.2595 88.5155C44.366 86.6831 51.3461 87.7973 56.9142 91.6535C56.9541 91.6807 56.9965 91.7038 57.0406 91.7214C61.0111 93.3207 63.8786 94.1509 66.8662 93.7571C66.0849 95.5908 64.8862 97.0437 63.1638 98.2553C58.1855 94.9946 51.7814 94.4705 45.0734 96.7879C38.2688 99.1383 31.9532 104.142 27.2898 110.877C22.3023 118.082 19.8092 126.541 20.4547 134.087C20.4626 134.182 20.453 134.277 20.4271 134.366Z" fill="white"/>
<path d="M18.3575 135.556L18.3593 135.549M13.2981 110.826C10.7809 119.434 11.8725 128.459 16.6803 135.345C17.0589 135.887 17.6873 136.207 18.3626 136.202L19.7318 136.191C20.297 136.187 20.8386 135.945 21.2183 135.528C21.6004 135.109 21.7902 134.542 21.7423 133.976C21.1229 126.725 23.532 118.574 28.352 111.612C32.8609 105.102 38.9483 100.271 45.4951 98.0092C51.9708 95.7721 58.1151 96.3254 62.7964 99.5673C63.0134 99.717 63.2994 99.7204 63.5202 99.5755C65.9858 97.9532 67.6086 95.8401 68.4825 93.1134C68.484 93.1084 68.4856 93.1028 68.4871 93.0978C68.5507 92.88 68.4955 92.6449 68.3415 92.478C68.1835 92.3065 67.9459 92.2343 67.7189 92.2872C64.6298 93.0124 61.8773 92.2724 57.5903 90.5483C51.7184 86.5097 44.3861 85.3423 36.9365 87.2631C29.4946 89.1807 22.8221 93.9552 18.1487 100.706C15.9406 103.895 14.3212 107.326 13.2981 110.826ZM20.4271 134.366C20.3957 134.473 20.3405 134.572 20.2628 134.658C20.1223 134.812 19.9309 134.897 19.7222 134.899L18.353 134.91C18.1044 134.912 17.8757 134.798 17.7408 134.605C11.2866 125.362 11.877 112.034 19.2128 101.442C23.7091 94.9468 30.119 90.3562 37.2595 88.5155C44.366 86.6831 51.3461 87.7973 56.9142 91.6535C56.9541 91.6807 56.9965 91.7038 57.0406 91.7214C61.0111 93.3207 63.8786 94.1509 66.8662 93.7571C66.085 95.5908 64.8862 97.0437 63.1638 98.2553C58.1855 94.9946 51.7814 94.4705 45.0734 96.7879C38.2688 99.1383 31.9532 104.142 27.2898 110.877C22.3023 118.082 19.8092 126.541 20.4547 134.087C20.4626 134.182 20.453 134.277 20.4271 134.366Z" stroke="white" stroke-width="1.32325"/>
<path d="M32.0151 97.0304C31.9643 97.2041 31.9863 97.3985 32.0927 97.5623C32.2866 97.8622 32.6864 97.9488 32.9863 97.7548C35.9786 95.8238 39.3525 94.4153 43.0127 93.5687C43.361 93.488 43.5776 93.141 43.4968 92.7927C43.4159 92.4451 43.069 92.2284 42.7209 92.3086C38.9138 93.1897 35.403 94.6565 32.2846 96.6686C32.1492 96.7563 32.0572 96.8864 32.0151 97.0304Z" fill="white"/>
<path d="M25.5478 102.575C25.4801 102.807 25.5451 103.066 25.7354 103.238C26.0011 103.476 26.4103 103.455 26.6488 103.189C27.3696 102.388 28.124 101.625 28.8904 100.923C29.152 100.68 29.1708 100.273 28.9305 100.009C28.6889 99.746 28.2798 99.7281 28.0167 99.9691C27.2196 100.7 26.4356 101.492 25.6872 102.324C25.6208 102.399 25.5741 102.485 25.5478 102.575Z" fill="white"/>
<path d="M20.7839 126.593C20.7552 126.691 20.7491 126.797 20.7716 126.904C21.9881 132.79 24.9986 137.948 29.248 141.427C29.7301 141.822 30.3826 141.952 30.993 141.774L32.196 141.425C32.7069 141.276 33.1361 140.919 33.3739 140.444C33.6137 139.967 33.642 139.405 33.4526 138.903C31.1087 132.684 31.1987 124.919 33.7143 117.602C38.5363 103.547 50.7686 94.9631 60.982 98.4675C61.3201 98.5831 61.6878 98.4037 61.8034 98.0656C61.919 97.7302 61.7396 97.3598 61.4016 97.2442C50.5133 93.5088 37.5438 102.453 32.491 117.182C29.8835 124.777 29.7942 132.862 32.2424 139.358C32.3057 139.526 32.2974 139.704 32.2173 139.865C32.1388 140.021 32.0035 140.133 31.8349 140.183L30.6313 140.532C30.4303 140.59 30.2195 140.551 30.0675 140.426C26.0464 137.133 23.1944 132.238 22.0379 126.642C21.9657 126.292 21.6238 126.067 21.274 126.14C21.0309 126.19 20.8488 126.37 20.7839 126.593Z" fill="white" stroke="white" stroke-width="0.882166"/>
<g filter="url(#filter1_d_1226_2753)">
<path d="M30.6003 126.121C30.566 126.239 30.5649 126.367 30.6035 126.493C32.7651 133.494 37.707 139.083 43.8227 141.442C44.3518 141.645 44.9525 141.572 45.4291 141.246L46.3237 140.633C46.7231 140.359 46.9922 139.928 47.0625 139.45C47.133 138.969 46.9977 138.475 46.6919 138.095C43.0985 133.636 41.0863 127.256 41.1701 120.588C41.2481 114.357 43.1248 108.495 46.4544 104.086C49.7364 99.7373 54.0016 97.374 58.4651 97.4299C58.8219 97.4352 59.1143 97.1495 59.1198 96.792C59.1244 96.435 58.8383 96.1418 58.4811 96.1378C53.5969 96.0761 48.9589 98.6221 45.4225 103.306C41.9281 107.934 39.9589 114.067 39.8768 120.572C39.7895 127.535 41.9067 134.218 45.6853 138.907C45.7674 139.008 45.8018 139.135 45.7837 139.262C45.7661 139.389 45.6978 139.495 45.5927 139.567L44.6987 140.18C44.574 140.265 44.4197 140.286 44.2883 140.236C38.5389 138.018 33.8848 132.738 31.8391 126.112C31.7341 125.771 31.3715 125.58 31.0303 125.685C30.8144 125.751 30.6593 125.92 30.6003 126.121Z" fill="white"/>
<path d="M30.6003 126.121C30.566 126.239 30.5649 126.367 30.6035 126.493C32.7651 133.494 37.707 139.083 43.8227 141.442C44.3518 141.645 44.9525 141.572 45.4291 141.246L46.3237 140.633C46.7231 140.359 46.9922 139.928 47.0625 139.45C47.133 138.969 46.9977 138.475 46.6919 138.095C43.0985 133.636 41.0863 127.256 41.1701 120.588C41.2481 114.357 43.1248 108.495 46.4544 104.086C49.7364 99.7373 54.0016 97.374 58.4651 97.4299C58.8219 97.4352 59.1143 97.1495 59.1198 96.792C59.1244 96.435 58.8383 96.1418 58.4811 96.1378C53.5969 96.0761 48.9589 98.6221 45.4225 103.306C41.9281 107.934 39.9589 114.067 39.8768 120.572C39.7895 127.535 41.9067 134.218 45.6853 138.907C45.7674 139.008 45.8018 139.135 45.7837 139.262C45.7661 139.389 45.6978 139.495 45.5927 139.567L44.6987 140.18C44.574 140.265 44.4197 140.286 44.2883 140.236C38.5389 138.018 33.8848 132.738 31.8391 126.112C31.7341 125.771 31.3715 125.58 31.0303 125.685C30.8144 125.751 30.6593 125.92 30.6003 126.121Z" stroke="white" stroke-width="0.882166"/>
</g>
</g>
<path d="M142.501 203.342C176.417 203.342 203.91 175.849 203.91 141.933C203.91 108.018 176.417 80.5245 142.501 80.5245C108.586 80.5245 81.0925 108.018 81.0925 141.933C81.0925 175.849 108.586 203.342 142.501 203.342Z" fill="#68BAFF"/>
<path d="M162.377 166.649L159.215 171.874C158.283 173.413 157.791 175.178 157.791 176.978V177.135C157.791 178.662 156.553 179.9 155.026 179.901C152.374 179.902 150.223 177.753 150.223 175.101C150.223 172.594 149.228 170.19 147.455 168.417L146.285 167.247C144.05 165.012 142.794 161.98 142.794 158.819V151.308C142.794 148.937 140.871 147.014 138.5 147.014H137.609C134.071 147.014 131.203 144.146 131.203 140.608V136.698C131.203 132.985 134.213 129.976 137.926 129.976H159.337L166.224 136.863C168.221 138.859 169.342 141.567 169.342 144.391V147.312C169.342 148.898 170.628 150.184 172.215 150.184C173.461 150.184 174.087 151.689 173.208 152.573L170.368 155.43C168.272 157.539 166.438 159.893 164.907 162.441L162.377 166.649Z" fill="#8AEF81"/>
<path d="M150.867 92.5006H160.211C161.97 92.5006 163.396 93.9265 163.396 95.6857C163.396 97.4449 161.97 98.8708 160.211 98.8708H147.3H135.313C133.805 98.8708 132.583 100.093 132.583 101.601V102.117C132.583 103.318 132.106 104.468 131.258 105.317L129.767 106.808C127.742 108.833 126.604 111.58 126.604 114.443V117.902C126.604 119.11 127.583 120.088 128.79 120.088H131.359C133.432 120.088 135.112 118.408 135.112 116.335C135.112 115.057 135.62 113.832 136.523 112.929L137.841 111.611C138.744 110.708 139.969 110.2 141.247 110.2H146.326C149.305 110.2 152.162 111.384 154.269 113.491L156.805 116.027C159.774 118.995 161.442 123.021 161.442 127.22V131.815H165.62C169.644 131.815 173.503 133.414 176.348 136.259L178.379 138.29C180.518 140.429 183.986 140.429 186.125 138.29C188.304 136.111 188.304 132.579 186.125 130.4L185.285 129.559C183.487 127.761 184.76 124.687 187.303 124.687H193.979H201.108C201.066 124.645 201.035 124.121 201.014 123.252C195.559 106.153 182.82 92.3059 166.441 85.366H150.867C148.897 85.366 147.3 86.9631 147.3 88.9333C147.3 90.9035 148.897 92.5006 150.867 92.5006Z" fill="#8AEF81"/>
<path d="M117.406 155.957V151.4C117.406 148.135 116.109 145.005 113.801 142.697L113.752 142.648C112.264 141.16 110.245 140.323 108.139 140.323C106.122 140.323 104.187 139.522 102.761 138.096L100.523 135.858C98.2291 133.564 95.1176 132.275 91.8731 132.275H82.4536L81.7434 132.985C81.3171 135.906 81.0927 138.893 81.0927 141.933C81.0927 160.44 89.2802 177.033 102.229 188.292V185.696C102.229 180.496 104.295 175.51 107.972 171.832L112.851 166.953C115.768 164.037 117.406 160.081 117.406 155.957Z" fill="#8AEF81"/>
<path d="M187.726 96.7095C175.646 84.6295 159.584 77.9769 142.501 77.9769C125.418 77.9769 109.357 84.6295 97.2766 96.7095C85.1966 108.789 78.5441 124.851 78.5441 141.934C78.5441 159.017 85.1966 175.078 97.2766 187.158C109.357 199.238 125.418 205.891 142.501 205.891C159.584 205.891 175.646 199.238 187.726 187.158C199.806 175.078 206.458 159.017 206.458 141.934C206.458 124.851 199.806 108.789 187.726 96.7095ZM197.934 122.14H187.302C185.109 122.14 183.15 123.449 182.311 125.474C181.472 127.5 181.931 129.811 183.482 131.361L184.323 132.202C185.504 133.384 185.504 135.307 184.323 136.488C183.769 137.042 183.034 137.347 182.251 137.347C181.468 137.347 180.733 137.042 180.179 136.488L178.149 134.458C174.802 131.111 170.352 129.268 165.619 129.268H163.989V127.22C163.989 122.311 162.077 117.696 158.606 114.225L156.07 111.689C153.467 109.086 150.006 107.652 146.324 107.652H141.246C139.279 107.652 137.429 108.418 136.038 109.809L134.72 111.127C133.329 112.518 132.563 114.367 132.563 116.335C132.563 116.999 132.023 117.54 131.358 117.54H129.151V114.443C129.151 112.239 130.01 110.167 131.568 108.609L133.058 107.119C134.394 105.783 135.13 104.006 135.13 102.117V101.6C135.13 101.5 135.212 101.419 135.312 101.419H160.21C163.372 101.419 165.943 98.8468 165.943 95.6854C165.943 92.524 163.372 89.9529 160.21 89.9529H150.866C150.304 89.9529 149.847 89.4958 149.847 88.9337C149.847 88.3716 150.304 87.9145 150.866 87.9145H165.866C180.735 94.3708 192.436 106.79 197.934 122.14ZM169.95 152.238L168.56 153.635C166.322 155.886 164.358 158.408 162.722 161.129L160.195 165.333L157.034 170.555C155.861 172.492 155.242 174.713 155.242 176.979V177.135C155.242 177.256 155.144 177.353 155.023 177.353H155.022C154.421 177.353 153.856 177.119 153.431 176.694C153.005 176.269 152.771 175.704 152.771 175.102C152.771 171.896 151.523 168.883 149.256 166.616L148.086 165.446C146.316 163.676 145.341 161.323 145.341 158.819V151.309C145.341 147.536 142.272 144.467 138.499 144.467H137.609C135.481 144.467 133.75 142.736 133.75 140.609V136.699C133.75 134.397 135.623 132.524 137.925 132.524H158.281L164.422 138.665C165.951 140.195 166.794 142.229 166.794 144.392V147.313C166.794 149.494 168.088 151.378 169.95 152.238ZM83.6402 141.934C83.6402 139.528 83.7888 137.156 84.0709 134.824H91.8729C94.4599 134.824 96.8921 135.832 98.7211 137.661L100.959 139.898C102.877 141.816 105.426 142.872 108.139 142.872C109.579 142.872 110.932 143.433 111.95 144.451L111.999 144.5C113.842 146.343 114.857 148.794 114.857 151.401V155.958C114.857 159.431 113.505 162.696 111.049 165.152L106.17 170.032C102.745 173.457 100.579 177.806 99.9065 182.518C89.8329 171.95 83.6402 157.652 83.6402 141.934ZM142.501 200.795C128.158 200.795 115 195.636 104.777 187.079V185.697C104.777 181.141 106.551 176.857 109.773 173.635L114.653 168.756C118.071 165.337 119.953 160.793 119.953 155.958V151.401C119.953 147.433 118.408 143.702 115.602 140.897L115.553 140.848C113.573 138.867 110.94 137.776 108.139 137.776C106.788 137.776 105.517 137.25 104.562 136.295L102.325 134.058C99.5327 131.266 95.8209 129.728 91.8726 129.728H84.9163C90.5522 103.11 114.229 83.0731 142.501 83.0731C144.474 83.0731 146.424 83.1725 148.348 83.3631C146.229 84.3247 144.751 86.4593 144.751 88.9337C144.751 92.3058 147.494 95.0491 150.866 95.0491H160.21C160.561 95.0491 160.847 95.335 160.847 95.6861C160.847 96.0373 160.561 96.3232 160.21 96.3232H135.312C132.402 96.3232 130.034 98.6908 130.034 101.601V102.118C130.034 102.646 129.829 103.142 129.455 103.516L127.964 105.006C125.444 107.527 124.055 110.879 124.055 114.444V117.902C124.055 120.513 126.179 122.637 128.79 122.637H131.358C134.833 122.637 137.66 119.81 137.66 116.335C137.66 115.729 137.896 115.159 138.324 114.731L139.641 113.414C139.693 113.362 139.747 113.314 139.802 113.267C139.845 113.317 139.888 113.367 139.934 113.414L145.013 118.493C144.037 119.489 144.042 121.088 145.031 122.077C145.528 122.575 146.18 122.824 146.832 122.824C147.484 122.824 148.137 122.575 148.634 122.077L150.418 120.294C151.413 119.299 151.413 117.685 150.418 116.69L146.481 112.753C148.742 112.793 150.863 113.69 152.466 115.293L155.002 117.829C157.511 120.338 158.892 123.673 158.892 127.221V127.429H137.925C132.813 127.429 128.654 131.588 128.654 136.7V140.609C128.654 145.546 132.671 149.563 137.608 149.563H138.498C139.461 149.563 140.244 150.346 140.244 151.309V158.82C140.244 162.684 141.749 166.317 144.482 169.05L145.652 170.22C146.956 171.524 147.674 173.258 147.674 175.102C147.674 177.066 148.439 178.911 149.827 180.299C151.215 181.686 153.06 182.45 155.021 182.45H155.025C157.955 182.449 160.338 180.065 160.338 177.136V176.979C160.338 175.644 160.703 174.336 161.394 173.194L164.556 167.97C164.557 167.968 164.559 167.965 164.56 167.963L167.09 163.755C168.515 161.385 170.225 159.189 172.175 157.228L175.015 154.371C176.143 153.236 176.475 151.548 175.861 150.07C175.246 148.593 173.815 147.638 172.214 147.638C172.035 147.638 171.89 147.492 171.89 147.313V144.392C171.89 140.868 170.518 137.555 168.025 135.062L167.461 134.498C170.134 134.886 172.601 136.118 174.546 138.062L176.576 140.093C178.141 141.657 180.196 142.44 182.251 142.44C184.306 142.44 186.362 141.657 187.926 140.093C189.461 138.558 190.307 136.517 190.307 134.346C190.307 132.175 189.461 130.135 187.926 128.599L187.085 127.758C187.035 127.708 186.941 127.614 187.019 127.425C187.097 127.236 187.23 127.236 187.302 127.236H199.504C200.717 131.936 201.362 136.861 201.362 141.934C201.362 174.39 174.957 200.795 142.501 200.795Z" fill="#441263"/>
<path d="M125.429 99.6356C126.837 99.6356 127.978 98.4948 127.978 97.0875V91.8624C127.978 90.4551 126.837 89.3143 125.429 89.3143C124.022 89.3143 122.881 90.4551 122.881 91.8624V97.0875C122.881 98.4948 124.022 99.6356 125.429 99.6356Z" fill="#441263"/>
<path d="M193.308 158.148C191.989 157.656 190.522 158.326 190.03 159.645C182.673 179.381 163.572 192.641 142.502 192.641C141.094 192.641 139.953 193.782 139.953 195.189C139.953 196.596 141.094 197.737 142.502 197.737C154.106 197.737 165.232 194.208 174.677 187.533C183.911 181.005 190.871 171.978 194.805 161.425C195.297 160.107 194.627 158.639 193.308 158.148Z" fill="#441263"/>
<path d="M130.126 191.121C127.651 190.5 125.203 189.683 122.851 188.694C121.553 188.147 120.059 188.757 119.514 190.054C118.968 191.351 119.577 192.845 120.874 193.391C123.465 194.481 126.161 195.381 128.886 196.064C129.095 196.117 129.303 196.142 129.508 196.142C130.649 196.142 131.688 195.369 131.978 194.213C132.32 192.847 131.491 191.463 130.126 191.121Z" fill="#441263"/>
<path d="M248.543 228.951C258.745 194.183 254.794 183.42 251.543 182.384" stroke="url(#paint0_linear_1226_2753)" stroke-width="2" stroke-linecap="round"/>
<path d="M235.028 231.854C251.203 199.431 249.213 188.14 246.196 186.547" stroke="url(#paint1_linear_1226_2753)" stroke-width="2" stroke-linecap="round"/>
<path d="M220.708 231.687C242.671 202.868 242.831 191.404 240.165 189.274" stroke="url(#paint2_linear_1226_2753)" stroke-width="2" stroke-linecap="round"/>
<defs>
<filter id="filter0_d_1226_2753" x="-2.61509" y="77.0958" width="80.1259" height="80.1259" filterUnits="userSpaceOnUse" color-interpolation-filters="sRGB">
<feFlood flood-opacity="0" result="BackgroundImageFix"/>
<feColorMatrix in="SourceAlpha" type="matrix" values="0 0 0 0 0 0 0 0 0 0 0 0 0 0 0 0 0 0 127 0" result="hardAlpha"/>
<feOffset dy="3.52866"/>
<feGaussianBlur stdDeviation="1.76433"/>
<feComposite in2="hardAlpha" operator="out"/>
<feColorMatrix type="matrix" values="0 0 0 0 0 0 0 0 0 0 0 0 0 0 0 0 0 0 0.25 0"/>
<feBlend mode="normal" in2="BackgroundImageFix" result="effect1_dropShadow_1226_2753"/>
<feBlend mode="normal" in="SourceGraphic" in2="effect1_dropShadow_1226_2753" result="shape"/>
</filter>
<filter id="filter1_d_1226_2753" x="26.6048" y="95.6956" width="36.4848" height="53.3582" filterUnits="userSpaceOnUse" color-interpolation-filters="sRGB">
<feFlood flood-opacity="0" result="BackgroundImageFix"/>
<feColorMatrix in="SourceAlpha" type="matrix" values="0 0 0 0 0 0 0 0 0 0 0 0 0 0 0 0 0 0 127 0" result="hardAlpha"/>
<feOffset dy="3.52866"/>
<feGaussianBlur stdDeviation="1.76433"/>
<feComposite in2="hardAlpha" operator="out"/>
<feColorMatrix type="matrix" values="0 0 0 0 0 0 0 0 0 0 0 0 0 0 0 0 0 0 0.25 0"/>
<feBlend mode="normal" in2="BackgroundImageFix" result="effect1_dropShadow_1226_2753"/>
<feBlend mode="normal" in="SourceGraphic" in2="effect1_dropShadow_1226_2753" result="shape"/>
</filter>
<linearGradient id="paint0_linear_1226_2753" x1="239.728" y1="223.988" x2="260.379" y2="187.31" gradientUnits="userSpaceOnUse">
<stop stop-color="white"/>
<stop offset="1" stop-color="white" stop-opacity="0"/>
</linearGradient>
<linearGradient id="paint1_linear_1226_2753" x1="227.227" y1="225.414" x2="254.024" y2="192.954" gradientUnits="userSpaceOnUse">
<stop stop-color="white"/>
<stop offset="1" stop-color="white" stop-opacity="0"/>
</linearGradient>
<linearGradient id="paint2_linear_1226_2753" x1="214.252" y1="223.899" x2="246.655" y2="197.034" gradientUnits="userSpaceOnUse">
<stop stop-color="white"/>
<stop offset="1" stop-color="white" stop-opacity="0"/>
</linearGradient>
<clipPath id="clip0_1226_2753">
<rect width="57.7681" height="57.7681" fill="white" transform="translate(82.0729 55.8597) rotate(-73.9368)"/>
</clipPath>
<clipPath id="clip1_1226_2753">
<rect width="42.1381" height="42.1381" fill="white" transform="translate(34.4362 198.036) rotate(-23.5624)"/>
</clipPath>
<clipPath id="clip2_1226_2753">
<rect width="59.3756" height="59.3756" fill="white" transform="translate(136.772 212.067) rotate(12.8816)"/>
</clipPath>
<clipPath id="clip3_1226_2753">
<rect width="58.9065" height="58.9065" fill="white" transform="matrix(0.280588 -0.959828 -0.959828 -0.280588 57.4537 150.164)"/>

<svg width="307" height="321" viewBox="0 0 307 321" fill="none" xmlns="http://www.w3.org/2000/svg">
<path d="M249.443 84.5685L237.948 91.815" stroke="white" stroke-width="1.25739"/>
<path d="M240.037 72.208L266.407 67.4971C266.676 67.449 267.698 68.7089 268.175 69.3448L269.489 73.8233L279.458 77.9227L304.929 164.722L276.817 177.051C272.247 176.331 262.936 174.828 262.247 174.582C261.559 174.336 261.169 173.821 261.06 173.594L237.675 91.6722L240.896 78.9193L239.832 75.2955C239.129 73.6695 239.491 72.8726 240.037 72.208Z" stroke="white" stroke-width="2"/>
<path d="M240.99 79.0911L252.805 76.6969M252.805 76.6969C252.721 75.8674 252.654 74.0708 253.065 73.521M252.805 76.6969L252.918 77.0811C253.093 78.0828 254.545 80.1083 258.958 80.1962C263.371 80.2841 265.699 78.7942 266.312 78.0382C266.415 76.8474 266.512 74.3153 266.079 73.7132M253.065 73.521C253.579 72.8339 261.498 70.5696 265.537 72.9606C266.005 73.2375 266.163 73.4889 266.079 73.7132M253.065 73.521C250.767 75.5659 265.441 75.4257 266.079 73.7132" stroke="white"/>
<path d="M266.37 75.4072C265.891 76.3622 263.93 78.2298 259.918 78.06C254.903 77.8477 253.054 77.169 252.704 76.3142" stroke="white"/>
<path d="M240.911 79.4463C243.681 80.7281 249.291 83.4194 249.567 83.9298C249.844 84.4401 267.891 146.192 276.881 177.004" stroke="white" stroke-width="2"/>
<path d="M249.843 84.572L279.492 77.9166" stroke="white" stroke-width="2"/>
<path d="M269.438 74.0284L266.616 74.5125" stroke="white" stroke-width="0.628697"/>
<g clip-path="url(#clip0_1060_2372)">
<path d="M110.572 52.6589C110.072 54.3974 110.282 56.2635 111.158 57.8468C112.033 59.43 113.501 60.6007 115.24 61.1013C134.066 66.522 153.72 55.656 159.14 36.8302C159.641 35.0917 159.43 33.2256 158.555 31.6423C157.68 30.059 156.211 28.8884 154.473 28.3878C152.734 27.8872 150.868 28.0977 149.285 28.9731C147.702 29.8484 146.531 31.3168 146.03 33.0553C144.428 38.6184 140.682 43.3174 135.616 46.1185C130.549 48.9195 124.578 49.5932 119.015 47.9914C117.276 47.4908 115.41 47.7013 113.827 48.5767C112.244 49.452 111.073 50.9204 110.572 52.6589Z" stroke="white" stroke-width="2" stroke-linecap="round" stroke-linejoin="round"/>
<path d="M110.392 53.473L104.239 55.2304C103.77 55.3642 103.275 55.3702 102.803 55.2478C102.332 55.1253 101.902 54.8789 101.558 54.5342C101.214 54.1894 100.968 53.7588 100.847 53.2872C100.725 52.8155 100.733 52.3199 100.867 51.8519L101.918 48.2021C102.053 47.734 102.311 47.3106 102.664 46.9757C103.018 46.6409 103.455 46.4068 103.929 46.2978C104.404 46.1887 104.899 46.2088 105.364 46.3558C105.828 46.5028 106.245 46.7714 106.57 47.1338L110.848 51.9005M153.739 28.2274L151.981 22.0738C151.847 21.6055 151.841 21.1099 151.964 20.6385C152.086 20.1671 152.333 19.737 152.677 19.393C153.022 19.0489 153.453 18.8035 153.924 18.682C154.396 18.5606 154.892 18.5676 155.36 18.7024L159.009 19.7533C159.477 19.8881 159.901 20.1457 160.236 20.4993C160.571 20.853 160.805 21.2899 160.914 21.7646C161.023 22.2393 161.003 22.7345 160.856 23.1988C160.709 23.6632 160.44 24.0797 160.078 24.4052L155.31 28.6856" stroke="white" stroke-width="1.5" stroke-linecap="round" stroke-linejoin="round"/>
</g>
<g clip-path="url(#clip1_1060_2372)">
<path d="M77.0787 253.225L76.7866 253.287L76.5423 253.458C72.5838 256.216 68.2809 257.517 64.2468 256.432C60.2367 255.348 56.0433 251.776 52.5641 243.798C49.0053 235.638 49.3986 231.521 51.2912 229.254C52.2831 228.068 53.841 227.17 56.0286 226.5C58.2152 225.833 60.9011 225.435 64.004 225.156L64.5468 225.106L64.9308 224.717C68.6696 220.933 72.4366 218.463 75.8777 218.551C79.1044 218.632 82.808 221.04 86.3143 229.08C89.7943 237.059 89.5592 242.56 87.623 246.235C85.675 249.934 81.7938 252.202 77.0787 253.225Z" stroke="white" stroke-width="1.80233"/>
<path d="M64.2674 224.58C62.2784 220.02 59.6584 218.991 56.0098 220.582" stroke="white" stroke-width="1.80233" stroke-linecap="round" stroke-linejoin="round"/>
</g>
<g clip-path="url(#clip2_1060_2372)">
<path d="M180.306 266.512C173.45 266.591 166.708 270.457 162.738 272.397C161.976 271.28 161.149 270.209 160.26 269.19C156.379 264.721 150.897 263.023 150.897 263.023C150.897 263.023 150.844 269.96 153.858 274.466C149.185 277.215 146.218 283.485 146.218 283.485C146.218 283.485 151.893 284.339 157.33 282.001C158.563 281.474 159.763 280.874 160.925 280.206C163.65 283.68 168.064 290.11 174.21 293.168L170.519 299.875C175.767 300.176 181.665 297.636 184.071 296.468C200.807 299.52 209.391 290.29 210.065 287.343C210.709 284.523 207.02 272.352 190.671 267.84C189.039 265.783 184.795 260.893 179.897 258.867L180.306 266.512Z" stroke="white" stroke-width="1.5" stroke-linejoin="round"/>
<path d="M199.813 284.997C200.945 285.256 202.073 284.548 202.332 283.415C202.591 282.283 201.883 281.155 200.751 280.896C199.618 280.637 198.49 281.345 198.231 282.477C197.972 283.61 198.68 284.738 199.813 284.997Z" fill="white"/>
<path d="M192.06 296.71C190.691 292.3 190.512 287.607 191.541 283.106C192.571 278.605 194.772 274.456 197.921 271.08" stroke="white" stroke-width="1.5" stroke-miterlimit="20" stroke-linecap="round"/>
</g>
<g clip-path="url(#clip3_1060_2372)" filter="url(#filter0_d_1060_2372)">
<path d="M14.0392 125.236C11.1858 134.994 12.4232 145.225 17.8732 153.03C18.3023 153.644 19.0147 154.008 19.7801 154.002L21.3323 153.99C21.973 153.984 22.5869 153.71 23.0174 153.238C23.4505 152.762 23.6657 152.12 23.6113 151.478C22.9092 143.259 25.64 134.019 31.1039 126.127C36.2151 118.747 43.1156 113.271 50.5369 110.707C57.8775 108.172 64.8426 108.799 70.1492 112.474C70.3952 112.643 70.7193 112.647 70.9697 112.483C73.7646 110.644 75.6042 108.249 76.5948 105.158C76.5965 105.152 76.5983 105.146 76.6 105.14C76.6722 104.893 76.6095 104.627 76.435 104.437C76.2559 104.243 75.9866 104.161 75.7292 104.221C72.2275 105.043 69.1073 104.204 64.2477 102.25C57.5915 97.6719 49.2798 96.3486 40.8351 98.526C32.3991 100.7 24.8354 106.112 19.5377 113.764C17.0346 117.379 15.1989 121.269 14.0392 125.236ZM22.1204 151.921C22.0848 152.042 22.0222 152.155 21.9342 152.252C21.7749 152.426 21.5579 152.523 21.3214 152.525L19.7693 152.537C19.4875 152.539 19.2283 152.41 19.0754 152.191C11.759 141.714 12.4283 126.606 20.7439 114.599C25.8409 107.236 33.1069 102.032 41.2013 99.9457C49.257 97.8685 57.1694 99.1315 63.4813 103.503C63.5265 103.534 63.5746 103.56 63.6245 103.58C68.1254 105.393 71.376 106.334 74.7626 105.887C73.877 107.966 72.5181 109.613 70.5657 110.986C64.9224 107.29 57.6628 106.696 50.0588 109.323C42.3454 111.987 35.1861 117.659 29.8998 125.294C24.2461 133.461 21.42 143.05 22.1517 151.605C22.1606 151.713 22.1498 151.82 22.1204 151.921Z" fill="white"/>
<path d="M35.2563 109.598C35.1987 109.794 35.2236 110.015 35.3442 110.201C35.564 110.54 36.0172 110.639 36.3571 110.419C39.7492 108.23 43.5737 106.633 47.7228 105.673C48.1176 105.582 48.3631 105.189 48.2716 104.794C48.1799 104.4 47.7866 104.154 47.392 104.245C43.0764 105.244 39.0967 106.907 35.5617 109.187C35.4082 109.287 35.304 109.434 35.2563 109.598Z" fill="white"/>
<path d="M27.9248 115.884C27.8481 116.146 27.9217 116.44 28.1375 116.634C28.4387 116.905 28.9026 116.88 29.1729 116.58C29.99 115.671 30.8451 114.807 31.7139 114.011C32.0105 113.735 32.0317 113.274 31.7594 112.975C31.4855 112.676 31.0218 112.656 30.7235 112.929C29.8199 113.758 28.9313 114.656 28.0828 115.599C28.0076 115.684 27.9546 115.781 27.9248 115.884Z" fill="white"/>
<path d="M22.5249 143.108C22.4924 143.219 22.4855 143.339 22.5109 143.461C23.89 150.133 27.3025 155.98 32.1196 159.924C32.6661 160.372 33.4057 160.519 34.0977 160.318L35.4614 159.921C36.0405 159.753 36.5271 159.348 36.7966 158.81C37.0685 158.269 37.1005 157.632 36.8858 157.062C34.2288 150.013 34.3309 141.211 37.1824 132.917C42.6486 116.985 56.5148 107.254 68.0924 111.226C68.4756 111.357 68.8925 111.154 69.0236 110.771C69.1546 110.391 68.9513 109.971 68.5681 109.84C56.2254 105.605 41.5235 115.745 35.7957 132.441C32.84 141.05 32.7387 150.215 35.5139 157.579C35.5858 157.769 35.5764 157.971 35.4855 158.154C35.3966 158.33 35.2432 158.458 35.052 158.513L33.6877 158.909C33.4598 158.976 33.2209 158.931 33.0486 158.789C28.4904 155.056 25.2574 149.507 23.9465 143.164C23.8646 142.767 23.477 142.513 23.0805 142.595C22.8049 142.652 22.5985 142.856 22.5249 143.108Z" fill="white"/>
<path d="M33.6523 142.574C33.6134 142.707 33.6121 142.853 33.6559 142.995C36.1063 150.932 41.7083 157.267 48.6408 159.941C49.2406 160.172 49.9215 160.089 50.4618 159.719L51.4759 159.025C51.9287 158.714 52.2337 158.224 52.3134 157.683C52.3933 157.138 52.2399 156.578 51.8933 156.147C47.8199 151.093 45.5389 143.86 45.6339 136.302C45.7224 129.239 47.8497 122.594 51.624 117.595C55.3444 112.666 60.1794 109.987 65.2391 110.05C65.6436 110.056 65.975 109.732 65.9812 109.327C65.9865 108.922 65.6621 108.59 65.2572 108.585C59.7206 108.516 54.4631 111.402 50.4543 116.711C46.4931 121.957 44.2609 128.909 44.1678 136.283C44.0688 144.176 46.4688 151.752 50.7522 157.067C50.8453 157.182 50.8843 157.326 50.8637 157.47C50.8438 157.613 50.7664 157.734 50.6472 157.816L49.6339 158.511C49.4925 158.607 49.3176 158.631 49.1686 158.574C42.6513 156.06 37.3755 150.075 35.0565 142.564C34.9375 142.177 34.5265 141.961 34.1396 142.08C33.8949 142.154 33.7191 142.346 33.6523 142.574Z" fill="white"/>
</g>
<path d="M160.5 230.111C198.946 230.111 230.112 198.945 230.112 160.5C230.112 122.054 198.946 90.8882 160.5 90.8882C122.055 90.8882 90.8887 122.054 90.8887 160.5C90.8887 198.945 122.055 230.111 160.5 230.111Z" fill="#4C9BDD"/>
<path d="M183.03 188.517L179.446 194.439C178.389 196.184 177.831 198.186 177.831 200.225V200.403C177.831 202.134 176.428 203.538 174.697 203.539C171.691 203.54 169.253 201.104 169.253 198.098C169.253 195.256 168.124 192.531 166.115 190.521L164.789 189.195C162.255 186.661 160.831 183.224 160.831 179.641V171.127C160.831 168.439 158.652 166.26 155.964 166.26H154.954C150.944 166.26 147.692 163.008 147.692 158.997V154.566C147.692 150.357 151.104 146.945 155.313 146.945H179.584L187.391 154.752C189.654 157.015 190.926 160.085 190.926 163.285V166.597C190.926 168.395 192.384 169.853 194.182 169.853C195.595 169.853 196.304 171.559 195.309 172.561L192.088 175.8C189.712 178.19 187.634 180.858 185.898 183.747L183.03 188.517Z" fill="#92DD8C"/>
<path d="M169.983 104.464H180.575C182.569 104.464 184.186 106.081 184.186 108.075C184.186 110.069 182.569 111.685 180.575 111.685H165.939H152.351C150.642 111.685 149.256 113.071 149.256 114.78V115.366C149.256 116.726 148.716 118.031 147.754 118.993L146.064 120.683C143.769 122.978 142.479 126.092 142.479 129.338V133.259C142.479 134.628 143.589 135.737 144.957 135.737H147.869C150.219 135.737 152.124 133.832 152.124 131.482C152.124 130.034 152.699 128.645 153.723 127.621L155.216 126.128C156.24 125.104 157.629 124.528 159.078 124.528H164.835C168.212 124.528 171.451 125.87 173.84 128.258L176.714 131.133C180.079 134.498 181.97 139.062 181.97 143.821V149.03H186.706C191.267 149.03 195.642 150.842 198.867 154.068L201.169 156.37C203.594 158.795 207.526 158.795 209.951 156.37C212.42 153.9 212.42 149.896 209.951 147.426L208.998 146.473C206.959 144.435 208.403 140.95 211.285 140.95H218.854H226.935C226.887 140.902 226.852 140.308 226.828 139.324C220.644 119.94 206.203 104.244 187.637 96.3767H169.983C167.75 96.3767 165.939 98.1872 165.939 100.421C165.939 102.654 167.749 104.464 169.983 104.464Z" fill="#92DD8C"/>
<path d="M132.052 176.397V171.231C132.052 167.53 130.583 163.982 127.966 161.366L127.911 161.31C126.223 159.623 123.935 158.675 121.548 158.675C119.261 158.675 117.068 157.766 115.451 156.149L112.915 153.613C110.314 151.012 106.787 149.551 103.109 149.551H92.4314L91.6264 150.356C91.1431 153.668 90.8887 157.054 90.8887 160.499C90.8887 181.478 100.17 200.288 114.849 213.051V210.108C114.849 204.214 117.19 198.561 121.358 194.393L126.889 188.861C130.195 185.556 132.052 181.072 132.052 176.397Z" fill="#92DD8C"/>
<path d="M211.765 109.235C198.072 95.5412 179.865 88 160.5 88C141.135 88 122.928 95.5412 109.235 109.235C95.5412 122.928 88 141.135 88 160.5C88 179.865 95.5412 198.072 109.235 211.765C122.928 225.459 141.135 233 160.5 233C179.865 233 198.072 225.459 211.765 211.765C225.459 198.072 233 179.865 233 160.5C233 141.135 225.459 122.928 211.765 109.235ZM223.337 138.062H211.285C208.799 138.062 206.579 139.545 205.627 141.842C204.676 144.138 205.197 146.758 206.955 148.515L207.908 149.468C209.247 150.808 209.247 152.988 207.908 154.327C207.281 154.954 206.447 155.3 205.559 155.3C204.672 155.3 203.839 154.954 203.211 154.327L200.909 152.025C197.115 148.231 192.071 146.142 186.705 146.142H184.858V143.821C184.858 138.256 182.691 133.025 178.756 129.09L175.882 126.215C172.931 123.264 169.007 121.639 164.834 121.639H159.077C156.847 121.639 154.75 122.508 153.173 124.084L151.68 125.578C150.103 127.154 149.235 129.251 149.235 131.481C149.235 132.235 148.622 132.847 147.869 132.847H145.367V129.337C145.367 126.839 146.34 124.49 148.106 122.724L149.796 121.034C151.31 119.52 152.144 117.506 152.144 115.365V114.779C152.144 114.665 152.237 114.573 152.35 114.573H180.575C184.158 114.573 187.074 111.658 187.074 108.074C187.074 104.49 184.158 101.576 180.575 101.576H169.982C169.345 101.576 168.827 101.058 168.827 100.42C168.827 99.7831 169.345 99.2649 169.982 99.2649H186.986C203.841 106.584 217.105 120.662 223.337 138.062ZM191.615 172.18L190.04 173.764C187.503 176.316 185.276 179.174 183.422 182.259L180.557 187.025L176.975 192.944C175.645 195.14 174.942 197.658 174.942 200.226V200.403C174.942 200.54 174.831 200.651 174.695 200.651H174.694C174.012 200.651 173.371 200.385 172.889 199.904C172.407 199.422 172.142 198.781 172.142 198.098C172.142 194.465 170.727 191.048 168.157 188.479L166.831 187.153C164.825 185.146 163.719 182.478 163.719 179.641V171.127C163.719 166.851 160.24 163.371 155.963 163.371H154.954C152.543 163.371 150.58 161.41 150.58 158.998V154.566C150.58 151.957 152.704 149.834 155.313 149.834H178.388L185.348 156.795C187.082 158.529 188.037 160.834 188.037 163.286V166.597C188.037 169.07 189.505 171.206 191.615 172.18ZM93.7769 160.5C93.7769 157.772 93.9453 155.084 94.265 152.441H103.109C106.042 152.441 108.799 153.583 110.872 155.656L113.409 158.192C115.583 160.367 118.473 161.564 121.548 161.564C123.18 161.564 124.714 162.199 125.868 163.353L125.924 163.409C128.013 165.498 129.164 168.276 129.164 171.231V176.397C129.164 180.334 127.631 184.036 124.847 186.82L119.316 192.351C115.433 196.234 112.979 201.164 112.216 206.505C100.797 194.526 93.7769 178.317 93.7769 160.5ZM160.5 227.223C144.242 227.223 129.325 221.375 117.737 211.675V210.109C117.737 204.944 119.748 200.088 123.4 196.436L128.932 190.905C132.806 187.03 134.94 181.878 134.94 176.398V171.231C134.94 166.733 133.189 162.505 130.008 159.324L129.953 159.269C127.708 157.024 124.723 155.787 121.548 155.787C120.016 155.787 118.576 155.191 117.493 154.108L114.957 151.572C111.792 148.407 107.585 146.664 103.109 146.664H95.2234C101.612 116.49 128.452 93.7769 160.5 93.7769C162.737 93.7769 164.947 93.8895 167.128 94.1056C164.726 95.1957 163.05 97.6153 163.05 100.42C163.05 104.243 166.16 107.353 169.982 107.353H180.575C180.973 107.353 181.297 107.677 181.297 108.075C181.297 108.473 180.973 108.797 180.575 108.797H152.351C149.052 108.797 146.368 111.481 146.368 114.78V115.365C146.368 115.964 146.135 116.527 145.711 116.95L144.022 118.64C141.164 121.497 139.591 125.297 139.591 129.338V133.258C139.591 136.218 141.998 138.625 144.957 138.625H147.869C151.808 138.625 155.012 135.421 155.012 131.482C155.012 130.795 155.279 130.149 155.765 129.663L157.258 128.17C157.317 128.112 157.378 128.057 157.441 128.004C157.489 128.061 157.537 128.117 157.59 128.17L163.348 133.927C162.241 135.057 162.246 136.87 163.367 137.991C163.931 138.555 164.671 138.837 165.41 138.837C166.149 138.837 166.888 138.555 167.452 137.991L169.474 135.969C170.602 134.841 170.602 133.012 169.474 131.884L165.011 127.421C167.575 127.466 169.979 128.483 171.796 130.301L174.671 133.176C177.514 136.019 179.081 139.8 179.081 143.821V144.057H155.312C149.518 144.057 144.803 148.772 144.803 154.567V158.998C144.803 164.595 149.357 169.149 154.954 169.149H155.963C157.054 169.149 157.942 170.036 157.942 171.127V179.641C157.942 184.022 159.648 188.14 162.745 191.238L164.071 192.564C165.55 194.043 166.364 196.008 166.364 198.099C166.364 200.324 167.231 202.417 168.805 203.99C170.378 205.562 172.469 206.428 174.693 206.428C174.694 206.428 174.696 206.428 174.697 206.428C178.018 206.426 180.719 203.724 180.719 200.404V200.226C180.719 198.713 181.133 197.23 181.917 195.936L185.501 190.014C185.502 190.011 185.504 190.009 185.506 190.006L188.373 185.235C189.988 182.549 191.927 180.06 194.137 177.837L197.357 174.599C198.636 173.312 199.012 171.398 198.316 169.723C197.619 168.048 195.996 166.966 194.182 166.966C193.979 166.966 193.814 166.801 193.814 166.598V163.287C193.814 159.291 192.259 155.536 189.434 152.71L188.794 152.071C191.824 152.511 194.621 153.907 196.825 156.111L199.127 158.413C200.9 160.187 203.23 161.073 205.56 161.073C207.889 161.073 210.219 160.187 211.993 158.413C213.733 156.673 214.691 154.359 214.691 151.898C214.691 149.438 213.733 147.124 211.993 145.384L211.04 144.431C210.983 144.374 210.876 144.267 210.965 144.053C211.053 143.839 211.204 143.839 211.285 143.839H225.117C226.492 149.166 227.223 154.749 227.223 160.5C227.223 197.291 197.291 227.223 160.5 227.223Z" fill="#441263"/>
<path d="M141.148 112.552C142.743 112.552 144.036 111.259 144.036 109.663V103.74C144.036 102.145 142.743 100.852 141.148 100.852C139.552 100.852 138.259 102.145 138.259 103.74V109.663C138.259 111.259 139.552 112.552 141.148 112.552Z" fill="#441263"/>
<path d="M218.093 178.879C216.598 178.322 214.934 179.082 214.377 180.577C206.037 202.949 184.385 217.98 160.5 217.98C158.905 217.98 157.612 219.273 157.612 220.869C157.612 222.464 158.905 223.757 160.5 223.757C173.655 223.757 186.267 219.757 196.973 212.189C207.441 204.79 215.331 194.557 219.79 182.595C220.347 181.1 219.588 179.437 218.093 178.879Z" fill="#441263"/>
<path d="M146.472 216.257C143.666 215.554 140.891 214.627 138.224 213.506C136.753 212.886 135.06 213.578 134.442 215.048C133.823 216.518 134.513 218.212 135.984 218.83C138.92 220.066 141.976 221.086 145.066 221.861C145.302 221.92 145.539 221.948 145.771 221.948C147.065 221.948 148.242 221.073 148.571 219.762C148.959 218.214 148.019 216.645 146.472 216.257Z" fill="#441263"/>
<path d="M276.235 239.21C286.437 204.442 282.486 193.679 279.235 192.644" stroke="url(#paint0_linear_1060_2372)" stroke-width="1.73404" stroke-linecap="round"/>
<path d="M264.114 242.507C280.29 210.084 278.299 198.793 275.282 197.2" stroke="url(#paint1_linear_1060_2372)" stroke-width="1.73404" stroke-linecap="round"/>
<path d="M249.795 242.34C271.757 213.521 271.917 202.057 269.252 199.927" stroke="url(#paint2_linear_1060_2372)" stroke-width="1.73404" stroke-linecap="round"/>
<defs>
<filter id="filter0_d_1060_2372" x="-4.00012" y="87.0005" width="90.8287" height="90.8286" filterUnits="userSpaceOnUse" color-interpolation-filters="sRGB">
<feFlood flood-opacity="0" result="BackgroundImageFix"/>
<feColorMatrix in="SourceAlpha" type="matrix" values="0 0 0 0 0 0 0 0 0 0 0 0 0 0 0 0 0 0 127 0" result="hardAlpha"/>
<feOffset dy="4"/>
<feGaussianBlur stdDeviation="2"/>
<feComposite in2="hardAlpha" operator="out"/>
<feColorMatrix type="matrix" values="0 0 0 0 0 0 0 0 0 0 0 0 0 0 0 0 0 0 0.25 0"/>
<feBlend mode="normal" in2="BackgroundImageFix" result="effect1_dropShadow_1060_2372"/>
<feBlend mode="normal" in="SourceGraphic" in2="effect1_dropShadow_1060_2372" result="shape"/>
</filter>
<linearGradient id="paint0_linear_1060_2372" x1="267.42" y1="234.247" x2="288.07" y2="197.569" gradientUnits="userSpaceOnUse">
<stop stop-color="white"/>
<stop offset="1" stop-color="white" stop-opacity="0"/>
</linearGradient>
<linearGradient id="paint1_linear_1060_2372" x1="256.313" y1="236.067" x2="283.11" y2="203.607" gradientUnits="userSpaceOnUse">
<stop stop-color="white"/>
<stop offset="1" stop-color="white" stop-opacity="0"/>
</linearGradient>
<linearGradient id="paint2_linear_1060_2372" x1="243.338" y1="234.552" x2="275.741" y2="207.687" gradientUnits="userSpaceOnUse">
<stop stop-color="white"/>
<stop offset="1" stop-color="white" stop-opacity="0"/>
</linearGradient>
<clipPath id="clip0_1060_2372">
<rect width="65.4844" height="65.4844" fill="white" transform="translate(92 62.9277) rotate(-73.9368)"/>
</clipPath>
<clipPath id="clip1_1060_2372">
<rect width="47.7666" height="47.7666" fill="white" transform="translate(38 224.095) rotate(-23.5624)"/>
</clipPath>
<clipPath id="clip2_1060_2372">
<rect width="67.3067" height="67.3067" fill="white" transform="translate(154.005 240) rotate(12.8816)"/>
</clipPath>
<clipPath id="clip3_1060_2372">
<rect width="66.7749" height="66.7749" fill="white" transform="matrix(0.280588 -0.959828 -0.959828 -0.280588 64.0923 169.829)"/>

</clipPath>
</defs>
</svg>
